<?xml version="1.0" standalone="no"?>
 <!DOCTYPE svg PUBLIC "-//W3C//DTD SVG 1.1//EN" 
 "http://www.w3.org/Graphics/SVG/1.1/DTD/svg11.dtd"> 
<svg
  xmlns:svg="http://www.w3.org/2000/svg"
  xmlns="http://www.w3.org/2000/svg"
  xmlns:xlink="http://www.w3.org/1999/xlink"
  version="1.1"
  width="30.6578mm" height="22.8854mm" viewBox="0.0000 0.0000 30.6578 22.8854">
<title>SVG Image created as back pressure regulator.svg date 2024/12/16 15:01:29 </title>
  <desc>Image generated by Eeschema-SVG </desc>
<g style="fill:#000000; fill-opacity:1.0000;stroke:#000000; stroke-opacity:1.0000;
stroke-linecap:round; stroke-linejoin:round;"
 transform="translate(0 0) scale(1 1)">
<path style="fill:none; 
stroke:#840000; stroke-width:0.1524; stroke-opacity:1; 
stroke-linecap:round; stroke-linejoin:round;fill:none"
d="M 9.7046,13.7669
Z" /> 
<path style="fill:none; 
stroke:#840000; stroke-width:0.1524; stroke-opacity:1; 
stroke-linecap:round; stroke-linejoin:round;fill:none"
d="M 9.7046,13.7669
Z" /> 
<path style="fill:none; 
stroke:#840000; stroke-width:0.1524; stroke-opacity:1; 
stroke-linecap:round; stroke-linejoin:round;fill:none"
d="M 10.7846,12.9569
17.7846,12.9569
" /> 
<path style="fill:none; 
stroke:#840000; stroke-width:0.1524; stroke-opacity:1; 
stroke-linecap:round; stroke-linejoin:round;fill:none"
d="M 14.7846,4.2069
Z" /> 
<path style="fill:none; 
stroke:#840000; stroke-width:0.1000; stroke-opacity:1; 
stroke-linecap:round; stroke-linejoin:round;fill:none"
d="M 14.7846,6.9569
14.7846,9.9569
" /> 
<path style="fill:none; 
stroke:#840000; stroke-width:0.1000; stroke-opacity:1; 
stroke-linecap:round; stroke-linejoin:round;fill:none"
d="M 16.7846,6.9569
12.7846,6.9569
" /> 
<path style="fill:none; 
stroke:#840000; stroke-width:0.1000; stroke-opacity:1; 
stroke-linecap:round; stroke-linejoin:round;fill:none"
d="M 14.7846,9.9569
9.7846,7.9569
9.7846,11.9569
Z" /> 
<path style="fill:none; 
stroke:#840000; stroke-width:0.1000; stroke-opacity:1; 
stroke-linecap:round; stroke-linejoin:round;fill:none"
d="M 14.7846,9.9569
19.7846,7.9569
19.7846,11.9569
Z" /> 
<path style="fill:none; 
stroke:#840000; stroke-width:0.1000; stroke-opacity:1; 
stroke-linecap:round; stroke-linejoin:round;fill:none"
d="M 14.7846,8.9569
11.7846,6.9569
11.7846,3.9569
14.7846,3.9569
14.7846,4.9569
" /> 
<path style="fill:#840000; fill-opacity:1.0000; 
stroke:#840000; stroke-width:0.1000; stroke-opacity:1; 
stroke-linecap:round; stroke-linejoin:round;fill-rule:evenodd;"
d="M 17.7846,12.9569
17.7846,12.7069
18.7846,12.9569
17.7846,13.2069
Z" /> 
</g>
<g style="fill:none; 
stroke:#840000; stroke-width:0.1000; stroke-opacity:1; 
stroke-linecap:round; stroke-linejoin:round;">
<path d="M14.7846 4.9569 A1.9973 1.9973 0.0 0 0 12.7884 6.9569" />
<path d="M16.7846 6.9569 A1.9999 1.9999 0.0 0 0 14.7846 4.9573" />
</g>
<g style="fill:none; 
stroke:#840000; stroke-width:0.1524; stroke-opacity:1; 
stroke-linecap:round; stroke-linejoin:round;">
<path d="M9.7846 9.9569
L6.7846 9.9569
" />
<path d="M19.7846 9.9569
L22.7846 9.9569
" />
</g>
<g style="fill:none; 
stroke:#006464; stroke-width:0.1588; stroke-opacity:1; 
stroke-linecap:round; stroke-linejoin:round;">
<text x="14.7846" y="20.5920"
textLength="25.1384" font-size="1.6933" lengthAdjust="spacingAndGlyphs"
text-anchor="middle" opacity="0" stroke-opacity="0">Back_Pressure_Regulator?</text>
<g class="stroked-text"><desc>Back_Pressure_Regulator?</desc>
<path d="M3.0523 19.8710
L3.2337 19.9315
" />
<path d="M3.2337 19.9315
L3.2942 19.9919
" />
<path d="M3.2942 19.9919
L3.3546 20.1129
" />
<path d="M3.3546 20.1129
L3.3546 20.2943
" />
<path d="M3.3546 20.2943
L3.2942 20.4153
" />
<path d="M3.2942 20.4153
L3.2337 20.4758
" />
<path d="M3.2337 20.4758
L3.1127 20.5362
" />
<path d="M3.1127 20.5362
L2.6289 20.5362
" />
<path d="M2.6289 20.5362
L2.6289 19.2662
" />
<path d="M2.6289 19.2662
L3.0523 19.2662
" />
<path d="M3.0523 19.2662
L3.1732 19.3267
" />
<path d="M3.1732 19.3267
L3.2337 19.3872
" />
<path d="M3.2337 19.3872
L3.2942 19.5081
" />
<path d="M3.2942 19.5081
L3.2942 19.6291
" />
<path d="M3.2942 19.6291
L3.2337 19.7500
" />
<path d="M3.2337 19.7500
L3.1732 19.8105
" />
<path d="M3.1732 19.8105
L3.0523 19.8710
" />
<path d="M3.0523 19.8710
L2.6289 19.8710
" />
<path d="M4.4432 20.5362
L4.4432 19.8710
" />
<path d="M4.4432 19.8710
L4.3827 19.7500
" />
<path d="M4.3827 19.7500
L4.2618 19.6896
" />
<path d="M4.2618 19.6896
L4.0199 19.6896
" />
<path d="M4.0199 19.6896
L3.8989 19.7500
" />
<path d="M4.4432 20.4758
L4.3223 20.5362
" />
<path d="M4.3223 20.5362
L4.0199 20.5362
" />
<path d="M4.0199 20.5362
L3.8989 20.4758
" />
<path d="M3.8989 20.4758
L3.8385 20.3548
" />
<path d="M3.8385 20.3548
L3.8385 20.2338
" />
<path d="M3.8385 20.2338
L3.8989 20.1129
" />
<path d="M3.8989 20.1129
L4.0199 20.0524
" />
<path d="M4.0199 20.0524
L4.3223 20.0524
" />
<path d="M4.3223 20.0524
L4.4432 19.9919
" />
<path d="M5.5922 20.4758
L5.4713 20.5362
" />
<path d="M5.4713 20.5362
L5.2294 20.5362
" />
<path d="M5.2294 20.5362
L5.1084 20.4758
" />
<path d="M5.1084 20.4758
L5.0479 20.4153
" />
<path d="M5.0479 20.4153
L4.9875 20.2943
" />
<path d="M4.9875 20.2943
L4.9875 19.9315
" />
<path d="M4.9875 19.9315
L5.0479 19.8105
" />
<path d="M5.0479 19.8105
L5.1084 19.7500
" />
<path d="M5.1084 19.7500
L5.2294 19.6896
" />
<path d="M5.2294 19.6896
L5.4713 19.6896
" />
<path d="M5.4713 19.6896
L5.5922 19.7500
" />
<path d="M6.1365 20.5362
L6.1365 19.2662
" />
<path d="M6.2575 20.0524
L6.6203 20.5362
" />
<path d="M6.6203 19.6896
L6.1365 20.1734
" />
<path d="M6.8623 20.6572
L7.8299 20.6572
" />
<path d="M8.1322 20.5362
L8.1322 19.2662
" />
<path d="M8.1322 19.2662
L8.6160 19.2662
" />
<path d="M8.6160 19.2662
L8.7370 19.3267
" />
<path d="M8.7370 19.3267
L8.7975 19.3872
" />
<path d="M8.7975 19.3872
L8.8579 19.5081
" />
<path d="M8.8579 19.5081
L8.8579 19.6896
" />
<path d="M8.8579 19.6896
L8.7975 19.8105
" />
<path d="M8.7975 19.8105
L8.7370 19.8710
" />
<path d="M8.7370 19.8710
L8.6160 19.9315
" />
<path d="M8.6160 19.9315
L8.1322 19.9315
" />
<path d="M9.4022 20.5362
L9.4022 19.6896
" />
<path d="M9.4022 19.9315
L9.4627 19.8105
" />
<path d="M9.4627 19.8105
L9.5232 19.7500
" />
<path d="M9.5232 19.7500
L9.6441 19.6896
" />
<path d="M9.6441 19.6896
L9.7651 19.6896
" />
<path d="M10.6722 20.4758
L10.5513 20.5362
" />
<path d="M10.5513 20.5362
L10.3094 20.5362
" />
<path d="M10.3094 20.5362
L10.1884 20.4758
" />
<path d="M10.1884 20.4758
L10.1280 20.3548
" />
<path d="M10.1280 20.3548
L10.1280 19.8710
" />
<path d="M10.1280 19.8710
L10.1884 19.7500
" />
<path d="M10.1884 19.7500
L10.3094 19.6896
" />
<path d="M10.3094 19.6896
L10.5513 19.6896
" />
<path d="M10.5513 19.6896
L10.6722 19.7500
" />
<path d="M10.6722 19.7500
L10.7327 19.8710
" />
<path d="M10.7327 19.8710
L10.7327 19.9919
" />
<path d="M10.7327 19.9919
L10.1280 20.1129
" />
<path d="M11.2166 20.4758
L11.3375 20.5362
" />
<path d="M11.3375 20.5362
L11.5794 20.5362
" />
<path d="M11.5794 20.5362
L11.7004 20.4758
" />
<path d="M11.7004 20.4758
L11.7608 20.3548
" />
<path d="M11.7608 20.3548
L11.7608 20.2943
" />
<path d="M11.7608 20.2943
L11.7004 20.1734
" />
<path d="M11.7004 20.1734
L11.5794 20.1129
" />
<path d="M11.5794 20.1129
L11.3980 20.1129
" />
<path d="M11.3980 20.1129
L11.2770 20.0524
" />
<path d="M11.2770 20.0524
L11.2166 19.9315
" />
<path d="M11.2166 19.9315
L11.2166 19.8710
" />
<path d="M11.2166 19.8710
L11.2770 19.7500
" />
<path d="M11.2770 19.7500
L11.3980 19.6896
" />
<path d="M11.3980 19.6896
L11.5794 19.6896
" />
<path d="M11.5794 19.6896
L11.7004 19.7500
" />
<path d="M12.2447 20.4758
L12.3656 20.5362
" />
<path d="M12.3656 20.5362
L12.6075 20.5362
" />
<path d="M12.6075 20.5362
L12.7285 20.4758
" />
<path d="M12.7285 20.4758
L12.7889 20.3548
" />
<path d="M12.7889 20.3548
L12.7889 20.2943
" />
<path d="M12.7889 20.2943
L12.7285 20.1734
" />
<path d="M12.7285 20.1734
L12.6075 20.1129
" />
<path d="M12.6075 20.1129
L12.4261 20.1129
" />
<path d="M12.4261 20.1129
L12.3051 20.0524
" />
<path d="M12.3051 20.0524
L12.2447 19.9315
" />
<path d="M12.2447 19.9315
L12.2447 19.8710
" />
<path d="M12.2447 19.8710
L12.3051 19.7500
" />
<path d="M12.3051 19.7500
L12.4261 19.6896
" />
<path d="M12.4261 19.6896
L12.6075 19.6896
" />
<path d="M12.6075 19.6896
L12.7285 19.7500
" />
<path d="M13.8775 19.6896
L13.8775 20.5362
" />
<path d="M13.3332 19.6896
L13.3332 20.3548
" />
<path d="M13.3332 20.3548
L13.3937 20.4758
" />
<path d="M13.3937 20.4758
L13.5147 20.5362
" />
<path d="M13.5147 20.5362
L13.6961 20.5362
" />
<path d="M13.6961 20.5362
L13.8170 20.4758
" />
<path d="M13.8170 20.4758
L13.8775 20.4153
" />
<path d="M14.4822 20.5362
L14.4822 19.6896
" />
<path d="M14.4822 19.9315
L14.5427 19.8105
" />
<path d="M14.5427 19.8105
L14.6032 19.7500
" />
<path d="M14.6032 19.7500
L14.7241 19.6896
" />
<path d="M14.7241 19.6896
L14.8451 19.6896
" />
<path d="M15.7522 20.4758
L15.6313 20.5362
" />
<path d="M15.6313 20.5362
L15.3894 20.5362
" />
<path d="M15.3894 20.5362
L15.2684 20.4758
" />
<path d="M15.2684 20.4758
L15.2080 20.3548
" />
<path d="M15.2080 20.3548
L15.2080 19.8710
" />
<path d="M15.2080 19.8710
L15.2684 19.7500
" />
<path d="M15.2684 19.7500
L15.3894 19.6896
" />
<path d="M15.3894 19.6896
L15.6313 19.6896
" />
<path d="M15.6313 19.6896
L15.7522 19.7500
" />
<path d="M15.7522 19.7500
L15.8127 19.8710
" />
<path d="M15.8127 19.8710
L15.8127 19.9919
" />
<path d="M15.8127 19.9919
L15.2080 20.1129
" />
<path d="M16.0547 20.6572
L17.0223 20.6572
" />
<path d="M18.0503 20.5362
L17.6270 19.9315
" />
<path d="M17.3246 20.5362
L17.3246 19.2662
" />
<path d="M17.3246 19.2662
L17.8084 19.2662
" />
<path d="M17.8084 19.2662
L17.9294 19.3267
" />
<path d="M17.9294 19.3267
L17.9899 19.3872
" />
<path d="M17.9899 19.3872
L18.0503 19.5081
" />
<path d="M18.0503 19.5081
L18.0503 19.6896
" />
<path d="M18.0503 19.6896
L17.9899 19.8105
" />
<path d="M17.9899 19.8105
L17.9294 19.8710
" />
<path d="M17.9294 19.8710
L17.8084 19.9315
" />
<path d="M17.8084 19.9315
L17.3246 19.9315
" />
<path d="M19.0784 20.4758
L18.9575 20.5362
" />
<path d="M18.9575 20.5362
L18.7156 20.5362
" />
<path d="M18.7156 20.5362
L18.5946 20.4758
" />
<path d="M18.5946 20.4758
L18.5342 20.3548
" />
<path d="M18.5342 20.3548
L18.5342 19.8710
" />
<path d="M18.5342 19.8710
L18.5946 19.7500
" />
<path d="M18.5946 19.7500
L18.7156 19.6896
" />
<path d="M18.7156 19.6896
L18.9575 19.6896
" />
<path d="M18.9575 19.6896
L19.0784 19.7500
" />
<path d="M19.0784 19.7500
L19.1389 19.8710
" />
<path d="M19.1389 19.8710
L19.1389 19.9919
" />
<path d="M19.1389 19.9919
L18.5342 20.1129
" />
<path d="M20.2275 19.6896
L20.2275 20.7177
" />
<path d="M20.2275 20.7177
L20.1670 20.8386
" />
<path d="M20.1670 20.8386
L20.1066 20.8991
" />
<path d="M20.1066 20.8991
L19.9856 20.9596
" />
<path d="M19.9856 20.9596
L19.8042 20.9596
" />
<path d="M19.8042 20.9596
L19.6832 20.8991
" />
<path d="M20.2275 20.4758
L20.1066 20.5362
" />
<path d="M20.1066 20.5362
L19.8647 20.5362
" />
<path d="M19.8647 20.5362
L19.7437 20.4758
" />
<path d="M19.7437 20.4758
L19.6832 20.4153
" />
<path d="M19.6832 20.4153
L19.6228 20.2943
" />
<path d="M19.6228 20.2943
L19.6228 19.9315
" />
<path d="M19.6228 19.9315
L19.6832 19.8105
" />
<path d="M19.6832 19.8105
L19.7437 19.7500
" />
<path d="M19.7437 19.7500
L19.8647 19.6896
" />
<path d="M19.8647 19.6896
L20.1066 19.6896
" />
<path d="M20.1066 19.6896
L20.2275 19.7500
" />
<path d="M21.3765 19.6896
L21.3765 20.5362
" />
<path d="M20.8322 19.6896
L20.8322 20.3548
" />
<path d="M20.8322 20.3548
L20.8927 20.4758
" />
<path d="M20.8927 20.4758
L21.0137 20.5362
" />
<path d="M21.0137 20.5362
L21.1951 20.5362
" />
<path d="M21.1951 20.5362
L21.3160 20.4758
" />
<path d="M21.3160 20.4758
L21.3765 20.4153
" />
<path d="M22.1627 20.5362
L22.0417 20.4758
" />
<path d="M22.0417 20.4758
L21.9812 20.3548
" />
<path d="M21.9812 20.3548
L21.9812 19.2662
" />
<path d="M23.1907 20.5362
L23.1907 19.8710
" />
<path d="M23.1907 19.8710
L23.1302 19.7500
" />
<path d="M23.1302 19.7500
L23.0093 19.6896
" />
<path d="M23.0093 19.6896
L22.7674 19.6896
" />
<path d="M22.7674 19.6896
L22.6464 19.7500
" />
<path d="M23.1907 20.4758
L23.0698 20.5362
" />
<path d="M23.0698 20.5362
L22.7674 20.5362
" />
<path d="M22.7674 20.5362
L22.6464 20.4758
" />
<path d="M22.6464 20.4758
L22.5860 20.3548
" />
<path d="M22.5860 20.3548
L22.5860 20.2338
" />
<path d="M22.5860 20.2338
L22.6464 20.1129
" />
<path d="M22.6464 20.1129
L22.7674 20.0524
" />
<path d="M22.7674 20.0524
L23.0698 20.0524
" />
<path d="M23.0698 20.0524
L23.1907 19.9919
" />
<path d="M23.6140 19.6896
L24.0978 19.6896
" />
<path d="M23.7954 19.2662
L23.7954 20.3548
" />
<path d="M23.7954 20.3548
L23.8559 20.4758
" />
<path d="M23.8559 20.4758
L23.9769 20.5362
" />
<path d="M23.9769 20.5362
L24.0978 20.5362
" />
<path d="M24.7026 20.5362
L24.5816 20.4758
" />
<path d="M24.5816 20.4758
L24.5211 20.4153
" />
<path d="M24.5211 20.4153
L24.4607 20.2943
" />
<path d="M24.4607 20.2943
L24.4607 19.9315
" />
<path d="M24.4607 19.9315
L24.5211 19.8105
" />
<path d="M24.5211 19.8105
L24.5816 19.7500
" />
<path d="M24.5816 19.7500
L24.7026 19.6896
" />
<path d="M24.7026 19.6896
L24.8840 19.6896
" />
<path d="M24.8840 19.6896
L25.0049 19.7500
" />
<path d="M25.0049 19.7500
L25.0654 19.8105
" />
<path d="M25.0654 19.8105
L25.1259 19.9315
" />
<path d="M25.1259 19.9315
L25.1259 20.2943
" />
<path d="M25.1259 20.2943
L25.0654 20.4153
" />
<path d="M25.0654 20.4153
L25.0049 20.4758
" />
<path d="M25.0049 20.4758
L24.8840 20.5362
" />
<path d="M24.8840 20.5362
L24.7026 20.5362
" />
<path d="M25.6701 20.5362
L25.6701 19.6896
" />
<path d="M25.6701 19.9315
L25.7306 19.8105
" />
<path d="M25.7306 19.8105
L25.7911 19.7500
" />
<path d="M25.7911 19.7500
L25.9120 19.6896
" />
<path d="M25.9120 19.6896
L26.0330 19.6896
" />
<path d="M26.6378 20.4153
L26.6982 20.4758
" />
<path d="M26.6982 20.4758
L26.6378 20.5362
" />
<path d="M26.6378 20.5362
L26.5773 20.4758
" />
<path d="M26.5773 20.4758
L26.6378 20.4153
" />
<path d="M26.6378 20.4153
L26.6378 20.5362
" />
<path d="M26.3959 19.3267
L26.5168 19.2662
" />
<path d="M26.5168 19.2662
L26.8192 19.2662
" />
<path d="M26.8192 19.2662
L26.9401 19.3267
" />
<path d="M26.9401 19.3267
L27.0006 19.4477
" />
<path d="M27.0006 19.4477
L27.0006 19.5686
" />
<path d="M27.0006 19.5686
L26.9401 19.6896
" />
<path d="M26.9401 19.6896
L26.8797 19.7500
" />
<path d="M26.8797 19.7500
L26.7587 19.8105
" />
<path d="M26.7587 19.8105
L26.6982 19.8710
" />
<path d="M26.6982 19.8710
L26.6378 19.9919
" />
<path d="M26.6378 19.9919
L26.6378 20.0524
" />
</g></g> 
</svg>
