<?xml version="1.0" standalone="no"?>
 <!DOCTYPE svg PUBLIC "-//W3C//DTD SVG 1.1//EN" 
 "http://www.w3.org/Graphics/SVG/1.1/DTD/svg11.dtd"> 
<svg
  xmlns:svg="http://www.w3.org/2000/svg"
  xmlns="http://www.w3.org/2000/svg"
  xmlns:xlink="http://www.w3.org/1999/xlink"
  version="1.1"
  width="48.1076mm" height="78.4352mm" viewBox="0.0000 0.0000 48.1076 78.4352">
<title>SVG Image created as bottle - dip tube.svg date 2024/12/16 14:50:41 </title>
  <desc>Image generated by Eeschema-SVG </desc>
<g style="fill:#000000; fill-opacity:1.0000;stroke:#000000; stroke-opacity:1.0000;
stroke-linecap:round; stroke-linejoin:round;"
 transform="translate(0 0) scale(1 1)">
<path style="fill:none; 
stroke:#840000; stroke-width:0.1524; stroke-opacity:1; 
stroke-linecap:round; stroke-linejoin:round;fill:none"
d="M 19.0538,22.8534
19.0538,57.8534
" /> 
<path style="fill:none; 
stroke:#840000; stroke-width:0.1524; stroke-opacity:1; 
stroke-linecap:round; stroke-linejoin:round;fill:none"
d="M 19.0538,57.8534
28.0538,57.8534
28.0538,21.8534
" /> 
</g>
<g style="fill:none; 
stroke:#840000; stroke-width:0.1524; stroke-opacity:1; 
stroke-linecap:round; stroke-linejoin:round;">
<path d="M24.0538 17.8534 A4.9984 4.9984 0.0 0 0 19.0546 22.8537" />
<line x1="24.0538" y1="17.8534" x2="24.0538" y2="56.8534" />
<path d="M28.0538 21.8534 A3.9988 3.9988 0.0 0 0 24.0535 17.8530" />
<path style="fill:none; 
stroke:#840000; stroke-width:0.1524; stroke-opacity:1; 
stroke-linecap:round; stroke-linejoin:round;fill:none"
d="M 25.0538,17.8534
25.0538,14.8534
23.0538,14.8534
23.0538,17.8534
" /> 
<path d="M24.0538 14.8534
L24.0538 11.8534
" />
</g>
<g style="fill:none; 
stroke:#006464; stroke-width:0.1588; stroke-opacity:1; 
stroke-linecap:round; stroke-linejoin:round;">
<text x="24.0538" y="62.4885"
textLength="16.2484" font-size="1.6933" lengthAdjust="spacingAndGlyphs"
text-anchor="middle" opacity="0" stroke-opacity="0">Dip_Tube_Bottle?</text>
<g class="stroked-text"><desc>Dip_Tube_Bottle?</desc>
<path d="M16.3431 62.4327
L16.3431 61.1627
" />
<path d="M16.3431 61.1627
L16.6455 61.1627
" />
<path d="M16.6455 61.1627
L16.8269 61.2232
" />
<path d="M16.8269 61.2232
L16.9479 61.3442
" />
<path d="M16.9479 61.3442
L17.0084 61.4651
" />
<path d="M17.0084 61.4651
L17.0688 61.7070
" />
<path d="M17.0688 61.7070
L17.0688 61.8884
" />
<path d="M17.0688 61.8884
L17.0084 62.1303
" />
<path d="M17.0084 62.1303
L16.9479 62.2513
" />
<path d="M16.9479 62.2513
L16.8269 62.3723
" />
<path d="M16.8269 62.3723
L16.6455 62.4327
" />
<path d="M16.6455 62.4327
L16.3431 62.4327
" />
<path d="M17.6131 62.4327
L17.6131 61.5861
" />
<path d="M17.6131 61.1627
L17.5527 61.2232
" />
<path d="M17.5527 61.2232
L17.6131 61.2837
" />
<path d="M17.6131 61.2837
L17.6736 61.2232
" />
<path d="M17.6736 61.2232
L17.6131 61.1627
" />
<path d="M17.6131 61.1627
L17.6131 61.2837
" />
<path d="M18.2179 61.5861
L18.2179 62.8561
" />
<path d="M18.2179 61.6465
L18.3389 61.5861
" />
<path d="M18.3389 61.5861
L18.5808 61.5861
" />
<path d="M18.5808 61.5861
L18.7017 61.6465
" />
<path d="M18.7017 61.6465
L18.7622 61.7070
" />
<path d="M18.7622 61.7070
L18.8227 61.8280
" />
<path d="M18.8227 61.8280
L18.8227 62.1908
" />
<path d="M18.8227 62.1908
L18.7622 62.3118
" />
<path d="M18.7622 62.3118
L18.7017 62.3723
" />
<path d="M18.7017 62.3723
L18.5808 62.4327
" />
<path d="M18.5808 62.4327
L18.3389 62.4327
" />
<path d="M18.3389 62.4327
L18.2179 62.3723
" />
<path d="M19.0646 62.5537
L20.0322 62.5537
" />
<path d="M20.1531 61.1627
L20.8788 61.1627
" />
<path d="M20.5160 62.4327
L20.5160 61.1627
" />
<path d="M21.8464 61.5861
L21.8464 62.4327
" />
<path d="M21.3021 61.5861
L21.3021 62.2513
" />
<path d="M21.3021 62.2513
L21.3626 62.3723
" />
<path d="M21.3626 62.3723
L21.4836 62.4327
" />
<path d="M21.4836 62.4327
L21.6650 62.4327
" />
<path d="M21.6650 62.4327
L21.7859 62.3723
" />
<path d="M21.7859 62.3723
L21.8464 62.3118
" />
<path d="M22.4511 62.4327
L22.4511 61.1627
" />
<path d="M22.4511 61.6465
L22.5721 61.5861
" />
<path d="M22.5721 61.5861
L22.8140 61.5861
" />
<path d="M22.8140 61.5861
L22.9349 61.6465
" />
<path d="M22.9349 61.6465
L22.9954 61.7070
" />
<path d="M22.9954 61.7070
L23.0559 61.8280
" />
<path d="M23.0559 61.8280
L23.0559 62.1908
" />
<path d="M23.0559 62.1908
L22.9954 62.3118
" />
<path d="M22.9954 62.3118
L22.9349 62.3723
" />
<path d="M22.9349 62.3723
L22.8140 62.4327
" />
<path d="M22.8140 62.4327
L22.5721 62.4327
" />
<path d="M22.5721 62.4327
L22.4511 62.3723
" />
<path d="M24.0839 62.3723
L23.9630 62.4327
" />
<path d="M23.9630 62.4327
L23.7211 62.4327
" />
<path d="M23.7211 62.4327
L23.6001 62.3723
" />
<path d="M23.6001 62.3723
L23.5397 62.2513
" />
<path d="M23.5397 62.2513
L23.5397 61.7675
" />
<path d="M23.5397 61.7675
L23.6001 61.6465
" />
<path d="M23.6001 61.6465
L23.7211 61.5861
" />
<path d="M23.7211 61.5861
L23.9630 61.5861
" />
<path d="M23.9630 61.5861
L24.0839 61.6465
" />
<path d="M24.0839 61.6465
L24.1444 61.7675
" />
<path d="M24.1444 61.7675
L24.1444 61.8884
" />
<path d="M24.1444 61.8884
L23.5397 62.0094
" />
<path d="M24.3864 62.5537
L25.3540 62.5537
" />
<path d="M26.0797 61.7675
L26.2611 61.8280
" />
<path d="M26.2611 61.8280
L26.3216 61.8884
" />
<path d="M26.3216 61.8884
L26.3820 62.0094
" />
<path d="M26.3820 62.0094
L26.3820 62.1908
" />
<path d="M26.3820 62.1908
L26.3216 62.3118
" />
<path d="M26.3216 62.3118
L26.2611 62.3723
" />
<path d="M26.2611 62.3723
L26.1401 62.4327
" />
<path d="M26.1401 62.4327
L25.6563 62.4327
" />
<path d="M25.6563 62.4327
L25.6563 61.1627
" />
<path d="M25.6563 61.1627
L26.0797 61.1627
" />
<path d="M26.0797 61.1627
L26.2006 61.2232
" />
<path d="M26.2006 61.2232
L26.2611 61.2837
" />
<path d="M26.2611 61.2837
L26.3216 61.4046
" />
<path d="M26.3216 61.4046
L26.3216 61.5256
" />
<path d="M26.3216 61.5256
L26.2611 61.6465
" />
<path d="M26.2611 61.6465
L26.2006 61.7070
" />
<path d="M26.2006 61.7070
L26.0797 61.7675
" />
<path d="M26.0797 61.7675
L25.6563 61.7675
" />
<path d="M27.1078 62.4327
L26.9868 62.3723
" />
<path d="M26.9868 62.3723
L26.9263 62.3118
" />
<path d="M26.9263 62.3118
L26.8659 62.1908
" />
<path d="M26.8659 62.1908
L26.8659 61.8280
" />
<path d="M26.8659 61.8280
L26.9263 61.7070
" />
<path d="M26.9263 61.7070
L26.9868 61.6465
" />
<path d="M26.9868 61.6465
L27.1078 61.5861
" />
<path d="M27.1078 61.5861
L27.2892 61.5861
" />
<path d="M27.2892 61.5861
L27.4101 61.6465
" />
<path d="M27.4101 61.6465
L27.4706 61.7070
" />
<path d="M27.4706 61.7070
L27.5311 61.8280
" />
<path d="M27.5311 61.8280
L27.5311 62.1908
" />
<path d="M27.5311 62.1908
L27.4706 62.3118
" />
<path d="M27.4706 62.3118
L27.4101 62.3723
" />
<path d="M27.4101 62.3723
L27.2892 62.4327
" />
<path d="M27.2892 62.4327
L27.1078 62.4327
" />
<path d="M27.8939 61.5861
L28.3777 61.5861
" />
<path d="M28.0753 61.1627
L28.0753 62.2513
" />
<path d="M28.0753 62.2513
L28.1358 62.3723
" />
<path d="M28.1358 62.3723
L28.2568 62.4327
" />
<path d="M28.2568 62.4327
L28.3777 62.4327
" />
<path d="M28.6196 61.5861
L29.1034 61.5861
" />
<path d="M28.8010 61.1627
L28.8010 62.2513
" />
<path d="M28.8010 62.2513
L28.8615 62.3723
" />
<path d="M28.8615 62.3723
L28.9825 62.4327
" />
<path d="M28.9825 62.4327
L29.1034 62.4327
" />
<path d="M29.7082 62.4327
L29.5872 62.3723
" />
<path d="M29.5872 62.3723
L29.5267 62.2513
" />
<path d="M29.5267 62.2513
L29.5267 61.1627
" />
<path d="M30.6757 62.3723
L30.5548 62.4327
" />
<path d="M30.5548 62.4327
L30.3129 62.4327
" />
<path d="M30.3129 62.4327
L30.1919 62.3723
" />
<path d="M30.1919 62.3723
L30.1315 62.2513
" />
<path d="M30.1315 62.2513
L30.1315 61.7675
" />
<path d="M30.1315 61.7675
L30.1919 61.6465
" />
<path d="M30.1919 61.6465
L30.3129 61.5861
" />
<path d="M30.3129 61.5861
L30.5548 61.5861
" />
<path d="M30.5548 61.5861
L30.6757 61.6465
" />
<path d="M30.6757 61.6465
L30.7362 61.7675
" />
<path d="M30.7362 61.7675
L30.7362 61.8884
" />
<path d="M30.7362 61.8884
L30.1315 62.0094
" />
<path d="M31.4620 62.3118
L31.5224 62.3723
" />
<path d="M31.5224 62.3723
L31.4620 62.4327
" />
<path d="M31.4620 62.4327
L31.4015 62.3723
" />
<path d="M31.4015 62.3723
L31.4620 62.3118
" />
<path d="M31.4620 62.3118
L31.4620 62.4327
" />
<path d="M31.2201 61.2232
L31.3410 61.1627
" />
<path d="M31.3410 61.1627
L31.6434 61.1627
" />
<path d="M31.6434 61.1627
L31.7643 61.2232
" />
<path d="M31.7643 61.2232
L31.8248 61.3442
" />
<path d="M31.8248 61.3442
L31.8248 61.4651
" />
<path d="M31.8248 61.4651
L31.7643 61.5861
" />
<path d="M31.7643 61.5861
L31.7039 61.6465
" />
<path d="M31.7039 61.6465
L31.5829 61.7070
" />
<path d="M31.5829 61.7070
L31.5224 61.7675
" />
<path d="M31.5224 61.7675
L31.4620 61.8884
" />
<path d="M31.4620 61.8884
L31.4620 61.9489
" />
</g></g> 
</svg>
