<?xml version="1.0" standalone="no"?>
 <!DOCTYPE svg PUBLIC "-//W3C//DTD SVG 1.1//EN" 
 "http://www.w3.org/Graphics/SVG/1.1/DTD/svg11.dtd"> 
<svg
  xmlns:svg="http://www.w3.org/2000/svg"
  xmlns="http://www.w3.org/2000/svg"
  xmlns:xlink="http://www.w3.org/1999/xlink"
  version="1.1"
  width="48.1076mm" height="78.4352mm" viewBox="0.0000 0.0000 48.1076 78.4352">
<title>SVG Image created as bottle.svg date 2024/12/15 16:48:06 </title>
  <desc>Image generated by Eeschema-SVG </desc>
<g style="fill:#000000; fill-opacity:1.0000;stroke:#000000; stroke-opacity:1.0000;
stroke-linecap:round; stroke-linejoin:round;"
 transform="translate(0 0) scale(1 1)">
<path style="fill:none; 
stroke:#840000; stroke-width:0.1524; stroke-opacity:1; 
stroke-linecap:round; stroke-linejoin:round;fill:none"
d="M 19.0538,22.8534
19.0538,57.8534
" /> 
<path style="fill:none; 
stroke:#840000; stroke-width:0.1524; stroke-opacity:1; 
stroke-linecap:round; stroke-linejoin:round;fill:none"
d="M 19.0538,57.8534
28.0538,57.8534
28.0538,21.8534
" /> 
</g>
<g style="fill:none; 
stroke:#840000; stroke-width:0.1524; stroke-opacity:1; 
stroke-linecap:round; stroke-linejoin:round;">
<path d="M24.0538 17.8534 A4.9984 4.9984 0.0 0 0 19.0546 22.8537" />
<path d="M28.0538 21.8534 A3.9988 3.9988 0.0 0 0 24.0535 17.8530" />
<path style="fill:none; 
stroke:#840000; stroke-width:0.1524; stroke-opacity:1; 
stroke-linecap:round; stroke-linejoin:round;fill:none"
d="M 25.0538,17.8534
25.0538,14.8534
23.0538,14.8534
23.0538,17.8534
" /> 
<path d="M24.0538 14.8534
L24.0538 11.8534
" />
</g>
<g style="fill:none; 
stroke:#006464; stroke-width:0.1588; stroke-opacity:1; 
stroke-linecap:round; stroke-linejoin:round;">
<text x="24.0538" y="62.4885"
textLength="6.9352" font-size="1.6933" lengthAdjust="spacingAndGlyphs"
text-anchor="middle" opacity="0" stroke-opacity="0">Bottle?</text>
<g class="stroked-text"><desc>Bottle?</desc>
<path d="M21.4231 61.7675
L21.6045 61.8280
" />
<path d="M21.6045 61.8280
L21.6650 61.8884
" />
<path d="M21.6650 61.8884
L21.7254 62.0094
" />
<path d="M21.7254 62.0094
L21.7254 62.1908
" />
<path d="M21.7254 62.1908
L21.6650 62.3118
" />
<path d="M21.6650 62.3118
L21.6045 62.3723
" />
<path d="M21.6045 62.3723
L21.4835 62.4327
" />
<path d="M21.4835 62.4327
L20.9997 62.4327
" />
<path d="M20.9997 62.4327
L20.9997 61.1627
" />
<path d="M20.9997 61.1627
L21.4231 61.1627
" />
<path d="M21.4231 61.1627
L21.5440 61.2232
" />
<path d="M21.5440 61.2232
L21.6045 61.2837
" />
<path d="M21.6045 61.2837
L21.6650 61.4046
" />
<path d="M21.6650 61.4046
L21.6650 61.5256
" />
<path d="M21.6650 61.5256
L21.6045 61.6465
" />
<path d="M21.6045 61.6465
L21.5440 61.7070
" />
<path d="M21.5440 61.7070
L21.4231 61.7675
" />
<path d="M21.4231 61.7675
L20.9997 61.7675
" />
<path d="M22.4512 62.4327
L22.3302 62.3723
" />
<path d="M22.3302 62.3723
L22.2697 62.3118
" />
<path d="M22.2697 62.3118
L22.2093 62.1908
" />
<path d="M22.2093 62.1908
L22.2093 61.8280
" />
<path d="M22.2093 61.8280
L22.2697 61.7070
" />
<path d="M22.2697 61.7070
L22.3302 61.6465
" />
<path d="M22.3302 61.6465
L22.4512 61.5861
" />
<path d="M22.4512 61.5861
L22.6326 61.5861
" />
<path d="M22.6326 61.5861
L22.7535 61.6465
" />
<path d="M22.7535 61.6465
L22.8140 61.7070
" />
<path d="M22.8140 61.7070
L22.8745 61.8280
" />
<path d="M22.8745 61.8280
L22.8745 62.1908
" />
<path d="M22.8745 62.1908
L22.8140 62.3118
" />
<path d="M22.8140 62.3118
L22.7535 62.3723
" />
<path d="M22.7535 62.3723
L22.6326 62.4327
" />
<path d="M22.6326 62.4327
L22.4512 62.4327
" />
<path d="M23.2373 61.5861
L23.7211 61.5861
" />
<path d="M23.4187 61.1627
L23.4187 62.2513
" />
<path d="M23.4187 62.2513
L23.4792 62.3723
" />
<path d="M23.4792 62.3723
L23.6002 62.4327
" />
<path d="M23.6002 62.4327
L23.7211 62.4327
" />
<path d="M23.9630 61.5861
L24.4468 61.5861
" />
<path d="M24.1444 61.1627
L24.1444 62.2513
" />
<path d="M24.1444 62.2513
L24.2049 62.3723
" />
<path d="M24.2049 62.3723
L24.3259 62.4327
" />
<path d="M24.3259 62.4327
L24.4468 62.4327
" />
<path d="M25.0516 62.4327
L24.9306 62.3723
" />
<path d="M24.9306 62.3723
L24.8701 62.2513
" />
<path d="M24.8701 62.2513
L24.8701 61.1627
" />
<path d="M26.0191 62.3723
L25.8982 62.4327
" />
<path d="M25.8982 62.4327
L25.6563 62.4327
" />
<path d="M25.6563 62.4327
L25.5353 62.3723
" />
<path d="M25.5353 62.3723
L25.4749 62.2513
" />
<path d="M25.4749 62.2513
L25.4749 61.7675
" />
<path d="M25.4749 61.7675
L25.5353 61.6465
" />
<path d="M25.5353 61.6465
L25.6563 61.5861
" />
<path d="M25.6563 61.5861
L25.8982 61.5861
" />
<path d="M25.8982 61.5861
L26.0191 61.6465
" />
<path d="M26.0191 61.6465
L26.0796 61.7675
" />
<path d="M26.0796 61.7675
L26.0796 61.8884
" />
<path d="M26.0796 61.8884
L25.4749 62.0094
" />
<path d="M26.8054 62.3118
L26.8658 62.3723
" />
<path d="M26.8658 62.3723
L26.8054 62.4327
" />
<path d="M26.8054 62.4327
L26.7449 62.3723
" />
<path d="M26.7449 62.3723
L26.8054 62.3118
" />
<path d="M26.8054 62.3118
L26.8054 62.4327
" />
<path d="M26.5635 61.2232
L26.6844 61.1627
" />
<path d="M26.6844 61.1627
L26.9868 61.1627
" />
<path d="M26.9868 61.1627
L27.1077 61.2232
" />
<path d="M27.1077 61.2232
L27.1682 61.3442
" />
<path d="M27.1682 61.3442
L27.1682 61.4651
" />
<path d="M27.1682 61.4651
L27.1077 61.5861
" />
<path d="M27.1077 61.5861
L27.0473 61.6465
" />
<path d="M27.0473 61.6465
L26.9263 61.7070
" />
<path d="M26.9263 61.7070
L26.8658 61.7675
" />
<path d="M26.8658 61.7675
L26.8054 61.8884
" />
<path d="M26.8054 61.8884
L26.8054 61.9489
" />
</g></g> 
</svg>
