<?xml version="1.0" standalone="no"?>
 <!DOCTYPE svg PUBLIC "-//W3C//DTD SVG 1.1//EN" 
 "http://www.w3.org/Graphics/SVG/1.1/DTD/svg11.dtd"> 
<svg
  xmlns:svg="http://www.w3.org/2000/svg"
  xmlns="http://www.w3.org/2000/svg"
  xmlns:xlink="http://www.w3.org/1999/xlink"
  version="1.1"
  width="22.0980mm" height="22.8854mm" viewBox="0.0000 0.0000 22.0980 22.8854">
<title>SVG Image created as burst disk - vacuum.svg date 2024/12/16 14:50:38 </title>
  <desc>Image generated by Eeschema-SVG </desc>
<g style="fill:#000000; fill-opacity:1.0000;stroke:#000000; stroke-opacity:1.0000;
stroke-linecap:round; stroke-linejoin:round;"
 transform="translate(0 0) scale(1 1)">
<path style="fill:none; 
stroke:#840000; stroke-width:0.1000; stroke-opacity:1; 
stroke-linecap:round; stroke-linejoin:round;fill:none"
d="M 9.0742,6.9569
9.0742,12.9569
" /> 
<path style="fill:none; 
stroke:#840000; stroke-width:0.1000; stroke-opacity:1; 
stroke-linecap:round; stroke-linejoin:round;fill:none"
d="M 13.0742,9.9569
9.0742,11.9569
" /> 
<path style="fill:none; 
stroke:#840000; stroke-width:0.1000; stroke-opacity:1; 
stroke-linecap:round; stroke-linejoin:round;fill:none"
d="M 13.0742,9.9569
9.0742,7.9569
" /> 
<path style="fill:none; 
stroke:#840000; stroke-width:0.1000; stroke-opacity:1; 
stroke-linecap:round; stroke-linejoin:round;fill:none"
d="M 13.0742,6.9569
13.0742,12.9569
" /> 
<path style="fill:none; 
stroke:#840000; stroke-width:0.1000; stroke-opacity:1; 
stroke-linecap:round; stroke-linejoin:round;fill:none"
d="M 16.0742,9.9569
14.0742,9.9569
" /> 
<path style="fill:#840000; fill-opacity:1.0000; 
stroke:#840000; stroke-width:0.1000; stroke-opacity:1; 
stroke-linecap:round; stroke-linejoin:round;fill-rule:evenodd;"
d="M 13.0742,9.9569
14.0742,10.2069
14.0742,9.7069
Z" /> 
</g>
<g style="fill:none; 
stroke:#840000; stroke-width:0.1524; stroke-opacity:1; 
stroke-linecap:round; stroke-linejoin:round;">
<path d="M9.0742 9.9569
L6.0742 9.9569
" />
</g>
<g style="fill:none; 
stroke:#006464; stroke-width:0.1588; stroke-opacity:1; 
stroke-linecap:round; stroke-linejoin:round;">
<text x="11.0742" y="20.5920"
textLength="19.4537" font-size="1.6933" lengthAdjust="spacingAndGlyphs"
text-anchor="middle" opacity="0" stroke-opacity="0">Vacuum_Burst_Disk?</text>
<g class="stroked-text"><desc>Vacuum_Burst_Disk?</desc>
<path d="M1.5795 19.2662
L2.0028 20.5362
" />
<path d="M2.0028 20.5362
L2.4262 19.2662
" />
<path d="M3.3938 20.5362
L3.3938 19.8710
" />
<path d="M3.3938 19.8710
L3.3333 19.7500
" />
<path d="M3.3333 19.7500
L3.2124 19.6896
" />
<path d="M3.2124 19.6896
L2.9705 19.6896
" />
<path d="M2.9705 19.6896
L2.8495 19.7500
" />
<path d="M3.3938 20.4758
L3.2729 20.5362
" />
<path d="M3.2729 20.5362
L2.9705 20.5362
" />
<path d="M2.9705 20.5362
L2.8495 20.4758
" />
<path d="M2.8495 20.4758
L2.7891 20.3548
" />
<path d="M2.7891 20.3548
L2.7891 20.2338
" />
<path d="M2.7891 20.2338
L2.8495 20.1129
" />
<path d="M2.8495 20.1129
L2.9705 20.0524
" />
<path d="M2.9705 20.0524
L3.2729 20.0524
" />
<path d="M3.2729 20.0524
L3.3938 19.9919
" />
<path d="M4.5428 20.4758
L4.4219 20.5362
" />
<path d="M4.4219 20.5362
L4.1800 20.5362
" />
<path d="M4.1800 20.5362
L4.0590 20.4758
" />
<path d="M4.0590 20.4758
L3.9985 20.4153
" />
<path d="M3.9985 20.4153
L3.9381 20.2943
" />
<path d="M3.9381 20.2943
L3.9381 19.9315
" />
<path d="M3.9381 19.9315
L3.9985 19.8105
" />
<path d="M3.9985 19.8105
L4.0590 19.7500
" />
<path d="M4.0590 19.7500
L4.1800 19.6896
" />
<path d="M4.1800 19.6896
L4.4219 19.6896
" />
<path d="M4.4219 19.6896
L4.5428 19.7500
" />
<path d="M5.6314 19.6896
L5.6314 20.5362
" />
<path d="M5.0871 19.6896
L5.0871 20.3548
" />
<path d="M5.0871 20.3548
L5.1476 20.4758
" />
<path d="M5.1476 20.4758
L5.2686 20.5362
" />
<path d="M5.2686 20.5362
L5.4500 20.5362
" />
<path d="M5.4500 20.5362
L5.5709 20.4758
" />
<path d="M5.5709 20.4758
L5.6314 20.4153
" />
<path d="M6.7804 19.6896
L6.7804 20.5362
" />
<path d="M6.2361 19.6896
L6.2361 20.3548
" />
<path d="M6.2361 20.3548
L6.2966 20.4758
" />
<path d="M6.2966 20.4758
L6.4176 20.5362
" />
<path d="M6.4176 20.5362
L6.5990 20.5362
" />
<path d="M6.5990 20.5362
L6.7199 20.4758
" />
<path d="M6.7199 20.4758
L6.7804 20.4153
" />
<path d="M7.3851 20.5362
L7.3851 19.6896
" />
<path d="M7.3851 19.8105
L7.4456 19.7500
" />
<path d="M7.4456 19.7500
L7.5666 19.6896
" />
<path d="M7.5666 19.6896
L7.7480 19.6896
" />
<path d="M7.7480 19.6896
L7.8689 19.7500
" />
<path d="M7.8689 19.7500
L7.9294 19.8710
" />
<path d="M7.9294 19.8710
L7.9294 20.5362
" />
<path d="M7.9294 19.8710
L7.9899 19.7500
" />
<path d="M7.9899 19.7500
L8.1108 19.6896
" />
<path d="M8.1108 19.6896
L8.2923 19.6896
" />
<path d="M8.2923 19.6896
L8.4132 19.7500
" />
<path d="M8.4132 19.7500
L8.4737 19.8710
" />
<path d="M8.4737 19.8710
L8.4737 20.5362
" />
<path d="M8.7761 20.6572
L9.7437 20.6572
" />
<path d="M10.4694 19.8710
L10.6508 19.9315
" />
<path d="M10.6508 19.9315
L10.7113 19.9919
" />
<path d="M10.7113 19.9919
L10.7717 20.1129
" />
<path d="M10.7717 20.1129
L10.7717 20.2943
" />
<path d="M10.7717 20.2943
L10.7113 20.4153
" />
<path d="M10.7113 20.4153
L10.6508 20.4758
" />
<path d="M10.6508 20.4758
L10.5298 20.5362
" />
<path d="M10.5298 20.5362
L10.0460 20.5362
" />
<path d="M10.0460 20.5362
L10.0460 19.2662
" />
<path d="M10.0460 19.2662
L10.4694 19.2662
" />
<path d="M10.4694 19.2662
L10.5903 19.3267
" />
<path d="M10.5903 19.3267
L10.6508 19.3872
" />
<path d="M10.6508 19.3872
L10.7113 19.5081
" />
<path d="M10.7113 19.5081
L10.7113 19.6291
" />
<path d="M10.7113 19.6291
L10.6508 19.7500
" />
<path d="M10.6508 19.7500
L10.5903 19.8105
" />
<path d="M10.5903 19.8105
L10.4694 19.8710
" />
<path d="M10.4694 19.8710
L10.0460 19.8710
" />
<path d="M11.8603 19.6896
L11.8603 20.5362
" />
<path d="M11.3160 19.6896
L11.3160 20.3548
" />
<path d="M11.3160 20.3548
L11.3765 20.4758
" />
<path d="M11.3765 20.4758
L11.4975 20.5362
" />
<path d="M11.4975 20.5362
L11.6789 20.5362
" />
<path d="M11.6789 20.5362
L11.7998 20.4758
" />
<path d="M11.7998 20.4758
L11.8603 20.4153
" />
<path d="M12.4650 20.5362
L12.4650 19.6896
" />
<path d="M12.4650 19.9315
L12.5255 19.8105
" />
<path d="M12.5255 19.8105
L12.5860 19.7500
" />
<path d="M12.5860 19.7500
L12.7069 19.6896
" />
<path d="M12.7069 19.6896
L12.8279 19.6896
" />
<path d="M13.1908 20.4758
L13.3117 20.5362
" />
<path d="M13.3117 20.5362
L13.5536 20.5362
" />
<path d="M13.5536 20.5362
L13.6746 20.4758
" />
<path d="M13.6746 20.4758
L13.7350 20.3548
" />
<path d="M13.7350 20.3548
L13.7350 20.2943
" />
<path d="M13.7350 20.2943
L13.6746 20.1734
" />
<path d="M13.6746 20.1734
L13.5536 20.1129
" />
<path d="M13.5536 20.1129
L13.3722 20.1129
" />
<path d="M13.3722 20.1129
L13.2512 20.0524
" />
<path d="M13.2512 20.0524
L13.1908 19.9315
" />
<path d="M13.1908 19.9315
L13.1908 19.8710
" />
<path d="M13.1908 19.8710
L13.2512 19.7500
" />
<path d="M13.2512 19.7500
L13.3722 19.6896
" />
<path d="M13.3722 19.6896
L13.5536 19.6896
" />
<path d="M13.5536 19.6896
L13.6746 19.7500
" />
<path d="M14.0979 19.6896
L14.5817 19.6896
" />
<path d="M14.2793 19.2662
L14.2793 20.3548
" />
<path d="M14.2793 20.3548
L14.3398 20.4758
" />
<path d="M14.3398 20.4758
L14.4608 20.5362
" />
<path d="M14.4608 20.5362
L14.5817 20.5362
" />
<path d="M14.7027 20.6572
L15.6703 20.6572
" />
<path d="M15.9726 20.5362
L15.9726 19.2662
" />
<path d="M15.9726 19.2662
L16.2750 19.2662
" />
<path d="M16.2750 19.2662
L16.4564 19.3267
" />
<path d="M16.4564 19.3267
L16.5774 19.4477
" />
<path d="M16.5774 19.4477
L16.6379 19.5686
" />
<path d="M16.6379 19.5686
L16.6983 19.8105
" />
<path d="M16.6983 19.8105
L16.6983 19.9919
" />
<path d="M16.6983 19.9919
L16.6379 20.2338
" />
<path d="M16.6379 20.2338
L16.5774 20.3548
" />
<path d="M16.5774 20.3548
L16.4564 20.4758
" />
<path d="M16.4564 20.4758
L16.2750 20.5362
" />
<path d="M16.2750 20.5362
L15.9726 20.5362
" />
<path d="M17.2426 20.5362
L17.2426 19.6896
" />
<path d="M17.2426 19.2662
L17.1822 19.3267
" />
<path d="M17.1822 19.3267
L17.2426 19.3872
" />
<path d="M17.2426 19.3872
L17.3031 19.3267
" />
<path d="M17.3031 19.3267
L17.2426 19.2662
" />
<path d="M17.2426 19.2662
L17.2426 19.3872
" />
<path d="M17.7870 20.4758
L17.9079 20.5362
" />
<path d="M17.9079 20.5362
L18.1498 20.5362
" />
<path d="M18.1498 20.5362
L18.2708 20.4758
" />
<path d="M18.2708 20.4758
L18.3312 20.3548
" />
<path d="M18.3312 20.3548
L18.3312 20.2943
" />
<path d="M18.3312 20.2943
L18.2708 20.1734
" />
<path d="M18.2708 20.1734
L18.1498 20.1129
" />
<path d="M18.1498 20.1129
L17.9684 20.1129
" />
<path d="M17.9684 20.1129
L17.8474 20.0524
" />
<path d="M17.8474 20.0524
L17.7870 19.9315
" />
<path d="M17.7870 19.9315
L17.7870 19.8710
" />
<path d="M17.7870 19.8710
L17.8474 19.7500
" />
<path d="M17.8474 19.7500
L17.9684 19.6896
" />
<path d="M17.9684 19.6896
L18.1498 19.6896
" />
<path d="M18.1498 19.6896
L18.2708 19.7500
" />
<path d="M18.8755 20.5362
L18.8755 19.2662
" />
<path d="M18.9965 20.0524
L19.3593 20.5362
" />
<path d="M19.3593 19.6896
L18.8755 20.1734
" />
<path d="M20.0851 20.4153
L20.1455 20.4758
" />
<path d="M20.1455 20.4758
L20.0851 20.5362
" />
<path d="M20.0851 20.5362
L20.0246 20.4758
" />
<path d="M20.0246 20.4758
L20.0851 20.4153
" />
<path d="M20.0851 20.4153
L20.0851 20.5362
" />
<path d="M19.8432 19.3267
L19.9641 19.2662
" />
<path d="M19.9641 19.2662
L20.2665 19.2662
" />
<path d="M20.2665 19.2662
L20.3874 19.3267
" />
<path d="M20.3874 19.3267
L20.4479 19.4477
" />
<path d="M20.4479 19.4477
L20.4479 19.5686
" />
<path d="M20.4479 19.5686
L20.3874 19.6896
" />
<path d="M20.3874 19.6896
L20.3270 19.7500
" />
<path d="M20.3270 19.7500
L20.2060 19.8105
" />
<path d="M20.2060 19.8105
L20.1455 19.8710
" />
<path d="M20.1455 19.8710
L20.0851 19.9919
" />
<path d="M20.0851 19.9919
L20.0851 20.0524
" />
</g></g> 
</svg>
