<?xml version="1.0" standalone="no"?>
 <!DOCTYPE svg PUBLIC "-//W3C//DTD SVG 1.1//EN" 
 "http://www.w3.org/Graphics/SVG/1.1/DTD/svg11.dtd"> 
<svg
  xmlns:svg="http://www.w3.org/2000/svg"
  xmlns="http://www.w3.org/2000/svg"
  xmlns:xlink="http://www.w3.org/1999/xlink"
  version="1.1"
  width="25.1460mm" height="22.8854mm" viewBox="0.0000 0.0000 25.1460 22.8854">
<title>SVG Image created as burst disk - pressure.svg date 2024/12/15 16:48:06 </title>
  <desc>Image generated by Eeschema-SVG </desc>
<g style="fill:#000000; fill-opacity:1.0000;stroke:#000000; stroke-opacity:1.0000;
stroke-linecap:round; stroke-linejoin:round;"
 transform="translate(0 0) scale(1 1)">
<path style="fill:none; 
stroke:#840000; stroke-width:0.1000; stroke-opacity:1; 
stroke-linecap:round; stroke-linejoin:round;fill:none"
d="M 11.7304,6.9569
11.7304,12.9569
" /> 
<path style="fill:none; 
stroke:#840000; stroke-width:0.1000; stroke-opacity:1; 
stroke-linecap:round; stroke-linejoin:round;fill:none"
d="M 14.7304,9.9569
11.7304,11.9569
" /> 
<path style="fill:none; 
stroke:#840000; stroke-width:0.1000; stroke-opacity:1; 
stroke-linecap:round; stroke-linejoin:round;fill:none"
d="M 14.7304,9.9569
11.7304,7.9569
" /> 
<path style="fill:none; 
stroke:#840000; stroke-width:0.1000; stroke-opacity:1; 
stroke-linecap:round; stroke-linejoin:round;fill:none"
d="M 14.7304,6.9569
14.7304,12.9569
" /> 
<path style="fill:#840000; fill-opacity:1.0000; 
stroke:#840000; stroke-width:0.1000; stroke-opacity:1; 
stroke-linecap:round; stroke-linejoin:round;fill-rule:evenodd;"
d="M 18.2304,9.9569
17.2304,9.7069
17.2304,10.2069
Z" /> 
</g>
<g style="fill:none; 
stroke:#840000; stroke-width:0.1524; stroke-opacity:1; 
stroke-linecap:round; stroke-linejoin:round;">
<path d="M11.7304 9.9569
L8.7304 9.9569
" />
<path d="M14.7304 9.9569
L17.7304 9.9569
" />
</g>
<g style="fill:none; 
stroke:#006464; stroke-width:0.1588; stroke-opacity:1; 
stroke-linecap:round; stroke-linejoin:round;">
<text x="11.7304" y="20.5920"
textLength="20.3610" font-size="1.6933" lengthAdjust="spacingAndGlyphs"
text-anchor="middle" opacity="0" stroke-opacity="0">Pressure_Burst_Disk?</text>
<g class="stroked-text"><desc>Pressure_Burst_Disk?</desc>
<path d="M1.9634 20.5362
L1.9634 19.2662
" />
<path d="M1.9634 19.2662
L2.4472 19.2662
" />
<path d="M2.4472 19.2662
L2.5682 19.3267
" />
<path d="M2.5682 19.3267
L2.6287 19.3872
" />
<path d="M2.6287 19.3872
L2.6891 19.5081
" />
<path d="M2.6891 19.5081
L2.6891 19.6896
" />
<path d="M2.6891 19.6896
L2.6287 19.8105
" />
<path d="M2.6287 19.8105
L2.5682 19.8710
" />
<path d="M2.5682 19.8710
L2.4472 19.9315
" />
<path d="M2.4472 19.9315
L1.9634 19.9315
" />
<path d="M3.2334 20.5362
L3.2334 19.6896
" />
<path d="M3.2334 19.9315
L3.2939 19.8105
" />
<path d="M3.2939 19.8105
L3.3544 19.7500
" />
<path d="M3.3544 19.7500
L3.4753 19.6896
" />
<path d="M3.4753 19.6896
L3.5963 19.6896
" />
<path d="M4.5034 20.4758
L4.3825 20.5362
" />
<path d="M4.3825 20.5362
L4.1406 20.5362
" />
<path d="M4.1406 20.5362
L4.0196 20.4758
" />
<path d="M4.0196 20.4758
L3.9592 20.3548
" />
<path d="M3.9592 20.3548
L3.9592 19.8710
" />
<path d="M3.9592 19.8710
L4.0196 19.7500
" />
<path d="M4.0196 19.7500
L4.1406 19.6896
" />
<path d="M4.1406 19.6896
L4.3825 19.6896
" />
<path d="M4.3825 19.6896
L4.5034 19.7500
" />
<path d="M4.5034 19.7500
L4.5639 19.8710
" />
<path d="M4.5639 19.8710
L4.5639 19.9919
" />
<path d="M4.5639 19.9919
L3.9592 20.1129
" />
<path d="M5.0478 20.4758
L5.1687 20.5362
" />
<path d="M5.1687 20.5362
L5.4106 20.5362
" />
<path d="M5.4106 20.5362
L5.5316 20.4758
" />
<path d="M5.5316 20.4758
L5.5920 20.3548
" />
<path d="M5.5920 20.3548
L5.5920 20.2943
" />
<path d="M5.5920 20.2943
L5.5316 20.1734
" />
<path d="M5.5316 20.1734
L5.4106 20.1129
" />
<path d="M5.4106 20.1129
L5.2292 20.1129
" />
<path d="M5.2292 20.1129
L5.1082 20.0524
" />
<path d="M5.1082 20.0524
L5.0478 19.9315
" />
<path d="M5.0478 19.9315
L5.0478 19.8710
" />
<path d="M5.0478 19.8710
L5.1082 19.7500
" />
<path d="M5.1082 19.7500
L5.2292 19.6896
" />
<path d="M5.2292 19.6896
L5.4106 19.6896
" />
<path d="M5.4106 19.6896
L5.5316 19.7500
" />
<path d="M6.0759 20.4758
L6.1968 20.5362
" />
<path d="M6.1968 20.5362
L6.4387 20.5362
" />
<path d="M6.4387 20.5362
L6.5597 20.4758
" />
<path d="M6.5597 20.4758
L6.6201 20.3548
" />
<path d="M6.6201 20.3548
L6.6201 20.2943
" />
<path d="M6.6201 20.2943
L6.5597 20.1734
" />
<path d="M6.5597 20.1734
L6.4387 20.1129
" />
<path d="M6.4387 20.1129
L6.2573 20.1129
" />
<path d="M6.2573 20.1129
L6.1363 20.0524
" />
<path d="M6.1363 20.0524
L6.0759 19.9315
" />
<path d="M6.0759 19.9315
L6.0759 19.8710
" />
<path d="M6.0759 19.8710
L6.1363 19.7500
" />
<path d="M6.1363 19.7500
L6.2573 19.6896
" />
<path d="M6.2573 19.6896
L6.4387 19.6896
" />
<path d="M6.4387 19.6896
L6.5597 19.7500
" />
<path d="M7.7087 19.6896
L7.7087 20.5362
" />
<path d="M7.1644 19.6896
L7.1644 20.3548
" />
<path d="M7.1644 20.3548
L7.2249 20.4758
" />
<path d="M7.2249 20.4758
L7.3459 20.5362
" />
<path d="M7.3459 20.5362
L7.5273 20.5362
" />
<path d="M7.5273 20.5362
L7.6482 20.4758
" />
<path d="M7.6482 20.4758
L7.7087 20.4153
" />
<path d="M8.3134 20.5362
L8.3134 19.6896
" />
<path d="M8.3134 19.9315
L8.3739 19.8105
" />
<path d="M8.3739 19.8105
L8.4344 19.7500
" />
<path d="M8.4344 19.7500
L8.5553 19.6896
" />
<path d="M8.5553 19.6896
L8.6763 19.6896
" />
<path d="M9.5834 20.4758
L9.4625 20.5362
" />
<path d="M9.4625 20.5362
L9.2206 20.5362
" />
<path d="M9.2206 20.5362
L9.0996 20.4758
" />
<path d="M9.0996 20.4758
L9.0392 20.3548
" />
<path d="M9.0392 20.3548
L9.0392 19.8710
" />
<path d="M9.0392 19.8710
L9.0996 19.7500
" />
<path d="M9.0996 19.7500
L9.2206 19.6896
" />
<path d="M9.2206 19.6896
L9.4625 19.6896
" />
<path d="M9.4625 19.6896
L9.5834 19.7500
" />
<path d="M9.5834 19.7500
L9.6439 19.8710
" />
<path d="M9.6439 19.8710
L9.6439 19.9919
" />
<path d="M9.6439 19.9919
L9.0392 20.1129
" />
<path d="M9.8859 20.6572
L10.8535 20.6572
" />
<path d="M11.5792 19.8710
L11.7606 19.9315
" />
<path d="M11.7606 19.9315
L11.8211 19.9919
" />
<path d="M11.8211 19.9919
L11.8815 20.1129
" />
<path d="M11.8815 20.1129
L11.8815 20.2943
" />
<path d="M11.8815 20.2943
L11.8211 20.4153
" />
<path d="M11.8211 20.4153
L11.7606 20.4758
" />
<path d="M11.7606 20.4758
L11.6396 20.5362
" />
<path d="M11.6396 20.5362
L11.1558 20.5362
" />
<path d="M11.1558 20.5362
L11.1558 19.2662
" />
<path d="M11.1558 19.2662
L11.5792 19.2662
" />
<path d="M11.5792 19.2662
L11.7001 19.3267
" />
<path d="M11.7001 19.3267
L11.7606 19.3872
" />
<path d="M11.7606 19.3872
L11.8211 19.5081
" />
<path d="M11.8211 19.5081
L11.8211 19.6291
" />
<path d="M11.8211 19.6291
L11.7606 19.7500
" />
<path d="M11.7606 19.7500
L11.7001 19.8105
" />
<path d="M11.7001 19.8105
L11.5792 19.8710
" />
<path d="M11.5792 19.8710
L11.1558 19.8710
" />
<path d="M12.9701 19.6896
L12.9701 20.5362
" />
<path d="M12.4258 19.6896
L12.4258 20.3548
" />
<path d="M12.4258 20.3548
L12.4863 20.4758
" />
<path d="M12.4863 20.4758
L12.6073 20.5362
" />
<path d="M12.6073 20.5362
L12.7887 20.5362
" />
<path d="M12.7887 20.5362
L12.9096 20.4758
" />
<path d="M12.9096 20.4758
L12.9701 20.4153
" />
<path d="M13.5748 20.5362
L13.5748 19.6896
" />
<path d="M13.5748 19.9315
L13.6353 19.8105
" />
<path d="M13.6353 19.8105
L13.6958 19.7500
" />
<path d="M13.6958 19.7500
L13.8167 19.6896
" />
<path d="M13.8167 19.6896
L13.9377 19.6896
" />
<path d="M14.3006 20.4758
L14.4215 20.5362
" />
<path d="M14.4215 20.5362
L14.6634 20.5362
" />
<path d="M14.6634 20.5362
L14.7844 20.4758
" />
<path d="M14.7844 20.4758
L14.8448 20.3548
" />
<path d="M14.8448 20.3548
L14.8448 20.2943
" />
<path d="M14.8448 20.2943
L14.7844 20.1734
" />
<path d="M14.7844 20.1734
L14.6634 20.1129
" />
<path d="M14.6634 20.1129
L14.4820 20.1129
" />
<path d="M14.4820 20.1129
L14.3610 20.0524
" />
<path d="M14.3610 20.0524
L14.3006 19.9315
" />
<path d="M14.3006 19.9315
L14.3006 19.8710
" />
<path d="M14.3006 19.8710
L14.3610 19.7500
" />
<path d="M14.3610 19.7500
L14.4820 19.6896
" />
<path d="M14.4820 19.6896
L14.6634 19.6896
" />
<path d="M14.6634 19.6896
L14.7844 19.7500
" />
<path d="M15.2077 19.6896
L15.6915 19.6896
" />
<path d="M15.3891 19.2662
L15.3891 20.3548
" />
<path d="M15.3891 20.3548
L15.4496 20.4758
" />
<path d="M15.4496 20.4758
L15.5706 20.5362
" />
<path d="M15.5706 20.5362
L15.6915 20.5362
" />
<path d="M15.8125 20.6572
L16.7801 20.6572
" />
<path d="M17.0824 20.5362
L17.0824 19.2662
" />
<path d="M17.0824 19.2662
L17.3848 19.2662
" />
<path d="M17.3848 19.2662
L17.5662 19.3267
" />
<path d="M17.5662 19.3267
L17.6872 19.4477
" />
<path d="M17.6872 19.4477
L17.7477 19.5686
" />
<path d="M17.7477 19.5686
L17.8081 19.8105
" />
<path d="M17.8081 19.8105
L17.8081 19.9919
" />
<path d="M17.8081 19.9919
L17.7477 20.2338
" />
<path d="M17.7477 20.2338
L17.6872 20.3548
" />
<path d="M17.6872 20.3548
L17.5662 20.4758
" />
<path d="M17.5662 20.4758
L17.3848 20.5362
" />
<path d="M17.3848 20.5362
L17.0824 20.5362
" />
<path d="M18.3524 20.5362
L18.3524 19.6896
" />
<path d="M18.3524 19.2662
L18.2920 19.3267
" />
<path d="M18.2920 19.3267
L18.3524 19.3872
" />
<path d="M18.3524 19.3872
L18.4129 19.3267
" />
<path d="M18.4129 19.3267
L18.3524 19.2662
" />
<path d="M18.3524 19.2662
L18.3524 19.3872
" />
<path d="M18.8968 20.4758
L19.0177 20.5362
" />
<path d="M19.0177 20.5362
L19.2596 20.5362
" />
<path d="M19.2596 20.5362
L19.3806 20.4758
" />
<path d="M19.3806 20.4758
L19.4410 20.3548
" />
<path d="M19.4410 20.3548
L19.4410 20.2943
" />
<path d="M19.4410 20.2943
L19.3806 20.1734
" />
<path d="M19.3806 20.1734
L19.2596 20.1129
" />
<path d="M19.2596 20.1129
L19.0782 20.1129
" />
<path d="M19.0782 20.1129
L18.9572 20.0524
" />
<path d="M18.9572 20.0524
L18.8968 19.9315
" />
<path d="M18.8968 19.9315
L18.8968 19.8710
" />
<path d="M18.8968 19.8710
L18.9572 19.7500
" />
<path d="M18.9572 19.7500
L19.0782 19.6896
" />
<path d="M19.0782 19.6896
L19.2596 19.6896
" />
<path d="M19.2596 19.6896
L19.3806 19.7500
" />
<path d="M19.9853 20.5362
L19.9853 19.2662
" />
<path d="M20.1063 20.0524
L20.4691 20.5362
" />
<path d="M20.4691 19.6896
L19.9853 20.1734
" />
<path d="M21.1949 20.4153
L21.2553 20.4758
" />
<path d="M21.2553 20.4758
L21.1949 20.5362
" />
<path d="M21.1949 20.5362
L21.1344 20.4758
" />
<path d="M21.1344 20.4758
L21.1949 20.4153
" />
<path d="M21.1949 20.4153
L21.1949 20.5362
" />
<path d="M20.9530 19.3267
L21.0739 19.2662
" />
<path d="M21.0739 19.2662
L21.3763 19.2662
" />
<path d="M21.3763 19.2662
L21.4972 19.3267
" />
<path d="M21.4972 19.3267
L21.5577 19.4477
" />
<path d="M21.5577 19.4477
L21.5577 19.5686
" />
<path d="M21.5577 19.5686
L21.4972 19.6896
" />
<path d="M21.4972 19.6896
L21.4368 19.7500
" />
<path d="M21.4368 19.7500
L21.3158 19.8105
" />
<path d="M21.3158 19.8105
L21.2553 19.8710
" />
<path d="M21.2553 19.8710
L21.1949 19.9919
" />
<path d="M21.1949 19.9919
L21.1949 20.0524
" />
</g></g> 
</svg>
