<?xml version="1.0" standalone="no"?>
 <!DOCTYPE svg PUBLIC "-//W3C//DTD SVG 1.1//EN" 
 "http://www.w3.org/Graphics/SVG/1.1/DTD/svg11.dtd"> 
<svg
  xmlns:svg="http://www.w3.org/2000/svg"
  xmlns="http://www.w3.org/2000/svg"
  xmlns:xlink="http://www.w3.org/1999/xlink"
  version="1.1"
  width="19.3294mm" height="22.8854mm" viewBox="0.0000 0.0000 19.3294 22.8854">
<title>SVG Image created as cap.svg date 2024/12/15 16:48:06 </title>
  <desc>Image generated by Eeschema-SVG </desc>
<g style="fill:#000000; fill-opacity:1.0000;stroke:#000000; stroke-opacity:1.0000;
stroke-linecap:round; stroke-linejoin:round;"
 transform="translate(0 0) scale(1 1)">
</g>
<g style="fill:none; 
stroke:#840000; stroke-width:0.1000; stroke-opacity:1; 
stroke-linecap:round; stroke-linejoin:round;">
<path d="M9.6647 12.9569 A2.9997 2.9997 0.0 0 0 12.6647 9.9569" />
<path style="fill:none; 
stroke:#840000; stroke-width:0.1000; stroke-opacity:1; 
stroke-linecap:round; stroke-linejoin:round;fill:none"
d="M 9.6647,6.9569
9.6647,12.9569
" /> 
<path d="M12.6647 9.9569 A2.9997 2.9997 0.0 0 0 9.6647 6.9575" />
</g>
<g style="fill:none; 
stroke:#840000; stroke-width:0.1524; stroke-opacity:1; 
stroke-linecap:round; stroke-linejoin:round;">
<path d="M9.6647 9.9569
L6.6647 9.9569
" />
</g>
<g style="fill:none; 
stroke:#006464; stroke-width:0.1588; stroke-opacity:1; 
stroke-linecap:round; stroke-linejoin:round;">
<text x="9.6647" y="20.5920"
textLength="4.8790" font-size="1.6933" lengthAdjust="spacingAndGlyphs"
text-anchor="middle" opacity="0" stroke-opacity="0">Cap?</text>
<g class="stroked-text"><desc>Cap?</desc>
<path d="M8.3644 20.4153
L8.3040 20.4758
" />
<path d="M8.3040 20.4758
L8.1225 20.5362
" />
<path d="M8.1225 20.5362
L8.0016 20.5362
" />
<path d="M8.0016 20.5362
L7.8202 20.4758
" />
<path d="M7.8202 20.4758
L7.6992 20.3548
" />
<path d="M7.6992 20.3548
L7.6387 20.2338
" />
<path d="M7.6387 20.2338
L7.5783 19.9919
" />
<path d="M7.5783 19.9919
L7.5783 19.8105
" />
<path d="M7.5783 19.8105
L7.6387 19.5686
" />
<path d="M7.6387 19.5686
L7.6992 19.4477
" />
<path d="M7.6992 19.4477
L7.8202 19.3267
" />
<path d="M7.8202 19.3267
L8.0016 19.2662
" />
<path d="M8.0016 19.2662
L8.1225 19.2662
" />
<path d="M8.1225 19.2662
L8.3040 19.3267
" />
<path d="M8.3040 19.3267
L8.3644 19.3872
" />
<path d="M9.4530 20.5362
L9.4530 19.8710
" />
<path d="M9.4530 19.8710
L9.3925 19.7500
" />
<path d="M9.3925 19.7500
L9.2716 19.6896
" />
<path d="M9.2716 19.6896
L9.0297 19.6896
" />
<path d="M9.0297 19.6896
L8.9087 19.7500
" />
<path d="M9.4530 20.4758
L9.3321 20.5362
" />
<path d="M9.3321 20.5362
L9.0297 20.5362
" />
<path d="M9.0297 20.5362
L8.9087 20.4758
" />
<path d="M8.9087 20.4758
L8.8483 20.3548
" />
<path d="M8.8483 20.3548
L8.8483 20.2338
" />
<path d="M8.8483 20.2338
L8.9087 20.1129
" />
<path d="M8.9087 20.1129
L9.0297 20.0524
" />
<path d="M9.0297 20.0524
L9.3321 20.0524
" />
<path d="M9.3321 20.0524
L9.4530 19.9919
" />
<path d="M10.0577 19.6896
L10.0577 20.9596
" />
<path d="M10.0577 19.7500
L10.1787 19.6896
" />
<path d="M10.1787 19.6896
L10.4206 19.6896
" />
<path d="M10.4206 19.6896
L10.5415 19.7500
" />
<path d="M10.5415 19.7500
L10.6020 19.8105
" />
<path d="M10.6020 19.8105
L10.6625 19.9315
" />
<path d="M10.6625 19.9315
L10.6625 20.2943
" />
<path d="M10.6625 20.2943
L10.6020 20.4153
" />
<path d="M10.6020 20.4153
L10.5415 20.4758
" />
<path d="M10.5415 20.4758
L10.4206 20.5362
" />
<path d="M10.4206 20.5362
L10.1787 20.5362
" />
<path d="M10.1787 20.5362
L10.0577 20.4758
" />
<path d="M11.3882 20.4153
L11.4486 20.4758
" />
<path d="M11.4486 20.4758
L11.3882 20.5362
" />
<path d="M11.3882 20.5362
L11.3277 20.4758
" />
<path d="M11.3277 20.4758
L11.3882 20.4153
" />
<path d="M11.3882 20.4153
L11.3882 20.5362
" />
<path d="M11.1463 19.3267
L11.2672 19.2662
" />
<path d="M11.2672 19.2662
L11.5696 19.2662
" />
<path d="M11.5696 19.2662
L11.6905 19.3267
" />
<path d="M11.6905 19.3267
L11.7510 19.4477
" />
<path d="M11.7510 19.4477
L11.7510 19.5686
" />
<path d="M11.7510 19.5686
L11.6905 19.6896
" />
<path d="M11.6905 19.6896
L11.6301 19.7500
" />
<path d="M11.6301 19.7500
L11.5091 19.8105
" />
<path d="M11.5091 19.8105
L11.4486 19.8710
" />
<path d="M11.4486 19.8710
L11.3882 19.9919
" />
<path d="M11.3882 19.9919
L11.3882 20.0524
" />
</g></g> 
</svg>
