<?xml version="1.0" standalone="no"?>
 <!DOCTYPE svg PUBLIC "-//W3C//DTD SVG 1.1//EN" 
 "http://www.w3.org/Graphics/SVG/1.1/DTD/svg11.dtd"> 
<svg
  xmlns:svg="http://www.w3.org/2000/svg"
  xmlns="http://www.w3.org/2000/svg"
  xmlns:xlink="http://www.w3.org/1999/xlink"
  version="1.1"
  width="48.1076mm" height="48.1076mm" viewBox="0.0000 0.0000 48.1076 48.1076">
<title>SVG Image created as engine - solid.svg date 2024/12/15 16:48:06 </title>
  <desc>Image generated by Eeschema-SVG </desc>
<g style="fill:#000000; fill-opacity:1.0000;stroke:#000000; stroke-opacity:1.0000;
stroke-linecap:round; stroke-linejoin:round;"
 transform="translate(0 0) scale(1 1)">
</g>
<g style="fill:#840000; fill-opacity:1.0000; 
stroke:#840000; stroke-width:0.1000; stroke-opacity:1; 
stroke-linecap:round; stroke-linejoin:round;">
<rect x="21.053800" y="13.053800" width="2.000000" height="6.000000" rx="0.000000" />
<path style="fill:none; 
stroke:#840000; stroke-width:0.1000; stroke-opacity:1; 
stroke-linecap:round; stroke-linejoin:round;fill:none"
d="M 25.0538,24.0538
28.0538,29.0538
" /> 
<path style="fill:none; 
stroke:#840000; stroke-width:0.1000; stroke-opacity:1; 
stroke-linecap:round; stroke-linejoin:round;fill:none"
d="M 24.0538,12.0538
27.0538,12.0538
27.0538,20.0538
25.0538,24.0538
" /> 
<path style="fill:none; 
stroke:#840000; stroke-width:0.1000; stroke-opacity:1; 
stroke-linecap:round; stroke-linejoin:round;fill:none"
d="M 24.0538,12.0538
21.0538,12.0538
21.0538,20.0538
23.0538,24.0538
20.0538,29.0538
" /> 
</g>
<g style="fill:#840000; fill-opacity:1.0000; 
stroke:#840000; stroke-width:0.1000; stroke-opacity:1; 
stroke-linecap:round; stroke-linejoin:round;">
<rect x="25.053800" y="13.053800" width="2.000000" height="6.000000" rx="0.000000" />
</g>
<g style="fill:none; 
stroke:#006464; stroke-width:0.1588; stroke-opacity:1; 
stroke-linecap:round; stroke-linejoin:round;">
<text x="24.0538" y="34.6889"
textLength="13.3455" font-size="1.6933" lengthAdjust="spacingAndGlyphs"
text-anchor="middle" opacity="0" stroke-opacity="0">Engine_Solid?</text>
<g class="stroked-text"><desc>Engine_Solid?</desc>
<path d="M17.7946 33.9679
L18.2180 33.9679
" />
<path d="M18.3994 34.6331
L17.7946 34.6331
" />
<path d="M17.7946 34.6331
L17.7946 33.3631
" />
<path d="M17.7946 33.3631
L18.3994 33.3631
" />
<path d="M18.9436 33.7865
L18.9436 34.6331
" />
<path d="M18.9436 33.9074
L19.0041 33.8469
" />
<path d="M19.0041 33.8469
L19.1251 33.7865
" />
<path d="M19.1251 33.7865
L19.3065 33.7865
" />
<path d="M19.3065 33.7865
L19.4274 33.8469
" />
<path d="M19.4274 33.8469
L19.4879 33.9679
" />
<path d="M19.4879 33.9679
L19.4879 34.6331
" />
<path d="M20.6369 33.7865
L20.6369 34.8146
" />
<path d="M20.6369 34.8146
L20.5764 34.9355
" />
<path d="M20.5764 34.9355
L20.5160 34.9960
" />
<path d="M20.5160 34.9960
L20.3950 35.0565
" />
<path d="M20.3950 35.0565
L20.2136 35.0565
" />
<path d="M20.2136 35.0565
L20.0926 34.9960
" />
<path d="M20.6369 34.5727
L20.5160 34.6331
" />
<path d="M20.5160 34.6331
L20.2741 34.6331
" />
<path d="M20.2741 34.6331
L20.1531 34.5727
" />
<path d="M20.1531 34.5727
L20.0926 34.5122
" />
<path d="M20.0926 34.5122
L20.0322 34.3912
" />
<path d="M20.0322 34.3912
L20.0322 34.0284
" />
<path d="M20.0322 34.0284
L20.0926 33.9074
" />
<path d="M20.0926 33.9074
L20.1531 33.8469
" />
<path d="M20.1531 33.8469
L20.2741 33.7865
" />
<path d="M20.2741 33.7865
L20.5160 33.7865
" />
<path d="M20.5160 33.7865
L20.6369 33.8469
" />
<path d="M21.2416 34.6331
L21.2416 33.7865
" />
<path d="M21.2416 33.3631
L21.1812 33.4236
" />
<path d="M21.1812 33.4236
L21.2416 33.4841
" />
<path d="M21.2416 33.4841
L21.3021 33.4236
" />
<path d="M21.3021 33.4236
L21.2416 33.3631
" />
<path d="M21.2416 33.3631
L21.2416 33.4841
" />
<path d="M21.8464 33.7865
L21.8464 34.6331
" />
<path d="M21.8464 33.9074
L21.9069 33.8469
" />
<path d="M21.9069 33.8469
L22.0279 33.7865
" />
<path d="M22.0279 33.7865
L22.2093 33.7865
" />
<path d="M22.2093 33.7865
L22.3302 33.8469
" />
<path d="M22.3302 33.8469
L22.3907 33.9679
" />
<path d="M22.3907 33.9679
L22.3907 34.6331
" />
<path d="M23.4792 34.5727
L23.3583 34.6331
" />
<path d="M23.3583 34.6331
L23.1164 34.6331
" />
<path d="M23.1164 34.6331
L22.9954 34.5727
" />
<path d="M22.9954 34.5727
L22.9350 34.4517
" />
<path d="M22.9350 34.4517
L22.9350 33.9679
" />
<path d="M22.9350 33.9679
L22.9954 33.8469
" />
<path d="M22.9954 33.8469
L23.1164 33.7865
" />
<path d="M23.1164 33.7865
L23.3583 33.7865
" />
<path d="M23.3583 33.7865
L23.4792 33.8469
" />
<path d="M23.4792 33.8469
L23.5397 33.9679
" />
<path d="M23.5397 33.9679
L23.5397 34.0888
" />
<path d="M23.5397 34.0888
L22.9350 34.2098
" />
<path d="M23.7817 34.7541
L24.7493 34.7541
" />
<path d="M24.9912 34.5727
L25.1726 34.6331
" />
<path d="M25.1726 34.6331
L25.4750 34.6331
" />
<path d="M25.4750 34.6331
L25.5959 34.5727
" />
<path d="M25.5959 34.5727
L25.6564 34.5122
" />
<path d="M25.6564 34.5122
L25.7169 34.3912
" />
<path d="M25.7169 34.3912
L25.7169 34.2703
" />
<path d="M25.7169 34.2703
L25.6564 34.1493
" />
<path d="M25.6564 34.1493
L25.5959 34.0888
" />
<path d="M25.5959 34.0888
L25.4750 34.0284
" />
<path d="M25.4750 34.0284
L25.2331 33.9679
" />
<path d="M25.2331 33.9679
L25.1121 33.9074
" />
<path d="M25.1121 33.9074
L25.0516 33.8469
" />
<path d="M25.0516 33.8469
L24.9912 33.7260
" />
<path d="M24.9912 33.7260
L24.9912 33.6050
" />
<path d="M24.9912 33.6050
L25.0516 33.4841
" />
<path d="M25.0516 33.4841
L25.1121 33.4236
" />
<path d="M25.1121 33.4236
L25.2331 33.3631
" />
<path d="M25.2331 33.3631
L25.5354 33.3631
" />
<path d="M25.5354 33.3631
L25.7169 33.4236
" />
<path d="M26.4426 34.6331
L26.3216 34.5727
" />
<path d="M26.3216 34.5727
L26.2611 34.5122
" />
<path d="M26.2611 34.5122
L26.2007 34.3912
" />
<path d="M26.2007 34.3912
L26.2007 34.0284
" />
<path d="M26.2007 34.0284
L26.2611 33.9074
" />
<path d="M26.2611 33.9074
L26.3216 33.8469
" />
<path d="M26.3216 33.8469
L26.4426 33.7865
" />
<path d="M26.4426 33.7865
L26.6240 33.7865
" />
<path d="M26.6240 33.7865
L26.7449 33.8469
" />
<path d="M26.7449 33.8469
L26.8054 33.9074
" />
<path d="M26.8054 33.9074
L26.8659 34.0284
" />
<path d="M26.8659 34.0284
L26.8659 34.3912
" />
<path d="M26.8659 34.3912
L26.8054 34.5122
" />
<path d="M26.8054 34.5122
L26.7449 34.5727
" />
<path d="M26.7449 34.5727
L26.6240 34.6331
" />
<path d="M26.6240 34.6331
L26.4426 34.6331
" />
<path d="M27.5916 34.6331
L27.4706 34.5727
" />
<path d="M27.4706 34.5727
L27.4101 34.4517
" />
<path d="M27.4101 34.4517
L27.4101 33.3631
" />
<path d="M28.0753 34.6331
L28.0753 33.7865
" />
<path d="M28.0753 33.3631
L28.0149 33.4236
" />
<path d="M28.0149 33.4236
L28.0753 33.4841
" />
<path d="M28.0753 33.4841
L28.1358 33.4236
" />
<path d="M28.1358 33.4236
L28.0753 33.3631
" />
<path d="M28.0753 33.3631
L28.0753 33.4841
" />
<path d="M29.2244 34.6331
L29.2244 33.3631
" />
<path d="M29.2244 34.5727
L29.1035 34.6331
" />
<path d="M29.1035 34.6331
L28.8616 34.6331
" />
<path d="M28.8616 34.6331
L28.7406 34.5727
" />
<path d="M28.7406 34.5727
L28.6801 34.5122
" />
<path d="M28.6801 34.5122
L28.6197 34.3912
" />
<path d="M28.6197 34.3912
L28.6197 34.0284
" />
<path d="M28.6197 34.0284
L28.6801 33.9074
" />
<path d="M28.6801 33.9074
L28.7406 33.8469
" />
<path d="M28.7406 33.8469
L28.8616 33.7865
" />
<path d="M28.8616 33.7865
L29.1035 33.7865
" />
<path d="M29.1035 33.7865
L29.2244 33.8469
" />
<path d="M30.0106 34.5122
L30.0710 34.5727
" />
<path d="M30.0710 34.5727
L30.0106 34.6331
" />
<path d="M30.0106 34.6331
L29.9501 34.5727
" />
<path d="M29.9501 34.5727
L30.0106 34.5122
" />
<path d="M30.0106 34.5122
L30.0106 34.6331
" />
<path d="M29.7687 33.4236
L29.8896 33.3631
" />
<path d="M29.8896 33.3631
L30.1920 33.3631
" />
<path d="M30.1920 33.3631
L30.3129 33.4236
" />
<path d="M30.3129 33.4236
L30.3734 33.5446
" />
<path d="M30.3734 33.5446
L30.3734 33.6655
" />
<path d="M30.3734 33.6655
L30.3129 33.7865
" />
<path d="M30.3129 33.7865
L30.2525 33.8469
" />
<path d="M30.2525 33.8469
L30.1315 33.9074
" />
<path d="M30.1315 33.9074
L30.0710 33.9679
" />
<path d="M30.0710 33.9679
L30.0106 34.0888
" />
<path d="M30.0106 34.0888
L30.0106 34.1493
" />
</g></g> 
</svg>
