<?xml version="1.0" standalone="no"?>
 <!DOCTYPE svg PUBLIC "-//W3C//DTD SVG 1.1//EN" 
 "http://www.w3.org/Graphics/SVG/1.1/DTD/svg11.dtd"> 
<svg
  xmlns:svg="http://www.w3.org/2000/svg"
  xmlns="http://www.w3.org/2000/svg"
  xmlns:xlink="http://www.w3.org/1999/xlink"
  version="1.1"
  width="23.4696mm" height="22.8854mm" viewBox="0.0000 0.0000 23.4696 22.8854">
<title>SVG Image created as filter.svg date 2024/12/16 14:50:38 </title>
  <desc>Image generated by Eeschema-SVG </desc>
<g style="fill:#000000; fill-opacity:1.0000;stroke:#000000; stroke-opacity:1.0000;
stroke-linecap:round; stroke-linejoin:round;"
 transform="translate(0 0) scale(1 1)">
<path style="fill:none; 
stroke:#840000; stroke-width:0.1000; stroke-opacity:1; 
stroke-linecap:round; stroke-linejoin:round;fill:none"
d="M 9.1905,11.9569
9.1905,7.9569
" /> 
<path style="fill:none; 
stroke:#840000; stroke-width:0.1000; stroke-opacity:1; 
stroke-linecap:round; stroke-linejoin:round;fill:none"
d="M 9.1905,11.9569
13.1905,11.9569
" /> 
<path style="fill:none; 
stroke:#840000; stroke-width:0.1000; stroke-opacity:1; 
stroke-linecap:round; stroke-linejoin:round;stroke-dasharray:1.1000,0.4000;fill:none"
d="M 9.1905,11.9569
13.1905,7.9569
" /> 
<path style="fill:none; 
stroke:#840000; stroke-width:0.1000; stroke-opacity:1; 
stroke-linecap:round; stroke-linejoin:round;fill:none"
d="M 9.1905,7.9569
13.1905,7.9569
" /> 
<path style="fill:none; 
stroke:#840000; stroke-width:0.1000; stroke-opacity:1; 
stroke-linecap:round; stroke-linejoin:round;fill:none"
d="M 13.1905,7.9569
13.1905,11.9569
" /> 
<path style="fill:#840000; fill-opacity:1.0000; 
stroke:#840000; stroke-width:0.1000; stroke-opacity:1; 
stroke-linecap:round; stroke-linejoin:round;fill-rule:evenodd;"
d="M 8.1905,9.9569
8.1905,9.7069
9.1905,9.9569
8.1905,10.2069
Z" /> 
<path style="fill:#840000; fill-opacity:1.0000; 
stroke:#840000; stroke-width:0.1000; stroke-opacity:1; 
stroke-linecap:round; stroke-linejoin:round;fill-rule:evenodd;"
d="M 15.1905,9.9569
15.1905,9.7069
16.1905,9.9569
15.1905,10.2069
Z" /> 
</g>
<g style="fill:none; 
stroke:#840000; stroke-width:0.1524; stroke-opacity:1; 
stroke-linecap:round; stroke-linejoin:round;">
<path d="M9.1905 9.9569
L6.1905 9.9569
" />
<path d="M13.1905 9.9569
L16.1905 9.9569
" />
</g>
<g style="fill:none; 
stroke:#006464; stroke-width:0.1588; stroke-opacity:1; 
stroke-linecap:round; stroke-linejoin:round;">
<text x="11.1905" y="20.5920"
textLength="6.2701" font-size="1.6933" lengthAdjust="spacingAndGlyphs"
text-anchor="middle" opacity="0" stroke-opacity="0">Filter?</text>
<g class="stroked-text"><desc>Filter?</desc>
<path d="M8.8924 19.8710
L8.4690 19.8710
" />
<path d="M8.4690 20.5362
L8.4690 19.2662
" />
<path d="M8.4690 19.2662
L9.0738 19.2662
" />
<path d="M9.5576 20.5362
L9.5576 19.6896
" />
<path d="M9.5576 19.2662
L9.4972 19.3267
" />
<path d="M9.4972 19.3267
L9.5576 19.3872
" />
<path d="M9.5576 19.3872
L9.6181 19.3267
" />
<path d="M9.6181 19.3267
L9.5576 19.2662
" />
<path d="M9.5576 19.2662
L9.5576 19.3872
" />
<path d="M10.3439 20.5362
L10.2229 20.4758
" />
<path d="M10.2229 20.4758
L10.1624 20.3548
" />
<path d="M10.1624 20.3548
L10.1624 19.2662
" />
<path d="M10.6462 19.6896
L11.1300 19.6896
" />
<path d="M10.8276 19.2662
L10.8276 20.3548
" />
<path d="M10.8276 20.3548
L10.8881 20.4758
" />
<path d="M10.8881 20.4758
L11.0091 20.5362
" />
<path d="M11.0091 20.5362
L11.1300 20.5362
" />
<path d="M12.0371 20.4758
L11.9162 20.5362
" />
<path d="M11.9162 20.5362
L11.6743 20.5362
" />
<path d="M11.6743 20.5362
L11.5533 20.4758
" />
<path d="M11.5533 20.4758
L11.4929 20.3548
" />
<path d="M11.4929 20.3548
L11.4929 19.8710
" />
<path d="M11.4929 19.8710
L11.5533 19.7500
" />
<path d="M11.5533 19.7500
L11.6743 19.6896
" />
<path d="M11.6743 19.6896
L11.9162 19.6896
" />
<path d="M11.9162 19.6896
L12.0371 19.7500
" />
<path d="M12.0371 19.7500
L12.0976 19.8710
" />
<path d="M12.0976 19.8710
L12.0976 19.9919
" />
<path d="M12.0976 19.9919
L11.4929 20.1129
" />
<path d="M12.6419 20.5362
L12.6419 19.6896
" />
<path d="M12.6419 19.9315
L12.7024 19.8105
" />
<path d="M12.7024 19.8105
L12.7629 19.7500
" />
<path d="M12.7629 19.7500
L12.8838 19.6896
" />
<path d="M12.8838 19.6896
L13.0048 19.6896
" />
<path d="M13.6096 20.4153
L13.6700 20.4758
" />
<path d="M13.6700 20.4758
L13.6096 20.5362
" />
<path d="M13.6096 20.5362
L13.5491 20.4758
" />
<path d="M13.5491 20.4758
L13.6096 20.4153
" />
<path d="M13.6096 20.4153
L13.6096 20.5362
" />
<path d="M13.3677 19.3267
L13.4886 19.2662
" />
<path d="M13.4886 19.2662
L13.7910 19.2662
" />
<path d="M13.7910 19.2662
L13.9119 19.3267
" />
<path d="M13.9119 19.3267
L13.9724 19.4477
" />
<path d="M13.9724 19.4477
L13.9724 19.5686
" />
<path d="M13.9724 19.5686
L13.9119 19.6896
" />
<path d="M13.9119 19.6896
L13.8515 19.7500
" />
<path d="M13.8515 19.7500
L13.7305 19.8105
" />
<path d="M13.7305 19.8105
L13.6700 19.8710
" />
<path d="M13.6700 19.8710
L13.6096 19.9919
" />
<path d="M13.6096 19.9919
L13.6096 20.0524
" />
</g></g> 
</svg>
