<?xml version="1.0" standalone="no"?>
 <!DOCTYPE svg PUBLIC "-//W3C//DTD SVG 1.1//EN" 
 "http://www.w3.org/Graphics/SVG/1.1/DTD/svg11.dtd"> 
<svg
  xmlns:svg="http://www.w3.org/2000/svg"
  xmlns="http://www.w3.org/2000/svg"
  xmlns:xlink="http://www.w3.org/1999/xlink"
  version="1.1"
  width="23.4696mm" height="22.8854mm" viewBox="0.0000 0.0000 23.4696 22.8854">
<title>SVG Image created as filter - conical.svg date 2024/12/15 16:48:06 </title>
  <desc>Image generated by Eeschema-SVG </desc>
<g style="fill:#000000; fill-opacity:1.0000;stroke:#000000; stroke-opacity:1.0000;
stroke-linecap:round; stroke-linejoin:round;"
 transform="translate(0 0) scale(1 1)">
<path style="fill:none; 
stroke:#840000; stroke-width:0.1000; stroke-opacity:1; 
stroke-linecap:round; stroke-linejoin:round;fill:none"
d="M 13.1905,9.9569
11.1905,11.9569
" /> 
<path style="fill:none; 
stroke:#840000; stroke-width:0.1000; stroke-opacity:1; 
stroke-linecap:round; stroke-linejoin:round;fill:none"
d="M 13.1905,9.9569
11.1905,7.9569
" /> 
<path style="fill:#840000; fill-opacity:1.0000; 
stroke:#840000; stroke-width:0.1000; stroke-opacity:1; 
stroke-linecap:round; stroke-linejoin:round;fill-rule:evenodd;"
d="M 8.1905,9.9569
8.1905,9.7069
9.1905,9.9569
8.1905,10.2069
Z" /> 
<path style="fill:#840000; fill-opacity:1.0000; 
stroke:#840000; stroke-width:0.1000; stroke-opacity:1; 
stroke-linecap:round; stroke-linejoin:round;fill-rule:evenodd;"
d="M 15.1905,9.9569
15.1905,9.7069
16.1905,9.9569
15.1905,10.2069
Z" /> 
</g>
<g style="fill:none; 
stroke:#840000; stroke-width:0.1000; stroke-opacity:1; 
stroke-linecap:round; stroke-linejoin:round;">
<circle cx="11.1905" cy="9.9569" r="2.0000" /> 
</g>
<g style="fill:none; 
stroke:#840000; stroke-width:0.1524; stroke-opacity:1; 
stroke-linecap:round; stroke-linejoin:round;">
<path d="M9.1905 9.9569
L6.1905 9.9569
" />
<path d="M13.1905 9.9569
L16.1905 9.9569
" />
</g>
<g style="fill:none; 
stroke:#006464; stroke-width:0.1588; stroke-opacity:1; 
stroke-linecap:round; stroke-linejoin:round;">
<text x="11.1905" y="20.5920"
textLength="14.3133" font-size="1.6933" lengthAdjust="spacingAndGlyphs"
text-anchor="middle" opacity="0" stroke-opacity="0">Conical_Filter?</text>
<g class="stroked-text"><desc>Conical_Filter?</desc>
<path d="M5.1731 20.4153
L5.1127 20.4758
" />
<path d="M5.1127 20.4758
L4.9312 20.5362
" />
<path d="M4.9312 20.5362
L4.8103 20.5362
" />
<path d="M4.8103 20.5362
L4.6289 20.4758
" />
<path d="M4.6289 20.4758
L4.5079 20.3548
" />
<path d="M4.5079 20.3548
L4.4474 20.2338
" />
<path d="M4.4474 20.2338
L4.3870 19.9919
" />
<path d="M4.3870 19.9919
L4.3870 19.8105
" />
<path d="M4.3870 19.8105
L4.4474 19.5686
" />
<path d="M4.4474 19.5686
L4.5079 19.4477
" />
<path d="M4.5079 19.4477
L4.6289 19.3267
" />
<path d="M4.6289 19.3267
L4.8103 19.2662
" />
<path d="M4.8103 19.2662
L4.9312 19.2662
" />
<path d="M4.9312 19.2662
L5.1127 19.3267
" />
<path d="M5.1127 19.3267
L5.1731 19.3872
" />
<path d="M5.8989 20.5362
L5.7779 20.4758
" />
<path d="M5.7779 20.4758
L5.7174 20.4153
" />
<path d="M5.7174 20.4153
L5.6570 20.2943
" />
<path d="M5.6570 20.2943
L5.6570 19.9315
" />
<path d="M5.6570 19.9315
L5.7174 19.8105
" />
<path d="M5.7174 19.8105
L5.7779 19.7500
" />
<path d="M5.7779 19.7500
L5.8989 19.6896
" />
<path d="M5.8989 19.6896
L6.0803 19.6896
" />
<path d="M6.0803 19.6896
L6.2012 19.7500
" />
<path d="M6.2012 19.7500
L6.2617 19.8105
" />
<path d="M6.2617 19.8105
L6.3222 19.9315
" />
<path d="M6.3222 19.9315
L6.3222 20.2943
" />
<path d="M6.3222 20.2943
L6.2617 20.4153
" />
<path d="M6.2617 20.4153
L6.2012 20.4758
" />
<path d="M6.2012 20.4758
L6.0803 20.5362
" />
<path d="M6.0803 20.5362
L5.8989 20.5362
" />
<path d="M6.8664 19.6896
L6.8664 20.5362
" />
<path d="M6.8664 19.8105
L6.9269 19.7500
" />
<path d="M6.9269 19.7500
L7.0479 19.6896
" />
<path d="M7.0479 19.6896
L7.2293 19.6896
" />
<path d="M7.2293 19.6896
L7.3502 19.7500
" />
<path d="M7.3502 19.7500
L7.4107 19.8710
" />
<path d="M7.4107 19.8710
L7.4107 20.5362
" />
<path d="M8.0154 20.5362
L8.0154 19.6896
" />
<path d="M8.0154 19.2662
L7.9550 19.3267
" />
<path d="M7.9550 19.3267
L8.0154 19.3872
" />
<path d="M8.0154 19.3872
L8.0759 19.3267
" />
<path d="M8.0759 19.3267
L8.0154 19.2662
" />
<path d="M8.0154 19.2662
L8.0154 19.3872
" />
<path d="M9.1645 20.4758
L9.0436 20.5362
" />
<path d="M9.0436 20.5362
L8.8017 20.5362
" />
<path d="M8.8017 20.5362
L8.6807 20.4758
" />
<path d="M8.6807 20.4758
L8.6202 20.4153
" />
<path d="M8.6202 20.4153
L8.5598 20.2943
" />
<path d="M8.5598 20.2943
L8.5598 19.9315
" />
<path d="M8.5598 19.9315
L8.6202 19.8105
" />
<path d="M8.6202 19.8105
L8.6807 19.7500
" />
<path d="M8.6807 19.7500
L8.8017 19.6896
" />
<path d="M8.8017 19.6896
L9.0436 19.6896
" />
<path d="M9.0436 19.6896
L9.1645 19.7500
" />
<path d="M10.2531 20.5362
L10.2531 19.8710
" />
<path d="M10.2531 19.8710
L10.1926 19.7500
" />
<path d="M10.1926 19.7500
L10.0717 19.6896
" />
<path d="M10.0717 19.6896
L9.8298 19.6896
" />
<path d="M9.8298 19.6896
L9.7088 19.7500
" />
<path d="M10.2531 20.4758
L10.1322 20.5362
" />
<path d="M10.1322 20.5362
L9.8298 20.5362
" />
<path d="M9.8298 20.5362
L9.7088 20.4758
" />
<path d="M9.7088 20.4758
L9.6484 20.3548
" />
<path d="M9.6484 20.3548
L9.6484 20.2338
" />
<path d="M9.6484 20.2338
L9.7088 20.1129
" />
<path d="M9.7088 20.1129
L9.8298 20.0524
" />
<path d="M9.8298 20.0524
L10.1322 20.0524
" />
<path d="M10.1322 20.0524
L10.2531 19.9919
" />
<path d="M11.0393 20.5362
L10.9183 20.4758
" />
<path d="M10.9183 20.4758
L10.8578 20.3548
" />
<path d="M10.8578 20.3548
L10.8578 19.2662
" />
<path d="M11.2207 20.6572
L12.1883 20.6572
" />
<path d="M12.9140 19.8710
L12.4906 19.8710
" />
<path d="M12.4906 20.5362
L12.4906 19.2662
" />
<path d="M12.4906 19.2662
L13.0954 19.2662
" />
<path d="M13.5792 20.5362
L13.5792 19.6896
" />
<path d="M13.5792 19.2662
L13.5188 19.3267
" />
<path d="M13.5188 19.3267
L13.5792 19.3872
" />
<path d="M13.5792 19.3872
L13.6397 19.3267
" />
<path d="M13.6397 19.3267
L13.5792 19.2662
" />
<path d="M13.5792 19.2662
L13.5792 19.3872
" />
<path d="M14.3655 20.5362
L14.2445 20.4758
" />
<path d="M14.2445 20.4758
L14.1840 20.3548
" />
<path d="M14.1840 20.3548
L14.1840 19.2662
" />
<path d="M14.6678 19.6896
L15.1516 19.6896
" />
<path d="M14.8492 19.2662
L14.8492 20.3548
" />
<path d="M14.8492 20.3548
L14.9097 20.4758
" />
<path d="M14.9097 20.4758
L15.0307 20.5362
" />
<path d="M15.0307 20.5362
L15.1516 20.5362
" />
<path d="M16.0587 20.4758
L15.9378 20.5362
" />
<path d="M15.9378 20.5362
L15.6959 20.5362
" />
<path d="M15.6959 20.5362
L15.5749 20.4758
" />
<path d="M15.5749 20.4758
L15.5145 20.3548
" />
<path d="M15.5145 20.3548
L15.5145 19.8710
" />
<path d="M15.5145 19.8710
L15.5749 19.7500
" />
<path d="M15.5749 19.7500
L15.6959 19.6896
" />
<path d="M15.6959 19.6896
L15.9378 19.6896
" />
<path d="M15.9378 19.6896
L16.0587 19.7500
" />
<path d="M16.0587 19.7500
L16.1192 19.8710
" />
<path d="M16.1192 19.8710
L16.1192 19.9919
" />
<path d="M16.1192 19.9919
L15.5145 20.1129
" />
<path d="M16.6635 20.5362
L16.6635 19.6896
" />
<path d="M16.6635 19.9315
L16.7240 19.8105
" />
<path d="M16.7240 19.8105
L16.7845 19.7500
" />
<path d="M16.7845 19.7500
L16.9054 19.6896
" />
<path d="M16.9054 19.6896
L17.0264 19.6896
" />
<path d="M17.6312 20.4153
L17.6916 20.4758
" />
<path d="M17.6916 20.4758
L17.6312 20.5362
" />
<path d="M17.6312 20.5362
L17.5707 20.4758
" />
<path d="M17.5707 20.4758
L17.6312 20.4153
" />
<path d="M17.6312 20.4153
L17.6312 20.5362
" />
<path d="M17.3893 19.3267
L17.5102 19.2662
" />
<path d="M17.5102 19.2662
L17.8126 19.2662
" />
<path d="M17.8126 19.2662
L17.9335 19.3267
" />
<path d="M17.9335 19.3267
L17.9940 19.4477
" />
<path d="M17.9940 19.4477
L17.9940 19.5686
" />
<path d="M17.9940 19.5686
L17.9335 19.6896
" />
<path d="M17.9335 19.6896
L17.8731 19.7500
" />
<path d="M17.8731 19.7500
L17.7521 19.8105
" />
<path d="M17.7521 19.8105
L17.6916 19.8710
" />
<path d="M17.6916 19.8710
L17.6312 19.9919
" />
<path d="M17.6312 19.9919
L17.6312 20.0524
" />
</g></g> 
</svg>
