<?xml version="1.0" standalone="no"?>
 <!DOCTYPE svg PUBLIC "-//W3C//DTD SVG 1.1//EN" 
 "http://www.w3.org/Graphics/SVG/1.1/DTD/svg11.dtd"> 
<svg
  xmlns:svg="http://www.w3.org/2000/svg"
  xmlns="http://www.w3.org/2000/svg"
  xmlns:xlink="http://www.w3.org/1999/xlink"
  version="1.1"
  width="30.6578mm" height="22.8854mm" viewBox="0.0000 0.0000 30.6578 22.8854">
<title>SVG Image created as flexible hose.svg date 2024/12/15 16:48:06 </title>
  <desc>Image generated by Eeschema-SVG </desc>
<g style="fill:#000000; fill-opacity:1.0000;stroke:#000000; stroke-opacity:1.0000;
stroke-linecap:round; stroke-linejoin:round;"
 transform="translate(0 0) scale(1 1)">
</g>
<g style="fill:none; 
stroke:#840000; stroke-width:0.1524; stroke-opacity:1; 
stroke-linecap:round; stroke-linejoin:round;">
<path d="M9.7846 9.9569 A1.0001 1.0001 0.0 0 0 10.7846 10.9573" />
<rect x="9.784600" y="7.956900" width="10.000000" height="4.500000" rx="0.000000" />
<path d="M10.7846 10.9569 A1.0027 1.0027 0.0 0 0 11.7884 9.9569" />
<path d="M12.7846 8.9569 A0.9973 0.9973 0.0 0 0 11.7884 9.9569" />
<path d="M13.7846 9.9569 A0.9999 0.9999 0.0 0 0 12.7846 8.9573" />
<path d="M13.7846 9.9569 A1.0001 1.0001 0.0 0 0 14.7846 10.9573" />
<path d="M14.7846 10.9569 A1.0027 1.0027 0.0 0 0 15.7884 9.9569" />
<path style="fill:none; 
stroke:#840000; stroke-width:0.1524; stroke-opacity:1; 
stroke-linecap:round; stroke-linejoin:round;fill:none"
d="M 13.5346,19.9569
Z" /> 
<path d="M16.7846 8.9569 A0.9973 0.9973 0.0 0 0 15.7884 9.9569" />
<path d="M17.7846 9.9569 A0.9999 0.9999 0.0 0 0 16.7846 8.9573" />
<path d="M17.7846 9.9569 A1.0001 1.0001 0.0 0 0 18.7846 10.9573" />
<path d="M18.7846 10.9569 A1.0027 1.0027 0.0 0 0 19.7884 9.9569" />
<path d="M9.7846 9.9569
L6.7846 9.9569
" />
<path d="M19.7846 9.9569
L22.7846 9.9569
" />
</g>
<g style="fill:none; 
stroke:#006464; stroke-width:0.1588; stroke-opacity:1; 
stroke-linecap:round; stroke-linejoin:round;">
<text x="14.7846" y="20.5920"
textLength="14.2529" font-size="1.6933" lengthAdjust="spacingAndGlyphs"
text-anchor="middle" opacity="0" stroke-opacity="0">Flexible_Hose?</text>
<g class="stroked-text"><desc>Flexible_Hose?</desc>
<path d="M8.4951 19.8710
L8.0717 19.8710
" />
<path d="M8.0717 20.5362
L8.0717 19.2662
" />
<path d="M8.0717 19.2662
L8.6765 19.2662
" />
<path d="M9.3418 20.5362
L9.2208 20.4758
" />
<path d="M9.2208 20.4758
L9.1603 20.3548
" />
<path d="M9.1603 20.3548
L9.1603 19.2662
" />
<path d="M10.3093 20.4758
L10.1884 20.5362
" />
<path d="M10.1884 20.5362
L9.9465 20.5362
" />
<path d="M9.9465 20.5362
L9.8255 20.4758
" />
<path d="M9.8255 20.4758
L9.7651 20.3548
" />
<path d="M9.7651 20.3548
L9.7651 19.8710
" />
<path d="M9.7651 19.8710
L9.8255 19.7500
" />
<path d="M9.8255 19.7500
L9.9465 19.6896
" />
<path d="M9.9465 19.6896
L10.1884 19.6896
" />
<path d="M10.1884 19.6896
L10.3093 19.7500
" />
<path d="M10.3093 19.7500
L10.3698 19.8710
" />
<path d="M10.3698 19.8710
L10.3698 19.9919
" />
<path d="M10.3698 19.9919
L9.7651 20.1129
" />
<path d="M10.7932 20.5362
L11.4584 19.6896
" />
<path d="M10.7932 19.6896
L11.4584 20.5362
" />
<path d="M11.9422 20.5362
L11.9422 19.6896
" />
<path d="M11.9422 19.2662
L11.8818 19.3267
" />
<path d="M11.8818 19.3267
L11.9422 19.3872
" />
<path d="M11.9422 19.3872
L12.0027 19.3267
" />
<path d="M12.0027 19.3267
L11.9422 19.2662
" />
<path d="M11.9422 19.2662
L11.9422 19.3872
" />
<path d="M12.5470 20.5362
L12.5470 19.2662
" />
<path d="M12.5470 19.7500
L12.6680 19.6896
" />
<path d="M12.6680 19.6896
L12.9099 19.6896
" />
<path d="M12.9099 19.6896
L13.0308 19.7500
" />
<path d="M13.0308 19.7500
L13.0913 19.8105
" />
<path d="M13.0913 19.8105
L13.1518 19.9315
" />
<path d="M13.1518 19.9315
L13.1518 20.2943
" />
<path d="M13.1518 20.2943
L13.0913 20.4153
" />
<path d="M13.0913 20.4153
L13.0308 20.4758
" />
<path d="M13.0308 20.4758
L12.9099 20.5362
" />
<path d="M12.9099 20.5362
L12.6680 20.5362
" />
<path d="M12.6680 20.5362
L12.5470 20.4758
" />
<path d="M13.8775 20.5362
L13.7565 20.4758
" />
<path d="M13.7565 20.4758
L13.6960 20.3548
" />
<path d="M13.6960 20.3548
L13.6960 19.2662
" />
<path d="M14.8450 20.4758
L14.7241 20.5362
" />
<path d="M14.7241 20.5362
L14.4822 20.5362
" />
<path d="M14.4822 20.5362
L14.3612 20.4758
" />
<path d="M14.3612 20.4758
L14.3008 20.3548
" />
<path d="M14.3008 20.3548
L14.3008 19.8710
" />
<path d="M14.3008 19.8710
L14.3612 19.7500
" />
<path d="M14.3612 19.7500
L14.4822 19.6896
" />
<path d="M14.4822 19.6896
L14.7241 19.6896
" />
<path d="M14.7241 19.6896
L14.8450 19.7500
" />
<path d="M14.8450 19.7500
L14.9055 19.8710
" />
<path d="M14.9055 19.8710
L14.9055 19.9919
" />
<path d="M14.9055 19.9919
L14.3008 20.1129
" />
<path d="M15.1475 20.6572
L16.1151 20.6572
" />
<path d="M16.4174 20.5362
L16.4174 19.2662
" />
<path d="M16.4174 19.8710
L17.1431 19.8710
" />
<path d="M17.1431 20.5362
L17.1431 19.2662
" />
<path d="M17.9294 20.5362
L17.8084 20.4758
" />
<path d="M17.8084 20.4758
L17.7479 20.4153
" />
<path d="M17.7479 20.4153
L17.6875 20.2943
" />
<path d="M17.6875 20.2943
L17.6875 19.9315
" />
<path d="M17.6875 19.9315
L17.7479 19.8105
" />
<path d="M17.7479 19.8105
L17.8084 19.7500
" />
<path d="M17.8084 19.7500
L17.9294 19.6896
" />
<path d="M17.9294 19.6896
L18.1108 19.6896
" />
<path d="M18.1108 19.6896
L18.2317 19.7500
" />
<path d="M18.2317 19.7500
L18.2922 19.8105
" />
<path d="M18.2922 19.8105
L18.3527 19.9315
" />
<path d="M18.3527 19.9315
L18.3527 20.2943
" />
<path d="M18.3527 20.2943
L18.2922 20.4153
" />
<path d="M18.2922 20.4153
L18.2317 20.4758
" />
<path d="M18.2317 20.4758
L18.1108 20.5362
" />
<path d="M18.1108 20.5362
L17.9294 20.5362
" />
<path d="M18.8365 20.4758
L18.9574 20.5362
" />
<path d="M18.9574 20.5362
L19.1993 20.5362
" />
<path d="M19.1993 20.5362
L19.3203 20.4758
" />
<path d="M19.3203 20.4758
L19.3807 20.3548
" />
<path d="M19.3807 20.3548
L19.3807 20.2943
" />
<path d="M19.3807 20.2943
L19.3203 20.1734
" />
<path d="M19.3203 20.1734
L19.1993 20.1129
" />
<path d="M19.1993 20.1129
L19.0179 20.1129
" />
<path d="M19.0179 20.1129
L18.8969 20.0524
" />
<path d="M18.8969 20.0524
L18.8365 19.9315
" />
<path d="M18.8365 19.9315
L18.8365 19.8710
" />
<path d="M18.8365 19.8710
L18.8969 19.7500
" />
<path d="M18.8969 19.7500
L19.0179 19.6896
" />
<path d="M19.0179 19.6896
L19.1993 19.6896
" />
<path d="M19.1993 19.6896
L19.3203 19.7500
" />
<path d="M20.4088 20.4758
L20.2879 20.5362
" />
<path d="M20.2879 20.5362
L20.0460 20.5362
" />
<path d="M20.0460 20.5362
L19.9250 20.4758
" />
<path d="M19.9250 20.4758
L19.8646 20.3548
" />
<path d="M19.8646 20.3548
L19.8646 19.8710
" />
<path d="M19.8646 19.8710
L19.9250 19.7500
" />
<path d="M19.9250 19.7500
L20.0460 19.6896
" />
<path d="M20.0460 19.6896
L20.2879 19.6896
" />
<path d="M20.2879 19.6896
L20.4088 19.7500
" />
<path d="M20.4088 19.7500
L20.4693 19.8710
" />
<path d="M20.4693 19.8710
L20.4693 19.9919
" />
<path d="M20.4693 19.9919
L19.8646 20.1129
" />
<path d="M21.1951 20.4153
L21.2555 20.4758
" />
<path d="M21.2555 20.4758
L21.1951 20.5362
" />
<path d="M21.1951 20.5362
L21.1346 20.4758
" />
<path d="M21.1346 20.4758
L21.1951 20.4153
" />
<path d="M21.1951 20.4153
L21.1951 20.5362
" />
<path d="M20.9532 19.3267
L21.0741 19.2662
" />
<path d="M21.0741 19.2662
L21.3765 19.2662
" />
<path d="M21.3765 19.2662
L21.4974 19.3267
" />
<path d="M21.4974 19.3267
L21.5579 19.4477
" />
<path d="M21.5579 19.4477
L21.5579 19.5686
" />
<path d="M21.5579 19.5686
L21.4974 19.6896
" />
<path d="M21.4974 19.6896
L21.4370 19.7500
" />
<path d="M21.4370 19.7500
L21.3160 19.8105
" />
<path d="M21.3160 19.8105
L21.2555 19.8710
" />
<path d="M21.2555 19.8710
L21.1951 19.9919
" />
<path d="M21.1951 19.9919
L21.1951 20.0524
" />
</g></g> 
</svg>
