<?xml version="1.0" standalone="no"?>
 <!DOCTYPE svg PUBLIC "-//W3C//DTD SVG 1.1//EN" 
 "http://www.w3.org/Graphics/SVG/1.1/DTD/svg11.dtd"> 
<svg
  xmlns:svg="http://www.w3.org/2000/svg"
  xmlns="http://www.w3.org/2000/svg"
  xmlns:xlink="http://www.w3.org/1999/xlink"
  version="1.1"
  width="30.6578mm" height="22.8854mm" viewBox="0.0000 0.0000 30.6578 22.8854">
<title>SVG Image created as pressure regulator.svg date 2024/12/15 16:48:06 </title>
  <desc>Image generated by Eeschema-SVG </desc>
<g style="fill:#000000; fill-opacity:1.0000;stroke:#000000; stroke-opacity:1.0000;
stroke-linecap:round; stroke-linejoin:round;"
 transform="translate(0 0) scale(1 1)">
<path style="fill:none; 
stroke:#840000; stroke-width:0.1524; stroke-opacity:1; 
stroke-linecap:round; stroke-linejoin:round;fill:none"
d="M 9.7046,13.7669
Z" /> 
<path style="fill:none; 
stroke:#840000; stroke-width:0.1524; stroke-opacity:1; 
stroke-linecap:round; stroke-linejoin:round;fill:none"
d="M 9.7046,13.7669
Z" /> 
<path style="fill:none; 
stroke:#840000; stroke-width:0.1524; stroke-opacity:1; 
stroke-linecap:round; stroke-linejoin:round;fill:none"
d="M 10.7846,12.9569
17.7846,12.9569
" /> 
<path style="fill:none; 
stroke:#840000; stroke-width:0.1524; stroke-opacity:1; 
stroke-linecap:round; stroke-linejoin:round;fill:none"
d="M 14.7846,4.2069
Z" /> 
<path style="fill:none; 
stroke:#840000; stroke-width:0.1000; stroke-opacity:1; 
stroke-linecap:round; stroke-linejoin:round;fill:none"
d="M 14.7846,6.9569
14.7846,9.9569
" /> 
<path style="fill:none; 
stroke:#840000; stroke-width:0.1000; stroke-opacity:1; 
stroke-linecap:round; stroke-linejoin:round;fill:none"
d="M 16.7846,6.9569
12.7846,6.9569
" /> 
<path style="fill:none; 
stroke:#840000; stroke-width:0.1000; stroke-opacity:1; 
stroke-linecap:round; stroke-linejoin:round;fill:none"
d="M 14.7846,9.9569
9.7846,7.9569
9.7846,11.9569
Z" /> 
<path style="fill:none; 
stroke:#840000; stroke-width:0.1000; stroke-opacity:1; 
stroke-linecap:round; stroke-linejoin:round;fill:none"
d="M 14.7846,9.9569
19.7846,7.9569
19.7846,11.9569
Z" /> 
<path style="fill:none; 
stroke:#840000; stroke-width:0.1000; stroke-opacity:1; 
stroke-linecap:round; stroke-linejoin:round;fill:none"
d="M 14.7846,8.9569
17.7846,6.9569
17.7846,3.9569
14.7846,3.9569
14.7846,4.9569
" /> 
<path style="fill:#840000; fill-opacity:1.0000; 
stroke:#840000; stroke-width:0.1000; stroke-opacity:1; 
stroke-linecap:round; stroke-linejoin:round;fill-rule:evenodd;"
d="M 17.7846,12.9569
17.7846,12.7069
18.7846,12.9569
17.7846,13.2069
Z" /> 
</g>
<g style="fill:none; 
stroke:#840000; stroke-width:0.1000; stroke-opacity:1; 
stroke-linecap:round; stroke-linejoin:round;">
<path d="M14.7846 4.9569 A1.9973 1.9973 0.0 0 0 12.7884 6.9569" />
<path d="M16.7846 6.9569 A1.9999 1.9999 0.0 0 0 14.7846 4.9573" />
</g>
<g style="fill:none; 
stroke:#840000; stroke-width:0.1524; stroke-opacity:1; 
stroke-linecap:round; stroke-linejoin:round;">
<path d="M9.7846 9.9569
L6.7846 9.9569
" />
<path d="M19.7846 9.9569
L22.7846 9.9569
" />
</g>
<g style="fill:none; 
stroke:#006464; stroke-width:0.1588; stroke-opacity:1; 
stroke-linecap:round; stroke-linejoin:round;">
<text x="14.7846" y="20.5920"
textLength="19.6351" font-size="1.6933" lengthAdjust="spacingAndGlyphs"
text-anchor="middle" opacity="0" stroke-opacity="0">Pressure_Regulator?</text>
<g class="stroked-text"><desc>Pressure_Regulator?</desc>
<path d="M5.3806 20.5362
L5.3806 19.2662
" />
<path d="M5.3806 19.2662
L5.8644 19.2662
" />
<path d="M5.8644 19.2662
L5.9854 19.3267
" />
<path d="M5.9854 19.3267
L6.0459 19.3872
" />
<path d="M6.0459 19.3872
L6.1063 19.5081
" />
<path d="M6.1063 19.5081
L6.1063 19.6896
" />
<path d="M6.1063 19.6896
L6.0459 19.8105
" />
<path d="M6.0459 19.8105
L5.9854 19.8710
" />
<path d="M5.9854 19.8710
L5.8644 19.9315
" />
<path d="M5.8644 19.9315
L5.3806 19.9315
" />
<path d="M6.6506 20.5362
L6.6506 19.6896
" />
<path d="M6.6506 19.9315
L6.7111 19.8105
" />
<path d="M6.7111 19.8105
L6.7716 19.7500
" />
<path d="M6.7716 19.7500
L6.8925 19.6896
" />
<path d="M6.8925 19.6896
L7.0135 19.6896
" />
<path d="M7.9206 20.4758
L7.7997 20.5362
" />
<path d="M7.7997 20.5362
L7.5578 20.5362
" />
<path d="M7.5578 20.5362
L7.4368 20.4758
" />
<path d="M7.4368 20.4758
L7.3764 20.3548
" />
<path d="M7.3764 20.3548
L7.3764 19.8710
" />
<path d="M7.3764 19.8710
L7.4368 19.7500
" />
<path d="M7.4368 19.7500
L7.5578 19.6896
" />
<path d="M7.5578 19.6896
L7.7997 19.6896
" />
<path d="M7.7997 19.6896
L7.9206 19.7500
" />
<path d="M7.9206 19.7500
L7.9811 19.8710
" />
<path d="M7.9811 19.8710
L7.9811 19.9919
" />
<path d="M7.9811 19.9919
L7.3764 20.1129
" />
<path d="M8.4650 20.4758
L8.5859 20.5362
" />
<path d="M8.5859 20.5362
L8.8278 20.5362
" />
<path d="M8.8278 20.5362
L8.9488 20.4758
" />
<path d="M8.9488 20.4758
L9.0092 20.3548
" />
<path d="M9.0092 20.3548
L9.0092 20.2943
" />
<path d="M9.0092 20.2943
L8.9488 20.1734
" />
<path d="M8.9488 20.1734
L8.8278 20.1129
" />
<path d="M8.8278 20.1129
L8.6464 20.1129
" />
<path d="M8.6464 20.1129
L8.5254 20.0524
" />
<path d="M8.5254 20.0524
L8.4650 19.9315
" />
<path d="M8.4650 19.9315
L8.4650 19.8710
" />
<path d="M8.4650 19.8710
L8.5254 19.7500
" />
<path d="M8.5254 19.7500
L8.6464 19.6896
" />
<path d="M8.6464 19.6896
L8.8278 19.6896
" />
<path d="M8.8278 19.6896
L8.9488 19.7500
" />
<path d="M9.4931 20.4758
L9.6140 20.5362
" />
<path d="M9.6140 20.5362
L9.8559 20.5362
" />
<path d="M9.8559 20.5362
L9.9769 20.4758
" />
<path d="M9.9769 20.4758
L10.0373 20.3548
" />
<path d="M10.0373 20.3548
L10.0373 20.2943
" />
<path d="M10.0373 20.2943
L9.9769 20.1734
" />
<path d="M9.9769 20.1734
L9.8559 20.1129
" />
<path d="M9.8559 20.1129
L9.6745 20.1129
" />
<path d="M9.6745 20.1129
L9.5535 20.0524
" />
<path d="M9.5535 20.0524
L9.4931 19.9315
" />
<path d="M9.4931 19.9315
L9.4931 19.8710
" />
<path d="M9.4931 19.8710
L9.5535 19.7500
" />
<path d="M9.5535 19.7500
L9.6745 19.6896
" />
<path d="M9.6745 19.6896
L9.8559 19.6896
" />
<path d="M9.8559 19.6896
L9.9769 19.7500
" />
<path d="M11.1259 19.6896
L11.1259 20.5362
" />
<path d="M10.5816 19.6896
L10.5816 20.3548
" />
<path d="M10.5816 20.3548
L10.6421 20.4758
" />
<path d="M10.6421 20.4758
L10.7631 20.5362
" />
<path d="M10.7631 20.5362
L10.9445 20.5362
" />
<path d="M10.9445 20.5362
L11.0654 20.4758
" />
<path d="M11.0654 20.4758
L11.1259 20.4153
" />
<path d="M11.7306 20.5362
L11.7306 19.6896
" />
<path d="M11.7306 19.9315
L11.7911 19.8105
" />
<path d="M11.7911 19.8105
L11.8516 19.7500
" />
<path d="M11.8516 19.7500
L11.9725 19.6896
" />
<path d="M11.9725 19.6896
L12.0935 19.6896
" />
<path d="M13.0006 20.4758
L12.8797 20.5362
" />
<path d="M12.8797 20.5362
L12.6378 20.5362
" />
<path d="M12.6378 20.5362
L12.5168 20.4758
" />
<path d="M12.5168 20.4758
L12.4564 20.3548
" />
<path d="M12.4564 20.3548
L12.4564 19.8710
" />
<path d="M12.4564 19.8710
L12.5168 19.7500
" />
<path d="M12.5168 19.7500
L12.6378 19.6896
" />
<path d="M12.6378 19.6896
L12.8797 19.6896
" />
<path d="M12.8797 19.6896
L13.0006 19.7500
" />
<path d="M13.0006 19.7500
L13.0611 19.8710
" />
<path d="M13.0611 19.8710
L13.0611 19.9919
" />
<path d="M13.0611 19.9919
L12.4564 20.1129
" />
<path d="M13.3031 20.6572
L14.2707 20.6572
" />
<path d="M15.2987 20.5362
L14.8754 19.9315
" />
<path d="M14.5730 20.5362
L14.5730 19.2662
" />
<path d="M14.5730 19.2662
L15.0568 19.2662
" />
<path d="M15.0568 19.2662
L15.1778 19.3267
" />
<path d="M15.1778 19.3267
L15.2383 19.3872
" />
<path d="M15.2383 19.3872
L15.2987 19.5081
" />
<path d="M15.2987 19.5081
L15.2987 19.6896
" />
<path d="M15.2987 19.6896
L15.2383 19.8105
" />
<path d="M15.2383 19.8105
L15.1778 19.8710
" />
<path d="M15.1778 19.8710
L15.0568 19.9315
" />
<path d="M15.0568 19.9315
L14.5730 19.9315
" />
<path d="M16.3268 20.4758
L16.2059 20.5362
" />
<path d="M16.2059 20.5362
L15.9640 20.5362
" />
<path d="M15.9640 20.5362
L15.8430 20.4758
" />
<path d="M15.8430 20.4758
L15.7826 20.3548
" />
<path d="M15.7826 20.3548
L15.7826 19.8710
" />
<path d="M15.7826 19.8710
L15.8430 19.7500
" />
<path d="M15.8430 19.7500
L15.9640 19.6896
" />
<path d="M15.9640 19.6896
L16.2059 19.6896
" />
<path d="M16.2059 19.6896
L16.3268 19.7500
" />
<path d="M16.3268 19.7500
L16.3873 19.8710
" />
<path d="M16.3873 19.8710
L16.3873 19.9919
" />
<path d="M16.3873 19.9919
L15.7826 20.1129
" />
<path d="M17.4759 19.6896
L17.4759 20.7177
" />
<path d="M17.4759 20.7177
L17.4154 20.8386
" />
<path d="M17.4154 20.8386
L17.3550 20.8991
" />
<path d="M17.3550 20.8991
L17.2340 20.9596
" />
<path d="M17.2340 20.9596
L17.0526 20.9596
" />
<path d="M17.0526 20.9596
L16.9316 20.8991
" />
<path d="M17.4759 20.4758
L17.3550 20.5362
" />
<path d="M17.3550 20.5362
L17.1131 20.5362
" />
<path d="M17.1131 20.5362
L16.9921 20.4758
" />
<path d="M16.9921 20.4758
L16.9316 20.4153
" />
<path d="M16.9316 20.4153
L16.8712 20.2943
" />
<path d="M16.8712 20.2943
L16.8712 19.9315
" />
<path d="M16.8712 19.9315
L16.9316 19.8105
" />
<path d="M16.9316 19.8105
L16.9921 19.7500
" />
<path d="M16.9921 19.7500
L17.1131 19.6896
" />
<path d="M17.1131 19.6896
L17.3550 19.6896
" />
<path d="M17.3550 19.6896
L17.4759 19.7500
" />
<path d="M18.6249 19.6896
L18.6249 20.5362
" />
<path d="M18.0806 19.6896
L18.0806 20.3548
" />
<path d="M18.0806 20.3548
L18.1411 20.4758
" />
<path d="M18.1411 20.4758
L18.2621 20.5362
" />
<path d="M18.2621 20.5362
L18.4435 20.5362
" />
<path d="M18.4435 20.5362
L18.5644 20.4758
" />
<path d="M18.5644 20.4758
L18.6249 20.4153
" />
<path d="M19.4111 20.5362
L19.2901 20.4758
" />
<path d="M19.2901 20.4758
L19.2296 20.3548
" />
<path d="M19.2296 20.3548
L19.2296 19.2662
" />
<path d="M20.4391 20.5362
L20.4391 19.8710
" />
<path d="M20.4391 19.8710
L20.3786 19.7500
" />
<path d="M20.3786 19.7500
L20.2577 19.6896
" />
<path d="M20.2577 19.6896
L20.0158 19.6896
" />
<path d="M20.0158 19.6896
L19.8948 19.7500
" />
<path d="M20.4391 20.4758
L20.3182 20.5362
" />
<path d="M20.3182 20.5362
L20.0158 20.5362
" />
<path d="M20.0158 20.5362
L19.8948 20.4758
" />
<path d="M19.8948 20.4758
L19.8344 20.3548
" />
<path d="M19.8344 20.3548
L19.8344 20.2338
" />
<path d="M19.8344 20.2338
L19.8948 20.1129
" />
<path d="M19.8948 20.1129
L20.0158 20.0524
" />
<path d="M20.0158 20.0524
L20.3182 20.0524
" />
<path d="M20.3182 20.0524
L20.4391 19.9919
" />
<path d="M20.8624 19.6896
L21.3462 19.6896
" />
<path d="M21.0438 19.2662
L21.0438 20.3548
" />
<path d="M21.0438 20.3548
L21.1043 20.4758
" />
<path d="M21.1043 20.4758
L21.2253 20.5362
" />
<path d="M21.2253 20.5362
L21.3462 20.5362
" />
<path d="M21.9510 20.5362
L21.8300 20.4758
" />
<path d="M21.8300 20.4758
L21.7695 20.4153
" />
<path d="M21.7695 20.4153
L21.7091 20.2943
" />
<path d="M21.7091 20.2943
L21.7091 19.9315
" />
<path d="M21.7091 19.9315
L21.7695 19.8105
" />
<path d="M21.7695 19.8105
L21.8300 19.7500
" />
<path d="M21.8300 19.7500
L21.9510 19.6896
" />
<path d="M21.9510 19.6896
L22.1324 19.6896
" />
<path d="M22.1324 19.6896
L22.2533 19.7500
" />
<path d="M22.2533 19.7500
L22.3138 19.8105
" />
<path d="M22.3138 19.8105
L22.3743 19.9315
" />
<path d="M22.3743 19.9315
L22.3743 20.2943
" />
<path d="M22.3743 20.2943
L22.3138 20.4153
" />
<path d="M22.3138 20.4153
L22.2533 20.4758
" />
<path d="M22.2533 20.4758
L22.1324 20.5362
" />
<path d="M22.1324 20.5362
L21.9510 20.5362
" />
<path d="M22.9185 20.5362
L22.9185 19.6896
" />
<path d="M22.9185 19.9315
L22.9790 19.8105
" />
<path d="M22.9790 19.8105
L23.0395 19.7500
" />
<path d="M23.0395 19.7500
L23.1604 19.6896
" />
<path d="M23.1604 19.6896
L23.2814 19.6896
" />
<path d="M23.8862 20.4153
L23.9466 20.4758
" />
<path d="M23.9466 20.4758
L23.8862 20.5362
" />
<path d="M23.8862 20.5362
L23.8257 20.4758
" />
<path d="M23.8257 20.4758
L23.8862 20.4153
" />
<path d="M23.8862 20.4153
L23.8862 20.5362
" />
<path d="M23.6443 19.3267
L23.7652 19.2662
" />
<path d="M23.7652 19.2662
L24.0676 19.2662
" />
<path d="M24.0676 19.2662
L24.1885 19.3267
" />
<path d="M24.1885 19.3267
L24.2490 19.4477
" />
<path d="M24.2490 19.4477
L24.2490 19.5686
" />
<path d="M24.2490 19.5686
L24.1885 19.6896
" />
<path d="M24.1885 19.6896
L24.1281 19.7500
" />
<path d="M24.1281 19.7500
L24.0071 19.8105
" />
<path d="M24.0071 19.8105
L23.9466 19.8710
" />
<path d="M23.9466 19.8710
L23.8862 19.9919
" />
<path d="M23.8862 19.9919
L23.8862 20.0524
" />
</g></g> 
</svg>
