<?xml version="1.0" standalone="no"?>
 <!DOCTYPE svg PUBLIC "-//W3C//DTD SVG 1.1//EN" 
 "http://www.w3.org/Graphics/SVG/1.1/DTD/svg11.dtd"> 
<svg
  xmlns:svg="http://www.w3.org/2000/svg"
  xmlns="http://www.w3.org/2000/svg"
  xmlns:xlink="http://www.w3.org/1999/xlink"
  version="1.1"
  width="19.3294mm" height="22.8854mm" viewBox="0.0000 0.0000 19.3294 22.8854">
<title>SVG Image created as pressure gauge.svg date 2024/12/16 14:50:41 </title>
  <desc>Image generated by Eeschema-SVG </desc>
<g style="fill:#000000; fill-opacity:1.0000;stroke:#000000; stroke-opacity:1.0000;
stroke-linecap:round; stroke-linejoin:round;"
 transform="translate(0 0) scale(1 1)">
<path style="fill:none; 
stroke:#840000; stroke-width:0.1524; stroke-opacity:1; 
stroke-linecap:round; stroke-linejoin:round;fill:none"
d="M 8.6647,8.9569
10.6647,10.9569
" /> 
</g>
<g style="fill:none; 
stroke:#840000; stroke-width:0.1524; stroke-opacity:1; 
stroke-linecap:round; stroke-linejoin:round;">
<circle cx="9.6647" cy="9.9569" r="2.0000" /> 
<path style="fill:#840000; fill-opacity:1.0000; 
stroke:#840000; stroke-width:0.1000; stroke-opacity:1; 
stroke-linecap:round; stroke-linejoin:round;fill-rule:evenodd;"
d="M 9.1647,9.4569
9.4147,9.2069
8.4147,8.7069
8.9147,9.7069
Z" /> 
</g>
<g style="fill:none; 
stroke:#840000; stroke-width:0.1524; stroke-opacity:1; 
stroke-linecap:round; stroke-linejoin:round;">
<path d="M9.6647 11.9569
L9.6647 14.9569
" />
</g>
<g style="fill:none; 
stroke:#006464; stroke-width:0.1588; stroke-opacity:1; 
stroke-linecap:round; stroke-linejoin:round;">
<text x="9.6647" y="20.5920"
textLength="16.3090" font-size="1.6933" lengthAdjust="spacingAndGlyphs"
text-anchor="middle" opacity="0" stroke-opacity="0">Pressure_Gauge?</text>
<g class="stroked-text"><desc>Pressure_Gauge?</desc>
<path d="M1.9237 20.5362
L1.9237 19.2662
" />
<path d="M1.9237 19.2662
L2.4075 19.2662
" />
<path d="M2.4075 19.2662
L2.5285 19.3267
" />
<path d="M2.5285 19.3267
L2.5890 19.3872
" />
<path d="M2.5890 19.3872
L2.6494 19.5081
" />
<path d="M2.6494 19.5081
L2.6494 19.6896
" />
<path d="M2.6494 19.6896
L2.5890 19.8105
" />
<path d="M2.5890 19.8105
L2.5285 19.8710
" />
<path d="M2.5285 19.8710
L2.4075 19.9315
" />
<path d="M2.4075 19.9315
L1.9237 19.9315
" />
<path d="M3.1937 20.5362
L3.1937 19.6896
" />
<path d="M3.1937 19.9315
L3.2542 19.8105
" />
<path d="M3.2542 19.8105
L3.3147 19.7500
" />
<path d="M3.3147 19.7500
L3.4356 19.6896
" />
<path d="M3.4356 19.6896
L3.5566 19.6896
" />
<path d="M4.4637 20.4758
L4.3428 20.5362
" />
<path d="M4.3428 20.5362
L4.1009 20.5362
" />
<path d="M4.1009 20.5362
L3.9799 20.4758
" />
<path d="M3.9799 20.4758
L3.9195 20.3548
" />
<path d="M3.9195 20.3548
L3.9195 19.8710
" />
<path d="M3.9195 19.8710
L3.9799 19.7500
" />
<path d="M3.9799 19.7500
L4.1009 19.6896
" />
<path d="M4.1009 19.6896
L4.3428 19.6896
" />
<path d="M4.3428 19.6896
L4.4637 19.7500
" />
<path d="M4.4637 19.7500
L4.5242 19.8710
" />
<path d="M4.5242 19.8710
L4.5242 19.9919
" />
<path d="M4.5242 19.9919
L3.9195 20.1129
" />
<path d="M5.0081 20.4758
L5.1290 20.5362
" />
<path d="M5.1290 20.5362
L5.3709 20.5362
" />
<path d="M5.3709 20.5362
L5.4919 20.4758
" />
<path d="M5.4919 20.4758
L5.5523 20.3548
" />
<path d="M5.5523 20.3548
L5.5523 20.2943
" />
<path d="M5.5523 20.2943
L5.4919 20.1734
" />
<path d="M5.4919 20.1734
L5.3709 20.1129
" />
<path d="M5.3709 20.1129
L5.1895 20.1129
" />
<path d="M5.1895 20.1129
L5.0685 20.0524
" />
<path d="M5.0685 20.0524
L5.0081 19.9315
" />
<path d="M5.0081 19.9315
L5.0081 19.8710
" />
<path d="M5.0081 19.8710
L5.0685 19.7500
" />
<path d="M5.0685 19.7500
L5.1895 19.6896
" />
<path d="M5.1895 19.6896
L5.3709 19.6896
" />
<path d="M5.3709 19.6896
L5.4919 19.7500
" />
<path d="M6.0362 20.4758
L6.1571 20.5362
" />
<path d="M6.1571 20.5362
L6.3990 20.5362
" />
<path d="M6.3990 20.5362
L6.5200 20.4758
" />
<path d="M6.5200 20.4758
L6.5804 20.3548
" />
<path d="M6.5804 20.3548
L6.5804 20.2943
" />
<path d="M6.5804 20.2943
L6.5200 20.1734
" />
<path d="M6.5200 20.1734
L6.3990 20.1129
" />
<path d="M6.3990 20.1129
L6.2176 20.1129
" />
<path d="M6.2176 20.1129
L6.0966 20.0524
" />
<path d="M6.0966 20.0524
L6.0362 19.9315
" />
<path d="M6.0362 19.9315
L6.0362 19.8710
" />
<path d="M6.0362 19.8710
L6.0966 19.7500
" />
<path d="M6.0966 19.7500
L6.2176 19.6896
" />
<path d="M6.2176 19.6896
L6.3990 19.6896
" />
<path d="M6.3990 19.6896
L6.5200 19.7500
" />
<path d="M7.6690 19.6896
L7.6690 20.5362
" />
<path d="M7.1247 19.6896
L7.1247 20.3548
" />
<path d="M7.1247 20.3548
L7.1852 20.4758
" />
<path d="M7.1852 20.4758
L7.3062 20.5362
" />
<path d="M7.3062 20.5362
L7.4876 20.5362
" />
<path d="M7.4876 20.5362
L7.6085 20.4758
" />
<path d="M7.6085 20.4758
L7.6690 20.4153
" />
<path d="M8.2737 20.5362
L8.2737 19.6896
" />
<path d="M8.2737 19.9315
L8.3342 19.8105
" />
<path d="M8.3342 19.8105
L8.3947 19.7500
" />
<path d="M8.3947 19.7500
L8.5156 19.6896
" />
<path d="M8.5156 19.6896
L8.6366 19.6896
" />
<path d="M9.5437 20.4758
L9.4228 20.5362
" />
<path d="M9.4228 20.5362
L9.1809 20.5362
" />
<path d="M9.1809 20.5362
L9.0599 20.4758
" />
<path d="M9.0599 20.4758
L8.9995 20.3548
" />
<path d="M8.9995 20.3548
L8.9995 19.8710
" />
<path d="M8.9995 19.8710
L9.0599 19.7500
" />
<path d="M9.0599 19.7500
L9.1809 19.6896
" />
<path d="M9.1809 19.6896
L9.4228 19.6896
" />
<path d="M9.4228 19.6896
L9.5437 19.7500
" />
<path d="M9.5437 19.7500
L9.6042 19.8710
" />
<path d="M9.6042 19.8710
L9.6042 19.9919
" />
<path d="M9.6042 19.9919
L8.9995 20.1129
" />
<path d="M9.8462 20.6572
L10.8138 20.6572
" />
<path d="M11.7814 19.3267
L11.6604 19.2662
" />
<path d="M11.6604 19.2662
L11.4790 19.2662
" />
<path d="M11.4790 19.2662
L11.2976 19.3267
" />
<path d="M11.2976 19.3267
L11.1766 19.4477
" />
<path d="M11.1766 19.4477
L11.1161 19.5686
" />
<path d="M11.1161 19.5686
L11.0557 19.8105
" />
<path d="M11.0557 19.8105
L11.0557 19.9919
" />
<path d="M11.0557 19.9919
L11.1161 20.2338
" />
<path d="M11.1161 20.2338
L11.1766 20.3548
" />
<path d="M11.1766 20.3548
L11.2976 20.4758
" />
<path d="M11.2976 20.4758
L11.4790 20.5362
" />
<path d="M11.4790 20.5362
L11.5999 20.5362
" />
<path d="M11.5999 20.5362
L11.7814 20.4758
" />
<path d="M11.7814 20.4758
L11.8418 20.4153
" />
<path d="M11.8418 20.4153
L11.8418 19.9919
" />
<path d="M11.8418 19.9919
L11.5999 19.9919
" />
<path d="M12.9304 20.5362
L12.9304 19.8710
" />
<path d="M12.9304 19.8710
L12.8699 19.7500
" />
<path d="M12.8699 19.7500
L12.7490 19.6896
" />
<path d="M12.7490 19.6896
L12.5071 19.6896
" />
<path d="M12.5071 19.6896
L12.3861 19.7500
" />
<path d="M12.9304 20.4758
L12.8095 20.5362
" />
<path d="M12.8095 20.5362
L12.5071 20.5362
" />
<path d="M12.5071 20.5362
L12.3861 20.4758
" />
<path d="M12.3861 20.4758
L12.3257 20.3548
" />
<path d="M12.3257 20.3548
L12.3257 20.2338
" />
<path d="M12.3257 20.2338
L12.3861 20.1129
" />
<path d="M12.3861 20.1129
L12.5071 20.0524
" />
<path d="M12.5071 20.0524
L12.8095 20.0524
" />
<path d="M12.8095 20.0524
L12.9304 19.9919
" />
<path d="M14.0794 19.6896
L14.0794 20.5362
" />
<path d="M13.5351 19.6896
L13.5351 20.3548
" />
<path d="M13.5351 20.3548
L13.5956 20.4758
" />
<path d="M13.5956 20.4758
L13.7166 20.5362
" />
<path d="M13.7166 20.5362
L13.8980 20.5362
" />
<path d="M13.8980 20.5362
L14.0189 20.4758
" />
<path d="M14.0189 20.4758
L14.0794 20.4153
" />
<path d="M15.2284 19.6896
L15.2284 20.7177
" />
<path d="M15.2284 20.7177
L15.1679 20.8386
" />
<path d="M15.1679 20.8386
L15.1075 20.8991
" />
<path d="M15.1075 20.8991
L14.9865 20.9596
" />
<path d="M14.9865 20.9596
L14.8051 20.9596
" />
<path d="M14.8051 20.9596
L14.6841 20.8991
" />
<path d="M15.2284 20.4758
L15.1075 20.5362
" />
<path d="M15.1075 20.5362
L14.8656 20.5362
" />
<path d="M14.8656 20.5362
L14.7446 20.4758
" />
<path d="M14.7446 20.4758
L14.6841 20.4153
" />
<path d="M14.6841 20.4153
L14.6237 20.2943
" />
<path d="M14.6237 20.2943
L14.6237 19.9315
" />
<path d="M14.6237 19.9315
L14.6841 19.8105
" />
<path d="M14.6841 19.8105
L14.7446 19.7500
" />
<path d="M14.7446 19.7500
L14.8656 19.6896
" />
<path d="M14.8656 19.6896
L15.1075 19.6896
" />
<path d="M15.1075 19.6896
L15.2284 19.7500
" />
<path d="M16.3169 20.4758
L16.1960 20.5362
" />
<path d="M16.1960 20.5362
L15.9541 20.5362
" />
<path d="M15.9541 20.5362
L15.8331 20.4758
" />
<path d="M15.8331 20.4758
L15.7727 20.3548
" />
<path d="M15.7727 20.3548
L15.7727 19.8710
" />
<path d="M15.7727 19.8710
L15.8331 19.7500
" />
<path d="M15.8331 19.7500
L15.9541 19.6896
" />
<path d="M15.9541 19.6896
L16.1960 19.6896
" />
<path d="M16.1960 19.6896
L16.3169 19.7500
" />
<path d="M16.3169 19.7500
L16.3774 19.8710
" />
<path d="M16.3774 19.8710
L16.3774 19.9919
" />
<path d="M16.3774 19.9919
L15.7727 20.1129
" />
<path d="M17.1032 20.4153
L17.1636 20.4758
" />
<path d="M17.1636 20.4758
L17.1032 20.5362
" />
<path d="M17.1032 20.5362
L17.0427 20.4758
" />
<path d="M17.0427 20.4758
L17.1032 20.4153
" />
<path d="M17.1032 20.4153
L17.1032 20.5362
" />
<path d="M16.8613 19.3267
L16.9822 19.2662
" />
<path d="M16.9822 19.2662
L17.2846 19.2662
" />
<path d="M17.2846 19.2662
L17.4055 19.3267
" />
<path d="M17.4055 19.3267
L17.4660 19.4477
" />
<path d="M17.4660 19.4477
L17.4660 19.5686
" />
<path d="M17.4660 19.5686
L17.4055 19.6896
" />
<path d="M17.4055 19.6896
L17.3451 19.7500
" />
<path d="M17.3451 19.7500
L17.2241 19.8105
" />
<path d="M17.2241 19.8105
L17.1636 19.8710
" />
<path d="M17.1636 19.8710
L17.1032 19.9919
" />
<path d="M17.1032 19.9919
L17.1032 20.0524
" />
</g></g> 
</svg>
