<?xml version="1.0" standalone="no"?>
 <!DOCTYPE svg PUBLIC "-//W3C//DTD SVG 1.1//EN" 
 "http://www.w3.org/Graphics/SVG/1.1/DTD/svg11.dtd"> 
<svg
  xmlns:svg="http://www.w3.org/2000/svg"
  xmlns="http://www.w3.org/2000/svg"
  xmlns:xlink="http://www.w3.org/1999/xlink"
  version="1.1"
  width="23.4696mm" height="22.8854mm" viewBox="0.0000 0.0000 23.4696 22.8854">
<title>SVG Image created as pump.svg date 2024/12/15 16:48:06 </title>
  <desc>Image generated by Eeschema-SVG </desc>
<g style="fill:#000000; fill-opacity:1.0000;stroke:#000000; stroke-opacity:1.0000;
stroke-linecap:round; stroke-linejoin:round;"
 transform="translate(0 0) scale(1 1)">
</g>
<g style="fill:none; 
stroke:#840000; stroke-width:0.1524; stroke-opacity:1; 
stroke-linecap:round; stroke-linejoin:round;">
<circle cx="11.1905" cy="9.9569" r="2.0000" /> 
<path style="fill:none; 
stroke:#840000; stroke-width:0.1524; stroke-opacity:1; 
stroke-linecap:round; stroke-linejoin:round;fill:none"
d="M 13.1905,9.9569
9.9405,11.4569
" /> 
<path style="fill:none; 
stroke:#840000; stroke-width:0.1524; stroke-opacity:1; 
stroke-linecap:round; stroke-linejoin:round;fill:none"
d="M 13.1905,9.9569
9.9405,8.4569
9.9405,11.4569
" /> 
<path style="fill:#840000; fill-opacity:1.0000; 
stroke:#840000; stroke-width:0.1000; stroke-opacity:1; 
stroke-linecap:round; stroke-linejoin:round;fill-rule:evenodd;"
d="M 8.1905,9.9569
8.1905,9.7069
9.1905,9.9569
8.1905,10.2069
Z" /> 
<path style="fill:#840000; fill-opacity:1.0000; 
stroke:#840000; stroke-width:0.1000; stroke-opacity:1; 
stroke-linecap:round; stroke-linejoin:round;fill-rule:evenodd;"
d="M 15.1905,9.9569
15.1905,9.7069
16.1905,9.9569
15.1905,10.2069
Z" /> 
</g>
<g style="fill:none; 
stroke:#840000; stroke-width:0.1524; stroke-opacity:1; 
stroke-linecap:round; stroke-linejoin:round;">
<path d="M9.1905 9.9569
L6.1905 9.9569
" />
<path d="M13.1905 9.9569
L16.1905 9.9569
" />
</g>
<g style="fill:none; 
stroke:#006464; stroke-width:0.1588; stroke-opacity:1; 
stroke-linecap:round; stroke-linejoin:round;">
<text x="11.1905" y="20.5920"
textLength="6.5723" font-size="1.6933" lengthAdjust="spacingAndGlyphs"
text-anchor="middle" opacity="0" stroke-opacity="0">Pump?</text>
<g class="stroked-text"><desc>Pump?</desc>
<path d="M8.3179 20.5362
L8.3179 19.2662
" />
<path d="M8.3179 19.2662
L8.8017 19.2662
" />
<path d="M8.8017 19.2662
L8.9227 19.3267
" />
<path d="M8.9227 19.3267
L8.9832 19.3872
" />
<path d="M8.9832 19.3872
L9.0436 19.5081
" />
<path d="M9.0436 19.5081
L9.0436 19.6896
" />
<path d="M9.0436 19.6896
L8.9832 19.8105
" />
<path d="M8.9832 19.8105
L8.9227 19.8710
" />
<path d="M8.9227 19.8710
L8.8017 19.9315
" />
<path d="M8.8017 19.9315
L8.3179 19.9315
" />
<path d="M10.1322 19.6896
L10.1322 20.5362
" />
<path d="M9.5879 19.6896
L9.5879 20.3548
" />
<path d="M9.5879 20.3548
L9.6484 20.4758
" />
<path d="M9.6484 20.4758
L9.7694 20.5362
" />
<path d="M9.7694 20.5362
L9.9508 20.5362
" />
<path d="M9.9508 20.5362
L10.0717 20.4758
" />
<path d="M10.0717 20.4758
L10.1322 20.4153
" />
<path d="M10.7369 20.5362
L10.7369 19.6896
" />
<path d="M10.7369 19.8105
L10.7974 19.7500
" />
<path d="M10.7974 19.7500
L10.9184 19.6896
" />
<path d="M10.9184 19.6896
L11.0998 19.6896
" />
<path d="M11.0998 19.6896
L11.2207 19.7500
" />
<path d="M11.2207 19.7500
L11.2812 19.8710
" />
<path d="M11.2812 19.8710
L11.2812 20.5362
" />
<path d="M11.2812 19.8710
L11.3417 19.7500
" />
<path d="M11.3417 19.7500
L11.4626 19.6896
" />
<path d="M11.4626 19.6896
L11.6441 19.6896
" />
<path d="M11.6441 19.6896
L11.7650 19.7500
" />
<path d="M11.7650 19.7500
L11.8255 19.8710
" />
<path d="M11.8255 19.8710
L11.8255 20.5362
" />
<path d="M12.4302 19.6896
L12.4302 20.9596
" />
<path d="M12.4302 19.7500
L12.5512 19.6896
" />
<path d="M12.5512 19.6896
L12.7931 19.6896
" />
<path d="M12.7931 19.6896
L12.9140 19.7500
" />
<path d="M12.9140 19.7500
L12.9745 19.8105
" />
<path d="M12.9745 19.8105
L13.0350 19.9315
" />
<path d="M13.0350 19.9315
L13.0350 20.2943
" />
<path d="M13.0350 20.2943
L12.9745 20.4153
" />
<path d="M12.9745 20.4153
L12.9140 20.4758
" />
<path d="M12.9140 20.4758
L12.7931 20.5362
" />
<path d="M12.7931 20.5362
L12.5512 20.5362
" />
<path d="M12.5512 20.5362
L12.4302 20.4758
" />
<path d="M13.7607 20.4153
L13.8211 20.4758
" />
<path d="M13.8211 20.4758
L13.7607 20.5362
" />
<path d="M13.7607 20.5362
L13.7002 20.4758
" />
<path d="M13.7002 20.4758
L13.7607 20.4153
" />
<path d="M13.7607 20.4153
L13.7607 20.5362
" />
<path d="M13.5188 19.3267
L13.6397 19.2662
" />
<path d="M13.6397 19.2662
L13.9421 19.2662
" />
<path d="M13.9421 19.2662
L14.0630 19.3267
" />
<path d="M14.0630 19.3267
L14.1235 19.4477
" />
<path d="M14.1235 19.4477
L14.1235 19.5686
" />
<path d="M14.1235 19.5686
L14.0630 19.6896
" />
<path d="M14.0630 19.6896
L14.0026 19.7500
" />
<path d="M14.0026 19.7500
L13.8816 19.8105
" />
<path d="M13.8816 19.8105
L13.8211 19.8710
" />
<path d="M13.8211 19.8710
L13.7607 19.9919
" />
<path d="M13.7607 19.9919
L13.7607 20.0524
" />
</g></g> 
</svg>
