<?xml version="1.0" standalone="no"?>
 <!DOCTYPE svg PUBLIC "-//W3C//DTD SVG 1.1//EN" 
 "http://www.w3.org/Graphics/SVG/1.1/DTD/svg11.dtd"> 
<svg
  xmlns:svg="http://www.w3.org/2000/svg"
  xmlns="http://www.w3.org/2000/svg"
  xmlns:xlink="http://www.w3.org/1999/xlink"
  version="1.1"
  width="30.6578mm" height="22.8854mm" viewBox="0.0000 0.0000 30.6578 22.8854">
<title>SVG Image created as quick disconnect - both sealed.svg date 2024/12/15 16:48:06 </title>
  <desc>Image generated by Eeschema-SVG </desc>
<g style="fill:#000000; fill-opacity:1.0000;stroke:#000000; stroke-opacity:1.0000;
stroke-linecap:round; stroke-linejoin:round;"
 transform="translate(0 0) scale(1 1)">
</g>
<g style="fill:none; 
stroke:#840000; stroke-width:0.1524; stroke-opacity:1; 
stroke-linecap:round; stroke-linejoin:round;">
<rect x="9.784600" y="7.956900" width="10.000000" height="4.000000" rx="0.000000" />
<circle cx="11.2846" cy="9.9569" r="1.0000" /> 
<path style="fill:none; 
stroke:#840000; stroke-width:0.1524; stroke-opacity:1; 
stroke-linecap:round; stroke-linejoin:round;fill:none"
d="M 9.7846,9.9569
19.7846,9.9569
" /> 
<path style="fill:none; 
stroke:#840000; stroke-width:0.1524; stroke-opacity:1; 
stroke-linecap:round; stroke-linejoin:round;fill:none"
d="M 12.7846,9.9569
10.7846,11.9569
" /> 
<path style="fill:none; 
stroke:#840000; stroke-width:0.1524; stroke-opacity:1; 
stroke-linecap:round; stroke-linejoin:round;fill:none"
d="M 12.7846,9.9569
10.7846,7.9569
" /> 
<path style="fill:none; 
stroke:#840000; stroke-width:0.1524; stroke-opacity:1; 
stroke-linecap:round; stroke-linejoin:round;fill:none"
d="M 14.7846,8.9569
14.7846,10.9569
" /> 
<path style="fill:none; 
stroke:#840000; stroke-width:0.1524; stroke-opacity:1; 
stroke-linecap:round; stroke-linejoin:round;fill:none"
d="M 16.7846,9.9569
18.7846,11.9569
" /> 
<path style="fill:none; 
stroke:#840000; stroke-width:0.1524; stroke-opacity:1; 
stroke-linecap:round; stroke-linejoin:round;fill:none"
d="M 16.7846,9.9569
18.7846,7.9569
" /> 
<circle cx="18.2846" cy="9.9569" r="1.0000" /> 
<path d="M9.7846 9.9569
L6.7846 9.9569
" />
<path d="M19.7846 9.9569
L22.7846 9.9569
" />
</g>
<g style="fill:none; 
stroke:#006464; stroke-width:0.1588; stroke-opacity:1; 
stroke-linecap:round; stroke-linejoin:round;">
<text x="14.7846" y="20.5920"
textLength="25.1385" font-size="1.6933" lengthAdjust="spacingAndGlyphs"
text-anchor="middle" opacity="0" stroke-opacity="0">Quick_Disconnect_Sealed?</text>
<g class="stroked-text"><desc>Quick_Disconnect_Sealed?</desc>
<path d="M3.4756 20.6572
L3.3546 20.5967
" />
<path d="M3.3546 20.5967
L3.2337 20.4758
" />
<path d="M3.2337 20.4758
L3.0523 20.2943
" />
<path d="M3.0523 20.2943
L2.9313 20.2338
" />
<path d="M2.9313 20.2338
L2.8104 20.2338
" />
<path d="M2.8708 20.5362
L2.7499 20.4758
" />
<path d="M2.7499 20.4758
L2.6289 20.3548
" />
<path d="M2.6289 20.3548
L2.5685 20.1129
" />
<path d="M2.5685 20.1129
L2.5685 19.6896
" />
<path d="M2.5685 19.6896
L2.6289 19.4477
" />
<path d="M2.6289 19.4477
L2.7499 19.3267
" />
<path d="M2.7499 19.3267
L2.8708 19.2662
" />
<path d="M2.8708 19.2662
L3.1127 19.2662
" />
<path d="M3.1127 19.2662
L3.2337 19.3267
" />
<path d="M3.2337 19.3267
L3.3546 19.4477
" />
<path d="M3.3546 19.4477
L3.4151 19.6896
" />
<path d="M3.4151 19.6896
L3.4151 20.1129
" />
<path d="M3.4151 20.1129
L3.3546 20.3548
" />
<path d="M3.3546 20.3548
L3.2337 20.4758
" />
<path d="M3.2337 20.4758
L3.1127 20.5362
" />
<path d="M3.1127 20.5362
L2.8708 20.5362
" />
<path d="M4.5037 19.6896
L4.5037 20.5362
" />
<path d="M3.9594 19.6896
L3.9594 20.3548
" />
<path d="M3.9594 20.3548
L4.0199 20.4758
" />
<path d="M4.0199 20.4758
L4.1409 20.5362
" />
<path d="M4.1409 20.5362
L4.3223 20.5362
" />
<path d="M4.3223 20.5362
L4.4432 20.4758
" />
<path d="M4.4432 20.4758
L4.5037 20.4153
" />
<path d="M5.1084 20.5362
L5.1084 19.6896
" />
<path d="M5.1084 19.2662
L5.0480 19.3267
" />
<path d="M5.0480 19.3267
L5.1084 19.3872
" />
<path d="M5.1084 19.3872
L5.1689 19.3267
" />
<path d="M5.1689 19.3267
L5.1084 19.2662
" />
<path d="M5.1084 19.2662
L5.1084 19.3872
" />
<path d="M6.2575 20.4758
L6.1366 20.5362
" />
<path d="M6.1366 20.5362
L5.8947 20.5362
" />
<path d="M5.8947 20.5362
L5.7737 20.4758
" />
<path d="M5.7737 20.4758
L5.7132 20.4153
" />
<path d="M5.7132 20.4153
L5.6528 20.2943
" />
<path d="M5.6528 20.2943
L5.6528 19.9315
" />
<path d="M5.6528 19.9315
L5.7132 19.8105
" />
<path d="M5.7132 19.8105
L5.7737 19.7500
" />
<path d="M5.7737 19.7500
L5.8947 19.6896
" />
<path d="M5.8947 19.6896
L6.1366 19.6896
" />
<path d="M6.1366 19.6896
L6.2575 19.7500
" />
<path d="M6.8018 20.5362
L6.8018 19.2662
" />
<path d="M6.9228 20.0524
L7.2856 20.5362
" />
<path d="M7.2856 19.6896
L6.8018 20.1734
" />
<path d="M7.5276 20.6572
L8.4952 20.6572
" />
<path d="M8.7975 20.5362
L8.7975 19.2662
" />
<path d="M8.7975 19.2662
L9.0999 19.2662
" />
<path d="M9.0999 19.2662
L9.2813 19.3267
" />
<path d="M9.2813 19.3267
L9.4023 19.4477
" />
<path d="M9.4023 19.4477
L9.4628 19.5686
" />
<path d="M9.4628 19.5686
L9.5232 19.8105
" />
<path d="M9.5232 19.8105
L9.5232 19.9919
" />
<path d="M9.5232 19.9919
L9.4628 20.2338
" />
<path d="M9.4628 20.2338
L9.4023 20.3548
" />
<path d="M9.4023 20.3548
L9.2813 20.4758
" />
<path d="M9.2813 20.4758
L9.0999 20.5362
" />
<path d="M9.0999 20.5362
L8.7975 20.5362
" />
<path d="M10.0675 20.5362
L10.0675 19.6896
" />
<path d="M10.0675 19.2662
L10.0071 19.3267
" />
<path d="M10.0071 19.3267
L10.0675 19.3872
" />
<path d="M10.0675 19.3872
L10.1280 19.3267
" />
<path d="M10.1280 19.3267
L10.0675 19.2662
" />
<path d="M10.0675 19.2662
L10.0675 19.3872
" />
<path d="M10.6119 20.4758
L10.7328 20.5362
" />
<path d="M10.7328 20.5362
L10.9747 20.5362
" />
<path d="M10.9747 20.5362
L11.0957 20.4758
" />
<path d="M11.0957 20.4758
L11.1561 20.3548
" />
<path d="M11.1561 20.3548
L11.1561 20.2943
" />
<path d="M11.1561 20.2943
L11.0957 20.1734
" />
<path d="M11.0957 20.1734
L10.9747 20.1129
" />
<path d="M10.9747 20.1129
L10.7933 20.1129
" />
<path d="M10.7933 20.1129
L10.6723 20.0524
" />
<path d="M10.6723 20.0524
L10.6119 19.9315
" />
<path d="M10.6119 19.9315
L10.6119 19.8710
" />
<path d="M10.6119 19.8710
L10.6723 19.7500
" />
<path d="M10.6723 19.7500
L10.7933 19.6896
" />
<path d="M10.7933 19.6896
L10.9747 19.6896
" />
<path d="M10.9747 19.6896
L11.0957 19.7500
" />
<path d="M12.2447 20.4758
L12.1238 20.5362
" />
<path d="M12.1238 20.5362
L11.8819 20.5362
" />
<path d="M11.8819 20.5362
L11.7609 20.4758
" />
<path d="M11.7609 20.4758
L11.7004 20.4153
" />
<path d="M11.7004 20.4153
L11.6400 20.2943
" />
<path d="M11.6400 20.2943
L11.6400 19.9315
" />
<path d="M11.6400 19.9315
L11.7004 19.8105
" />
<path d="M11.7004 19.8105
L11.7609 19.7500
" />
<path d="M11.7609 19.7500
L11.8819 19.6896
" />
<path d="M11.8819 19.6896
L12.1238 19.6896
" />
<path d="M12.1238 19.6896
L12.2447 19.7500
" />
<path d="M12.9705 20.5362
L12.8495 20.4758
" />
<path d="M12.8495 20.4758
L12.7890 20.4153
" />
<path d="M12.7890 20.4153
L12.7286 20.2943
" />
<path d="M12.7286 20.2943
L12.7286 19.9315
" />
<path d="M12.7286 19.9315
L12.7890 19.8105
" />
<path d="M12.7890 19.8105
L12.8495 19.7500
" />
<path d="M12.8495 19.7500
L12.9705 19.6896
" />
<path d="M12.9705 19.6896
L13.1519 19.6896
" />
<path d="M13.1519 19.6896
L13.2728 19.7500
" />
<path d="M13.2728 19.7500
L13.3333 19.8105
" />
<path d="M13.3333 19.8105
L13.3938 19.9315
" />
<path d="M13.3938 19.9315
L13.3938 20.2943
" />
<path d="M13.3938 20.2943
L13.3333 20.4153
" />
<path d="M13.3333 20.4153
L13.2728 20.4758
" />
<path d="M13.2728 20.4758
L13.1519 20.5362
" />
<path d="M13.1519 20.5362
L12.9705 20.5362
" />
<path d="M13.9380 19.6896
L13.9380 20.5362
" />
<path d="M13.9380 19.8105
L13.9985 19.7500
" />
<path d="M13.9985 19.7500
L14.1195 19.6896
" />
<path d="M14.1195 19.6896
L14.3009 19.6896
" />
<path d="M14.3009 19.6896
L14.4218 19.7500
" />
<path d="M14.4218 19.7500
L14.4823 19.8710
" />
<path d="M14.4823 19.8710
L14.4823 20.5362
" />
<path d="M15.0870 19.6896
L15.0870 20.5362
" />
<path d="M15.0870 19.8105
L15.1475 19.7500
" />
<path d="M15.1475 19.7500
L15.2685 19.6896
" />
<path d="M15.2685 19.6896
L15.4499 19.6896
" />
<path d="M15.4499 19.6896
L15.5708 19.7500
" />
<path d="M15.5708 19.7500
L15.6313 19.8710
" />
<path d="M15.6313 19.8710
L15.6313 20.5362
" />
<path d="M16.7198 20.4758
L16.5989 20.5362
" />
<path d="M16.5989 20.5362
L16.3570 20.5362
" />
<path d="M16.3570 20.5362
L16.2360 20.4758
" />
<path d="M16.2360 20.4758
L16.1756 20.3548
" />
<path d="M16.1756 20.3548
L16.1756 19.8710
" />
<path d="M16.1756 19.8710
L16.2360 19.7500
" />
<path d="M16.2360 19.7500
L16.3570 19.6896
" />
<path d="M16.3570 19.6896
L16.5989 19.6896
" />
<path d="M16.5989 19.6896
L16.7198 19.7500
" />
<path d="M16.7198 19.7500
L16.7803 19.8710
" />
<path d="M16.7803 19.8710
L16.7803 19.9919
" />
<path d="M16.7803 19.9919
L16.1756 20.1129
" />
<path d="M17.8689 20.4758
L17.7480 20.5362
" />
<path d="M17.7480 20.5362
L17.5061 20.5362
" />
<path d="M17.5061 20.5362
L17.3851 20.4758
" />
<path d="M17.3851 20.4758
L17.3246 20.4153
" />
<path d="M17.3246 20.4153
L17.2642 20.2943
" />
<path d="M17.2642 20.2943
L17.2642 19.9315
" />
<path d="M17.2642 19.9315
L17.3246 19.8105
" />
<path d="M17.3246 19.8105
L17.3851 19.7500
" />
<path d="M17.3851 19.7500
L17.5061 19.6896
" />
<path d="M17.5061 19.6896
L17.7480 19.6896
" />
<path d="M17.7480 19.6896
L17.8689 19.7500
" />
<path d="M18.2318 19.6896
L18.7156 19.6896
" />
<path d="M18.4132 19.2662
L18.4132 20.3548
" />
<path d="M18.4132 20.3548
L18.4737 20.4758
" />
<path d="M18.4737 20.4758
L18.5947 20.5362
" />
<path d="M18.5947 20.5362
L18.7156 20.5362
" />
<path d="M18.8366 20.6572
L19.8042 20.6572
" />
<path d="M20.0461 20.4758
L20.2275 20.5362
" />
<path d="M20.2275 20.5362
L20.5299 20.5362
" />
<path d="M20.5299 20.5362
L20.6508 20.4758
" />
<path d="M20.6508 20.4758
L20.7113 20.4153
" />
<path d="M20.7113 20.4153
L20.7718 20.2943
" />
<path d="M20.7718 20.2943
L20.7718 20.1734
" />
<path d="M20.7718 20.1734
L20.7113 20.0524
" />
<path d="M20.7113 20.0524
L20.6508 19.9919
" />
<path d="M20.6508 19.9919
L20.5299 19.9315
" />
<path d="M20.5299 19.9315
L20.2880 19.8710
" />
<path d="M20.2880 19.8710
L20.1670 19.8105
" />
<path d="M20.1670 19.8105
L20.1065 19.7500
" />
<path d="M20.1065 19.7500
L20.0461 19.6291
" />
<path d="M20.0461 19.6291
L20.0461 19.5081
" />
<path d="M20.0461 19.5081
L20.1065 19.3872
" />
<path d="M20.1065 19.3872
L20.1670 19.3267
" />
<path d="M20.1670 19.3267
L20.2880 19.2662
" />
<path d="M20.2880 19.2662
L20.5903 19.2662
" />
<path d="M20.5903 19.2662
L20.7718 19.3267
" />
<path d="M21.7998 20.4758
L21.6789 20.5362
" />
<path d="M21.6789 20.5362
L21.4370 20.5362
" />
<path d="M21.4370 20.5362
L21.3160 20.4758
" />
<path d="M21.3160 20.4758
L21.2556 20.3548
" />
<path d="M21.2556 20.3548
L21.2556 19.8710
" />
<path d="M21.2556 19.8710
L21.3160 19.7500
" />
<path d="M21.3160 19.7500
L21.4370 19.6896
" />
<path d="M21.4370 19.6896
L21.6789 19.6896
" />
<path d="M21.6789 19.6896
L21.7998 19.7500
" />
<path d="M21.7998 19.7500
L21.8603 19.8710
" />
<path d="M21.8603 19.8710
L21.8603 19.9919
" />
<path d="M21.8603 19.9919
L21.2556 20.1129
" />
<path d="M22.9489 20.5362
L22.9489 19.8710
" />
<path d="M22.9489 19.8710
L22.8884 19.7500
" />
<path d="M22.8884 19.7500
L22.7675 19.6896
" />
<path d="M22.7675 19.6896
L22.5256 19.6896
" />
<path d="M22.5256 19.6896
L22.4046 19.7500
" />
<path d="M22.9489 20.4758
L22.8280 20.5362
" />
<path d="M22.8280 20.5362
L22.5256 20.5362
" />
<path d="M22.5256 20.5362
L22.4046 20.4758
" />
<path d="M22.4046 20.4758
L22.3442 20.3548
" />
<path d="M22.3442 20.3548
L22.3442 20.2338
" />
<path d="M22.3442 20.2338
L22.4046 20.1129
" />
<path d="M22.4046 20.1129
L22.5256 20.0524
" />
<path d="M22.5256 20.0524
L22.8280 20.0524
" />
<path d="M22.8280 20.0524
L22.9489 19.9919
" />
<path d="M23.7351 20.5362
L23.6141 20.4758
" />
<path d="M23.6141 20.4758
L23.5536 20.3548
" />
<path d="M23.5536 20.3548
L23.5536 19.2662
" />
<path d="M24.7026 20.4758
L24.5817 20.5362
" />
<path d="M24.5817 20.5362
L24.3398 20.5362
" />
<path d="M24.3398 20.5362
L24.2188 20.4758
" />
<path d="M24.2188 20.4758
L24.1584 20.3548
" />
<path d="M24.1584 20.3548
L24.1584 19.8710
" />
<path d="M24.1584 19.8710
L24.2188 19.7500
" />
<path d="M24.2188 19.7500
L24.3398 19.6896
" />
<path d="M24.3398 19.6896
L24.5817 19.6896
" />
<path d="M24.5817 19.6896
L24.7026 19.7500
" />
<path d="M24.7026 19.7500
L24.7631 19.8710
" />
<path d="M24.7631 19.8710
L24.7631 19.9919
" />
<path d="M24.7631 19.9919
L24.1584 20.1129
" />
<path d="M25.8517 20.5362
L25.8517 19.2662
" />
<path d="M25.8517 20.4758
L25.7308 20.5362
" />
<path d="M25.7308 20.5362
L25.4889 20.5362
" />
<path d="M25.4889 20.5362
L25.3679 20.4758
" />
<path d="M25.3679 20.4758
L25.3074 20.4153
" />
<path d="M25.3074 20.4153
L25.2470 20.2943
" />
<path d="M25.2470 20.2943
L25.2470 19.9315
" />
<path d="M25.2470 19.9315
L25.3074 19.8105
" />
<path d="M25.3074 19.8105
L25.3679 19.7500
" />
<path d="M25.3679 19.7500
L25.4889 19.6896
" />
<path d="M25.4889 19.6896
L25.7308 19.6896
" />
<path d="M25.7308 19.6896
L25.8517 19.7500
" />
<path d="M26.6379 20.4153
L26.6983 20.4758
" />
<path d="M26.6983 20.4758
L26.6379 20.5362
" />
<path d="M26.6379 20.5362
L26.5774 20.4758
" />
<path d="M26.5774 20.4758
L26.6379 20.4153
" />
<path d="M26.6379 20.4153
L26.6379 20.5362
" />
<path d="M26.3960 19.3267
L26.5169 19.2662
" />
<path d="M26.5169 19.2662
L26.8193 19.2662
" />
<path d="M26.8193 19.2662
L26.9402 19.3267
" />
<path d="M26.9402 19.3267
L27.0007 19.4477
" />
<path d="M27.0007 19.4477
L27.0007 19.5686
" />
<path d="M27.0007 19.5686
L26.9402 19.6896
" />
<path d="M26.9402 19.6896
L26.8798 19.7500
" />
<path d="M26.8798 19.7500
L26.7588 19.8105
" />
<path d="M26.7588 19.8105
L26.6983 19.8710
" />
<path d="M26.6983 19.8710
L26.6379 19.9919
" />
<path d="M26.6379 19.9919
L26.6379 20.0524
" />
</g></g> 
</svg>
