<?xml version="1.0" standalone="no"?>
 <!DOCTYPE svg PUBLIC "-//W3C//DTD SVG 1.1//EN" 
 "http://www.w3.org/Graphics/SVG/1.1/DTD/svg11.dtd"> 
<svg
  xmlns:svg="http://www.w3.org/2000/svg"
  xmlns="http://www.w3.org/2000/svg"
  xmlns:xlink="http://www.w3.org/1999/xlink"
  version="1.1"
  width="42.7990mm" height="22.8854mm" viewBox="0.0000 0.0000 42.7990 22.8854">
<title>SVG Image created as quick disconnect - destination sealed.svg date 2024/12/15 16:48:06 </title>
  <desc>Image generated by Eeschema-SVG </desc>
<g style="fill:#000000; fill-opacity:1.0000;stroke:#000000; stroke-opacity:1.0000;
stroke-linecap:round; stroke-linejoin:round;"
 transform="translate(0 0) scale(1 1)">
</g>
<g style="fill:none; 
stroke:#840000; stroke-width:0.1524; stroke-opacity:1; 
stroke-linecap:round; stroke-linejoin:round;">
<rect x="16.399500" y="7.956900" width="10.000000" height="4.000000" rx="0.000000" />
<path style="fill:none; 
stroke:#840000; stroke-width:0.1524; stroke-opacity:1; 
stroke-linecap:round; stroke-linejoin:round;fill:none"
d="M 16.3995,9.9569
26.3995,9.9569
" /> 
<path style="fill:none; 
stroke:#840000; stroke-width:0.1524; stroke-opacity:1; 
stroke-linecap:round; stroke-linejoin:round;fill:none"
d="M 19.3995,9.9569
17.3995,11.9569
" /> 
<path style="fill:none; 
stroke:#840000; stroke-width:0.1524; stroke-opacity:1; 
stroke-linecap:round; stroke-linejoin:round;fill:none"
d="M 19.3995,9.9569
17.3995,7.9569
" /> 
<path style="fill:none; 
stroke:#840000; stroke-width:0.1524; stroke-opacity:1; 
stroke-linecap:round; stroke-linejoin:round;fill:none"
d="M 21.3995,8.9569
21.3995,10.9569
" /> 
<path style="fill:none; 
stroke:#840000; stroke-width:0.1524; stroke-opacity:1; 
stroke-linecap:round; stroke-linejoin:round;fill:none"
d="M 23.3995,9.9569
25.3995,11.9569
" /> 
<path style="fill:none; 
stroke:#840000; stroke-width:0.1524; stroke-opacity:1; 
stroke-linecap:round; stroke-linejoin:round;fill:none"
d="M 23.3995,9.9569
25.3995,7.9569
" /> 
<circle cx="24.8995" cy="9.9569" r="1.0000" /> 
<path d="M16.3995 9.9569
L13.3995 9.9569
" />
<path d="M26.3995 9.9569
L29.3995 9.9569
" />
</g>
<g style="fill:none; 
stroke:#006464; stroke-width:0.1588; stroke-opacity:1; 
stroke-linecap:round; stroke-linejoin:round;">
<text x="21.3995" y="20.5920"
textLength="36.7498" font-size="1.6933" lengthAdjust="spacingAndGlyphs"
text-anchor="middle" opacity="0" stroke-opacity="0">Quick_Disconnect_Destination_Sealed?</text>
<g class="stroked-text"><desc>Quick_Disconnect_Destination_Sealed?</desc>
<path d="M4.2848 20.6572
L4.1638 20.5967
" />
<path d="M4.1638 20.5967
L4.0429 20.4758
" />
<path d="M4.0429 20.4758
L3.8615 20.2943
" />
<path d="M3.8615 20.2943
L3.7405 20.2338
" />
<path d="M3.7405 20.2338
L3.6196 20.2338
" />
<path d="M3.6800 20.5362
L3.5591 20.4758
" />
<path d="M3.5591 20.4758
L3.4381 20.3548
" />
<path d="M3.4381 20.3548
L3.3777 20.1129
" />
<path d="M3.3777 20.1129
L3.3777 19.6896
" />
<path d="M3.3777 19.6896
L3.4381 19.4477
" />
<path d="M3.4381 19.4477
L3.5591 19.3267
" />
<path d="M3.5591 19.3267
L3.6800 19.2662
" />
<path d="M3.6800 19.2662
L3.9219 19.2662
" />
<path d="M3.9219 19.2662
L4.0429 19.3267
" />
<path d="M4.0429 19.3267
L4.1638 19.4477
" />
<path d="M4.1638 19.4477
L4.2243 19.6896
" />
<path d="M4.2243 19.6896
L4.2243 20.1129
" />
<path d="M4.2243 20.1129
L4.1638 20.3548
" />
<path d="M4.1638 20.3548
L4.0429 20.4758
" />
<path d="M4.0429 20.4758
L3.9219 20.5362
" />
<path d="M3.9219 20.5362
L3.6800 20.5362
" />
<path d="M5.3129 19.6896
L5.3129 20.5362
" />
<path d="M4.7686 19.6896
L4.7686 20.3548
" />
<path d="M4.7686 20.3548
L4.8291 20.4758
" />
<path d="M4.8291 20.4758
L4.9501 20.5362
" />
<path d="M4.9501 20.5362
L5.1315 20.5362
" />
<path d="M5.1315 20.5362
L5.2524 20.4758
" />
<path d="M5.2524 20.4758
L5.3129 20.4153
" />
<path d="M5.9176 20.5362
L5.9176 19.6896
" />
<path d="M5.9176 19.2662
L5.8572 19.3267
" />
<path d="M5.8572 19.3267
L5.9176 19.3872
" />
<path d="M5.9176 19.3872
L5.9781 19.3267
" />
<path d="M5.9781 19.3267
L5.9176 19.2662
" />
<path d="M5.9176 19.2662
L5.9176 19.3872
" />
<path d="M7.0667 20.4758
L6.9458 20.5362
" />
<path d="M6.9458 20.5362
L6.7039 20.5362
" />
<path d="M6.7039 20.5362
L6.5829 20.4758
" />
<path d="M6.5829 20.4758
L6.5224 20.4153
" />
<path d="M6.5224 20.4153
L6.4620 20.2943
" />
<path d="M6.4620 20.2943
L6.4620 19.9315
" />
<path d="M6.4620 19.9315
L6.5224 19.8105
" />
<path d="M6.5224 19.8105
L6.5829 19.7500
" />
<path d="M6.5829 19.7500
L6.7039 19.6896
" />
<path d="M6.7039 19.6896
L6.9458 19.6896
" />
<path d="M6.9458 19.6896
L7.0667 19.7500
" />
<path d="M7.6110 20.5362
L7.6110 19.2662
" />
<path d="M7.7320 20.0524
L8.0948 20.5362
" />
<path d="M8.0948 19.6896
L7.6110 20.1734
" />
<path d="M8.3368 20.6572
L9.3044 20.6572
" />
<path d="M9.6067 20.5362
L9.6067 19.2662
" />
<path d="M9.6067 19.2662
L9.9091 19.2662
" />
<path d="M9.9091 19.2662
L10.0905 19.3267
" />
<path d="M10.0905 19.3267
L10.2115 19.4477
" />
<path d="M10.2115 19.4477
L10.2720 19.5686
" />
<path d="M10.2720 19.5686
L10.3324 19.8105
" />
<path d="M10.3324 19.8105
L10.3324 19.9919
" />
<path d="M10.3324 19.9919
L10.2720 20.2338
" />
<path d="M10.2720 20.2338
L10.2115 20.3548
" />
<path d="M10.2115 20.3548
L10.0905 20.4758
" />
<path d="M10.0905 20.4758
L9.9091 20.5362
" />
<path d="M9.9091 20.5362
L9.6067 20.5362
" />
<path d="M10.8767 20.5362
L10.8767 19.6896
" />
<path d="M10.8767 19.2662
L10.8163 19.3267
" />
<path d="M10.8163 19.3267
L10.8767 19.3872
" />
<path d="M10.8767 19.3872
L10.9372 19.3267
" />
<path d="M10.9372 19.3267
L10.8767 19.2662
" />
<path d="M10.8767 19.2662
L10.8767 19.3872
" />
<path d="M11.4211 20.4758
L11.5420 20.5362
" />
<path d="M11.5420 20.5362
L11.7839 20.5362
" />
<path d="M11.7839 20.5362
L11.9049 20.4758
" />
<path d="M11.9049 20.4758
L11.9653 20.3548
" />
<path d="M11.9653 20.3548
L11.9653 20.2943
" />
<path d="M11.9653 20.2943
L11.9049 20.1734
" />
<path d="M11.9049 20.1734
L11.7839 20.1129
" />
<path d="M11.7839 20.1129
L11.6025 20.1129
" />
<path d="M11.6025 20.1129
L11.4815 20.0524
" />
<path d="M11.4815 20.0524
L11.4211 19.9315
" />
<path d="M11.4211 19.9315
L11.4211 19.8710
" />
<path d="M11.4211 19.8710
L11.4815 19.7500
" />
<path d="M11.4815 19.7500
L11.6025 19.6896
" />
<path d="M11.6025 19.6896
L11.7839 19.6896
" />
<path d="M11.7839 19.6896
L11.9049 19.7500
" />
<path d="M13.0539 20.4758
L12.9330 20.5362
" />
<path d="M12.9330 20.5362
L12.6911 20.5362
" />
<path d="M12.6911 20.5362
L12.5701 20.4758
" />
<path d="M12.5701 20.4758
L12.5096 20.4153
" />
<path d="M12.5096 20.4153
L12.4492 20.2943
" />
<path d="M12.4492 20.2943
L12.4492 19.9315
" />
<path d="M12.4492 19.9315
L12.5096 19.8105
" />
<path d="M12.5096 19.8105
L12.5701 19.7500
" />
<path d="M12.5701 19.7500
L12.6911 19.6896
" />
<path d="M12.6911 19.6896
L12.9330 19.6896
" />
<path d="M12.9330 19.6896
L13.0539 19.7500
" />
<path d="M13.7797 20.5362
L13.6587 20.4758
" />
<path d="M13.6587 20.4758
L13.5982 20.4153
" />
<path d="M13.5982 20.4153
L13.5378 20.2943
" />
<path d="M13.5378 20.2943
L13.5378 19.9315
" />
<path d="M13.5378 19.9315
L13.5982 19.8105
" />
<path d="M13.5982 19.8105
L13.6587 19.7500
" />
<path d="M13.6587 19.7500
L13.7797 19.6896
" />
<path d="M13.7797 19.6896
L13.9611 19.6896
" />
<path d="M13.9611 19.6896
L14.0820 19.7500
" />
<path d="M14.0820 19.7500
L14.1425 19.8105
" />
<path d="M14.1425 19.8105
L14.2030 19.9315
" />
<path d="M14.2030 19.9315
L14.2030 20.2943
" />
<path d="M14.2030 20.2943
L14.1425 20.4153
" />
<path d="M14.1425 20.4153
L14.0820 20.4758
" />
<path d="M14.0820 20.4758
L13.9611 20.5362
" />
<path d="M13.9611 20.5362
L13.7797 20.5362
" />
<path d="M14.7472 19.6896
L14.7472 20.5362
" />
<path d="M14.7472 19.8105
L14.8077 19.7500
" />
<path d="M14.8077 19.7500
L14.9287 19.6896
" />
<path d="M14.9287 19.6896
L15.1101 19.6896
" />
<path d="M15.1101 19.6896
L15.2310 19.7500
" />
<path d="M15.2310 19.7500
L15.2915 19.8710
" />
<path d="M15.2915 19.8710
L15.2915 20.5362
" />
<path d="M15.8962 19.6896
L15.8962 20.5362
" />
<path d="M15.8962 19.8105
L15.9567 19.7500
" />
<path d="M15.9567 19.7500
L16.0777 19.6896
" />
<path d="M16.0777 19.6896
L16.2591 19.6896
" />
<path d="M16.2591 19.6896
L16.3800 19.7500
" />
<path d="M16.3800 19.7500
L16.4405 19.8710
" />
<path d="M16.4405 19.8710
L16.4405 20.5362
" />
<path d="M17.5290 20.4758
L17.4081 20.5362
" />
<path d="M17.4081 20.5362
L17.1662 20.5362
" />
<path d="M17.1662 20.5362
L17.0452 20.4758
" />
<path d="M17.0452 20.4758
L16.9848 20.3548
" />
<path d="M16.9848 20.3548
L16.9848 19.8710
" />
<path d="M16.9848 19.8710
L17.0452 19.7500
" />
<path d="M17.0452 19.7500
L17.1662 19.6896
" />
<path d="M17.1662 19.6896
L17.4081 19.6896
" />
<path d="M17.4081 19.6896
L17.5290 19.7500
" />
<path d="M17.5290 19.7500
L17.5895 19.8710
" />
<path d="M17.5895 19.8710
L17.5895 19.9919
" />
<path d="M17.5895 19.9919
L16.9848 20.1129
" />
<path d="M18.6781 20.4758
L18.5572 20.5362
" />
<path d="M18.5572 20.5362
L18.3153 20.5362
" />
<path d="M18.3153 20.5362
L18.1943 20.4758
" />
<path d="M18.1943 20.4758
L18.1338 20.4153
" />
<path d="M18.1338 20.4153
L18.0734 20.2943
" />
<path d="M18.0734 20.2943
L18.0734 19.9315
" />
<path d="M18.0734 19.9315
L18.1338 19.8105
" />
<path d="M18.1338 19.8105
L18.1943 19.7500
" />
<path d="M18.1943 19.7500
L18.3153 19.6896
" />
<path d="M18.3153 19.6896
L18.5572 19.6896
" />
<path d="M18.5572 19.6896
L18.6781 19.7500
" />
<path d="M19.0410 19.6896
L19.5248 19.6896
" />
<path d="M19.2224 19.2662
L19.2224 20.3548
" />
<path d="M19.2224 20.3548
L19.2829 20.4758
" />
<path d="M19.2829 20.4758
L19.4039 20.5362
" />
<path d="M19.4039 20.5362
L19.5248 20.5362
" />
<path d="M19.6458 20.6572
L20.6134 20.6572
" />
<path d="M20.9157 20.5362
L20.9157 19.2662
" />
<path d="M20.9157 19.2662
L21.2181 19.2662
" />
<path d="M21.2181 19.2662
L21.3995 19.3267
" />
<path d="M21.3995 19.3267
L21.5205 19.4477
" />
<path d="M21.5205 19.4477
L21.5810 19.5686
" />
<path d="M21.5810 19.5686
L21.6414 19.8105
" />
<path d="M21.6414 19.8105
L21.6414 19.9919
" />
<path d="M21.6414 19.9919
L21.5810 20.2338
" />
<path d="M21.5810 20.2338
L21.5205 20.3548
" />
<path d="M21.5205 20.3548
L21.3995 20.4758
" />
<path d="M21.3995 20.4758
L21.2181 20.5362
" />
<path d="M21.2181 20.5362
L20.9157 20.5362
" />
<path d="M22.6695 20.4758
L22.5486 20.5362
" />
<path d="M22.5486 20.5362
L22.3067 20.5362
" />
<path d="M22.3067 20.5362
L22.1857 20.4758
" />
<path d="M22.1857 20.4758
L22.1253 20.3548
" />
<path d="M22.1253 20.3548
L22.1253 19.8710
" />
<path d="M22.1253 19.8710
L22.1857 19.7500
" />
<path d="M22.1857 19.7500
L22.3067 19.6896
" />
<path d="M22.3067 19.6896
L22.5486 19.6896
" />
<path d="M22.5486 19.6896
L22.6695 19.7500
" />
<path d="M22.6695 19.7500
L22.7300 19.8710
" />
<path d="M22.7300 19.8710
L22.7300 19.9919
" />
<path d="M22.7300 19.9919
L22.1253 20.1129
" />
<path d="M23.2139 20.4758
L23.3348 20.5362
" />
<path d="M23.3348 20.5362
L23.5767 20.5362
" />
<path d="M23.5767 20.5362
L23.6977 20.4758
" />
<path d="M23.6977 20.4758
L23.7581 20.3548
" />
<path d="M23.7581 20.3548
L23.7581 20.2943
" />
<path d="M23.7581 20.2943
L23.6977 20.1734
" />
<path d="M23.6977 20.1734
L23.5767 20.1129
" />
<path d="M23.5767 20.1129
L23.3953 20.1129
" />
<path d="M23.3953 20.1129
L23.2743 20.0524
" />
<path d="M23.2743 20.0524
L23.2139 19.9315
" />
<path d="M23.2139 19.9315
L23.2139 19.8710
" />
<path d="M23.2139 19.8710
L23.2743 19.7500
" />
<path d="M23.2743 19.7500
L23.3953 19.6896
" />
<path d="M23.3953 19.6896
L23.5767 19.6896
" />
<path d="M23.5767 19.6896
L23.6977 19.7500
" />
<path d="M24.1210 19.6896
L24.6048 19.6896
" />
<path d="M24.3024 19.2662
L24.3024 20.3548
" />
<path d="M24.3024 20.3548
L24.3629 20.4758
" />
<path d="M24.3629 20.4758
L24.4839 20.5362
" />
<path d="M24.4839 20.5362
L24.6048 20.5362
" />
<path d="M25.0281 20.5362
L25.0281 19.6896
" />
<path d="M25.0281 19.2662
L24.9677 19.3267
" />
<path d="M24.9677 19.3267
L25.0281 19.3872
" />
<path d="M25.0281 19.3872
L25.0886 19.3267
" />
<path d="M25.0886 19.3267
L25.0281 19.2662
" />
<path d="M25.0281 19.2662
L25.0281 19.3872
" />
<path d="M25.6329 19.6896
L25.6329 20.5362
" />
<path d="M25.6329 19.8105
L25.6934 19.7500
" />
<path d="M25.6934 19.7500
L25.8144 19.6896
" />
<path d="M25.8144 19.6896
L25.9958 19.6896
" />
<path d="M25.9958 19.6896
L26.1167 19.7500
" />
<path d="M26.1167 19.7500
L26.1772 19.8710
" />
<path d="M26.1772 19.8710
L26.1772 20.5362
" />
<path d="M27.3262 20.5362
L27.3262 19.8710
" />
<path d="M27.3262 19.8710
L27.2657 19.7500
" />
<path d="M27.2657 19.7500
L27.1448 19.6896
" />
<path d="M27.1448 19.6896
L26.9029 19.6896
" />
<path d="M26.9029 19.6896
L26.7819 19.7500
" />
<path d="M27.3262 20.4758
L27.2053 20.5362
" />
<path d="M27.2053 20.5362
L26.9029 20.5362
" />
<path d="M26.9029 20.5362
L26.7819 20.4758
" />
<path d="M26.7819 20.4758
L26.7215 20.3548
" />
<path d="M26.7215 20.3548
L26.7215 20.2338
" />
<path d="M26.7215 20.2338
L26.7819 20.1129
" />
<path d="M26.7819 20.1129
L26.9029 20.0524
" />
<path d="M26.9029 20.0524
L27.2053 20.0524
" />
<path d="M27.2053 20.0524
L27.3262 19.9919
" />
<path d="M27.7495 19.6896
L28.2333 19.6896
" />
<path d="M27.9309 19.2662
L27.9309 20.3548
" />
<path d="M27.9309 20.3548
L27.9914 20.4758
" />
<path d="M27.9914 20.4758
L28.1124 20.5362
" />
<path d="M28.1124 20.5362
L28.2333 20.5362
" />
<path d="M28.6566 20.5362
L28.6566 19.6896
" />
<path d="M28.6566 19.2662
L28.5962 19.3267
" />
<path d="M28.5962 19.3267
L28.6566 19.3872
" />
<path d="M28.6566 19.3872
L28.7171 19.3267
" />
<path d="M28.7171 19.3267
L28.6566 19.2662
" />
<path d="M28.6566 19.2662
L28.6566 19.3872
" />
<path d="M29.4429 20.5362
L29.3219 20.4758
" />
<path d="M29.3219 20.4758
L29.2614 20.4153
" />
<path d="M29.2614 20.4153
L29.2010 20.2943
" />
<path d="M29.2010 20.2943
L29.2010 19.9315
" />
<path d="M29.2010 19.9315
L29.2614 19.8105
" />
<path d="M29.2614 19.8105
L29.3219 19.7500
" />
<path d="M29.3219 19.7500
L29.4429 19.6896
" />
<path d="M29.4429 19.6896
L29.6243 19.6896
" />
<path d="M29.6243 19.6896
L29.7452 19.7500
" />
<path d="M29.7452 19.7500
L29.8057 19.8105
" />
<path d="M29.8057 19.8105
L29.8662 19.9315
" />
<path d="M29.8662 19.9315
L29.8662 20.2943
" />
<path d="M29.8662 20.2943
L29.8057 20.4153
" />
<path d="M29.8057 20.4153
L29.7452 20.4758
" />
<path d="M29.7452 20.4758
L29.6243 20.5362
" />
<path d="M29.6243 20.5362
L29.4429 20.5362
" />
<path d="M30.4104 19.6896
L30.4104 20.5362
" />
<path d="M30.4104 19.8105
L30.4709 19.7500
" />
<path d="M30.4709 19.7500
L30.5919 19.6896
" />
<path d="M30.5919 19.6896
L30.7733 19.6896
" />
<path d="M30.7733 19.6896
L30.8942 19.7500
" />
<path d="M30.8942 19.7500
L30.9547 19.8710
" />
<path d="M30.9547 19.8710
L30.9547 20.5362
" />
<path d="M31.2571 20.6572
L32.2247 20.6572
" />
<path d="M32.4666 20.4758
L32.6480 20.5362
" />
<path d="M32.6480 20.5362
L32.9504 20.5362
" />
<path d="M32.9504 20.5362
L33.0713 20.4758
" />
<path d="M33.0713 20.4758
L33.1318 20.4153
" />
<path d="M33.1318 20.4153
L33.1923 20.2943
" />
<path d="M33.1923 20.2943
L33.1923 20.1734
" />
<path d="M33.1923 20.1734
L33.1318 20.0524
" />
<path d="M33.1318 20.0524
L33.0713 19.9919
" />
<path d="M33.0713 19.9919
L32.9504 19.9315
" />
<path d="M32.9504 19.9315
L32.7085 19.8710
" />
<path d="M32.7085 19.8710
L32.5875 19.8105
" />
<path d="M32.5875 19.8105
L32.5270 19.7500
" />
<path d="M32.5270 19.7500
L32.4666 19.6291
" />
<path d="M32.4666 19.6291
L32.4666 19.5081
" />
<path d="M32.4666 19.5081
L32.5270 19.3872
" />
<path d="M32.5270 19.3872
L32.5875 19.3267
" />
<path d="M32.5875 19.3267
L32.7085 19.2662
" />
<path d="M32.7085 19.2662
L33.0108 19.2662
" />
<path d="M33.0108 19.2662
L33.1923 19.3267
" />
<path d="M34.2203 20.4758
L34.0994 20.5362
" />
<path d="M34.0994 20.5362
L33.8575 20.5362
" />
<path d="M33.8575 20.5362
L33.7365 20.4758
" />
<path d="M33.7365 20.4758
L33.6761 20.3548
" />
<path d="M33.6761 20.3548
L33.6761 19.8710
" />
<path d="M33.6761 19.8710
L33.7365 19.7500
" />
<path d="M33.7365 19.7500
L33.8575 19.6896
" />
<path d="M33.8575 19.6896
L34.0994 19.6896
" />
<path d="M34.0994 19.6896
L34.2203 19.7500
" />
<path d="M34.2203 19.7500
L34.2808 19.8710
" />
<path d="M34.2808 19.8710
L34.2808 19.9919
" />
<path d="M34.2808 19.9919
L33.6761 20.1129
" />
<path d="M35.3694 20.5362
L35.3694 19.8710
" />
<path d="M35.3694 19.8710
L35.3089 19.7500
" />
<path d="M35.3089 19.7500
L35.1880 19.6896
" />
<path d="M35.1880 19.6896
L34.9461 19.6896
" />
<path d="M34.9461 19.6896
L34.8251 19.7500
" />
<path d="M35.3694 20.4758
L35.2485 20.5362
" />
<path d="M35.2485 20.5362
L34.9461 20.5362
" />
<path d="M34.9461 20.5362
L34.8251 20.4758
" />
<path d="M34.8251 20.4758
L34.7647 20.3548
" />
<path d="M34.7647 20.3548
L34.7647 20.2338
" />
<path d="M34.7647 20.2338
L34.8251 20.1129
" />
<path d="M34.8251 20.1129
L34.9461 20.0524
" />
<path d="M34.9461 20.0524
L35.2485 20.0524
" />
<path d="M35.2485 20.0524
L35.3694 19.9919
" />
<path d="M36.1556 20.5362
L36.0346 20.4758
" />
<path d="M36.0346 20.4758
L35.9741 20.3548
" />
<path d="M35.9741 20.3548
L35.9741 19.2662
" />
<path d="M37.1231 20.4758
L37.0022 20.5362
" />
<path d="M37.0022 20.5362
L36.7603 20.5362
" />
<path d="M36.7603 20.5362
L36.6393 20.4758
" />
<path d="M36.6393 20.4758
L36.5789 20.3548
" />
<path d="M36.5789 20.3548
L36.5789 19.8710
" />
<path d="M36.5789 19.8710
L36.6393 19.7500
" />
<path d="M36.6393 19.7500
L36.7603 19.6896
" />
<path d="M36.7603 19.6896
L37.0022 19.6896
" />
<path d="M37.0022 19.6896
L37.1231 19.7500
" />
<path d="M37.1231 19.7500
L37.1836 19.8710
" />
<path d="M37.1836 19.8710
L37.1836 19.9919
" />
<path d="M37.1836 19.9919
L36.5789 20.1129
" />
<path d="M38.2722 20.5362
L38.2722 19.2662
" />
<path d="M38.2722 20.4758
L38.1513 20.5362
" />
<path d="M38.1513 20.5362
L37.9094 20.5362
" />
<path d="M37.9094 20.5362
L37.7884 20.4758
" />
<path d="M37.7884 20.4758
L37.7279 20.4153
" />
<path d="M37.7279 20.4153
L37.6675 20.2943
" />
<path d="M37.6675 20.2943
L37.6675 19.9315
" />
<path d="M37.6675 19.9315
L37.7279 19.8105
" />
<path d="M37.7279 19.8105
L37.7884 19.7500
" />
<path d="M37.7884 19.7500
L37.9094 19.6896
" />
<path d="M37.9094 19.6896
L38.1513 19.6896
" />
<path d="M38.1513 19.6896
L38.2722 19.7500
" />
<path d="M39.0584 20.4153
L39.1188 20.4758
" />
<path d="M39.1188 20.4758
L39.0584 20.5362
" />
<path d="M39.0584 20.5362
L38.9979 20.4758
" />
<path d="M38.9979 20.4758
L39.0584 20.4153
" />
<path d="M39.0584 20.4153
L39.0584 20.5362
" />
<path d="M38.8165 19.3267
L38.9374 19.2662
" />
<path d="M38.9374 19.2662
L39.2398 19.2662
" />
<path d="M39.2398 19.2662
L39.3607 19.3267
" />
<path d="M39.3607 19.3267
L39.4212 19.4477
" />
<path d="M39.4212 19.4477
L39.4212 19.5686
" />
<path d="M39.4212 19.5686
L39.3607 19.6896
" />
<path d="M39.3607 19.6896
L39.3003 19.7500
" />
<path d="M39.3003 19.7500
L39.1793 19.8105
" />
<path d="M39.1793 19.8105
L39.1188 19.8710
" />
<path d="M39.1188 19.8710
L39.0584 19.9919
" />
<path d="M39.0584 19.9919
L39.0584 20.0524
" />
</g></g> 
</svg>
