<?xml version="1.0" standalone="no"?>
 <!DOCTYPE svg PUBLIC "-//W3C//DTD SVG 1.1//EN" 
 "http://www.w3.org/Graphics/SVG/1.1/DTD/svg11.dtd"> 
<svg
  xmlns:svg="http://www.w3.org/2000/svg"
  xmlns="http://www.w3.org/2000/svg"
  xmlns:xlink="http://www.w3.org/1999/xlink"
  version="1.1"
  width="19.3294mm" height="22.8854mm" viewBox="0.0000 0.0000 19.3294 22.8854">
<title>SVG Image created as thermocouple.svg date 2024/12/15 16:48:06 </title>
  <desc>Image generated by Eeschema-SVG </desc>
<g style="fill:#000000; fill-opacity:1.0000;stroke:#000000; stroke-opacity:1.0000;
stroke-linecap:round; stroke-linejoin:round;"
 transform="translate(0 0) scale(1 1)">
</g>
<g style="fill:none; 
stroke:#840000; stroke-width:0.1524; stroke-opacity:1; 
stroke-linecap:round; stroke-linejoin:round;">
<circle cx="9.6647" cy="9.9569" r="2.0000" /> 
</g>
<g style="fill:none; 
stroke:#840000; stroke-width:0.1588; stroke-opacity:1; 
stroke-linecap:round; stroke-linejoin:round;">
<text x="9.6647" y="10.5920"
textLength="2.4600" font-size="1.6933" lengthAdjust="spacingAndGlyphs"
text-anchor="middle" opacity="0" stroke-opacity="0">TC</text>
<g class="stroked-text"><desc>TC</desc>
<path d="M8.6668 9.2662
L9.3925 9.2662
" />
<path d="M9.0297 10.5362
L9.0297 9.2662
" />
<path d="M10.5415 10.4153
L10.4811 10.4758
" />
<path d="M10.4811 10.4758
L10.2996 10.5362
" />
<path d="M10.2996 10.5362
L10.1787 10.5362
" />
<path d="M10.1787 10.5362
L9.9973 10.4758
" />
<path d="M9.9973 10.4758
L9.8763 10.3548
" />
<path d="M9.8763 10.3548
L9.8158 10.2338
" />
<path d="M9.8158 10.2338
L9.7554 9.9919
" />
<path d="M9.7554 9.9919
L9.7554 9.8105
" />
<path d="M9.7554 9.8105
L9.8158 9.5686
" />
<path d="M9.8158 9.5686
L9.8763 9.4477
" />
<path d="M9.8763 9.4477
L9.9973 9.3267
" />
<path d="M9.9973 9.3267
L10.1787 9.2662
" />
<path d="M10.1787 9.2662
L10.2996 9.2662
" />
<path d="M10.2996 9.2662
L10.4811 9.3267
" />
<path d="M10.4811 9.3267
L10.5415 9.3872
" />
</g></g>
<g style="fill:none; 
stroke:#840000; stroke-width:0.1524; stroke-opacity:1; 
stroke-linecap:round; stroke-linejoin:round;">
<path d="M9.6647 11.9569
L9.6647 14.9569
" />
</g>
<g style="fill:none; 
stroke:#006464; stroke-width:0.1588; stroke-opacity:1; 
stroke-linecap:round; stroke-linejoin:round;">
<text x="9.6647" y="20.5920"
textLength="14.4341" font-size="1.6933" lengthAdjust="spacingAndGlyphs"
text-anchor="middle" opacity="0" stroke-opacity="0">Thermocouple?</text>
<g class="stroked-text"><desc>Thermocouple?</desc>
<path d="M2.6798 19.2662
L3.4055 19.2662
" />
<path d="M3.0427 20.5362
L3.0427 19.2662
" />
<path d="M3.8288 20.5362
L3.8288 19.2662
" />
<path d="M4.3731 20.5362
L4.3731 19.8710
" />
<path d="M4.3731 19.8710
L4.3126 19.7500
" />
<path d="M4.3126 19.7500
L4.1917 19.6896
" />
<path d="M4.1917 19.6896
L4.0103 19.6896
" />
<path d="M4.0103 19.6896
L3.8893 19.7500
" />
<path d="M3.8893 19.7500
L3.8288 19.8105
" />
<path d="M5.4616 20.4758
L5.3407 20.5362
" />
<path d="M5.3407 20.5362
L5.0988 20.5362
" />
<path d="M5.0988 20.5362
L4.9778 20.4758
" />
<path d="M4.9778 20.4758
L4.9174 20.3548
" />
<path d="M4.9174 20.3548
L4.9174 19.8710
" />
<path d="M4.9174 19.8710
L4.9778 19.7500
" />
<path d="M4.9778 19.7500
L5.0988 19.6896
" />
<path d="M5.0988 19.6896
L5.3407 19.6896
" />
<path d="M5.3407 19.6896
L5.4616 19.7500
" />
<path d="M5.4616 19.7500
L5.5221 19.8710
" />
<path d="M5.5221 19.8710
L5.5221 19.9919
" />
<path d="M5.5221 19.9919
L4.9174 20.1129
" />
<path d="M6.0664 20.5362
L6.0664 19.6896
" />
<path d="M6.0664 19.9315
L6.1269 19.8105
" />
<path d="M6.1269 19.8105
L6.1874 19.7500
" />
<path d="M6.1874 19.7500
L6.3083 19.6896
" />
<path d="M6.3083 19.6896
L6.4293 19.6896
" />
<path d="M6.8526 20.5362
L6.8526 19.6896
" />
<path d="M6.8526 19.8105
L6.9131 19.7500
" />
<path d="M6.9131 19.7500
L7.0341 19.6896
" />
<path d="M7.0341 19.6896
L7.2155 19.6896
" />
<path d="M7.2155 19.6896
L7.3364 19.7500
" />
<path d="M7.3364 19.7500
L7.3969 19.8710
" />
<path d="M7.3969 19.8710
L7.3969 20.5362
" />
<path d="M7.3969 19.8710
L7.4574 19.7500
" />
<path d="M7.4574 19.7500
L7.5783 19.6896
" />
<path d="M7.5783 19.6896
L7.7598 19.6896
" />
<path d="M7.7598 19.6896
L7.8807 19.7500
" />
<path d="M7.8807 19.7500
L7.9412 19.8710
" />
<path d="M7.9412 19.8710
L7.9412 20.5362
" />
<path d="M8.7274 20.5362
L8.6064 20.4758
" />
<path d="M8.6064 20.4758
L8.5459 20.4153
" />
<path d="M8.5459 20.4153
L8.4855 20.2943
" />
<path d="M8.4855 20.2943
L8.4855 19.9315
" />
<path d="M8.4855 19.9315
L8.5459 19.8105
" />
<path d="M8.5459 19.8105
L8.6064 19.7500
" />
<path d="M8.6064 19.7500
L8.7274 19.6896
" />
<path d="M8.7274 19.6896
L8.9088 19.6896
" />
<path d="M8.9088 19.6896
L9.0297 19.7500
" />
<path d="M9.0297 19.7500
L9.0902 19.8105
" />
<path d="M9.0902 19.8105
L9.1507 19.9315
" />
<path d="M9.1507 19.9315
L9.1507 20.2943
" />
<path d="M9.1507 20.2943
L9.0902 20.4153
" />
<path d="M9.0902 20.4153
L9.0297 20.4758
" />
<path d="M9.0297 20.4758
L8.9088 20.5362
" />
<path d="M8.9088 20.5362
L8.7274 20.5362
" />
<path d="M10.2392 20.4758
L10.1183 20.5362
" />
<path d="M10.1183 20.5362
L9.8764 20.5362
" />
<path d="M9.8764 20.5362
L9.7554 20.4758
" />
<path d="M9.7554 20.4758
L9.6949 20.4153
" />
<path d="M9.6949 20.4153
L9.6345 20.2943
" />
<path d="M9.6345 20.2943
L9.6345 19.9315
" />
<path d="M9.6345 19.9315
L9.6949 19.8105
" />
<path d="M9.6949 19.8105
L9.7554 19.7500
" />
<path d="M9.7554 19.7500
L9.8764 19.6896
" />
<path d="M9.8764 19.6896
L10.1183 19.6896
" />
<path d="M10.1183 19.6896
L10.2392 19.7500
" />
<path d="M10.9650 20.5362
L10.8440 20.4758
" />
<path d="M10.8440 20.4758
L10.7835 20.4153
" />
<path d="M10.7835 20.4153
L10.7231 20.2943
" />
<path d="M10.7231 20.2943
L10.7231 19.9315
" />
<path d="M10.7231 19.9315
L10.7835 19.8105
" />
<path d="M10.7835 19.8105
L10.8440 19.7500
" />
<path d="M10.8440 19.7500
L10.9650 19.6896
" />
<path d="M10.9650 19.6896
L11.1464 19.6896
" />
<path d="M11.1464 19.6896
L11.2673 19.7500
" />
<path d="M11.2673 19.7500
L11.3278 19.8105
" />
<path d="M11.3278 19.8105
L11.3883 19.9315
" />
<path d="M11.3883 19.9315
L11.3883 20.2943
" />
<path d="M11.3883 20.2943
L11.3278 20.4153
" />
<path d="M11.3278 20.4153
L11.2673 20.4758
" />
<path d="M11.2673 20.4758
L11.1464 20.5362
" />
<path d="M11.1464 20.5362
L10.9650 20.5362
" />
<path d="M12.4768 19.6896
L12.4768 20.5362
" />
<path d="M11.9325 19.6896
L11.9325 20.3548
" />
<path d="M11.9325 20.3548
L11.9930 20.4758
" />
<path d="M11.9930 20.4758
L12.1140 20.5362
" />
<path d="M12.1140 20.5362
L12.2954 20.5362
" />
<path d="M12.2954 20.5362
L12.4163 20.4758
" />
<path d="M12.4163 20.4758
L12.4768 20.4153
" />
<path d="M13.0815 19.6896
L13.0815 20.9596
" />
<path d="M13.0815 19.7500
L13.2025 19.6896
" />
<path d="M13.2025 19.6896
L13.4444 19.6896
" />
<path d="M13.4444 19.6896
L13.5653 19.7500
" />
<path d="M13.5653 19.7500
L13.6258 19.8105
" />
<path d="M13.6258 19.8105
L13.6863 19.9315
" />
<path d="M13.6863 19.9315
L13.6863 20.2943
" />
<path d="M13.6863 20.2943
L13.6258 20.4153
" />
<path d="M13.6258 20.4153
L13.5653 20.4758
" />
<path d="M13.5653 20.4758
L13.4444 20.5362
" />
<path d="M13.4444 20.5362
L13.2025 20.5362
" />
<path d="M13.2025 20.5362
L13.0815 20.4758
" />
<path d="M14.4120 20.5362
L14.2910 20.4758
" />
<path d="M14.2910 20.4758
L14.2305 20.3548
" />
<path d="M14.2305 20.3548
L14.2305 19.2662
" />
<path d="M15.3795 20.4758
L15.2586 20.5362
" />
<path d="M15.2586 20.5362
L15.0167 20.5362
" />
<path d="M15.0167 20.5362
L14.8957 20.4758
" />
<path d="M14.8957 20.4758
L14.8353 20.3548
" />
<path d="M14.8353 20.3548
L14.8353 19.8710
" />
<path d="M14.8353 19.8710
L14.8957 19.7500
" />
<path d="M14.8957 19.7500
L15.0167 19.6896
" />
<path d="M15.0167 19.6896
L15.2586 19.6896
" />
<path d="M15.2586 19.6896
L15.3795 19.7500
" />
<path d="M15.3795 19.7500
L15.4400 19.8710
" />
<path d="M15.4400 19.8710
L15.4400 19.9919
" />
<path d="M15.4400 19.9919
L14.8353 20.1129
" />
<path d="M16.1658 20.4153
L16.2262 20.4758
" />
<path d="M16.2262 20.4758
L16.1658 20.5362
" />
<path d="M16.1658 20.5362
L16.1053 20.4758
" />
<path d="M16.1053 20.4758
L16.1658 20.4153
" />
<path d="M16.1658 20.4153
L16.1658 20.5362
" />
<path d="M15.9239 19.3267
L16.0448 19.2662
" />
<path d="M16.0448 19.2662
L16.3472 19.2662
" />
<path d="M16.3472 19.2662
L16.4681 19.3267
" />
<path d="M16.4681 19.3267
L16.5286 19.4477
" />
<path d="M16.5286 19.4477
L16.5286 19.5686
" />
<path d="M16.5286 19.5686
L16.4681 19.6896
" />
<path d="M16.4681 19.6896
L16.4077 19.7500
" />
<path d="M16.4077 19.7500
L16.2867 19.8105
" />
<path d="M16.2867 19.8105
L16.2262 19.8710
" />
<path d="M16.2262 19.8710
L16.1658 19.9919
" />
<path d="M16.1658 19.9919
L16.1658 20.0524
" />
</g></g> 
</svg>
