<?xml version="1.0" standalone="no"?>
 <!DOCTYPE svg PUBLIC "-//W3C//DTD SVG 1.1//EN" 
 "http://www.w3.org/Graphics/SVG/1.1/DTD/svg11.dtd"> 
<svg
  xmlns:svg="http://www.w3.org/2000/svg"
  xmlns="http://www.w3.org/2000/svg"
  xmlns:xlink="http://www.w3.org/1999/xlink"
  version="1.1"
  width="27.1526mm" height="34.7726mm" viewBox="0.0000 0.0000 27.1526 34.7726">
<title>SVG Image created as valve - pressure relief.svg date 2024/12/15 16:48:06 </title>
  <desc>Image generated by Eeschema-SVG </desc>
<g style="fill:#000000; fill-opacity:1.0000;stroke:#000000; stroke-opacity:1.0000;
stroke-linecap:round; stroke-linejoin:round;"
 transform="translate(0 0) scale(1 1)">
<path style="fill:none; 
stroke:#840000; stroke-width:0.1000; stroke-opacity:1; 
stroke-linecap:round; stroke-linejoin:round;fill:none"
d="M 14.4967,20.8494
14.4967,24.8494
" /> 
<path style="fill:none; 
stroke:#840000; stroke-width:0.1000; stroke-opacity:1; 
stroke-linecap:round; stroke-linejoin:round;fill:none"
d="M 14.4967,20.8494
9.4967,18.8494
9.4967,22.8494
Z" /> 
<path style="fill:none; 
stroke:#840000; stroke-width:0.1000; stroke-opacity:1; 
stroke-linecap:round; stroke-linejoin:round;fill:none"
d="M 14.4967,20.8494
12.4967,15.8494
16.4967,15.8494
Z" /> 
<path style="fill:#840000; fill-opacity:1.0000; 
stroke:#840000; stroke-width:0.1000; stroke-opacity:1; 
stroke-linecap:round; stroke-linejoin:round;fill-rule:evenodd;"
d="M 14.4967,12.8494
14.2467,13.8494
14.7467,13.8494
Z" /> 
<path style="fill:none; 
stroke:#840000; stroke-width:0.1000; stroke-opacity:1; 
stroke-linecap:round; stroke-linejoin:round;fill:none"
d="M 13.4967,21.8494
15.4967,22.3494
13.4967,22.3494
15.4967,22.8494
13.4967,22.8494
15.4967,23.3494
13.4967,23.3494
15.4967,23.8494
13.4967,23.8494
15.4967,24.3494
" /> 
</g>
<g style="fill:none; 
stroke:#840000; stroke-width:0.1524; stroke-opacity:1; 
stroke-linecap:round; stroke-linejoin:round;">
<path d="M9.4967 20.8494
L6.4967 20.8494
" />
<path d="M14.4967 15.8494
L14.4967 12.8494
" />
</g>
<g style="fill:none; 
stroke:#006464; stroke-width:0.1588; stroke-opacity:1; 
stroke-linecap:round; stroke-linejoin:round;">
<text x="14.4967" y="31.4845"
textLength="21.8729" font-size="1.6933" lengthAdjust="spacingAndGlyphs"
text-anchor="middle" opacity="0" stroke-opacity="0">Pressure_Relief_Valve?</text>
<g class="stroked-text"><desc>Pressure_Relief_Valve?</desc>
<path d="M3.9738 31.4287
L3.9738 30.1587
" />
<path d="M3.9738 30.1587
L4.4576 30.1587
" />
<path d="M4.4576 30.1587
L4.5786 30.2192
" />
<path d="M4.5786 30.2192
L4.6391 30.2797
" />
<path d="M4.6391 30.2797
L4.6995 30.4006
" />
<path d="M4.6995 30.4006
L4.6995 30.5821
" />
<path d="M4.6995 30.5821
L4.6391 30.7030
" />
<path d="M4.6391 30.7030
L4.5786 30.7635
" />
<path d="M4.5786 30.7635
L4.4576 30.8240
" />
<path d="M4.4576 30.8240
L3.9738 30.8240
" />
<path d="M5.2438 31.4287
L5.2438 30.5821
" />
<path d="M5.2438 30.8240
L5.3043 30.7030
" />
<path d="M5.3043 30.7030
L5.3648 30.6425
" />
<path d="M5.3648 30.6425
L5.4857 30.5821
" />
<path d="M5.4857 30.5821
L5.6067 30.5821
" />
<path d="M6.5138 31.3683
L6.3929 31.4287
" />
<path d="M6.3929 31.4287
L6.1510 31.4287
" />
<path d="M6.1510 31.4287
L6.0300 31.3683
" />
<path d="M6.0300 31.3683
L5.9696 31.2473
" />
<path d="M5.9696 31.2473
L5.9696 30.7635
" />
<path d="M5.9696 30.7635
L6.0300 30.6425
" />
<path d="M6.0300 30.6425
L6.1510 30.5821
" />
<path d="M6.1510 30.5821
L6.3929 30.5821
" />
<path d="M6.3929 30.5821
L6.5138 30.6425
" />
<path d="M6.5138 30.6425
L6.5743 30.7635
" />
<path d="M6.5743 30.7635
L6.5743 30.8844
" />
<path d="M6.5743 30.8844
L5.9696 31.0054
" />
<path d="M7.0582 31.3683
L7.1791 31.4287
" />
<path d="M7.1791 31.4287
L7.4210 31.4287
" />
<path d="M7.4210 31.4287
L7.5420 31.3683
" />
<path d="M7.5420 31.3683
L7.6024 31.2473
" />
<path d="M7.6024 31.2473
L7.6024 31.1868
" />
<path d="M7.6024 31.1868
L7.5420 31.0659
" />
<path d="M7.5420 31.0659
L7.4210 31.0054
" />
<path d="M7.4210 31.0054
L7.2396 31.0054
" />
<path d="M7.2396 31.0054
L7.1186 30.9449
" />
<path d="M7.1186 30.9449
L7.0582 30.8240
" />
<path d="M7.0582 30.8240
L7.0582 30.7635
" />
<path d="M7.0582 30.7635
L7.1186 30.6425
" />
<path d="M7.1186 30.6425
L7.2396 30.5821
" />
<path d="M7.2396 30.5821
L7.4210 30.5821
" />
<path d="M7.4210 30.5821
L7.5420 30.6425
" />
<path d="M8.0863 31.3683
L8.2072 31.4287
" />
<path d="M8.2072 31.4287
L8.4491 31.4287
" />
<path d="M8.4491 31.4287
L8.5701 31.3683
" />
<path d="M8.5701 31.3683
L8.6305 31.2473
" />
<path d="M8.6305 31.2473
L8.6305 31.1868
" />
<path d="M8.6305 31.1868
L8.5701 31.0659
" />
<path d="M8.5701 31.0659
L8.4491 31.0054
" />
<path d="M8.4491 31.0054
L8.2677 31.0054
" />
<path d="M8.2677 31.0054
L8.1467 30.9449
" />
<path d="M8.1467 30.9449
L8.0863 30.8240
" />
<path d="M8.0863 30.8240
L8.0863 30.7635
" />
<path d="M8.0863 30.7635
L8.1467 30.6425
" />
<path d="M8.1467 30.6425
L8.2677 30.5821
" />
<path d="M8.2677 30.5821
L8.4491 30.5821
" />
<path d="M8.4491 30.5821
L8.5701 30.6425
" />
<path d="M9.7191 30.5821
L9.7191 31.4287
" />
<path d="M9.1748 30.5821
L9.1748 31.2473
" />
<path d="M9.1748 31.2473
L9.2353 31.3683
" />
<path d="M9.2353 31.3683
L9.3563 31.4287
" />
<path d="M9.3563 31.4287
L9.5377 31.4287
" />
<path d="M9.5377 31.4287
L9.6586 31.3683
" />
<path d="M9.6586 31.3683
L9.7191 31.3078
" />
<path d="M10.3238 31.4287
L10.3238 30.5821
" />
<path d="M10.3238 30.8240
L10.3843 30.7030
" />
<path d="M10.3843 30.7030
L10.4448 30.6425
" />
<path d="M10.4448 30.6425
L10.5657 30.5821
" />
<path d="M10.5657 30.5821
L10.6867 30.5821
" />
<path d="M11.5938 31.3683
L11.4729 31.4287
" />
<path d="M11.4729 31.4287
L11.2310 31.4287
" />
<path d="M11.2310 31.4287
L11.1100 31.3683
" />
<path d="M11.1100 31.3683
L11.0496 31.2473
" />
<path d="M11.0496 31.2473
L11.0496 30.7635
" />
<path d="M11.0496 30.7635
L11.1100 30.6425
" />
<path d="M11.1100 30.6425
L11.2310 30.5821
" />
<path d="M11.2310 30.5821
L11.4729 30.5821
" />
<path d="M11.4729 30.5821
L11.5938 30.6425
" />
<path d="M11.5938 30.6425
L11.6543 30.7635
" />
<path d="M11.6543 30.7635
L11.6543 30.8844
" />
<path d="M11.6543 30.8844
L11.0496 31.0054
" />
<path d="M11.8963 31.5497
L12.8639 31.5497
" />
<path d="M13.8919 31.4287
L13.4686 30.8240
" />
<path d="M13.1662 31.4287
L13.1662 30.1587
" />
<path d="M13.1662 30.1587
L13.6500 30.1587
" />
<path d="M13.6500 30.1587
L13.7710 30.2192
" />
<path d="M13.7710 30.2192
L13.8315 30.2797
" />
<path d="M13.8315 30.2797
L13.8919 30.4006
" />
<path d="M13.8919 30.4006
L13.8919 30.5821
" />
<path d="M13.8919 30.5821
L13.8315 30.7030
" />
<path d="M13.8315 30.7030
L13.7710 30.7635
" />
<path d="M13.7710 30.7635
L13.6500 30.8240
" />
<path d="M13.6500 30.8240
L13.1662 30.8240
" />
<path d="M14.9200 31.3683
L14.7991 31.4287
" />
<path d="M14.7991 31.4287
L14.5572 31.4287
" />
<path d="M14.5572 31.4287
L14.4362 31.3683
" />
<path d="M14.4362 31.3683
L14.3758 31.2473
" />
<path d="M14.3758 31.2473
L14.3758 30.7635
" />
<path d="M14.3758 30.7635
L14.4362 30.6425
" />
<path d="M14.4362 30.6425
L14.5572 30.5821
" />
<path d="M14.5572 30.5821
L14.7991 30.5821
" />
<path d="M14.7991 30.5821
L14.9200 30.6425
" />
<path d="M14.9200 30.6425
L14.9805 30.7635
" />
<path d="M14.9805 30.7635
L14.9805 30.8844
" />
<path d="M14.9805 30.8844
L14.3758 31.0054
" />
<path d="M15.7063 31.4287
L15.5853 31.3683
" />
<path d="M15.5853 31.3683
L15.5248 31.2473
" />
<path d="M15.5248 31.2473
L15.5248 30.1587
" />
<path d="M16.1900 31.4287
L16.1900 30.5821
" />
<path d="M16.1900 30.1587
L16.1296 30.2192
" />
<path d="M16.1296 30.2192
L16.1900 30.2797
" />
<path d="M16.1900 30.2797
L16.2505 30.2192
" />
<path d="M16.2505 30.2192
L16.1900 30.1587
" />
<path d="M16.1900 30.1587
L16.1900 30.2797
" />
<path d="M17.2786 31.3683
L17.1577 31.4287
" />
<path d="M17.1577 31.4287
L16.9158 31.4287
" />
<path d="M16.9158 31.4287
L16.7948 31.3683
" />
<path d="M16.7948 31.3683
L16.7344 31.2473
" />
<path d="M16.7344 31.2473
L16.7344 30.7635
" />
<path d="M16.7344 30.7635
L16.7948 30.6425
" />
<path d="M16.7948 30.6425
L16.9158 30.5821
" />
<path d="M16.9158 30.5821
L17.1577 30.5821
" />
<path d="M17.1577 30.5821
L17.2786 30.6425
" />
<path d="M17.2786 30.6425
L17.3391 30.7635
" />
<path d="M17.3391 30.7635
L17.3391 30.8844
" />
<path d="M17.3391 30.8844
L16.7344 31.0054
" />
<path d="M17.7020 30.5821
L18.1858 30.5821
" />
<path d="M17.8834 31.4287
L17.8834 30.3402
" />
<path d="M17.8834 30.3402
L17.9439 30.2192
" />
<path d="M17.9439 30.2192
L18.0649 30.1587
" />
<path d="M18.0649 30.1587
L18.1858 30.1587
" />
<path d="M18.3068 31.5497
L19.2744 31.5497
" />
<path d="M19.3953 30.1587
L19.8186 31.4287
" />
<path d="M19.8186 31.4287
L20.2420 30.1587
" />
<path d="M21.2096 31.4287
L21.2096 30.7635
" />
<path d="M21.2096 30.7635
L21.1491 30.6425
" />
<path d="M21.1491 30.6425
L21.0282 30.5821
" />
<path d="M21.0282 30.5821
L20.7863 30.5821
" />
<path d="M20.7863 30.5821
L20.6653 30.6425
" />
<path d="M21.2096 31.3683
L21.0887 31.4287
" />
<path d="M21.0887 31.4287
L20.7863 31.4287
" />
<path d="M20.7863 31.4287
L20.6653 31.3683
" />
<path d="M20.6653 31.3683
L20.6049 31.2473
" />
<path d="M20.6049 31.2473
L20.6049 31.1263
" />
<path d="M20.6049 31.1263
L20.6653 31.0054
" />
<path d="M20.6653 31.0054
L20.7863 30.9449
" />
<path d="M20.7863 30.9449
L21.0887 30.9449
" />
<path d="M21.0887 30.9449
L21.2096 30.8844
" />
<path d="M21.9958 31.4287
L21.8748 31.3683
" />
<path d="M21.8748 31.3683
L21.8143 31.2473
" />
<path d="M21.8143 31.2473
L21.8143 30.1587
" />
<path d="M22.3586 30.5821
L22.6610 31.4287
" />
<path d="M22.6610 31.4287
L22.9633 30.5821
" />
<path d="M23.9309 31.3683
L23.8100 31.4287
" />
<path d="M23.8100 31.4287
L23.5681 31.4287
" />
<path d="M23.5681 31.4287
L23.4471 31.3683
" />
<path d="M23.4471 31.3683
L23.3867 31.2473
" />
<path d="M23.3867 31.2473
L23.3867 30.7635
" />
<path d="M23.3867 30.7635
L23.4471 30.6425
" />
<path d="M23.4471 30.6425
L23.5681 30.5821
" />
<path d="M23.5681 30.5821
L23.8100 30.5821
" />
<path d="M23.8100 30.5821
L23.9309 30.6425
" />
<path d="M23.9309 30.6425
L23.9914 30.7635
" />
<path d="M23.9914 30.7635
L23.9914 30.8844
" />
<path d="M23.9914 30.8844
L23.3867 31.0054
" />
<path d="M24.7172 31.3078
L24.7776 31.3683
" />
<path d="M24.7776 31.3683
L24.7172 31.4287
" />
<path d="M24.7172 31.4287
L24.6567 31.3683
" />
<path d="M24.6567 31.3683
L24.7172 31.3078
" />
<path d="M24.7172 31.3078
L24.7172 31.4287
" />
<path d="M24.4753 30.2192
L24.5962 30.1587
" />
<path d="M24.5962 30.1587
L24.8986 30.1587
" />
<path d="M24.8986 30.1587
L25.0195 30.2192
" />
<path d="M25.0195 30.2192
L25.0800 30.3402
" />
<path d="M25.0800 30.3402
L25.0800 30.4611
" />
<path d="M25.0800 30.4611
L25.0195 30.5821
" />
<path d="M25.0195 30.5821
L24.9591 30.6425
" />
<path d="M24.9591 30.6425
L24.8381 30.7030
" />
<path d="M24.8381 30.7030
L24.7776 30.7635
" />
<path d="M24.7776 30.7635
L24.7172 30.8844
" />
<path d="M24.7172 30.8844
L24.7172 30.9449
" />
</g></g> 
</svg>
