<?xml version="1.0" standalone="no"?>
 <!DOCTYPE svg PUBLIC "-//W3C//DTD SVG 1.1//EN" 
 "http://www.w3.org/Graphics/SVG/1.1/DTD/svg11.dtd"> 
<svg
  xmlns:svg="http://www.w3.org/2000/svg"
  xmlns="http://www.w3.org/2000/svg"
  xmlns:xlink="http://www.w3.org/1999/xlink"
  version="1.1"
  width="42.4180mm" height="42.4180mm" viewBox="0.0000 0.0000 42.4180 42.4180">
<title>SVG Image created as valve - 4 way.svg date 2024/12/16 14:50:33 </title>
  <desc>Image generated by Eeschema-SVG </desc>
<g style="fill:#000000; fill-opacity:1.0000;stroke:#000000; stroke-opacity:1.0000;
stroke-linecap:round; stroke-linejoin:round;"
 transform="translate(0 0) scale(1 1)">
<path style="fill:none; 
stroke:#840000; stroke-width:0.1000; stroke-opacity:1; 
stroke-linecap:round; stroke-linejoin:round;fill:none"
d="M 21.2090,21.2090
16.2090,19.2090
16.2090,23.2090
Z" /> 
<path style="fill:none; 
stroke:#840000; stroke-width:0.1000; stroke-opacity:1; 
stroke-linecap:round; stroke-linejoin:round;fill:none"
d="M 21.2090,21.2090
19.2090,26.2090
23.2090,26.2090
Z" /> 
<path style="fill:none; 
stroke:#840000; stroke-width:0.1000; stroke-opacity:1; 
stroke-linecap:round; stroke-linejoin:round;fill:none"
d="M 21.2090,21.2090
19.2090,16.2090
23.2090,16.2090
Z" /> 
<path style="fill:none; 
stroke:#840000; stroke-width:0.1000; stroke-opacity:1; 
stroke-linecap:round; stroke-linejoin:round;fill:none"
d="M 21.2090,21.2090
26.2090,19.2090
26.2090,23.2090
Z" /> 
</g>
<g style="fill:none; 
stroke:#840000; stroke-width:0.1524; stroke-opacity:1; 
stroke-linecap:round; stroke-linejoin:round;">
<path d="M16.2090 21.2090
L13.2090 21.2090
" />
<path d="M21.2090 26.2090
L21.2090 29.2090
" />
<path d="M21.2090 16.2090
L21.2090 13.2090
" />
<path d="M26.2090 21.2090
L29.2090 21.2090
" />
</g>
<g style="fill:none; 
stroke:#006464; stroke-width:0.1588; stroke-opacity:1; 
stroke-linecap:round; stroke-linejoin:round;">
<text x="21.2090" y="31.8441"
textLength="12.9827" font-size="1.6933" lengthAdjust="spacingAndGlyphs"
text-anchor="middle" opacity="0" stroke-opacity="0">4_Way_Valve?</text>
<g class="stroked-text"><desc>4_Way_Valve?</desc>
<path d="M15.6755 30.9417
L15.6755 31.7883
" />
<path d="M15.3731 30.4579
L15.0708 31.3650
" />
<path d="M15.0708 31.3650
L15.8569 31.3650
" />
<path d="M16.0384 31.9093
L17.0060 31.9093
" />
<path d="M17.1874 30.5183
L17.4898 31.7883
" />
<path d="M17.4898 31.7883
L17.7317 30.8812
" />
<path d="M17.7317 30.8812
L17.9736 31.7883
" />
<path d="M17.9736 31.7883
L18.2760 30.5183
" />
<path d="M19.3040 31.7883
L19.3040 31.1231
" />
<path d="M19.3040 31.1231
L19.2435 31.0021
" />
<path d="M19.2435 31.0021
L19.1226 30.9417
" />
<path d="M19.1226 30.9417
L18.8807 30.9417
" />
<path d="M18.8807 30.9417
L18.7597 31.0021
" />
<path d="M19.3040 31.7279
L19.1831 31.7883
" />
<path d="M19.1831 31.7883
L18.8807 31.7883
" />
<path d="M18.8807 31.7883
L18.7597 31.7279
" />
<path d="M18.7597 31.7279
L18.6993 31.6069
" />
<path d="M18.6993 31.6069
L18.6993 31.4859
" />
<path d="M18.6993 31.4859
L18.7597 31.3650
" />
<path d="M18.7597 31.3650
L18.8807 31.3045
" />
<path d="M18.8807 31.3045
L19.1831 31.3045
" />
<path d="M19.1831 31.3045
L19.3040 31.2440
" />
<path d="M19.7878 30.9417
L20.0902 31.7883
" />
<path d="M20.3925 30.9417
L20.0902 31.7883
" />
<path d="M20.0902 31.7883
L19.9692 32.0907
" />
<path d="M19.9692 32.0907
L19.9087 32.1512
" />
<path d="M19.9087 32.1512
L19.7878 32.2117
" />
<path d="M20.5740 31.9093
L21.5416 31.9093
" />
<path d="M21.6625 30.5183
L22.0858 31.7883
" />
<path d="M22.0858 31.7883
L22.5092 30.5183
" />
<path d="M23.4768 31.7883
L23.4768 31.1231
" />
<path d="M23.4768 31.1231
L23.4163 31.0021
" />
<path d="M23.4163 31.0021
L23.2954 30.9417
" />
<path d="M23.2954 30.9417
L23.0535 30.9417
" />
<path d="M23.0535 30.9417
L22.9325 31.0021
" />
<path d="M23.4768 31.7279
L23.3559 31.7883
" />
<path d="M23.3559 31.7883
L23.0535 31.7883
" />
<path d="M23.0535 31.7883
L22.9325 31.7279
" />
<path d="M22.9325 31.7279
L22.8721 31.6069
" />
<path d="M22.8721 31.6069
L22.8721 31.4859
" />
<path d="M22.8721 31.4859
L22.9325 31.3650
" />
<path d="M22.9325 31.3650
L23.0535 31.3045
" />
<path d="M23.0535 31.3045
L23.3559 31.3045
" />
<path d="M23.3559 31.3045
L23.4768 31.2440
" />
<path d="M24.2630 31.7883
L24.1420 31.7279
" />
<path d="M24.1420 31.7279
L24.0815 31.6069
" />
<path d="M24.0815 31.6069
L24.0815 30.5183
" />
<path d="M24.6258 30.9417
L24.9282 31.7883
" />
<path d="M24.9282 31.7883
L25.2305 30.9417
" />
<path d="M26.1981 31.7279
L26.0772 31.7883
" />
<path d="M26.0772 31.7883
L25.8353 31.7883
" />
<path d="M25.8353 31.7883
L25.7143 31.7279
" />
<path d="M25.7143 31.7279
L25.6539 31.6069
" />
<path d="M25.6539 31.6069
L25.6539 31.1231
" />
<path d="M25.6539 31.1231
L25.7143 31.0021
" />
<path d="M25.7143 31.0021
L25.8353 30.9417
" />
<path d="M25.8353 30.9417
L26.0772 30.9417
" />
<path d="M26.0772 30.9417
L26.1981 31.0021
" />
<path d="M26.1981 31.0021
L26.2586 31.1231
" />
<path d="M26.2586 31.1231
L26.2586 31.2440
" />
<path d="M26.2586 31.2440
L25.6539 31.3650
" />
<path d="M26.9844 31.6674
L27.0448 31.7279
" />
<path d="M27.0448 31.7279
L26.9844 31.7883
" />
<path d="M26.9844 31.7883
L26.9239 31.7279
" />
<path d="M26.9239 31.7279
L26.9844 31.6674
" />
<path d="M26.9844 31.6674
L26.9844 31.7883
" />
<path d="M26.7425 30.5788
L26.8634 30.5183
" />
<path d="M26.8634 30.5183
L27.1658 30.5183
" />
<path d="M27.1658 30.5183
L27.2867 30.5788
" />
<path d="M27.2867 30.5788
L27.3472 30.6998
" />
<path d="M27.3472 30.6998
L27.3472 30.8207
" />
<path d="M27.3472 30.8207
L27.2867 30.9417
" />
<path d="M27.2867 30.9417
L27.2263 31.0021
" />
<path d="M27.2263 31.0021
L27.1053 31.0626
" />
<path d="M27.1053 31.0626
L27.0448 31.1231
" />
<path d="M27.0448 31.1231
L26.9844 31.2440
" />
<path d="M26.9844 31.2440
L26.9844 31.3045
" />
</g></g> 
</svg>
