<?xml version="1.0" standalone="no"?>
 <!DOCTYPE svg PUBLIC "-//W3C//DTD SVG 1.1//EN" 
 "http://www.w3.org/Graphics/SVG/1.1/DTD/svg11.dtd"> 
<svg
  xmlns:svg="http://www.w3.org/2000/svg"
  xmlns="http://www.w3.org/2000/svg"
  xmlns:xlink="http://www.w3.org/1999/xlink"
  version="1.1"
  width="30.6578mm" height="22.8854mm" viewBox="0.0000 0.0000 30.6578 22.8854">
<title>SVG Image created as valve - servo.svg date 2024/12/15 16:48:06 </title>
  <desc>Image generated by Eeschema-SVG </desc>
<g style="fill:#000000; fill-opacity:1.0000;stroke:#000000; stroke-opacity:1.0000;
stroke-linecap:round; stroke-linejoin:round;"
 transform="translate(0 0) scale(1 1)">
</g>
<g style="fill:none; 
stroke:#840000; stroke-width:0.1000; stroke-opacity:1; 
stroke-linecap:round; stroke-linejoin:round;">
<rect x="12.784600" y="4.956900" width="4.000000" height="2.000000" rx="0.000000" />
<path style="fill:none; 
stroke:#840000; stroke-width:0.1000; stroke-opacity:1; 
stroke-linecap:round; stroke-linejoin:round;fill:none"
d="M 14.7846,6.9569
14.7846,9.9569
" /> 
<path style="fill:none; 
stroke:#840000; stroke-width:0.1000; stroke-opacity:1; 
stroke-linecap:round; stroke-linejoin:round;fill:none"
d="M 14.7846,9.9569
9.7846,7.9569
9.7846,11.9569
Z" /> 
<path style="fill:none; 
stroke:#840000; stroke-width:0.1000; stroke-opacity:1; 
stroke-linecap:round; stroke-linejoin:round;fill:none"
d="M 14.7846,9.9569
19.7846,7.9569
19.7846,11.9569
Z" /> 
</g>
<g style="fill:none; 
stroke:#840000; stroke-width:0.1588; stroke-opacity:1; 
stroke-linecap:round; stroke-linejoin:round;">
<text x="14.7846" y="6.5920"
textLength="1.4319" font-size="1.6933" lengthAdjust="spacingAndGlyphs"
text-anchor="middle" opacity="0" stroke-opacity="0">S</text>
<g class="stroked-text"><desc>S</desc>
<path d="M14.4218 6.4758
L14.6032 6.5362
" />
<path d="M14.6032 6.5362
L14.9056 6.5362
" />
<path d="M14.9056 6.5362
L15.0265 6.4758
" />
<path d="M15.0265 6.4758
L15.0870 6.4153
" />
<path d="M15.0870 6.4153
L15.1475 6.2943
" />
<path d="M15.1475 6.2943
L15.1475 6.1734
" />
<path d="M15.1475 6.1734
L15.0870 6.0524
" />
<path d="M15.0870 6.0524
L15.0265 5.9919
" />
<path d="M15.0265 5.9919
L14.9056 5.9315
" />
<path d="M14.9056 5.9315
L14.6637 5.8710
" />
<path d="M14.6637 5.8710
L14.5427 5.8105
" />
<path d="M14.5427 5.8105
L14.4822 5.7500
" />
<path d="M14.4822 5.7500
L14.4218 5.6291
" />
<path d="M14.4218 5.6291
L14.4218 5.5081
" />
<path d="M14.4218 5.5081
L14.4822 5.3872
" />
<path d="M14.4822 5.3872
L14.5427 5.3267
" />
<path d="M14.5427 5.3267
L14.6637 5.2662
" />
<path d="M14.6637 5.2662
L14.9660 5.2662
" />
<path d="M14.9660 5.2662
L15.1475 5.3267
" />
</g></g>
<g style="fill:none; 
stroke:#840000; stroke-width:0.1524; stroke-opacity:1; 
stroke-linecap:round; stroke-linejoin:round;">
<path d="M9.7846 9.9569
L6.7846 9.9569
" />
<path d="M19.7846 9.9569
L22.7846 9.9569
" />
</g>
<g style="fill:none; 
stroke:#006464; stroke-width:0.1588; stroke-opacity:1; 
stroke-linecap:round; stroke-linejoin:round;">
<text x="14.7846" y="20.5920"
textLength="12.4385" font-size="1.6933" lengthAdjust="spacingAndGlyphs"
text-anchor="middle" opacity="0" stroke-opacity="0">Servo_Valve?</text>
<g class="stroked-text"><desc>Servo_Valve?</desc>
<path d="M8.9185 20.4758
L9.0999 20.5362
" />
<path d="M9.0999 20.5362
L9.4023 20.5362
" />
<path d="M9.4023 20.5362
L9.5232 20.4758
" />
<path d="M9.5232 20.4758
L9.5837 20.4153
" />
<path d="M9.5837 20.4153
L9.6442 20.2943
" />
<path d="M9.6442 20.2943
L9.6442 20.1734
" />
<path d="M9.6442 20.1734
L9.5837 20.0524
" />
<path d="M9.5837 20.0524
L9.5232 19.9919
" />
<path d="M9.5232 19.9919
L9.4023 19.9315
" />
<path d="M9.4023 19.9315
L9.1604 19.8710
" />
<path d="M9.1604 19.8710
L9.0394 19.8105
" />
<path d="M9.0394 19.8105
L8.9789 19.7500
" />
<path d="M8.9789 19.7500
L8.9185 19.6291
" />
<path d="M8.9185 19.6291
L8.9185 19.5081
" />
<path d="M8.9185 19.5081
L8.9789 19.3872
" />
<path d="M8.9789 19.3872
L9.0394 19.3267
" />
<path d="M9.0394 19.3267
L9.1604 19.2662
" />
<path d="M9.1604 19.2662
L9.4627 19.2662
" />
<path d="M9.4627 19.2662
L9.6442 19.3267
" />
<path d="M10.6722 20.4758
L10.5513 20.5362
" />
<path d="M10.5513 20.5362
L10.3094 20.5362
" />
<path d="M10.3094 20.5362
L10.1884 20.4758
" />
<path d="M10.1884 20.4758
L10.1280 20.3548
" />
<path d="M10.1280 20.3548
L10.1280 19.8710
" />
<path d="M10.1280 19.8710
L10.1884 19.7500
" />
<path d="M10.1884 19.7500
L10.3094 19.6896
" />
<path d="M10.3094 19.6896
L10.5513 19.6896
" />
<path d="M10.5513 19.6896
L10.6722 19.7500
" />
<path d="M10.6722 19.7500
L10.7327 19.8710
" />
<path d="M10.7327 19.8710
L10.7327 19.9919
" />
<path d="M10.7327 19.9919
L10.1280 20.1129
" />
<path d="M11.2770 20.5362
L11.2770 19.6896
" />
<path d="M11.2770 19.9315
L11.3375 19.8105
" />
<path d="M11.3375 19.8105
L11.3980 19.7500
" />
<path d="M11.3980 19.7500
L11.5189 19.6896
" />
<path d="M11.5189 19.6896
L11.6399 19.6896
" />
<path d="M11.9423 19.6896
L12.2447 20.5362
" />
<path d="M12.2447 20.5362
L12.5470 19.6896
" />
<path d="M13.2123 20.5362
L13.0913 20.4758
" />
<path d="M13.0913 20.4758
L13.0308 20.4153
" />
<path d="M13.0308 20.4153
L12.9704 20.2943
" />
<path d="M12.9704 20.2943
L12.9704 19.9315
" />
<path d="M12.9704 19.9315
L13.0308 19.8105
" />
<path d="M13.0308 19.8105
L13.0913 19.7500
" />
<path d="M13.0913 19.7500
L13.2123 19.6896
" />
<path d="M13.2123 19.6896
L13.3937 19.6896
" />
<path d="M13.3937 19.6896
L13.5146 19.7500
" />
<path d="M13.5146 19.7500
L13.5751 19.8105
" />
<path d="M13.5751 19.8105
L13.6356 19.9315
" />
<path d="M13.6356 19.9315
L13.6356 20.2943
" />
<path d="M13.6356 20.2943
L13.5751 20.4153
" />
<path d="M13.5751 20.4153
L13.5146 20.4758
" />
<path d="M13.5146 20.4758
L13.3937 20.5362
" />
<path d="M13.3937 20.5362
L13.2123 20.5362
" />
<path d="M13.8775 20.6572
L14.8451 20.6572
" />
<path d="M14.9660 19.2662
L15.3893 20.5362
" />
<path d="M15.3893 20.5362
L15.8127 19.2662
" />
<path d="M16.7803 20.5362
L16.7803 19.8710
" />
<path d="M16.7803 19.8710
L16.7198 19.7500
" />
<path d="M16.7198 19.7500
L16.5989 19.6896
" />
<path d="M16.5989 19.6896
L16.3570 19.6896
" />
<path d="M16.3570 19.6896
L16.2360 19.7500
" />
<path d="M16.7803 20.4758
L16.6594 20.5362
" />
<path d="M16.6594 20.5362
L16.3570 20.5362
" />
<path d="M16.3570 20.5362
L16.2360 20.4758
" />
<path d="M16.2360 20.4758
L16.1756 20.3548
" />
<path d="M16.1756 20.3548
L16.1756 20.2338
" />
<path d="M16.1756 20.2338
L16.2360 20.1129
" />
<path d="M16.2360 20.1129
L16.3570 20.0524
" />
<path d="M16.3570 20.0524
L16.6594 20.0524
" />
<path d="M16.6594 20.0524
L16.7803 19.9919
" />
<path d="M17.5665 20.5362
L17.4455 20.4758
" />
<path d="M17.4455 20.4758
L17.3850 20.3548
" />
<path d="M17.3850 20.3548
L17.3850 19.2662
" />
<path d="M17.9293 19.6896
L18.2317 20.5362
" />
<path d="M18.2317 20.5362
L18.5340 19.6896
" />
<path d="M19.5016 20.4758
L19.3807 20.5362
" />
<path d="M19.3807 20.5362
L19.1388 20.5362
" />
<path d="M19.1388 20.5362
L19.0178 20.4758
" />
<path d="M19.0178 20.4758
L18.9574 20.3548
" />
<path d="M18.9574 20.3548
L18.9574 19.8710
" />
<path d="M18.9574 19.8710
L19.0178 19.7500
" />
<path d="M19.0178 19.7500
L19.1388 19.6896
" />
<path d="M19.1388 19.6896
L19.3807 19.6896
" />
<path d="M19.3807 19.6896
L19.5016 19.7500
" />
<path d="M19.5016 19.7500
L19.5621 19.8710
" />
<path d="M19.5621 19.8710
L19.5621 19.9919
" />
<path d="M19.5621 19.9919
L18.9574 20.1129
" />
<path d="M20.2879 20.4153
L20.3483 20.4758
" />
<path d="M20.3483 20.4758
L20.2879 20.5362
" />
<path d="M20.2879 20.5362
L20.2274 20.4758
" />
<path d="M20.2274 20.4758
L20.2879 20.4153
" />
<path d="M20.2879 20.4153
L20.2879 20.5362
" />
<path d="M20.0460 19.3267
L20.1669 19.2662
" />
<path d="M20.1669 19.2662
L20.4693 19.2662
" />
<path d="M20.4693 19.2662
L20.5902 19.3267
" />
<path d="M20.5902 19.3267
L20.6507 19.4477
" />
<path d="M20.6507 19.4477
L20.6507 19.5686
" />
<path d="M20.6507 19.5686
L20.5902 19.6896
" />
<path d="M20.5902 19.6896
L20.5298 19.7500
" />
<path d="M20.5298 19.7500
L20.4088 19.8105
" />
<path d="M20.4088 19.8105
L20.3483 19.8710
" />
<path d="M20.3483 19.8710
L20.2879 19.9919
" />
<path d="M20.2879 19.9919
L20.2879 20.0524
" />
</g></g> 
</svg>
