<?xml version="1.0" standalone="no"?>
 <!DOCTYPE svg PUBLIC "-//W3C//DTD SVG 1.1//EN" 
 "http://www.w3.org/Graphics/SVG/1.1/DTD/svg11.dtd"> 
<svg
  xmlns:svg="http://www.w3.org/2000/svg"
  xmlns="http://www.w3.org/2000/svg"
  xmlns:xlink="http://www.w3.org/1999/xlink"
  version="1.1"
  width="42.4180mm" height="34.4424mm" viewBox="0.0000 0.0000 42.4180 34.4424">
<title>SVG Image created as valve - 3 way globe.svg date 2024/12/16 14:50:35 </title>
  <desc>Image generated by Eeschema-SVG </desc>
<g style="fill:#000000; fill-opacity:1.0000;stroke:#000000; stroke-opacity:1.0000;
stroke-linecap:round; stroke-linejoin:round;"
 transform="translate(0 0) scale(1 1)">
<path style="fill:none; 
stroke:#840000; stroke-width:0.1000; stroke-opacity:1; 
stroke-linecap:round; stroke-linejoin:round;fill:none"
d="M 21.2090,20.5482
16.2090,18.5482
16.2090,22.5482
Z" /> 
<path style="fill:none; 
stroke:#840000; stroke-width:0.1000; stroke-opacity:1; 
stroke-linecap:round; stroke-linejoin:round;fill:none"
d="M 21.2090,20.5482
19.2090,15.5482
23.2090,15.5482
Z" /> 
<path style="fill:none; 
stroke:#840000; stroke-width:0.1000; stroke-opacity:1; 
stroke-linecap:round; stroke-linejoin:round;fill:none"
d="M 21.2090,20.5482
26.2090,18.5482
26.2090,22.5482
Z" /> 
</g>
<g style="fill:#840000; fill-opacity:1.0000; 
stroke:#840000; stroke-width:0.1524; stroke-opacity:1; 
stroke-linecap:round; stroke-linejoin:round;">
<circle cx="21.2090" cy="20.5482" r="0.5000" /> 
</g>
<g style="fill:none; 
stroke:#840000; stroke-width:0.1524; stroke-opacity:1; 
stroke-linecap:round; stroke-linejoin:round;">
<path d="M16.2090 20.5482
L13.2090 20.5482
" />
<path d="M21.2090 15.5482
L21.2090 12.5482
" />
<path d="M26.2090 20.5482
L29.2090 20.5482
" />
</g>
<g style="fill:none; 
stroke:#006464; stroke-width:0.1588; stroke-opacity:1; 
stroke-linecap:round; stroke-linejoin:round;">
<text x="21.2090" y="31.1833"
textLength="17.6997" font-size="1.6933" lengthAdjust="spacingAndGlyphs"
text-anchor="middle" opacity="0" stroke-opacity="0">3_Way_Ball_Valve?</text>
<g class="stroked-text"><desc>3_Way_Ball_Valve?</desc>
<path d="M12.6518 29.8575
L13.4380 29.8575
" />
<path d="M13.4380 29.8575
L13.0146 30.3413
" />
<path d="M13.0146 30.3413
L13.1961 30.3413
" />
<path d="M13.1961 30.3413
L13.3170 30.4018
" />
<path d="M13.3170 30.4018
L13.3775 30.4623
" />
<path d="M13.3775 30.4623
L13.4380 30.5832
" />
<path d="M13.4380 30.5832
L13.4380 30.8856
" />
<path d="M13.4380 30.8856
L13.3775 31.0066
" />
<path d="M13.3775 31.0066
L13.3170 31.0671
" />
<path d="M13.3170 31.0671
L13.1961 31.1275
" />
<path d="M13.1961 31.1275
L12.8332 31.1275
" />
<path d="M12.8332 31.1275
L12.7123 31.0671
" />
<path d="M12.7123 31.0671
L12.6518 31.0066
" />
<path d="M13.6799 31.2485
L14.6475 31.2485
" />
<path d="M14.8289 29.8575
L15.1313 31.1275
" />
<path d="M15.1313 31.1275
L15.3732 30.2204
" />
<path d="M15.3732 30.2204
L15.6151 31.1275
" />
<path d="M15.6151 31.1275
L15.9175 29.8575
" />
<path d="M16.9455 31.1275
L16.9455 30.4623
" />
<path d="M16.9455 30.4623
L16.8850 30.3413
" />
<path d="M16.8850 30.3413
L16.7641 30.2809
" />
<path d="M16.7641 30.2809
L16.5222 30.2809
" />
<path d="M16.5222 30.2809
L16.4012 30.3413
" />
<path d="M16.9455 31.0671
L16.8246 31.1275
" />
<path d="M16.8246 31.1275
L16.5222 31.1275
" />
<path d="M16.5222 31.1275
L16.4012 31.0671
" />
<path d="M16.4012 31.0671
L16.3408 30.9461
" />
<path d="M16.3408 30.9461
L16.3408 30.8251
" />
<path d="M16.3408 30.8251
L16.4012 30.7042
" />
<path d="M16.4012 30.7042
L16.5222 30.6437
" />
<path d="M16.5222 30.6437
L16.8246 30.6437
" />
<path d="M16.8246 30.6437
L16.9455 30.5832
" />
<path d="M17.4293 30.2809
L17.7317 31.1275
" />
<path d="M18.0340 30.2809
L17.7317 31.1275
" />
<path d="M17.7317 31.1275
L17.6107 31.4299
" />
<path d="M17.6107 31.4299
L17.5502 31.4904
" />
<path d="M17.5502 31.4904
L17.4293 31.5509
" />
<path d="M18.2155 31.2485
L19.1831 31.2485
" />
<path d="M19.9088 30.4623
L20.0902 30.5228
" />
<path d="M20.0902 30.5228
L20.1507 30.5832
" />
<path d="M20.1507 30.5832
L20.2111 30.7042
" />
<path d="M20.2111 30.7042
L20.2111 30.8856
" />
<path d="M20.2111 30.8856
L20.1507 31.0066
" />
<path d="M20.1507 31.0066
L20.0902 31.0671
" />
<path d="M20.0902 31.0671
L19.9692 31.1275
" />
<path d="M19.9692 31.1275
L19.4854 31.1275
" />
<path d="M19.4854 31.1275
L19.4854 29.8575
" />
<path d="M19.4854 29.8575
L19.9088 29.8575
" />
<path d="M19.9088 29.8575
L20.0297 29.9180
" />
<path d="M20.0297 29.9180
L20.0902 29.9785
" />
<path d="M20.0902 29.9785
L20.1507 30.0994
" />
<path d="M20.1507 30.0994
L20.1507 30.2204
" />
<path d="M20.1507 30.2204
L20.0902 30.3413
" />
<path d="M20.0902 30.3413
L20.0297 30.4018
" />
<path d="M20.0297 30.4018
L19.9088 30.4623
" />
<path d="M19.9088 30.4623
L19.4854 30.4623
" />
<path d="M21.2997 31.1275
L21.2997 30.4623
" />
<path d="M21.2997 30.4623
L21.2392 30.3413
" />
<path d="M21.2392 30.3413
L21.1183 30.2809
" />
<path d="M21.1183 30.2809
L20.8764 30.2809
" />
<path d="M20.8764 30.2809
L20.7554 30.3413
" />
<path d="M21.2997 31.0671
L21.1788 31.1275
" />
<path d="M21.1788 31.1275
L20.8764 31.1275
" />
<path d="M20.8764 31.1275
L20.7554 31.0671
" />
<path d="M20.7554 31.0671
L20.6950 30.9461
" />
<path d="M20.6950 30.9461
L20.6950 30.8251
" />
<path d="M20.6950 30.8251
L20.7554 30.7042
" />
<path d="M20.7554 30.7042
L20.8764 30.6437
" />
<path d="M20.8764 30.6437
L21.1788 30.6437
" />
<path d="M21.1788 30.6437
L21.2997 30.5832
" />
<path d="M22.0859 31.1275
L21.9649 31.0671
" />
<path d="M21.9649 31.0671
L21.9044 30.9461
" />
<path d="M21.9044 30.9461
L21.9044 29.8575
" />
<path d="M22.7511 31.1275
L22.6301 31.0671
" />
<path d="M22.6301 31.0671
L22.5696 30.9461
" />
<path d="M22.5696 30.9461
L22.5696 29.8575
" />
<path d="M22.9325 31.2485
L23.9001 31.2485
" />
<path d="M24.0210 29.8575
L24.4443 31.1275
" />
<path d="M24.4443 31.1275
L24.8677 29.8575
" />
<path d="M25.8353 31.1275
L25.8353 30.4623
" />
<path d="M25.8353 30.4623
L25.7748 30.3413
" />
<path d="M25.7748 30.3413
L25.6539 30.2809
" />
<path d="M25.6539 30.2809
L25.4120 30.2809
" />
<path d="M25.4120 30.2809
L25.2910 30.3413
" />
<path d="M25.8353 31.0671
L25.7144 31.1275
" />
<path d="M25.7144 31.1275
L25.4120 31.1275
" />
<path d="M25.4120 31.1275
L25.2910 31.0671
" />
<path d="M25.2910 31.0671
L25.2306 30.9461
" />
<path d="M25.2306 30.9461
L25.2306 30.8251
" />
<path d="M25.2306 30.8251
L25.2910 30.7042
" />
<path d="M25.2910 30.7042
L25.4120 30.6437
" />
<path d="M25.4120 30.6437
L25.7144 30.6437
" />
<path d="M25.7144 30.6437
L25.8353 30.5832
" />
<path d="M26.6215 31.1275
L26.5005 31.0671
" />
<path d="M26.5005 31.0671
L26.4400 30.9461
" />
<path d="M26.4400 30.9461
L26.4400 29.8575
" />
<path d="M26.9843 30.2809
L27.2867 31.1275
" />
<path d="M27.2867 31.1275
L27.5890 30.2809
" />
<path d="M28.5566 31.0671
L28.4357 31.1275
" />
<path d="M28.4357 31.1275
L28.1938 31.1275
" />
<path d="M28.1938 31.1275
L28.0728 31.0671
" />
<path d="M28.0728 31.0671
L28.0124 30.9461
" />
<path d="M28.0124 30.9461
L28.0124 30.4623
" />
<path d="M28.0124 30.4623
L28.0728 30.3413
" />
<path d="M28.0728 30.3413
L28.1938 30.2809
" />
<path d="M28.1938 30.2809
L28.4357 30.2809
" />
<path d="M28.4357 30.2809
L28.5566 30.3413
" />
<path d="M28.5566 30.3413
L28.6171 30.4623
" />
<path d="M28.6171 30.4623
L28.6171 30.5832
" />
<path d="M28.6171 30.5832
L28.0124 30.7042
" />
<path d="M29.3429 31.0066
L29.4033 31.0671
" />
<path d="M29.4033 31.0671
L29.3429 31.1275
" />
<path d="M29.3429 31.1275
L29.2824 31.0671
" />
<path d="M29.2824 31.0671
L29.3429 31.0066
" />
<path d="M29.3429 31.0066
L29.3429 31.1275
" />
<path d="M29.1010 29.9180
L29.2219 29.8575
" />
<path d="M29.2219 29.8575
L29.5243 29.8575
" />
<path d="M29.5243 29.8575
L29.6452 29.9180
" />
<path d="M29.6452 29.9180
L29.7057 30.0390
" />
<path d="M29.7057 30.0390
L29.7057 30.1599
" />
<path d="M29.7057 30.1599
L29.6452 30.2809
" />
<path d="M29.6452 30.2809
L29.5848 30.3413
" />
<path d="M29.5848 30.3413
L29.4638 30.4018
" />
<path d="M29.4638 30.4018
L29.4033 30.4623
" />
<path d="M29.4033 30.4623
L29.3429 30.5832
" />
<path d="M29.3429 30.5832
L29.3429 30.6437
" />
</g></g> 
</svg>
