<?xml version="1.0" standalone="no"?>
 <!DOCTYPE svg PUBLIC "-//W3C//DTD SVG 1.1//EN" 
 "http://www.w3.org/Graphics/SVG/1.1/DTD/svg11.dtd"> 
<svg
  xmlns:svg="http://www.w3.org/2000/svg"
  xmlns="http://www.w3.org/2000/svg"
  xmlns:xlink="http://www.w3.org/1999/xlink"
  version="1.1"
  width="42.4180mm" height="22.8854mm" viewBox="0.0000 0.0000 42.4180 22.8854">
<title>SVG Image created as valve - hydraulic.svg date 2024/12/15 16:48:06 </title>
  <desc>Image generated by Eeschema-SVG </desc>
<g style="fill:#000000; fill-opacity:1.0000;stroke:#000000; stroke-opacity:1.0000;
stroke-linecap:round; stroke-linejoin:round;"
 transform="translate(0 0) scale(1 1)">
</g>
<g style="fill:none; 
stroke:#840000; stroke-width:0.1000; stroke-opacity:1; 
stroke-linecap:round; stroke-linejoin:round;">
<rect x="19.209000" y="4.956900" width="4.000000" height="2.000000" rx="0.000000" />
<path style="fill:none; 
stroke:#840000; stroke-width:0.1000; stroke-opacity:1; 
stroke-linecap:round; stroke-linejoin:round;fill:none"
d="M 21.2090,6.9569
21.2090,9.9569
" /> 
<path style="fill:none; 
stroke:#840000; stroke-width:0.1000; stroke-opacity:1; 
stroke-linecap:round; stroke-linejoin:round;fill:none"
d="M 21.2090,9.9569
16.2090,7.9569
16.2090,11.9569
Z" /> 
<path style="fill:none; 
stroke:#840000; stroke-width:0.1000; stroke-opacity:1; 
stroke-linecap:round; stroke-linejoin:round;fill:none"
d="M 21.2090,9.9569
26.2090,7.9569
26.2090,11.9569
Z" /> 
</g>
<g style="fill:none; 
stroke:#840000; stroke-width:0.1588; stroke-opacity:1; 
stroke-linecap:round; stroke-linejoin:round;">
<text x="21.2090" y="6.5920"
textLength="1.5529" font-size="1.6933" lengthAdjust="spacingAndGlyphs"
text-anchor="middle" opacity="0" stroke-opacity="0">H</text>
<g class="stroked-text"><desc>H</desc>
<path d="M20.8461 6.5362
L20.8461 5.2662
" />
<path d="M20.8461 5.8710
L21.5718 5.8710
" />
<path d="M21.5718 6.5362
L21.5718 5.2662
" />
</g></g>
<g style="fill:none; 
stroke:#840000; stroke-width:0.1524; stroke-opacity:1; 
stroke-linecap:round; stroke-linejoin:round;">
<path d="M16.2090 9.9569
L13.2090 9.9569
" />
<path d="M26.2090 9.9569
L29.2090 9.9569
" />
</g>
<g style="fill:none; 
stroke:#006464; stroke-width:0.1588; stroke-opacity:1; 
stroke-linecap:round; stroke-linejoin:round;">
<text x="21.2090" y="20.5920"
textLength="16.1275" font-size="1.6933" lengthAdjust="spacingAndGlyphs"
text-anchor="middle" opacity="0" stroke-opacity="0">Hydraulic_Valve?</text>
<g class="stroked-text"><desc>Hydraulic_Valve?</desc>
<path d="M13.5588 20.5362
L13.5588 19.2662
" />
<path d="M13.5588 19.8710
L14.2845 19.8710
" />
<path d="M14.2845 20.5362
L14.2845 19.2662
" />
<path d="M14.7684 19.6896
L15.0708 20.5362
" />
<path d="M15.3731 19.6896
L15.0708 20.5362
" />
<path d="M15.0708 20.5362
L14.9498 20.8386
" />
<path d="M14.9498 20.8386
L14.8893 20.8991
" />
<path d="M14.8893 20.8991
L14.7684 20.9596
" />
<path d="M16.4012 20.5362
L16.4012 19.2662
" />
<path d="M16.4012 20.4758
L16.2803 20.5362
" />
<path d="M16.2803 20.5362
L16.0384 20.5362
" />
<path d="M16.0384 20.5362
L15.9174 20.4758
" />
<path d="M15.9174 20.4758
L15.8569 20.4153
" />
<path d="M15.8569 20.4153
L15.7965 20.2943
" />
<path d="M15.7965 20.2943
L15.7965 19.9315
" />
<path d="M15.7965 19.9315
L15.8569 19.8105
" />
<path d="M15.8569 19.8105
L15.9174 19.7500
" />
<path d="M15.9174 19.7500
L16.0384 19.6896
" />
<path d="M16.0384 19.6896
L16.2803 19.6896
" />
<path d="M16.2803 19.6896
L16.4012 19.7500
" />
<path d="M17.0059 20.5362
L17.0059 19.6896
" />
<path d="M17.0059 19.9315
L17.0664 19.8105
" />
<path d="M17.0664 19.8105
L17.1269 19.7500
" />
<path d="M17.1269 19.7500
L17.2478 19.6896
" />
<path d="M17.2478 19.6896
L17.3688 19.6896
" />
<path d="M18.3364 20.5362
L18.3364 19.8710
" />
<path d="M18.3364 19.8710
L18.2759 19.7500
" />
<path d="M18.2759 19.7500
L18.1550 19.6896
" />
<path d="M18.1550 19.6896
L17.9131 19.6896
" />
<path d="M17.9131 19.6896
L17.7921 19.7500
" />
<path d="M18.3364 20.4758
L18.2155 20.5362
" />
<path d="M18.2155 20.5362
L17.9131 20.5362
" />
<path d="M17.9131 20.5362
L17.7921 20.4758
" />
<path d="M17.7921 20.4758
L17.7317 20.3548
" />
<path d="M17.7317 20.3548
L17.7317 20.2338
" />
<path d="M17.7317 20.2338
L17.7921 20.1129
" />
<path d="M17.7921 20.1129
L17.9131 20.0524
" />
<path d="M17.9131 20.0524
L18.2155 20.0524
" />
<path d="M18.2155 20.0524
L18.3364 19.9919
" />
<path d="M19.4854 19.6896
L19.4854 20.5362
" />
<path d="M18.9411 19.6896
L18.9411 20.3548
" />
<path d="M18.9411 20.3548
L19.0016 20.4758
" />
<path d="M19.0016 20.4758
L19.1226 20.5362
" />
<path d="M19.1226 20.5362
L19.3040 20.5362
" />
<path d="M19.3040 20.5362
L19.4249 20.4758
" />
<path d="M19.4249 20.4758
L19.4854 20.4153
" />
<path d="M20.2716 20.5362
L20.1506 20.4758
" />
<path d="M20.1506 20.4758
L20.0901 20.3548
" />
<path d="M20.0901 20.3548
L20.0901 19.2662
" />
<path d="M20.7553 20.5362
L20.7553 19.6896
" />
<path d="M20.7553 19.2662
L20.6949 19.3267
" />
<path d="M20.6949 19.3267
L20.7553 19.3872
" />
<path d="M20.7553 19.3872
L20.8158 19.3267
" />
<path d="M20.8158 19.3267
L20.7553 19.2662
" />
<path d="M20.7553 19.2662
L20.7553 19.3872
" />
<path d="M21.9044 20.4758
L21.7835 20.5362
" />
<path d="M21.7835 20.5362
L21.5416 20.5362
" />
<path d="M21.5416 20.5362
L21.4206 20.4758
" />
<path d="M21.4206 20.4758
L21.3601 20.4153
" />
<path d="M21.3601 20.4153
L21.2997 20.2943
" />
<path d="M21.2997 20.2943
L21.2997 19.9315
" />
<path d="M21.2997 19.9315
L21.3601 19.8105
" />
<path d="M21.3601 19.8105
L21.4206 19.7500
" />
<path d="M21.4206 19.7500
L21.5416 19.6896
" />
<path d="M21.5416 19.6896
L21.7835 19.6896
" />
<path d="M21.7835 19.6896
L21.9044 19.7500
" />
<path d="M22.1464 20.6572
L23.1140 20.6572
" />
<path d="M23.2349 19.2662
L23.6582 20.5362
" />
<path d="M23.6582 20.5362
L24.0816 19.2662
" />
<path d="M25.0492 20.5362
L25.0492 19.8710
" />
<path d="M25.0492 19.8710
L24.9887 19.7500
" />
<path d="M24.9887 19.7500
L24.8678 19.6896
" />
<path d="M24.8678 19.6896
L24.6259 19.6896
" />
<path d="M24.6259 19.6896
L24.5049 19.7500
" />
<path d="M25.0492 20.4758
L24.9283 20.5362
" />
<path d="M24.9283 20.5362
L24.6259 20.5362
" />
<path d="M24.6259 20.5362
L24.5049 20.4758
" />
<path d="M24.5049 20.4758
L24.4445 20.3548
" />
<path d="M24.4445 20.3548
L24.4445 20.2338
" />
<path d="M24.4445 20.2338
L24.5049 20.1129
" />
<path d="M24.5049 20.1129
L24.6259 20.0524
" />
<path d="M24.6259 20.0524
L24.9283 20.0524
" />
<path d="M24.9283 20.0524
L25.0492 19.9919
" />
<path d="M25.8354 20.5362
L25.7144 20.4758
" />
<path d="M25.7144 20.4758
L25.6539 20.3548
" />
<path d="M25.6539 20.3548
L25.6539 19.2662
" />
<path d="M26.1982 19.6896
L26.5006 20.5362
" />
<path d="M26.5006 20.5362
L26.8029 19.6896
" />
<path d="M27.7705 20.4758
L27.6496 20.5362
" />
<path d="M27.6496 20.5362
L27.4077 20.5362
" />
<path d="M27.4077 20.5362
L27.2867 20.4758
" />
<path d="M27.2867 20.4758
L27.2263 20.3548
" />
<path d="M27.2263 20.3548
L27.2263 19.8710
" />
<path d="M27.2263 19.8710
L27.2867 19.7500
" />
<path d="M27.2867 19.7500
L27.4077 19.6896
" />
<path d="M27.4077 19.6896
L27.6496 19.6896
" />
<path d="M27.6496 19.6896
L27.7705 19.7500
" />
<path d="M27.7705 19.7500
L27.8310 19.8710
" />
<path d="M27.8310 19.8710
L27.8310 19.9919
" />
<path d="M27.8310 19.9919
L27.2263 20.1129
" />
<path d="M28.5568 20.4153
L28.6172 20.4758
" />
<path d="M28.6172 20.4758
L28.5568 20.5362
" />
<path d="M28.5568 20.5362
L28.4963 20.4758
" />
<path d="M28.4963 20.4758
L28.5568 20.4153
" />
<path d="M28.5568 20.4153
L28.5568 20.5362
" />
<path d="M28.3149 19.3267
L28.4358 19.2662
" />
<path d="M28.4358 19.2662
L28.7382 19.2662
" />
<path d="M28.7382 19.2662
L28.8591 19.3267
" />
<path d="M28.8591 19.3267
L28.9196 19.4477
" />
<path d="M28.9196 19.4477
L28.9196 19.5686
" />
<path d="M28.9196 19.5686
L28.8591 19.6896
" />
<path d="M28.8591 19.6896
L28.7987 19.7500
" />
<path d="M28.7987 19.7500
L28.6777 19.8105
" />
<path d="M28.6777 19.8105
L28.6172 19.8710
" />
<path d="M28.6172 19.8710
L28.5568 19.9919
" />
<path d="M28.5568 19.9919
L28.5568 20.0524
" />
</g></g> 
</svg>
