<?xml version="1.0" standalone="no"?>
 <!DOCTYPE svg PUBLIC "-//W3C//DTD SVG 1.1//EN" 
 "http://www.w3.org/Graphics/SVG/1.1/DTD/svg11.dtd"> 
<svg
  xmlns:svg="http://www.w3.org/2000/svg"
  xmlns="http://www.w3.org/2000/svg"
  xmlns:xlink="http://www.w3.org/1999/xlink"
  version="1.1"
  width="42.4180mm" height="22.8854mm" viewBox="0.0000 0.0000 42.4180 22.8854">
<title>SVG Image created as valve - general.svg date 2024/12/16 14:50:39 </title>
  <desc>Image generated by Eeschema-SVG </desc>
<g style="fill:#000000; fill-opacity:1.0000;stroke:#000000; stroke-opacity:1.0000;
stroke-linecap:round; stroke-linejoin:round;"
 transform="translate(0 0) scale(1 1)">
<path style="fill:none; 
stroke:#840000; stroke-width:0.1000; stroke-opacity:1; 
stroke-linecap:round; stroke-linejoin:round;fill:none"
d="M 21.2090,9.9569
16.2090,7.9569
16.2090,11.9569
Z" /> 
<path style="fill:none; 
stroke:#840000; stroke-width:0.1000; stroke-opacity:1; 
stroke-linecap:round; stroke-linejoin:round;fill:none"
d="M 21.2090,9.9569
26.2090,7.9569
26.2090,11.9569
Z" /> 
</g>
<g style="fill:none; 
stroke:#840000; stroke-width:0.1524; stroke-opacity:1; 
stroke-linecap:round; stroke-linejoin:round;">
<path d="M16.2090 9.9569
L13.2090 9.9569
" />
<path d="M26.2090 9.9569
L29.2090 9.9569
" />
</g>
<g style="fill:none; 
stroke:#006464; stroke-width:0.1588; stroke-opacity:1; 
stroke-linecap:round; stroke-linejoin:round;">
<text x="21.2090" y="20.5920"
textLength="14.4342" font-size="1.6933" lengthAdjust="spacingAndGlyphs"
text-anchor="middle" opacity="0" stroke-opacity="0">General_Valve?</text>
<g class="stroked-text"><desc>General_Valve?</desc>
<path d="M15.0707 19.3267
L14.9497 19.2662
" />
<path d="M14.9497 19.2662
L14.7683 19.2662
" />
<path d="M14.7683 19.2662
L14.5869 19.3267
" />
<path d="M14.5869 19.3267
L14.4659 19.4477
" />
<path d="M14.4659 19.4477
L14.4054 19.5686
" />
<path d="M14.4054 19.5686
L14.3450 19.8105
" />
<path d="M14.3450 19.8105
L14.3450 19.9919
" />
<path d="M14.3450 19.9919
L14.4054 20.2338
" />
<path d="M14.4054 20.2338
L14.4659 20.3548
" />
<path d="M14.4659 20.3548
L14.5869 20.4758
" />
<path d="M14.5869 20.4758
L14.7683 20.5362
" />
<path d="M14.7683 20.5362
L14.8892 20.5362
" />
<path d="M14.8892 20.5362
L15.0707 20.4758
" />
<path d="M15.0707 20.4758
L15.1311 20.4153
" />
<path d="M15.1311 20.4153
L15.1311 19.9919
" />
<path d="M15.1311 19.9919
L14.8892 19.9919
" />
<path d="M16.1592 20.4758
L16.0383 20.5362
" />
<path d="M16.0383 20.5362
L15.7964 20.5362
" />
<path d="M15.7964 20.5362
L15.6754 20.4758
" />
<path d="M15.6754 20.4758
L15.6150 20.3548
" />
<path d="M15.6150 20.3548
L15.6150 19.8710
" />
<path d="M15.6150 19.8710
L15.6754 19.7500
" />
<path d="M15.6754 19.7500
L15.7964 19.6896
" />
<path d="M15.7964 19.6896
L16.0383 19.6896
" />
<path d="M16.0383 19.6896
L16.1592 19.7500
" />
<path d="M16.1592 19.7500
L16.2197 19.8710
" />
<path d="M16.2197 19.8710
L16.2197 19.9919
" />
<path d="M16.2197 19.9919
L15.6150 20.1129
" />
<path d="M16.7640 19.6896
L16.7640 20.5362
" />
<path d="M16.7640 19.8105
L16.8245 19.7500
" />
<path d="M16.8245 19.7500
L16.9455 19.6896
" />
<path d="M16.9455 19.6896
L17.1269 19.6896
" />
<path d="M17.1269 19.6896
L17.2478 19.7500
" />
<path d="M17.2478 19.7500
L17.3083 19.8710
" />
<path d="M17.3083 19.8710
L17.3083 20.5362
" />
<path d="M18.3968 20.4758
L18.2759 20.5362
" />
<path d="M18.2759 20.5362
L18.0340 20.5362
" />
<path d="M18.0340 20.5362
L17.9130 20.4758
" />
<path d="M17.9130 20.4758
L17.8526 20.3548
" />
<path d="M17.8526 20.3548
L17.8526 19.8710
" />
<path d="M17.8526 19.8710
L17.9130 19.7500
" />
<path d="M17.9130 19.7500
L18.0340 19.6896
" />
<path d="M18.0340 19.6896
L18.2759 19.6896
" />
<path d="M18.2759 19.6896
L18.3968 19.7500
" />
<path d="M18.3968 19.7500
L18.4573 19.8710
" />
<path d="M18.4573 19.8710
L18.4573 19.9919
" />
<path d="M18.4573 19.9919
L17.8526 20.1129
" />
<path d="M19.0016 20.5362
L19.0016 19.6896
" />
<path d="M19.0016 19.9315
L19.0621 19.8105
" />
<path d="M19.0621 19.8105
L19.1226 19.7500
" />
<path d="M19.1226 19.7500
L19.2435 19.6896
" />
<path d="M19.2435 19.6896
L19.3645 19.6896
" />
<path d="M20.3321 20.5362
L20.3321 19.8710
" />
<path d="M20.3321 19.8710
L20.2716 19.7500
" />
<path d="M20.2716 19.7500
L20.1507 19.6896
" />
<path d="M20.1507 19.6896
L19.9088 19.6896
" />
<path d="M19.9088 19.6896
L19.7878 19.7500
" />
<path d="M20.3321 20.4758
L20.2112 20.5362
" />
<path d="M20.2112 20.5362
L19.9088 20.5362
" />
<path d="M19.9088 20.5362
L19.7878 20.4758
" />
<path d="M19.7878 20.4758
L19.7274 20.3548
" />
<path d="M19.7274 20.3548
L19.7274 20.2338
" />
<path d="M19.7274 20.2338
L19.7878 20.1129
" />
<path d="M19.7878 20.1129
L19.9088 20.0524
" />
<path d="M19.9088 20.0524
L20.2112 20.0524
" />
<path d="M20.2112 20.0524
L20.3321 19.9919
" />
<path d="M21.1183 20.5362
L20.9973 20.4758
" />
<path d="M20.9973 20.4758
L20.9368 20.3548
" />
<path d="M20.9368 20.3548
L20.9368 19.2662
" />
<path d="M21.2997 20.6572
L22.2673 20.6572
" />
<path d="M22.3882 19.2662
L22.8115 20.5362
" />
<path d="M22.8115 20.5362
L23.2349 19.2662
" />
<path d="M24.2025 20.5362
L24.2025 19.8710
" />
<path d="M24.2025 19.8710
L24.1420 19.7500
" />
<path d="M24.1420 19.7500
L24.0211 19.6896
" />
<path d="M24.0211 19.6896
L23.7792 19.6896
" />
<path d="M23.7792 19.6896
L23.6582 19.7500
" />
<path d="M24.2025 20.4758
L24.0816 20.5362
" />
<path d="M24.0816 20.5362
L23.7792 20.5362
" />
<path d="M23.7792 20.5362
L23.6582 20.4758
" />
<path d="M23.6582 20.4758
L23.5978 20.3548
" />
<path d="M23.5978 20.3548
L23.5978 20.2338
" />
<path d="M23.5978 20.2338
L23.6582 20.1129
" />
<path d="M23.6582 20.1129
L23.7792 20.0524
" />
<path d="M23.7792 20.0524
L24.0816 20.0524
" />
<path d="M24.0816 20.0524
L24.2025 19.9919
" />
<path d="M24.9887 20.5362
L24.8677 20.4758
" />
<path d="M24.8677 20.4758
L24.8072 20.3548
" />
<path d="M24.8072 20.3548
L24.8072 19.2662
" />
<path d="M25.3515 19.6896
L25.6539 20.5362
" />
<path d="M25.6539 20.5362
L25.9562 19.6896
" />
<path d="M26.9238 20.4758
L26.8029 20.5362
" />
<path d="M26.8029 20.5362
L26.5610 20.5362
" />
<path d="M26.5610 20.5362
L26.4400 20.4758
" />
<path d="M26.4400 20.4758
L26.3796 20.3548
" />
<path d="M26.3796 20.3548
L26.3796 19.8710
" />
<path d="M26.3796 19.8710
L26.4400 19.7500
" />
<path d="M26.4400 19.7500
L26.5610 19.6896
" />
<path d="M26.5610 19.6896
L26.8029 19.6896
" />
<path d="M26.8029 19.6896
L26.9238 19.7500
" />
<path d="M26.9238 19.7500
L26.9843 19.8710
" />
<path d="M26.9843 19.8710
L26.9843 19.9919
" />
<path d="M26.9843 19.9919
L26.3796 20.1129
" />
<path d="M27.7101 20.4153
L27.7705 20.4758
" />
<path d="M27.7705 20.4758
L27.7101 20.5362
" />
<path d="M27.7101 20.5362
L27.6496 20.4758
" />
<path d="M27.6496 20.4758
L27.7101 20.4153
" />
<path d="M27.7101 20.4153
L27.7101 20.5362
" />
<path d="M27.4682 19.3267
L27.5891 19.2662
" />
<path d="M27.5891 19.2662
L27.8915 19.2662
" />
<path d="M27.8915 19.2662
L28.0124 19.3267
" />
<path d="M28.0124 19.3267
L28.0729 19.4477
" />
<path d="M28.0729 19.4477
L28.0729 19.5686
" />
<path d="M28.0729 19.5686
L28.0124 19.6896
" />
<path d="M28.0124 19.6896
L27.9520 19.7500
" />
<path d="M27.9520 19.7500
L27.8310 19.8105
" />
<path d="M27.8310 19.8105
L27.7705 19.8710
" />
<path d="M27.7705 19.8710
L27.7101 19.9919
" />
<path d="M27.7101 19.9919
L27.7101 20.0524
" />
</g></g> 
</svg>
