<?xml version="1.0" standalone="no"?>
 <!DOCTYPE svg PUBLIC "-//W3C//DTD SVG 1.1//EN" 
 "http://www.w3.org/Graphics/SVG/1.1/DTD/svg11.dtd"> 
<svg
  xmlns:svg="http://www.w3.org/2000/svg"
  xmlns="http://www.w3.org/2000/svg"
  xmlns:xlink="http://www.w3.org/1999/xlink"
  version="1.1"
  width="42.4180mm" height="34.4424mm" viewBox="0.0000 0.0000 42.4180 34.4424">
<title>SVG Image created as valve - 3 way.svg date 2024/12/16 14:50:37 </title>
  <desc>Image generated by Eeschema-SVG </desc>
<g style="fill:#000000; fill-opacity:1.0000;stroke:#000000; stroke-opacity:1.0000;
stroke-linecap:round; stroke-linejoin:round;"
 transform="translate(0 0) scale(1 1)">
<path style="fill:none; 
stroke:#840000; stroke-width:0.1000; stroke-opacity:1; 
stroke-linecap:round; stroke-linejoin:round;fill:none"
d="M 21.2090,20.5482
16.2090,18.5482
16.2090,22.5482
Z" /> 
<path style="fill:none; 
stroke:#840000; stroke-width:0.1000; stroke-opacity:1; 
stroke-linecap:round; stroke-linejoin:round;fill:none"
d="M 21.2090,20.5482
19.2090,15.5482
23.2090,15.5482
Z" /> 
<path style="fill:none; 
stroke:#840000; stroke-width:0.1000; stroke-opacity:1; 
stroke-linecap:round; stroke-linejoin:round;fill:none"
d="M 21.2090,20.5482
26.2090,18.5482
26.2090,22.5482
Z" /> 
</g>
<g style="fill:none; 
stroke:#840000; stroke-width:0.1524; stroke-opacity:1; 
stroke-linecap:round; stroke-linejoin:round;">
<path d="M16.2090 20.5482
L13.2090 20.5482
" />
<path d="M21.2090 15.5482
L21.2090 12.5482
" />
<path d="M26.2090 20.5482
L29.2090 20.5482
" />
</g>
<g style="fill:none; 
stroke:#006464; stroke-width:0.1588; stroke-opacity:1; 
stroke-linecap:round; stroke-linejoin:round;">
<text x="21.2090" y="31.1833"
textLength="12.9827" font-size="1.6933" lengthAdjust="spacingAndGlyphs"
text-anchor="middle" opacity="0" stroke-opacity="0">3_Way_Valve?</text>
<g class="stroked-text"><desc>3_Way_Valve?</desc>
<path d="M15.0103 29.8575
L15.7965 29.8575
" />
<path d="M15.7965 29.8575
L15.3731 30.3413
" />
<path d="M15.3731 30.3413
L15.5546 30.3413
" />
<path d="M15.5546 30.3413
L15.6755 30.4018
" />
<path d="M15.6755 30.4018
L15.7360 30.4623
" />
<path d="M15.7360 30.4623
L15.7965 30.5832
" />
<path d="M15.7965 30.5832
L15.7965 30.8856
" />
<path d="M15.7965 30.8856
L15.7360 31.0066
" />
<path d="M15.7360 31.0066
L15.6755 31.0671
" />
<path d="M15.6755 31.0671
L15.5546 31.1275
" />
<path d="M15.5546 31.1275
L15.1917 31.1275
" />
<path d="M15.1917 31.1275
L15.0708 31.0671
" />
<path d="M15.0708 31.0671
L15.0103 31.0066
" />
<path d="M16.0384 31.2485
L17.0060 31.2485
" />
<path d="M17.1874 29.8575
L17.4898 31.1275
" />
<path d="M17.4898 31.1275
L17.7317 30.2204
" />
<path d="M17.7317 30.2204
L17.9736 31.1275
" />
<path d="M17.9736 31.1275
L18.2760 29.8575
" />
<path d="M19.3040 31.1275
L19.3040 30.4623
" />
<path d="M19.3040 30.4623
L19.2435 30.3413
" />
<path d="M19.2435 30.3413
L19.1226 30.2809
" />
<path d="M19.1226 30.2809
L18.8807 30.2809
" />
<path d="M18.8807 30.2809
L18.7597 30.3413
" />
<path d="M19.3040 31.0671
L19.1831 31.1275
" />
<path d="M19.1831 31.1275
L18.8807 31.1275
" />
<path d="M18.8807 31.1275
L18.7597 31.0671
" />
<path d="M18.7597 31.0671
L18.6993 30.9461
" />
<path d="M18.6993 30.9461
L18.6993 30.8251
" />
<path d="M18.6993 30.8251
L18.7597 30.7042
" />
<path d="M18.7597 30.7042
L18.8807 30.6437
" />
<path d="M18.8807 30.6437
L19.1831 30.6437
" />
<path d="M19.1831 30.6437
L19.3040 30.5832
" />
<path d="M19.7878 30.2809
L20.0902 31.1275
" />
<path d="M20.3925 30.2809
L20.0902 31.1275
" />
<path d="M20.0902 31.1275
L19.9692 31.4299
" />
<path d="M19.9692 31.4299
L19.9087 31.4904
" />
<path d="M19.9087 31.4904
L19.7878 31.5509
" />
<path d="M20.5740 31.2485
L21.5416 31.2485
" />
<path d="M21.6625 29.8575
L22.0858 31.1275
" />
<path d="M22.0858 31.1275
L22.5092 29.8575
" />
<path d="M23.4768 31.1275
L23.4768 30.4623
" />
<path d="M23.4768 30.4623
L23.4163 30.3413
" />
<path d="M23.4163 30.3413
L23.2954 30.2809
" />
<path d="M23.2954 30.2809
L23.0535 30.2809
" />
<path d="M23.0535 30.2809
L22.9325 30.3413
" />
<path d="M23.4768 31.0671
L23.3559 31.1275
" />
<path d="M23.3559 31.1275
L23.0535 31.1275
" />
<path d="M23.0535 31.1275
L22.9325 31.0671
" />
<path d="M22.9325 31.0671
L22.8721 30.9461
" />
<path d="M22.8721 30.9461
L22.8721 30.8251
" />
<path d="M22.8721 30.8251
L22.9325 30.7042
" />
<path d="M22.9325 30.7042
L23.0535 30.6437
" />
<path d="M23.0535 30.6437
L23.3559 30.6437
" />
<path d="M23.3559 30.6437
L23.4768 30.5832
" />
<path d="M24.2630 31.1275
L24.1420 31.0671
" />
<path d="M24.1420 31.0671
L24.0815 30.9461
" />
<path d="M24.0815 30.9461
L24.0815 29.8575
" />
<path d="M24.6258 30.2809
L24.9282 31.1275
" />
<path d="M24.9282 31.1275
L25.2305 30.2809
" />
<path d="M26.1981 31.0671
L26.0772 31.1275
" />
<path d="M26.0772 31.1275
L25.8353 31.1275
" />
<path d="M25.8353 31.1275
L25.7143 31.0671
" />
<path d="M25.7143 31.0671
L25.6539 30.9461
" />
<path d="M25.6539 30.9461
L25.6539 30.4623
" />
<path d="M25.6539 30.4623
L25.7143 30.3413
" />
<path d="M25.7143 30.3413
L25.8353 30.2809
" />
<path d="M25.8353 30.2809
L26.0772 30.2809
" />
<path d="M26.0772 30.2809
L26.1981 30.3413
" />
<path d="M26.1981 30.3413
L26.2586 30.4623
" />
<path d="M26.2586 30.4623
L26.2586 30.5832
" />
<path d="M26.2586 30.5832
L25.6539 30.7042
" />
<path d="M26.9844 31.0066
L27.0448 31.0671
" />
<path d="M27.0448 31.0671
L26.9844 31.1275
" />
<path d="M26.9844 31.1275
L26.9239 31.0671
" />
<path d="M26.9239 31.0671
L26.9844 31.0066
" />
<path d="M26.9844 31.0066
L26.9844 31.1275
" />
<path d="M26.7425 29.9180
L26.8634 29.8575
" />
<path d="M26.8634 29.8575
L27.1658 29.8575
" />
<path d="M27.1658 29.8575
L27.2867 29.9180
" />
<path d="M27.2867 29.9180
L27.3472 30.0390
" />
<path d="M27.3472 30.0390
L27.3472 30.1599
" />
<path d="M27.3472 30.1599
L27.2867 30.2809
" />
<path d="M27.2867 30.2809
L27.2263 30.3413
" />
<path d="M27.2263 30.3413
L27.1053 30.4018
" />
<path d="M27.1053 30.4018
L27.0448 30.4623
" />
<path d="M27.0448 30.4623
L26.9844 30.5832
" />
<path d="M26.9844 30.5832
L26.9844 30.6437
" />
</g></g> 
</svg>
