<?xml version="1.0" standalone="no"?>
 <!DOCTYPE svg PUBLIC "-//W3C//DTD SVG 1.1//EN" 
 "http://www.w3.org/Graphics/SVG/1.1/DTD/svg11.dtd"> 
<svg
  xmlns:svg="http://www.w3.org/2000/svg"
  xmlns="http://www.w3.org/2000/svg"
  xmlns:xlink="http://www.w3.org/1999/xlink"
  version="1.1"
  width="42.4180mm" height="22.8854mm" viewBox="0.0000 0.0000 42.4180 22.8854">
<title>SVG Image created as valve - manual.svg date 2024/12/16 14:50:34 </title>
  <desc>Image generated by Eeschema-SVG </desc>
<g style="fill:#000000; fill-opacity:1.0000;stroke:#000000; stroke-opacity:1.0000;
stroke-linecap:round; stroke-linejoin:round;"
 transform="translate(0 0) scale(1 1)">
<path style="fill:none; 
stroke:#840000; stroke-width:0.1000; stroke-opacity:1; 
stroke-linecap:round; stroke-linejoin:round;fill:none"
d="M 21.2090,6.9569
21.2090,9.9569
" /> 
<path style="fill:none; 
stroke:#840000; stroke-width:0.1000; stroke-opacity:1; 
stroke-linecap:round; stroke-linejoin:round;fill:none"
d="M 23.2090,6.9569
19.2090,6.9569
" /> 
<path style="fill:none; 
stroke:#840000; stroke-width:0.1000; stroke-opacity:1; 
stroke-linecap:round; stroke-linejoin:round;fill:none"
d="M 21.2090,9.9569
16.2090,7.9569
16.2090,11.9569
Z" /> 
<path style="fill:none; 
stroke:#840000; stroke-width:0.1000; stroke-opacity:1; 
stroke-linecap:round; stroke-linejoin:round;fill:none"
d="M 21.2090,9.9569
26.2090,7.9569
26.2090,11.9569
Z" /> 
</g>
<g style="fill:none; 
stroke:#840000; stroke-width:0.1524; stroke-opacity:1; 
stroke-linecap:round; stroke-linejoin:round;">
<path d="M16.2090 9.9569
L13.2090 9.9569
" />
<path d="M26.2090 9.9569
L29.2090 9.9569
" />
</g>
<g style="fill:none; 
stroke:#006464; stroke-width:0.1588; stroke-opacity:1; 
stroke-linecap:round; stroke-linejoin:round;">
<text x="21.2090" y="20.5920"
textLength="13.9502" font-size="1.6933" lengthAdjust="spacingAndGlyphs"
text-anchor="middle" opacity="0" stroke-opacity="0">Manual_Valve?</text>
<g class="stroked-text"><desc>Manual_Valve?</desc>
<path d="M14.6474 20.5362
L14.6474 19.2662
" />
<path d="M14.6474 19.2662
L15.0708 20.1734
" />
<path d="M15.0708 20.1734
L15.4941 19.2662
" />
<path d="M15.4941 19.2662
L15.4941 20.5362
" />
<path d="M16.6431 20.5362
L16.6431 19.8710
" />
<path d="M16.6431 19.8710
L16.5826 19.7500
" />
<path d="M16.5826 19.7500
L16.4617 19.6896
" />
<path d="M16.4617 19.6896
L16.2198 19.6896
" />
<path d="M16.2198 19.6896
L16.0988 19.7500
" />
<path d="M16.6431 20.4758
L16.5222 20.5362
" />
<path d="M16.5222 20.5362
L16.2198 20.5362
" />
<path d="M16.2198 20.5362
L16.0988 20.4758
" />
<path d="M16.0988 20.4758
L16.0384 20.3548
" />
<path d="M16.0384 20.3548
L16.0384 20.2338
" />
<path d="M16.0384 20.2338
L16.0988 20.1129
" />
<path d="M16.0988 20.1129
L16.2198 20.0524
" />
<path d="M16.2198 20.0524
L16.5222 20.0524
" />
<path d="M16.5222 20.0524
L16.6431 19.9919
" />
<path d="M17.2478 19.6896
L17.2478 20.5362
" />
<path d="M17.2478 19.8105
L17.3083 19.7500
" />
<path d="M17.3083 19.7500
L17.4293 19.6896
" />
<path d="M17.4293 19.6896
L17.6107 19.6896
" />
<path d="M17.6107 19.6896
L17.7316 19.7500
" />
<path d="M17.7316 19.7500
L17.7921 19.8710
" />
<path d="M17.7921 19.8710
L17.7921 20.5362
" />
<path d="M18.9411 19.6896
L18.9411 20.5362
" />
<path d="M18.3968 19.6896
L18.3968 20.3548
" />
<path d="M18.3968 20.3548
L18.4573 20.4758
" />
<path d="M18.4573 20.4758
L18.5783 20.5362
" />
<path d="M18.5783 20.5362
L18.7597 20.5362
" />
<path d="M18.7597 20.5362
L18.8806 20.4758
" />
<path d="M18.8806 20.4758
L18.9411 20.4153
" />
<path d="M20.0901 20.5362
L20.0901 19.8710
" />
<path d="M20.0901 19.8710
L20.0296 19.7500
" />
<path d="M20.0296 19.7500
L19.9087 19.6896
" />
<path d="M19.9087 19.6896
L19.6668 19.6896
" />
<path d="M19.6668 19.6896
L19.5458 19.7500
" />
<path d="M20.0901 20.4758
L19.9692 20.5362
" />
<path d="M19.9692 20.5362
L19.6668 20.5362
" />
<path d="M19.6668 20.5362
L19.5458 20.4758
" />
<path d="M19.5458 20.4758
L19.4854 20.3548
" />
<path d="M19.4854 20.3548
L19.4854 20.2338
" />
<path d="M19.4854 20.2338
L19.5458 20.1129
" />
<path d="M19.5458 20.1129
L19.6668 20.0524
" />
<path d="M19.6668 20.0524
L19.9692 20.0524
" />
<path d="M19.9692 20.0524
L20.0901 19.9919
" />
<path d="M20.8763 20.5362
L20.7553 20.4758
" />
<path d="M20.7553 20.4758
L20.6948 20.3548
" />
<path d="M20.6948 20.3548
L20.6948 19.2662
" />
<path d="M21.0577 20.6572
L22.0253 20.6572
" />
<path d="M22.1462 19.2662
L22.5695 20.5362
" />
<path d="M22.5695 20.5362
L22.9929 19.2662
" />
<path d="M23.9605 20.5362
L23.9605 19.8710
" />
<path d="M23.9605 19.8710
L23.9000 19.7500
" />
<path d="M23.9000 19.7500
L23.7791 19.6896
" />
<path d="M23.7791 19.6896
L23.5372 19.6896
" />
<path d="M23.5372 19.6896
L23.4162 19.7500
" />
<path d="M23.9605 20.4758
L23.8396 20.5362
" />
<path d="M23.8396 20.5362
L23.5372 20.5362
" />
<path d="M23.5372 20.5362
L23.4162 20.4758
" />
<path d="M23.4162 20.4758
L23.3558 20.3548
" />
<path d="M23.3558 20.3548
L23.3558 20.2338
" />
<path d="M23.3558 20.2338
L23.4162 20.1129
" />
<path d="M23.4162 20.1129
L23.5372 20.0524
" />
<path d="M23.5372 20.0524
L23.8396 20.0524
" />
<path d="M23.8396 20.0524
L23.9605 19.9919
" />
<path d="M24.7467 20.5362
L24.6257 20.4758
" />
<path d="M24.6257 20.4758
L24.5652 20.3548
" />
<path d="M24.5652 20.3548
L24.5652 19.2662
" />
<path d="M25.1095 19.6896
L25.4119 20.5362
" />
<path d="M25.4119 20.5362
L25.7142 19.6896
" />
<path d="M26.6818 20.4758
L26.5609 20.5362
" />
<path d="M26.5609 20.5362
L26.3190 20.5362
" />
<path d="M26.3190 20.5362
L26.1980 20.4758
" />
<path d="M26.1980 20.4758
L26.1376 20.3548
" />
<path d="M26.1376 20.3548
L26.1376 19.8710
" />
<path d="M26.1376 19.8710
L26.1980 19.7500
" />
<path d="M26.1980 19.7500
L26.3190 19.6896
" />
<path d="M26.3190 19.6896
L26.5609 19.6896
" />
<path d="M26.5609 19.6896
L26.6818 19.7500
" />
<path d="M26.6818 19.7500
L26.7423 19.8710
" />
<path d="M26.7423 19.8710
L26.7423 19.9919
" />
<path d="M26.7423 19.9919
L26.1376 20.1129
" />
<path d="M27.4681 20.4153
L27.5285 20.4758
" />
<path d="M27.5285 20.4758
L27.4681 20.5362
" />
<path d="M27.4681 20.5362
L27.4076 20.4758
" />
<path d="M27.4076 20.4758
L27.4681 20.4153
" />
<path d="M27.4681 20.4153
L27.4681 20.5362
" />
<path d="M27.2262 19.3267
L27.3471 19.2662
" />
<path d="M27.3471 19.2662
L27.6495 19.2662
" />
<path d="M27.6495 19.2662
L27.7704 19.3267
" />
<path d="M27.7704 19.3267
L27.8309 19.4477
" />
<path d="M27.8309 19.4477
L27.8309 19.5686
" />
<path d="M27.8309 19.5686
L27.7704 19.6896
" />
<path d="M27.7704 19.6896
L27.7100 19.7500
" />
<path d="M27.7100 19.7500
L27.5890 19.8105
" />
<path d="M27.5890 19.8105
L27.5285 19.8710
" />
<path d="M27.5285 19.8710
L27.4681 19.9919
" />
<path d="M27.4681 19.9919
L27.4681 20.0524
" />
</g></g> 
</svg>
