<?xml version="1.0" standalone="no"?>
 <!DOCTYPE svg PUBLIC "-//W3C//DTD SVG 1.1//EN" 
 "http://www.w3.org/Graphics/SVG/1.1/DTD/svg11.dtd"> 
<svg
  xmlns:svg="http://www.w3.org/2000/svg"
  xmlns="http://www.w3.org/2000/svg"
  xmlns:xlink="http://www.w3.org/1999/xlink"
  version="1.1"
  width="30.6578mm" height="22.8854mm" viewBox="0.0000 0.0000 30.6578 22.8854">
<title>SVG Image created as valve - non return.svg date 2024/12/16 14:50:35 </title>
  <desc>Image generated by Eeschema-SVG </desc>
<g style="fill:#000000; fill-opacity:1.0000;stroke:#000000; stroke-opacity:1.0000;
stroke-linecap:round; stroke-linejoin:round;"
 transform="translate(0 0) scale(1 1)">
</g>
<g style="fill:#840000; fill-opacity:1.0000; 
stroke:#840000; stroke-width:0.1524; stroke-opacity:1; 
stroke-linecap:round; stroke-linejoin:round;">
<circle cx="9.7846" cy="7.9569" r="0.5000" /> 
<path style="fill:none; 
stroke:#840000; stroke-width:0.1000; stroke-opacity:1; 
stroke-linecap:round; stroke-linejoin:round;fill:none"
d="M 14.7846,9.9569
9.7846,7.9569
9.7846,11.9569
Z" /> 
<path style="fill:none; 
stroke:#840000; stroke-width:0.1000; stroke-opacity:1; 
stroke-linecap:round; stroke-linejoin:round;fill:none"
d="M 14.7846,9.9569
19.7846,7.9569
19.7846,11.9569
Z" /> 
</g>
<g style="fill:none; 
stroke:#840000; stroke-width:0.1524; stroke-opacity:1; 
stroke-linecap:round; stroke-linejoin:round;">
<path d="M9.7846 9.9569
L6.7846 9.9569
" />
<path d="M19.7846 9.9569
L22.7846 9.9569
" />
</g>
<g style="fill:none; 
stroke:#006464; stroke-width:0.1588; stroke-opacity:1; 
stroke-linecap:round; stroke-linejoin:round;">
<text x="14.7846" y="20.5920"
textLength="17.3974" font-size="1.6933" lengthAdjust="spacingAndGlyphs"
text-anchor="middle" opacity="0" stroke-opacity="0">Non_return_valve?</text>
<g class="stroked-text"><desc>Non_return_valve?</desc>
<path d="M6.4994 20.5362
L6.4994 19.2662
" />
<path d="M6.4994 19.2662
L7.2251 20.5362
" />
<path d="M7.2251 20.5362
L7.2251 19.2662
" />
<path d="M8.0114 20.5362
L7.8904 20.4758
" />
<path d="M7.8904 20.4758
L7.8299 20.4153
" />
<path d="M7.8299 20.4153
L7.7695 20.2943
" />
<path d="M7.7695 20.2943
L7.7695 19.9315
" />
<path d="M7.7695 19.9315
L7.8299 19.8105
" />
<path d="M7.8299 19.8105
L7.8904 19.7500
" />
<path d="M7.8904 19.7500
L8.0114 19.6896
" />
<path d="M8.0114 19.6896
L8.1928 19.6896
" />
<path d="M8.1928 19.6896
L8.3137 19.7500
" />
<path d="M8.3137 19.7500
L8.3742 19.8105
" />
<path d="M8.3742 19.8105
L8.4347 19.9315
" />
<path d="M8.4347 19.9315
L8.4347 20.2943
" />
<path d="M8.4347 20.2943
L8.3742 20.4153
" />
<path d="M8.3742 20.4153
L8.3137 20.4758
" />
<path d="M8.3137 20.4758
L8.1928 20.5362
" />
<path d="M8.1928 20.5362
L8.0114 20.5362
" />
<path d="M8.9789 19.6896
L8.9789 20.5362
" />
<path d="M8.9789 19.8105
L9.0394 19.7500
" />
<path d="M9.0394 19.7500
L9.1604 19.6896
" />
<path d="M9.1604 19.6896
L9.3418 19.6896
" />
<path d="M9.3418 19.6896
L9.4627 19.7500
" />
<path d="M9.4627 19.7500
L9.5232 19.8710
" />
<path d="M9.5232 19.8710
L9.5232 20.5362
" />
<path d="M9.8256 20.6572
L10.7932 20.6572
" />
<path d="M11.0955 20.5362
L11.0955 19.6896
" />
<path d="M11.0955 19.9315
L11.1560 19.8105
" />
<path d="M11.1560 19.8105
L11.2165 19.7500
" />
<path d="M11.2165 19.7500
L11.3374 19.6896
" />
<path d="M11.3374 19.6896
L11.4584 19.6896
" />
<path d="M12.3655 20.4758
L12.2446 20.5362
" />
<path d="M12.2446 20.5362
L12.0027 20.5362
" />
<path d="M12.0027 20.5362
L11.8817 20.4758
" />
<path d="M11.8817 20.4758
L11.8213 20.3548
" />
<path d="M11.8213 20.3548
L11.8213 19.8710
" />
<path d="M11.8213 19.8710
L11.8817 19.7500
" />
<path d="M11.8817 19.7500
L12.0027 19.6896
" />
<path d="M12.0027 19.6896
L12.2446 19.6896
" />
<path d="M12.2446 19.6896
L12.3655 19.7500
" />
<path d="M12.3655 19.7500
L12.4260 19.8710
" />
<path d="M12.4260 19.8710
L12.4260 19.9919
" />
<path d="M12.4260 19.9919
L11.8213 20.1129
" />
<path d="M12.7889 19.6896
L13.2727 19.6896
" />
<path d="M12.9703 19.2662
L12.9703 20.3548
" />
<path d="M12.9703 20.3548
L13.0308 20.4758
" />
<path d="M13.0308 20.4758
L13.1518 20.5362
" />
<path d="M13.1518 20.5362
L13.2727 20.5362
" />
<path d="M14.2403 19.6896
L14.2403 20.5362
" />
<path d="M13.6960 19.6896
L13.6960 20.3548
" />
<path d="M13.6960 20.3548
L13.7565 20.4758
" />
<path d="M13.7565 20.4758
L13.8775 20.5362
" />
<path d="M13.8775 20.5362
L14.0589 20.5362
" />
<path d="M14.0589 20.5362
L14.1798 20.4758
" />
<path d="M14.1798 20.4758
L14.2403 20.4153
" />
<path d="M14.8450 20.5362
L14.8450 19.6896
" />
<path d="M14.8450 19.9315
L14.9055 19.8105
" />
<path d="M14.9055 19.8105
L14.9660 19.7500
" />
<path d="M14.9660 19.7500
L15.0869 19.6896
" />
<path d="M15.0869 19.6896
L15.2079 19.6896
" />
<path d="M15.6312 19.6896
L15.6312 20.5362
" />
<path d="M15.6312 19.8105
L15.6917 19.7500
" />
<path d="M15.6917 19.7500
L15.8127 19.6896
" />
<path d="M15.8127 19.6896
L15.9941 19.6896
" />
<path d="M15.9941 19.6896
L16.1150 19.7500
" />
<path d="M16.1150 19.7500
L16.1755 19.8710
" />
<path d="M16.1755 19.8710
L16.1755 20.5362
" />
<path d="M16.4779 20.6572
L17.4455 20.6572
" />
<path d="M17.6269 19.6896
L17.9293 20.5362
" />
<path d="M17.9293 20.5362
L18.2316 19.6896
" />
<path d="M19.2597 20.5362
L19.2597 19.8710
" />
<path d="M19.2597 19.8710
L19.1992 19.7500
" />
<path d="M19.1992 19.7500
L19.0783 19.6896
" />
<path d="M19.0783 19.6896
L18.8364 19.6896
" />
<path d="M18.8364 19.6896
L18.7154 19.7500
" />
<path d="M19.2597 20.4758
L19.1388 20.5362
" />
<path d="M19.1388 20.5362
L18.8364 20.5362
" />
<path d="M18.8364 20.5362
L18.7154 20.4758
" />
<path d="M18.7154 20.4758
L18.6550 20.3548
" />
<path d="M18.6550 20.3548
L18.6550 20.2338
" />
<path d="M18.6550 20.2338
L18.7154 20.1129
" />
<path d="M18.7154 20.1129
L18.8364 20.0524
" />
<path d="M18.8364 20.0524
L19.1388 20.0524
" />
<path d="M19.1388 20.0524
L19.2597 19.9919
" />
<path d="M20.0459 20.5362
L19.9249 20.4758
" />
<path d="M19.9249 20.4758
L19.8644 20.3548
" />
<path d="M19.8644 20.3548
L19.8644 19.2662
" />
<path d="M20.4087 19.6896
L20.7111 20.5362
" />
<path d="M20.7111 20.5362
L21.0134 19.6896
" />
<path d="M21.9810 20.4758
L21.8601 20.5362
" />
<path d="M21.8601 20.5362
L21.6182 20.5362
" />
<path d="M21.6182 20.5362
L21.4972 20.4758
" />
<path d="M21.4972 20.4758
L21.4368 20.3548
" />
<path d="M21.4368 20.3548
L21.4368 19.8710
" />
<path d="M21.4368 19.8710
L21.4972 19.7500
" />
<path d="M21.4972 19.7500
L21.6182 19.6896
" />
<path d="M21.6182 19.6896
L21.8601 19.6896
" />
<path d="M21.8601 19.6896
L21.9810 19.7500
" />
<path d="M21.9810 19.7500
L22.0415 19.8710
" />
<path d="M22.0415 19.8710
L22.0415 19.9919
" />
<path d="M22.0415 19.9919
L21.4368 20.1129
" />
<path d="M22.7673 20.4153
L22.8277 20.4758
" />
<path d="M22.8277 20.4758
L22.7673 20.5362
" />
<path d="M22.7673 20.5362
L22.7068 20.4758
" />
<path d="M22.7068 20.4758
L22.7673 20.4153
" />
<path d="M22.7673 20.4153
L22.7673 20.5362
" />
<path d="M22.5254 19.3267
L22.6463 19.2662
" />
<path d="M22.6463 19.2662
L22.9487 19.2662
" />
<path d="M22.9487 19.2662
L23.0696 19.3267
" />
<path d="M23.0696 19.3267
L23.1301 19.4477
" />
<path d="M23.1301 19.4477
L23.1301 19.5686
" />
<path d="M23.1301 19.5686
L23.0696 19.6896
" />
<path d="M23.0696 19.6896
L23.0092 19.7500
" />
<path d="M23.0092 19.7500
L22.8882 19.8105
" />
<path d="M22.8882 19.8105
L22.8277 19.8710
" />
<path d="M22.8277 19.8710
L22.7673 19.9919
" />
<path d="M22.7673 19.9919
L22.7673 20.0524
" />
</g></g> 
</svg>
