<?xml version="1.0" standalone="no"?>
 <!DOCTYPE svg PUBLIC "-//W3C//DTD SVG 1.1//EN" 
 "http://www.w3.org/Graphics/SVG/1.1/DTD/svg11.dtd"> 
<svg
  xmlns:svg="http://www.w3.org/2000/svg"
  xmlns="http://www.w3.org/2000/svg"
  xmlns:xlink="http://www.w3.org/1999/xlink"
  version="1.1"
  width="42.4180mm" height="22.8854mm" viewBox="0.0000 0.0000 42.4180 22.8854">
<title>SVG Image created as valve - pneumatic.svg date 2024/12/15 16:48:06 </title>
  <desc>Image generated by Eeschema-SVG </desc>
<g style="fill:#000000; fill-opacity:1.0000;stroke:#000000; stroke-opacity:1.0000;
stroke-linecap:round; stroke-linejoin:round;"
 transform="translate(0 0) scale(1 1)">
<path style="fill:none; 
stroke:#840000; stroke-width:0.1000; stroke-opacity:1; 
stroke-linecap:round; stroke-linejoin:round;fill:none"
d="M 21.2090,6.9569
21.2090,9.9569
" /> 
<path style="fill:none; 
stroke:#840000; stroke-width:0.1000; stroke-opacity:1; 
stroke-linecap:round; stroke-linejoin:round;fill:none"
d="M 23.2090,6.9569
19.2090,6.9569
" /> 
<path style="fill:none; 
stroke:#840000; stroke-width:0.1524; stroke-opacity:1; 
stroke-linecap:round; stroke-linejoin:round;fill:none"
d="M 36.2090,2.4569
Z" /> 
<path style="fill:none; 
stroke:#840000; stroke-width:0.1000; stroke-opacity:1; 
stroke-linecap:round; stroke-linejoin:round;fill:none"
d="M 21.2090,9.9569
16.2090,7.9569
16.2090,11.9569
Z" /> 
<path style="fill:none; 
stroke:#840000; stroke-width:0.1000; stroke-opacity:1; 
stroke-linecap:round; stroke-linejoin:round;fill:none"
d="M 21.2090,9.9569
26.2090,7.9569
26.2090,11.9569
Z" /> 
</g>
<g style="fill:none; 
stroke:#840000; stroke-width:0.1000; stroke-opacity:1; 
stroke-linecap:round; stroke-linejoin:round;">
<path d="M21.2090 4.9569 A1.9973 1.9973 0.0 0 0 19.2127 6.9569" />
<path d="M23.2090 6.9569 A2.0000 2.0000 0.0 0 0 21.2090 4.9572" />
</g>
<g style="fill:none; 
stroke:#840000; stroke-width:0.1524; stroke-opacity:1; 
stroke-linecap:round; stroke-linejoin:round;">
<path d="M16.2090 9.9569
L13.2090 9.9569
" />
<path d="M26.2090 9.9569
L29.2090 9.9569
" />
</g>
<g style="fill:none; 
stroke:#006464; stroke-width:0.1588; stroke-opacity:1; 
stroke-linecap:round; stroke-linejoin:round;">
<text x="21.2090" y="20.5920"
textLength="17.1556" font-size="1.6933" lengthAdjust="spacingAndGlyphs"
text-anchor="middle" opacity="0" stroke-opacity="0">Pneumatic_Valve?</text>
<g class="stroked-text"><desc>Pneumatic_Valve?</desc>
<path d="M13.0447 20.5362
L13.0447 19.2662
" />
<path d="M13.0447 19.2662
L13.5285 19.2662
" />
<path d="M13.5285 19.2662
L13.6495 19.3267
" />
<path d="M13.6495 19.3267
L13.7100 19.3872
" />
<path d="M13.7100 19.3872
L13.7704 19.5081
" />
<path d="M13.7704 19.5081
L13.7704 19.6896
" />
<path d="M13.7704 19.6896
L13.7100 19.8105
" />
<path d="M13.7100 19.8105
L13.6495 19.8710
" />
<path d="M13.6495 19.8710
L13.5285 19.9315
" />
<path d="M13.5285 19.9315
L13.0447 19.9315
" />
<path d="M14.3147 19.6896
L14.3147 20.5362
" />
<path d="M14.3147 19.8105
L14.3752 19.7500
" />
<path d="M14.3752 19.7500
L14.4962 19.6896
" />
<path d="M14.4962 19.6896
L14.6776 19.6896
" />
<path d="M14.6776 19.6896
L14.7985 19.7500
" />
<path d="M14.7985 19.7500
L14.8590 19.8710
" />
<path d="M14.8590 19.8710
L14.8590 20.5362
" />
<path d="M15.9475 20.4758
L15.8266 20.5362
" />
<path d="M15.8266 20.5362
L15.5847 20.5362
" />
<path d="M15.5847 20.5362
L15.4637 20.4758
" />
<path d="M15.4637 20.4758
L15.4033 20.3548
" />
<path d="M15.4033 20.3548
L15.4033 19.8710
" />
<path d="M15.4033 19.8710
L15.4637 19.7500
" />
<path d="M15.4637 19.7500
L15.5847 19.6896
" />
<path d="M15.5847 19.6896
L15.8266 19.6896
" />
<path d="M15.8266 19.6896
L15.9475 19.7500
" />
<path d="M15.9475 19.7500
L16.0080 19.8710
" />
<path d="M16.0080 19.8710
L16.0080 19.9919
" />
<path d="M16.0080 19.9919
L15.4033 20.1129
" />
<path d="M17.0966 19.6896
L17.0966 20.5362
" />
<path d="M16.5523 19.6896
L16.5523 20.3548
" />
<path d="M16.5523 20.3548
L16.6128 20.4758
" />
<path d="M16.6128 20.4758
L16.7338 20.5362
" />
<path d="M16.7338 20.5362
L16.9152 20.5362
" />
<path d="M16.9152 20.5362
L17.0361 20.4758
" />
<path d="M17.0361 20.4758
L17.0966 20.4153
" />
<path d="M17.7013 20.5362
L17.7013 19.6896
" />
<path d="M17.7013 19.8105
L17.7618 19.7500
" />
<path d="M17.7618 19.7500
L17.8828 19.6896
" />
<path d="M17.8828 19.6896
L18.0642 19.6896
" />
<path d="M18.0642 19.6896
L18.1851 19.7500
" />
<path d="M18.1851 19.7500
L18.2456 19.8710
" />
<path d="M18.2456 19.8710
L18.2456 20.5362
" />
<path d="M18.2456 19.8710
L18.3061 19.7500
" />
<path d="M18.3061 19.7500
L18.4270 19.6896
" />
<path d="M18.4270 19.6896
L18.6085 19.6896
" />
<path d="M18.6085 19.6896
L18.7294 19.7500
" />
<path d="M18.7294 19.7500
L18.7899 19.8710
" />
<path d="M18.7899 19.8710
L18.7899 20.5362
" />
<path d="M19.9389 20.5362
L19.9389 19.8710
" />
<path d="M19.9389 19.8710
L19.8784 19.7500
" />
<path d="M19.8784 19.7500
L19.7575 19.6896
" />
<path d="M19.7575 19.6896
L19.5156 19.6896
" />
<path d="M19.5156 19.6896
L19.3946 19.7500
" />
<path d="M19.9389 20.4758
L19.8180 20.5362
" />
<path d="M19.8180 20.5362
L19.5156 20.5362
" />
<path d="M19.5156 20.5362
L19.3946 20.4758
" />
<path d="M19.3946 20.4758
L19.3342 20.3548
" />
<path d="M19.3342 20.3548
L19.3342 20.2338
" />
<path d="M19.3342 20.2338
L19.3946 20.1129
" />
<path d="M19.3946 20.1129
L19.5156 20.0524
" />
<path d="M19.5156 20.0524
L19.8180 20.0524
" />
<path d="M19.8180 20.0524
L19.9389 19.9919
" />
<path d="M20.3622 19.6896
L20.8460 19.6896
" />
<path d="M20.5436 19.2662
L20.5436 20.3548
" />
<path d="M20.5436 20.3548
L20.6041 20.4758
" />
<path d="M20.6041 20.4758
L20.7251 20.5362
" />
<path d="M20.7251 20.5362
L20.8460 20.5362
" />
<path d="M21.2693 20.5362
L21.2693 19.6896
" />
<path d="M21.2693 19.2662
L21.2089 19.3267
" />
<path d="M21.2089 19.3267
L21.2693 19.3872
" />
<path d="M21.2693 19.3872
L21.3298 19.3267
" />
<path d="M21.3298 19.3267
L21.2693 19.2662
" />
<path d="M21.2693 19.2662
L21.2693 19.3872
" />
<path d="M22.4184 20.4758
L22.2975 20.5362
" />
<path d="M22.2975 20.5362
L22.0556 20.5362
" />
<path d="M22.0556 20.5362
L21.9346 20.4758
" />
<path d="M21.9346 20.4758
L21.8741 20.4153
" />
<path d="M21.8741 20.4153
L21.8137 20.2943
" />
<path d="M21.8137 20.2943
L21.8137 19.9315
" />
<path d="M21.8137 19.9315
L21.8741 19.8105
" />
<path d="M21.8741 19.8105
L21.9346 19.7500
" />
<path d="M21.9346 19.7500
L22.0556 19.6896
" />
<path d="M22.0556 19.6896
L22.2975 19.6896
" />
<path d="M22.2975 19.6896
L22.4184 19.7500
" />
<path d="M22.6604 20.6572
L23.6280 20.6572
" />
<path d="M23.7489 19.2662
L24.1722 20.5362
" />
<path d="M24.1722 20.5362
L24.5956 19.2662
" />
<path d="M25.5632 20.5362
L25.5632 19.8710
" />
<path d="M25.5632 19.8710
L25.5027 19.7500
" />
<path d="M25.5027 19.7500
L25.3818 19.6896
" />
<path d="M25.3818 19.6896
L25.1399 19.6896
" />
<path d="M25.1399 19.6896
L25.0189 19.7500
" />
<path d="M25.5632 20.4758
L25.4423 20.5362
" />
<path d="M25.4423 20.5362
L25.1399 20.5362
" />
<path d="M25.1399 20.5362
L25.0189 20.4758
" />
<path d="M25.0189 20.4758
L24.9585 20.3548
" />
<path d="M24.9585 20.3548
L24.9585 20.2338
" />
<path d="M24.9585 20.2338
L25.0189 20.1129
" />
<path d="M25.0189 20.1129
L25.1399 20.0524
" />
<path d="M25.1399 20.0524
L25.4423 20.0524
" />
<path d="M25.4423 20.0524
L25.5632 19.9919
" />
<path d="M26.3494 20.5362
L26.2284 20.4758
" />
<path d="M26.2284 20.4758
L26.1679 20.3548
" />
<path d="M26.1679 20.3548
L26.1679 19.2662
" />
<path d="M26.7122 19.6896
L27.0146 20.5362
" />
<path d="M27.0146 20.5362
L27.3169 19.6896
" />
<path d="M28.2845 20.4758
L28.1636 20.5362
" />
<path d="M28.1636 20.5362
L27.9217 20.5362
" />
<path d="M27.9217 20.5362
L27.8007 20.4758
" />
<path d="M27.8007 20.4758
L27.7403 20.3548
" />
<path d="M27.7403 20.3548
L27.7403 19.8710
" />
<path d="M27.7403 19.8710
L27.8007 19.7500
" />
<path d="M27.8007 19.7500
L27.9217 19.6896
" />
<path d="M27.9217 19.6896
L28.1636 19.6896
" />
<path d="M28.1636 19.6896
L28.2845 19.7500
" />
<path d="M28.2845 19.7500
L28.3450 19.8710
" />
<path d="M28.3450 19.8710
L28.3450 19.9919
" />
<path d="M28.3450 19.9919
L27.7403 20.1129
" />
<path d="M29.0708 20.4153
L29.1312 20.4758
" />
<path d="M29.1312 20.4758
L29.0708 20.5362
" />
<path d="M29.0708 20.5362
L29.0103 20.4758
" />
<path d="M29.0103 20.4758
L29.0708 20.4153
" />
<path d="M29.0708 20.4153
L29.0708 20.5362
" />
<path d="M28.8289 19.3267
L28.9498 19.2662
" />
<path d="M28.9498 19.2662
L29.2522 19.2662
" />
<path d="M29.2522 19.2662
L29.3731 19.3267
" />
<path d="M29.3731 19.3267
L29.4336 19.4477
" />
<path d="M29.4336 19.4477
L29.4336 19.5686
" />
<path d="M29.4336 19.5686
L29.3731 19.6896
" />
<path d="M29.3731 19.6896
L29.3127 19.7500
" />
<path d="M29.3127 19.7500
L29.1917 19.8105
" />
<path d="M29.1917 19.8105
L29.1312 19.8710
" />
<path d="M29.1312 19.8710
L29.0708 19.9919
" />
<path d="M29.0708 19.9919
L29.0708 20.0524
" />
</g></g> 
</svg>
