<?xml version="1.0" standalone="no"?>
 <!DOCTYPE svg PUBLIC "-//W3C//DTD SVG 1.1//EN" 
 "http://www.w3.org/Graphics/SVG/1.1/DTD/svg11.dtd"> 
<svg
  xmlns:svg="http://www.w3.org/2000/svg"
  xmlns="http://www.w3.org/2000/svg"
  xmlns:xlink="http://www.w3.org/1999/xlink"
  version="1.1"
  width="42.4180mm" height="22.8854mm" viewBox="0.0000 0.0000 42.4180 22.8854">
<title>SVG Image created as valve - needle.svg date 2024/12/16 14:50:33 </title>
  <desc>Image generated by Eeschema-SVG </desc>
<g style="fill:#000000; fill-opacity:1.0000;stroke:#000000; stroke-opacity:1.0000;
stroke-linecap:round; stroke-linejoin:round;"
 transform="translate(0 0) scale(1 1)">
<path style="fill:none; 
stroke:#840000; stroke-width:0.1000; stroke-opacity:1; 
stroke-linecap:round; stroke-linejoin:round;fill:none"
d="M 21.2090,9.9569
21.2090,10.9569
" /> 
<path style="fill:none; 
stroke:#840000; stroke-width:0.1000; stroke-opacity:1; 
stroke-linecap:round; stroke-linejoin:round;fill:none"
d="M 21.2090,8.9569
21.2090,9.9569
" /> 
<path style="fill:none; 
stroke:#840000; stroke-width:0.1000; stroke-opacity:1; 
stroke-linecap:round; stroke-linejoin:round;fill:none"
d="M 21.2090,9.9569
16.2090,7.9569
16.2090,11.9569
Z" /> 
<path style="fill:none; 
stroke:#840000; stroke-width:0.1000; stroke-opacity:1; 
stroke-linecap:round; stroke-linejoin:round;fill:none"
d="M 21.2090,9.9569
26.2090,7.9569
26.2090,11.9569
Z" /> 
<path style="fill:#840000; fill-opacity:1.0000; 
stroke:#840000; stroke-width:0.1000; stroke-opacity:1; 
stroke-linecap:round; stroke-linejoin:round;fill-rule:evenodd;"
d="M 21.2090,10.9569
20.9590,10.9569
21.2090,11.9569
21.4590,10.9569
Z" /> 
</g>
<g style="fill:none; 
stroke:#840000; stroke-width:0.1524; stroke-opacity:1; 
stroke-linecap:round; stroke-linejoin:round;">
<path d="M16.2090 9.9569
L13.2090 9.9569
" />
<path d="M26.2090 9.9569
L29.2090 9.9569
" />
</g>
<g style="fill:none; 
stroke:#006464; stroke-width:0.1588; stroke-opacity:1; 
stroke-linecap:round; stroke-linejoin:round;">
<text x="21.2090" y="20.5920"
textLength="13.7085" font-size="1.6933" lengthAdjust="spacingAndGlyphs"
text-anchor="middle" opacity="0" stroke-opacity="0">Neddle_Valve?</text>
<g class="stroked-text"><desc>Neddle_Valve?</desc>
<path d="M14.7683 20.5362
L14.7683 19.2662
" />
<path d="M14.7683 19.2662
L15.4940 20.5362
" />
<path d="M15.4940 20.5362
L15.4940 19.2662
" />
<path d="M16.5826 20.4758
L16.4617 20.5362
" />
<path d="M16.4617 20.5362
L16.2198 20.5362
" />
<path d="M16.2198 20.5362
L16.0988 20.4758
" />
<path d="M16.0988 20.4758
L16.0384 20.3548
" />
<path d="M16.0384 20.3548
L16.0384 19.8710
" />
<path d="M16.0384 19.8710
L16.0988 19.7500
" />
<path d="M16.0988 19.7500
L16.2198 19.6896
" />
<path d="M16.2198 19.6896
L16.4617 19.6896
" />
<path d="M16.4617 19.6896
L16.5826 19.7500
" />
<path d="M16.5826 19.7500
L16.6431 19.8710
" />
<path d="M16.6431 19.8710
L16.6431 19.9919
" />
<path d="M16.6431 19.9919
L16.0384 20.1129
" />
<path d="M17.7317 20.5362
L17.7317 19.2662
" />
<path d="M17.7317 20.4758
L17.6108 20.5362
" />
<path d="M17.6108 20.5362
L17.3689 20.5362
" />
<path d="M17.3689 20.5362
L17.2479 20.4758
" />
<path d="M17.2479 20.4758
L17.1874 20.4153
" />
<path d="M17.1874 20.4153
L17.1270 20.2943
" />
<path d="M17.1270 20.2943
L17.1270 19.9315
" />
<path d="M17.1270 19.9315
L17.1874 19.8105
" />
<path d="M17.1874 19.8105
L17.2479 19.7500
" />
<path d="M17.2479 19.7500
L17.3689 19.6896
" />
<path d="M17.3689 19.6896
L17.6108 19.6896
" />
<path d="M17.6108 19.6896
L17.7317 19.7500
" />
<path d="M18.8807 20.5362
L18.8807 19.2662
" />
<path d="M18.8807 20.4758
L18.7598 20.5362
" />
<path d="M18.7598 20.5362
L18.5179 20.5362
" />
<path d="M18.5179 20.5362
L18.3969 20.4758
" />
<path d="M18.3969 20.4758
L18.3364 20.4153
" />
<path d="M18.3364 20.4153
L18.2760 20.2943
" />
<path d="M18.2760 20.2943
L18.2760 19.9315
" />
<path d="M18.2760 19.9315
L18.3364 19.8105
" />
<path d="M18.3364 19.8105
L18.3969 19.7500
" />
<path d="M18.3969 19.7500
L18.5179 19.6896
" />
<path d="M18.5179 19.6896
L18.7598 19.6896
" />
<path d="M18.7598 19.6896
L18.8807 19.7500
" />
<path d="M19.6669 20.5362
L19.5459 20.4758
" />
<path d="M19.5459 20.4758
L19.4854 20.3548
" />
<path d="M19.4854 20.3548
L19.4854 19.2662
" />
<path d="M20.6344 20.4758
L20.5135 20.5362
" />
<path d="M20.5135 20.5362
L20.2716 20.5362
" />
<path d="M20.2716 20.5362
L20.1506 20.4758
" />
<path d="M20.1506 20.4758
L20.0902 20.3548
" />
<path d="M20.0902 20.3548
L20.0902 19.8710
" />
<path d="M20.0902 19.8710
L20.1506 19.7500
" />
<path d="M20.1506 19.7500
L20.2716 19.6896
" />
<path d="M20.2716 19.6896
L20.5135 19.6896
" />
<path d="M20.5135 19.6896
L20.6344 19.7500
" />
<path d="M20.6344 19.7500
L20.6949 19.8710
" />
<path d="M20.6949 19.8710
L20.6949 19.9919
" />
<path d="M20.6949 19.9919
L20.0902 20.1129
" />
<path d="M20.9369 20.6572
L21.9045 20.6572
" />
<path d="M22.0254 19.2662
L22.4487 20.5362
" />
<path d="M22.4487 20.5362
L22.8721 19.2662
" />
<path d="M23.8397 20.5362
L23.8397 19.8710
" />
<path d="M23.8397 19.8710
L23.7792 19.7500
" />
<path d="M23.7792 19.7500
L23.6583 19.6896
" />
<path d="M23.6583 19.6896
L23.4164 19.6896
" />
<path d="M23.4164 19.6896
L23.2954 19.7500
" />
<path d="M23.8397 20.4758
L23.7188 20.5362
" />
<path d="M23.7188 20.5362
L23.4164 20.5362
" />
<path d="M23.4164 20.5362
L23.2954 20.4758
" />
<path d="M23.2954 20.4758
L23.2350 20.3548
" />
<path d="M23.2350 20.3548
L23.2350 20.2338
" />
<path d="M23.2350 20.2338
L23.2954 20.1129
" />
<path d="M23.2954 20.1129
L23.4164 20.0524
" />
<path d="M23.4164 20.0524
L23.7188 20.0524
" />
<path d="M23.7188 20.0524
L23.8397 19.9919
" />
<path d="M24.6259 20.5362
L24.5049 20.4758
" />
<path d="M24.5049 20.4758
L24.4444 20.3548
" />
<path d="M24.4444 20.3548
L24.4444 19.2662
" />
<path d="M24.9887 19.6896
L25.2911 20.5362
" />
<path d="M25.2911 20.5362
L25.5934 19.6896
" />
<path d="M26.5610 20.4758
L26.4401 20.5362
" />
<path d="M26.4401 20.5362
L26.1982 20.5362
" />
<path d="M26.1982 20.5362
L26.0772 20.4758
" />
<path d="M26.0772 20.4758
L26.0168 20.3548
" />
<path d="M26.0168 20.3548
L26.0168 19.8710
" />
<path d="M26.0168 19.8710
L26.0772 19.7500
" />
<path d="M26.0772 19.7500
L26.1982 19.6896
" />
<path d="M26.1982 19.6896
L26.4401 19.6896
" />
<path d="M26.4401 19.6896
L26.5610 19.7500
" />
<path d="M26.5610 19.7500
L26.6215 19.8710
" />
<path d="M26.6215 19.8710
L26.6215 19.9919
" />
<path d="M26.6215 19.9919
L26.0168 20.1129
" />
<path d="M27.3473 20.4153
L27.4077 20.4758
" />
<path d="M27.4077 20.4758
L27.3473 20.5362
" />
<path d="M27.3473 20.5362
L27.2868 20.4758
" />
<path d="M27.2868 20.4758
L27.3473 20.4153
" />
<path d="M27.3473 20.4153
L27.3473 20.5362
" />
<path d="M27.1054 19.3267
L27.2263 19.2662
" />
<path d="M27.2263 19.2662
L27.5287 19.2662
" />
<path d="M27.5287 19.2662
L27.6496 19.3267
" />
<path d="M27.6496 19.3267
L27.7101 19.4477
" />
<path d="M27.7101 19.4477
L27.7101 19.5686
" />
<path d="M27.7101 19.5686
L27.6496 19.6896
" />
<path d="M27.6496 19.6896
L27.5892 19.7500
" />
<path d="M27.5892 19.7500
L27.4682 19.8105
" />
<path d="M27.4682 19.8105
L27.4077 19.8710
" />
<path d="M27.4077 19.8710
L27.3473 19.9919
" />
<path d="M27.3473 19.9919
L27.3473 20.0524
" />
</g></g> 
</svg>
