<?xml version="1.0" standalone="no"?>
 <!DOCTYPE svg PUBLIC "-//W3C//DTD SVG 1.1//EN" 
 "http://www.w3.org/Graphics/SVG/1.1/DTD/svg11.dtd"> 
<svg
  xmlns:svg="http://www.w3.org/2000/svg"
  xmlns="http://www.w3.org/2000/svg"
  xmlns:xlink="http://www.w3.org/1999/xlink"
  version="1.1"
  width="30.6578mm" height="22.8854mm" viewBox="0.0000 0.0000 30.6578 22.8854">
<title>SVG Image created as valve - check.svg date 2024/12/16 14:50:32 </title>
  <desc>Image generated by Eeschema-SVG </desc>
<g style="fill:#000000; fill-opacity:1.0000;stroke:#000000; stroke-opacity:1.0000;
stroke-linecap:round; stroke-linejoin:round;"
 transform="translate(0 0) scale(1 1)">
<path style="fill:none; 
stroke:#840000; stroke-width:0.1000; stroke-opacity:1; 
stroke-linecap:round; stroke-linejoin:round;fill:none"
d="M 9.7846,11.9569
9.7846,7.9569
" /> 
<path style="fill:none; 
stroke:#840000; stroke-width:0.1000; stroke-opacity:1; 
stroke-linecap:round; stroke-linejoin:round;fill:none"
d="M 10.2846,11.7069
14.7846,9.9569
" /> 
<path style="fill:none; 
stroke:#840000; stroke-width:0.1000; stroke-opacity:1; 
stroke-linecap:round; stroke-linejoin:round;fill:none"
d="M 14.7846,9.9569
19.2846,8.2069
" /> 
<path style="fill:none; 
stroke:#840000; stroke-width:0.1000; stroke-opacity:1; 
stroke-linecap:round; stroke-linejoin:round;fill:none"
d="M 19.7846,7.9569
19.7846,11.9569
" /> 
<path style="fill:#840000; fill-opacity:1.0000; 
stroke:#840000; stroke-width:0.1524; stroke-opacity:1; 
stroke-linecap:round; stroke-linejoin:round;fill-rule:evenodd;"
d="M 19.2846,8.2069
18.5346,8.2069
18.7846,8.7069
Z" /> 
</g>
<g style="fill:none; 
stroke:#840000; stroke-width:0.1524; stroke-opacity:1; 
stroke-linecap:round; stroke-linejoin:round;">
<path d="M9.7846 9.9569
L6.7846 9.9569
" />
<path d="M19.7846 9.9569
L22.7846 9.9569
" />
</g>
<g style="fill:none; 
stroke:#006464; stroke-width:0.1588; stroke-opacity:1; 
stroke-linecap:round; stroke-linejoin:round;">
<text x="14.7846" y="20.5920"
textLength="12.8619" font-size="1.6933" lengthAdjust="spacingAndGlyphs"
text-anchor="middle" opacity="0" stroke-opacity="0">Check_Valve?</text>
<g class="stroked-text"><desc>Check_Valve?</desc>
<path d="M9.4929 20.4153
L9.4325 20.4758
" />
<path d="M9.4325 20.4758
L9.2510 20.5362
" />
<path d="M9.2510 20.5362
L9.1301 20.5362
" />
<path d="M9.1301 20.5362
L8.9487 20.4758
" />
<path d="M8.9487 20.4758
L8.8277 20.3548
" />
<path d="M8.8277 20.3548
L8.7672 20.2338
" />
<path d="M8.7672 20.2338
L8.7068 19.9919
" />
<path d="M8.7068 19.9919
L8.7068 19.8105
" />
<path d="M8.7068 19.8105
L8.7672 19.5686
" />
<path d="M8.7672 19.5686
L8.8277 19.4477
" />
<path d="M8.8277 19.4477
L8.9487 19.3267
" />
<path d="M8.9487 19.3267
L9.1301 19.2662
" />
<path d="M9.1301 19.2662
L9.2510 19.2662
" />
<path d="M9.2510 19.2662
L9.4325 19.3267
" />
<path d="M9.4325 19.3267
L9.4929 19.3872
" />
<path d="M10.0372 20.5362
L10.0372 19.2662
" />
<path d="M10.5815 20.5362
L10.5815 19.8710
" />
<path d="M10.5815 19.8710
L10.5210 19.7500
" />
<path d="M10.5210 19.7500
L10.4001 19.6896
" />
<path d="M10.4001 19.6896
L10.2187 19.6896
" />
<path d="M10.2187 19.6896
L10.0977 19.7500
" />
<path d="M10.0977 19.7500
L10.0372 19.8105
" />
<path d="M11.6700 20.4758
L11.5491 20.5362
" />
<path d="M11.5491 20.5362
L11.3072 20.5362
" />
<path d="M11.3072 20.5362
L11.1862 20.4758
" />
<path d="M11.1862 20.4758
L11.1258 20.3548
" />
<path d="M11.1258 20.3548
L11.1258 19.8710
" />
<path d="M11.1258 19.8710
L11.1862 19.7500
" />
<path d="M11.1862 19.7500
L11.3072 19.6896
" />
<path d="M11.3072 19.6896
L11.5491 19.6896
" />
<path d="M11.5491 19.6896
L11.6700 19.7500
" />
<path d="M11.6700 19.7500
L11.7305 19.8710
" />
<path d="M11.7305 19.8710
L11.7305 19.9919
" />
<path d="M11.7305 19.9919
L11.1258 20.1129
" />
<path d="M12.8191 20.4758
L12.6982 20.5362
" />
<path d="M12.6982 20.5362
L12.4563 20.5362
" />
<path d="M12.4563 20.5362
L12.3353 20.4758
" />
<path d="M12.3353 20.4758
L12.2748 20.4153
" />
<path d="M12.2748 20.4153
L12.2144 20.2943
" />
<path d="M12.2144 20.2943
L12.2144 19.9315
" />
<path d="M12.2144 19.9315
L12.2748 19.8105
" />
<path d="M12.2748 19.8105
L12.3353 19.7500
" />
<path d="M12.3353 19.7500
L12.4563 19.6896
" />
<path d="M12.4563 19.6896
L12.6982 19.6896
" />
<path d="M12.6982 19.6896
L12.8191 19.7500
" />
<path d="M13.3634 20.5362
L13.3634 19.2662
" />
<path d="M13.4844 20.0524
L13.8472 20.5362
" />
<path d="M13.8472 19.6896
L13.3634 20.1734
" />
<path d="M14.0892 20.6572
L15.0568 20.6572
" />
<path d="M15.1777 19.2662
L15.6010 20.5362
" />
<path d="M15.6010 20.5362
L16.0244 19.2662
" />
<path d="M16.9920 20.5362
L16.9920 19.8710
" />
<path d="M16.9920 19.8710
L16.9315 19.7500
" />
<path d="M16.9315 19.7500
L16.8106 19.6896
" />
<path d="M16.8106 19.6896
L16.5687 19.6896
" />
<path d="M16.5687 19.6896
L16.4477 19.7500
" />
<path d="M16.9920 20.4758
L16.8711 20.5362
" />
<path d="M16.8711 20.5362
L16.5687 20.5362
" />
<path d="M16.5687 20.5362
L16.4477 20.4758
" />
<path d="M16.4477 20.4758
L16.3873 20.3548
" />
<path d="M16.3873 20.3548
L16.3873 20.2338
" />
<path d="M16.3873 20.2338
L16.4477 20.1129
" />
<path d="M16.4477 20.1129
L16.5687 20.0524
" />
<path d="M16.5687 20.0524
L16.8711 20.0524
" />
<path d="M16.8711 20.0524
L16.9920 19.9919
" />
<path d="M17.7782 20.5362
L17.6572 20.4758
" />
<path d="M17.6572 20.4758
L17.5967 20.3548
" />
<path d="M17.5967 20.3548
L17.5967 19.2662
" />
<path d="M18.1410 19.6896
L18.4434 20.5362
" />
<path d="M18.4434 20.5362
L18.7457 19.6896
" />
<path d="M19.7133 20.4758
L19.5924 20.5362
" />
<path d="M19.5924 20.5362
L19.3505 20.5362
" />
<path d="M19.3505 20.5362
L19.2295 20.4758
" />
<path d="M19.2295 20.4758
L19.1691 20.3548
" />
<path d="M19.1691 20.3548
L19.1691 19.8710
" />
<path d="M19.1691 19.8710
L19.2295 19.7500
" />
<path d="M19.2295 19.7500
L19.3505 19.6896
" />
<path d="M19.3505 19.6896
L19.5924 19.6896
" />
<path d="M19.5924 19.6896
L19.7133 19.7500
" />
<path d="M19.7133 19.7500
L19.7738 19.8710
" />
<path d="M19.7738 19.8710
L19.7738 19.9919
" />
<path d="M19.7738 19.9919
L19.1691 20.1129
" />
<path d="M20.4996 20.4153
L20.5600 20.4758
" />
<path d="M20.5600 20.4758
L20.4996 20.5362
" />
<path d="M20.4996 20.5362
L20.4391 20.4758
" />
<path d="M20.4391 20.4758
L20.4996 20.4153
" />
<path d="M20.4996 20.4153
L20.4996 20.5362
" />
<path d="M20.2577 19.3267
L20.3786 19.2662
" />
<path d="M20.3786 19.2662
L20.6810 19.2662
" />
<path d="M20.6810 19.2662
L20.8019 19.3267
" />
<path d="M20.8019 19.3267
L20.8624 19.4477
" />
<path d="M20.8624 19.4477
L20.8624 19.5686
" />
<path d="M20.8624 19.5686
L20.8019 19.6896
" />
<path d="M20.8019 19.6896
L20.7415 19.7500
" />
<path d="M20.7415 19.7500
L20.6205 19.8105
" />
<path d="M20.6205 19.8105
L20.5600 19.8710
" />
<path d="M20.5600 19.8710
L20.4996 19.9919
" />
<path d="M20.4996 19.9919
L20.4996 20.0524
" />
</g></g> 
</svg>
