<?xml version="1.0" standalone="no"?>
 <!DOCTYPE svg PUBLIC "-//W3C//DTD SVG 1.1//EN" 
 "http://www.w3.org/Graphics/SVG/1.1/DTD/svg11.dtd"> 
<svg
  xmlns:svg="http://www.w3.org/2000/svg"
  xmlns="http://www.w3.org/2000/svg"
  xmlns:xlink="http://www.w3.org/1999/xlink"
  version="1.1"
  width="31.7500mm" height="34.4424mm" viewBox="0.0000 0.0000 31.7500 34.4424">
<title>SVG Image created as valve - angle globe.svg date 2024/12/15 16:48:06 </title>
  <desc>Image generated by Eeschema-SVG </desc>
<g style="fill:#000000; fill-opacity:1.0000;stroke:#000000; stroke-opacity:1.0000;
stroke-linecap:round; stroke-linejoin:round;"
 transform="translate(0 0) scale(1 1)">
<path style="fill:none; 
stroke:#840000; stroke-width:0.1000; stroke-opacity:1; 
stroke-linecap:round; stroke-linejoin:round;fill:none"
d="M 20.3182,20.5482
15.3182,18.5482
15.3182,22.5482
Z" /> 
<path style="fill:none; 
stroke:#840000; stroke-width:0.1000; stroke-opacity:1; 
stroke-linecap:round; stroke-linejoin:round;fill:none"
d="M 20.3182,20.5482
18.3182,15.5482
22.3182,15.5482
Z" /> 
</g>
<g style="fill:#840000; fill-opacity:1.0000; 
stroke:#840000; stroke-width:0.1524; stroke-opacity:1; 
stroke-linecap:round; stroke-linejoin:round;">
<circle cx="20.3182" cy="20.5482" r="0.5000" /> 
</g>
<g style="fill:none; 
stroke:#840000; stroke-width:0.1524; stroke-opacity:1; 
stroke-linecap:round; stroke-linejoin:round;">
<path d="M15.3182 20.5482
L12.3182 20.5482
" />
<path d="M20.3182 15.5482
L20.3182 12.5482
" />
</g>
<g style="fill:none; 
stroke:#006464; stroke-width:0.1588; stroke-opacity:1; 
stroke-linecap:round; stroke-linejoin:round;">
<text x="20.3182" y="31.1833"
textLength="18.6674" font-size="1.6933" lengthAdjust="spacingAndGlyphs"
text-anchor="middle" opacity="0" stroke-opacity="0">Angle_Globe_Valve?</text>
<g class="stroked-text"><desc>Angle_Globe_Valve?</desc>
<path d="M11.3376 30.7647
L11.9423 30.7647
" />
<path d="M11.2166 31.1275
L11.6399 29.8575
" />
<path d="M11.6399 29.8575
L12.0633 31.1275
" />
<path d="M12.4866 30.2809
L12.4866 31.1275
" />
<path d="M12.4866 30.4018
L12.5471 30.3413
" />
<path d="M12.5471 30.3413
L12.6681 30.2809
" />
<path d="M12.6681 30.2809
L12.8495 30.2809
" />
<path d="M12.8495 30.2809
L12.9704 30.3413
" />
<path d="M12.9704 30.3413
L13.0309 30.4623
" />
<path d="M13.0309 30.4623
L13.0309 31.1275
" />
<path d="M14.1799 30.2809
L14.1799 31.3090
" />
<path d="M14.1799 31.3090
L14.1194 31.4299
" />
<path d="M14.1194 31.4299
L14.0590 31.4904
" />
<path d="M14.0590 31.4904
L13.9380 31.5509
" />
<path d="M13.9380 31.5509
L13.7566 31.5509
" />
<path d="M13.7566 31.5509
L13.6356 31.4904
" />
<path d="M14.1799 31.0671
L14.0590 31.1275
" />
<path d="M14.0590 31.1275
L13.8171 31.1275
" />
<path d="M13.8171 31.1275
L13.6961 31.0671
" />
<path d="M13.6961 31.0671
L13.6356 31.0066
" />
<path d="M13.6356 31.0066
L13.5752 30.8856
" />
<path d="M13.5752 30.8856
L13.5752 30.5228
" />
<path d="M13.5752 30.5228
L13.6356 30.4018
" />
<path d="M13.6356 30.4018
L13.6961 30.3413
" />
<path d="M13.6961 30.3413
L13.8171 30.2809
" />
<path d="M13.8171 30.2809
L14.0590 30.2809
" />
<path d="M14.0590 30.2809
L14.1799 30.3413
" />
<path d="M14.9661 31.1275
L14.8451 31.0671
" />
<path d="M14.8451 31.0671
L14.7846 30.9461
" />
<path d="M14.7846 30.9461
L14.7846 29.8575
" />
<path d="M15.9336 31.0671
L15.8127 31.1275
" />
<path d="M15.8127 31.1275
L15.5708 31.1275
" />
<path d="M15.5708 31.1275
L15.4498 31.0671
" />
<path d="M15.4498 31.0671
L15.3894 30.9461
" />
<path d="M15.3894 30.9461
L15.3894 30.4623
" />
<path d="M15.3894 30.4623
L15.4498 30.3413
" />
<path d="M15.4498 30.3413
L15.5708 30.2809
" />
<path d="M15.5708 30.2809
L15.8127 30.2809
" />
<path d="M15.8127 30.2809
L15.9336 30.3413
" />
<path d="M15.9336 30.3413
L15.9941 30.4623
" />
<path d="M15.9941 30.4623
L15.9941 30.5832
" />
<path d="M15.9941 30.5832
L15.3894 30.7042
" />
<path d="M16.2361 31.2485
L17.2037 31.2485
" />
<path d="M18.1713 29.9180
L18.0503 29.8575
" />
<path d="M18.0503 29.8575
L17.8689 29.8575
" />
<path d="M17.8689 29.8575
L17.6875 29.9180
" />
<path d="M17.6875 29.9180
L17.5665 30.0390
" />
<path d="M17.5665 30.0390
L17.5060 30.1599
" />
<path d="M17.5060 30.1599
L17.4456 30.4018
" />
<path d="M17.4456 30.4018
L17.4456 30.5832
" />
<path d="M17.4456 30.5832
L17.5060 30.8251
" />
<path d="M17.5060 30.8251
L17.5665 30.9461
" />
<path d="M17.5665 30.9461
L17.6875 31.0671
" />
<path d="M17.6875 31.0671
L17.8689 31.1275
" />
<path d="M17.8689 31.1275
L17.9898 31.1275
" />
<path d="M17.9898 31.1275
L18.1713 31.0671
" />
<path d="M18.1713 31.0671
L18.2317 31.0066
" />
<path d="M18.2317 31.0066
L18.2317 30.5832
" />
<path d="M18.2317 30.5832
L17.9898 30.5832
" />
<path d="M18.9575 31.1275
L18.8365 31.0671
" />
<path d="M18.8365 31.0671
L18.7760 30.9461
" />
<path d="M18.7760 30.9461
L18.7760 29.8575
" />
<path d="M19.6227 31.1275
L19.5017 31.0671
" />
<path d="M19.5017 31.0671
L19.4412 31.0066
" />
<path d="M19.4412 31.0066
L19.3808 30.8856
" />
<path d="M19.3808 30.8856
L19.3808 30.5228
" />
<path d="M19.3808 30.5228
L19.4412 30.4018
" />
<path d="M19.4412 30.4018
L19.5017 30.3413
" />
<path d="M19.5017 30.3413
L19.6227 30.2809
" />
<path d="M19.6227 30.2809
L19.8041 30.2809
" />
<path d="M19.8041 30.2809
L19.9250 30.3413
" />
<path d="M19.9250 30.3413
L19.9855 30.4018
" />
<path d="M19.9855 30.4018
L20.0460 30.5228
" />
<path d="M20.0460 30.5228
L20.0460 30.8856
" />
<path d="M20.0460 30.8856
L19.9855 31.0066
" />
<path d="M19.9855 31.0066
L19.9250 31.0671
" />
<path d="M19.9250 31.0671
L19.8041 31.1275
" />
<path d="M19.8041 31.1275
L19.6227 31.1275
" />
<path d="M20.5902 31.1275
L20.5902 29.8575
" />
<path d="M20.5902 30.3413
L20.7112 30.2809
" />
<path d="M20.7112 30.2809
L20.9531 30.2809
" />
<path d="M20.9531 30.2809
L21.0740 30.3413
" />
<path d="M21.0740 30.3413
L21.1345 30.4018
" />
<path d="M21.1345 30.4018
L21.1950 30.5228
" />
<path d="M21.1950 30.5228
L21.1950 30.8856
" />
<path d="M21.1950 30.8856
L21.1345 31.0066
" />
<path d="M21.1345 31.0066
L21.0740 31.0671
" />
<path d="M21.0740 31.0671
L20.9531 31.1275
" />
<path d="M20.9531 31.1275
L20.7112 31.1275
" />
<path d="M20.7112 31.1275
L20.5902 31.0671
" />
<path d="M22.2230 31.0671
L22.1021 31.1275
" />
<path d="M22.1021 31.1275
L21.8602 31.1275
" />
<path d="M21.8602 31.1275
L21.7392 31.0671
" />
<path d="M21.7392 31.0671
L21.6788 30.9461
" />
<path d="M21.6788 30.9461
L21.6788 30.4623
" />
<path d="M21.6788 30.4623
L21.7392 30.3413
" />
<path d="M21.7392 30.3413
L21.8602 30.2809
" />
<path d="M21.8602 30.2809
L22.1021 30.2809
" />
<path d="M22.1021 30.2809
L22.2230 30.3413
" />
<path d="M22.2230 30.3413
L22.2835 30.4623
" />
<path d="M22.2835 30.4623
L22.2835 30.5832
" />
<path d="M22.2835 30.5832
L21.6788 30.7042
" />
<path d="M22.5255 31.2485
L23.4931 31.2485
" />
<path d="M23.6140 29.8575
L24.0373 31.1275
" />
<path d="M24.0373 31.1275
L24.4607 29.8575
" />
<path d="M25.4283 31.1275
L25.4283 30.4623
" />
<path d="M25.4283 30.4623
L25.3678 30.3413
" />
<path d="M25.3678 30.3413
L25.2469 30.2809
" />
<path d="M25.2469 30.2809
L25.0050 30.2809
" />
<path d="M25.0050 30.2809
L24.8840 30.3413
" />
<path d="M25.4283 31.0671
L25.3074 31.1275
" />
<path d="M25.3074 31.1275
L25.0050 31.1275
" />
<path d="M25.0050 31.1275
L24.8840 31.0671
" />
<path d="M24.8840 31.0671
L24.8236 30.9461
" />
<path d="M24.8236 30.9461
L24.8236 30.8251
" />
<path d="M24.8236 30.8251
L24.8840 30.7042
" />
<path d="M24.8840 30.7042
L25.0050 30.6437
" />
<path d="M25.0050 30.6437
L25.3074 30.6437
" />
<path d="M25.3074 30.6437
L25.4283 30.5832
" />
<path d="M26.2145 31.1275
L26.0935 31.0671
" />
<path d="M26.0935 31.0671
L26.0330 30.9461
" />
<path d="M26.0330 30.9461
L26.0330 29.8575
" />
<path d="M26.5773 30.2809
L26.8797 31.1275
" />
<path d="M26.8797 31.1275
L27.1820 30.2809
" />
<path d="M28.1496 31.0671
L28.0287 31.1275
" />
<path d="M28.0287 31.1275
L27.7868 31.1275
" />
<path d="M27.7868 31.1275
L27.6658 31.0671
" />
<path d="M27.6658 31.0671
L27.6054 30.9461
" />
<path d="M27.6054 30.9461
L27.6054 30.4623
" />
<path d="M27.6054 30.4623
L27.6658 30.3413
" />
<path d="M27.6658 30.3413
L27.7868 30.2809
" />
<path d="M27.7868 30.2809
L28.0287 30.2809
" />
<path d="M28.0287 30.2809
L28.1496 30.3413
" />
<path d="M28.1496 30.3413
L28.2101 30.4623
" />
<path d="M28.2101 30.4623
L28.2101 30.5832
" />
<path d="M28.2101 30.5832
L27.6054 30.7042
" />
<path d="M28.9359 31.0066
L28.9963 31.0671
" />
<path d="M28.9963 31.0671
L28.9359 31.1275
" />
<path d="M28.9359 31.1275
L28.8754 31.0671
" />
<path d="M28.8754 31.0671
L28.9359 31.0066
" />
<path d="M28.9359 31.0066
L28.9359 31.1275
" />
<path d="M28.6940 29.9180
L28.8149 29.8575
" />
<path d="M28.8149 29.8575
L29.1173 29.8575
" />
<path d="M29.1173 29.8575
L29.2382 29.9180
" />
<path d="M29.2382 29.9180
L29.2987 30.0390
" />
<path d="M29.2987 30.0390
L29.2987 30.1599
" />
<path d="M29.2987 30.1599
L29.2382 30.2809
" />
<path d="M29.2382 30.2809
L29.1778 30.3413
" />
<path d="M29.1778 30.3413
L29.0568 30.4018
" />
<path d="M29.0568 30.4018
L28.9963 30.4623
" />
<path d="M28.9963 30.4623
L28.9359 30.5832
" />
<path d="M28.9359 30.5832
L28.9359 30.6437
" />
</g></g> 
</svg>
