<?xml version="1.0" standalone="no"?>
 <!DOCTYPE svg PUBLIC "-//W3C//DTD SVG 1.1//EN" 
 "http://www.w3.org/Graphics/SVG/1.1/DTD/svg11.dtd"> 
<svg
  xmlns:svg="http://www.w3.org/2000/svg"
  xmlns="http://www.w3.org/2000/svg"
  xmlns:xlink="http://www.w3.org/1999/xlink"
  version="1.1"
  width="42.4180mm" height="22.8854mm" viewBox="0.0000 0.0000 42.4180 22.8854">
<title>SVG Image created as valve - butterfly.svg date 2024/12/15 16:48:06 </title>
  <desc>Image generated by Eeschema-SVG </desc>
<g style="fill:#000000; fill-opacity:1.0000;stroke:#000000; stroke-opacity:1.0000;
stroke-linecap:round; stroke-linejoin:round;"
 transform="translate(0 0) scale(1 1)">
<path style="fill:none; 
stroke:#840000; stroke-width:0.1000; stroke-opacity:1; 
stroke-linecap:round; stroke-linejoin:round;fill:none"
d="M 16.2090,7.9569
16.2090,11.9569
" /> 
<path style="fill:none; 
stroke:#840000; stroke-width:0.1000; stroke-opacity:1; 
stroke-linecap:round; stroke-linejoin:round;fill:none"
d="M 16.7090,11.7069
21.2090,9.9569
" /> 
<path style="fill:none; 
stroke:#840000; stroke-width:0.1000; stroke-opacity:1; 
stroke-linecap:round; stroke-linejoin:round;fill:none"
d="M 21.2090,9.9569
25.7090,8.2069
" /> 
<path style="fill:none; 
stroke:#840000; stroke-width:0.1000; stroke-opacity:1; 
stroke-linecap:round; stroke-linejoin:round;fill:none"
d="M 26.2090,7.9569
26.2090,11.9569
" /> 
</g>
<g style="fill:#840000; fill-opacity:1.0000; 
stroke:#840000; stroke-width:0.1524; stroke-opacity:1; 
stroke-linecap:round; stroke-linejoin:round;">
<circle cx="21.2090" cy="9.9569" r="0.5000" /> 
</g>
<g style="fill:none; 
stroke:#840000; stroke-width:0.1524; stroke-opacity:1; 
stroke-linecap:round; stroke-linejoin:round;">
<path d="M16.2090 9.9569
L13.2090 9.9569
" />
<path d="M26.2090 9.9569
L29.2090 9.9569
" />
</g>
<g style="fill:none; 
stroke:#006464; stroke-width:0.1588; stroke-opacity:1; 
stroke-linecap:round; stroke-linejoin:round;">
<text x="21.2090" y="20.5920"
textLength="15.3413" font-size="1.6933" lengthAdjust="spacingAndGlyphs"
text-anchor="middle" opacity="0" stroke-opacity="0">Butterfly_Valve?</text>
<g class="stroked-text"><desc>Butterfly_Valve?</desc>
<path d="M14.3753 19.8710
L14.5567 19.9315
" />
<path d="M14.5567 19.9315
L14.6172 19.9919
" />
<path d="M14.6172 19.9919
L14.6776 20.1129
" />
<path d="M14.6776 20.1129
L14.6776 20.2943
" />
<path d="M14.6776 20.2943
L14.6172 20.4153
" />
<path d="M14.6172 20.4153
L14.5567 20.4758
" />
<path d="M14.5567 20.4758
L14.4357 20.5362
" />
<path d="M14.4357 20.5362
L13.9519 20.5362
" />
<path d="M13.9519 20.5362
L13.9519 19.2662
" />
<path d="M13.9519 19.2662
L14.3753 19.2662
" />
<path d="M14.3753 19.2662
L14.4962 19.3267
" />
<path d="M14.4962 19.3267
L14.5567 19.3872
" />
<path d="M14.5567 19.3872
L14.6172 19.5081
" />
<path d="M14.6172 19.5081
L14.6172 19.6291
" />
<path d="M14.6172 19.6291
L14.5567 19.7500
" />
<path d="M14.5567 19.7500
L14.4962 19.8105
" />
<path d="M14.4962 19.8105
L14.3753 19.8710
" />
<path d="M14.3753 19.8710
L13.9519 19.8710
" />
<path d="M15.7662 19.6896
L15.7662 20.5362
" />
<path d="M15.2219 19.6896
L15.2219 20.3548
" />
<path d="M15.2219 20.3548
L15.2824 20.4758
" />
<path d="M15.2824 20.4758
L15.4034 20.5362
" />
<path d="M15.4034 20.5362
L15.5848 20.5362
" />
<path d="M15.5848 20.5362
L15.7057 20.4758
" />
<path d="M15.7057 20.4758
L15.7662 20.4153
" />
<path d="M16.1895 19.6896
L16.6733 19.6896
" />
<path d="M16.3709 19.2662
L16.3709 20.3548
" />
<path d="M16.3709 20.3548
L16.4314 20.4758
" />
<path d="M16.4314 20.4758
L16.5524 20.5362
" />
<path d="M16.5524 20.5362
L16.6733 20.5362
" />
<path d="M16.9152 19.6896
L17.3990 19.6896
" />
<path d="M17.0966 19.2662
L17.0966 20.3548
" />
<path d="M17.0966 20.3548
L17.1571 20.4758
" />
<path d="M17.1571 20.4758
L17.2781 20.5362
" />
<path d="M17.2781 20.5362
L17.3990 20.5362
" />
<path d="M18.3061 20.4758
L18.1852 20.5362
" />
<path d="M18.1852 20.5362
L17.9433 20.5362
" />
<path d="M17.9433 20.5362
L17.8223 20.4758
" />
<path d="M17.8223 20.4758
L17.7619 20.3548
" />
<path d="M17.7619 20.3548
L17.7619 19.8710
" />
<path d="M17.7619 19.8710
L17.8223 19.7500
" />
<path d="M17.8223 19.7500
L17.9433 19.6896
" />
<path d="M17.9433 19.6896
L18.1852 19.6896
" />
<path d="M18.1852 19.6896
L18.3061 19.7500
" />
<path d="M18.3061 19.7500
L18.3666 19.8710
" />
<path d="M18.3666 19.8710
L18.3666 19.9919
" />
<path d="M18.3666 19.9919
L17.7619 20.1129
" />
<path d="M18.9109 20.5362
L18.9109 19.6896
" />
<path d="M18.9109 19.9315
L18.9714 19.8105
" />
<path d="M18.9714 19.8105
L19.0319 19.7500
" />
<path d="M19.0319 19.7500
L19.1528 19.6896
" />
<path d="M19.1528 19.6896
L19.2738 19.6896
" />
<path d="M19.5157 19.6896
L19.9995 19.6896
" />
<path d="M19.6971 20.5362
L19.6971 19.4477
" />
<path d="M19.6971 19.4477
L19.7576 19.3267
" />
<path d="M19.7576 19.3267
L19.8786 19.2662
" />
<path d="M19.8786 19.2662
L19.9995 19.2662
" />
<path d="M20.6043 20.5362
L20.4833 20.4758
" />
<path d="M20.4833 20.4758
L20.4228 20.3548
" />
<path d="M20.4228 20.3548
L20.4228 19.2662
" />
<path d="M20.9671 19.6896
L21.2695 20.5362
" />
<path d="M21.5718 19.6896
L21.2695 20.5362
" />
<path d="M21.2695 20.5362
L21.1485 20.8386
" />
<path d="M21.1485 20.8386
L21.0880 20.8991
" />
<path d="M21.0880 20.8991
L20.9671 20.9596
" />
<path d="M21.7533 20.6572
L22.7209 20.6572
" />
<path d="M22.8418 19.2662
L23.2651 20.5362
" />
<path d="M23.2651 20.5362
L23.6885 19.2662
" />
<path d="M24.6561 20.5362
L24.6561 19.8710
" />
<path d="M24.6561 19.8710
L24.5956 19.7500
" />
<path d="M24.5956 19.7500
L24.4747 19.6896
" />
<path d="M24.4747 19.6896
L24.2328 19.6896
" />
<path d="M24.2328 19.6896
L24.1118 19.7500
" />
<path d="M24.6561 20.4758
L24.5352 20.5362
" />
<path d="M24.5352 20.5362
L24.2328 20.5362
" />
<path d="M24.2328 20.5362
L24.1118 20.4758
" />
<path d="M24.1118 20.4758
L24.0514 20.3548
" />
<path d="M24.0514 20.3548
L24.0514 20.2338
" />
<path d="M24.0514 20.2338
L24.1118 20.1129
" />
<path d="M24.1118 20.1129
L24.2328 20.0524
" />
<path d="M24.2328 20.0524
L24.5352 20.0524
" />
<path d="M24.5352 20.0524
L24.6561 19.9919
" />
<path d="M25.4423 20.5362
L25.3213 20.4758
" />
<path d="M25.3213 20.4758
L25.2608 20.3548
" />
<path d="M25.2608 20.3548
L25.2608 19.2662
" />
<path d="M25.8051 19.6896
L26.1075 20.5362
" />
<path d="M26.1075 20.5362
L26.4098 19.6896
" />
<path d="M27.3774 20.4758
L27.2565 20.5362
" />
<path d="M27.2565 20.5362
L27.0146 20.5362
" />
<path d="M27.0146 20.5362
L26.8936 20.4758
" />
<path d="M26.8936 20.4758
L26.8332 20.3548
" />
<path d="M26.8332 20.3548
L26.8332 19.8710
" />
<path d="M26.8332 19.8710
L26.8936 19.7500
" />
<path d="M26.8936 19.7500
L27.0146 19.6896
" />
<path d="M27.0146 19.6896
L27.2565 19.6896
" />
<path d="M27.2565 19.6896
L27.3774 19.7500
" />
<path d="M27.3774 19.7500
L27.4379 19.8710
" />
<path d="M27.4379 19.8710
L27.4379 19.9919
" />
<path d="M27.4379 19.9919
L26.8332 20.1129
" />
<path d="M28.1637 20.4153
L28.2241 20.4758
" />
<path d="M28.2241 20.4758
L28.1637 20.5362
" />
<path d="M28.1637 20.5362
L28.1032 20.4758
" />
<path d="M28.1032 20.4758
L28.1637 20.4153
" />
<path d="M28.1637 20.4153
L28.1637 20.5362
" />
<path d="M27.9218 19.3267
L28.0427 19.2662
" />
<path d="M28.0427 19.2662
L28.3451 19.2662
" />
<path d="M28.3451 19.2662
L28.4660 19.3267
" />
<path d="M28.4660 19.3267
L28.5265 19.4477
" />
<path d="M28.5265 19.4477
L28.5265 19.5686
" />
<path d="M28.5265 19.5686
L28.4660 19.6896
" />
<path d="M28.4660 19.6896
L28.4056 19.7500
" />
<path d="M28.4056 19.7500
L28.2846 19.8105
" />
<path d="M28.2846 19.8105
L28.2241 19.8710
" />
<path d="M28.2241 19.8710
L28.1637 19.9919
" />
<path d="M28.1637 19.9919
L28.1637 20.0524
" />
</g></g> 
</svg>
