<?xml version="1.0" standalone="no"?>
 <!DOCTYPE svg PUBLIC "-//W3C//DTD SVG 1.1//EN" 
 "http://www.w3.org/Graphics/SVG/1.1/DTD/svg11.dtd"> 
<svg
  xmlns:svg="http://www.w3.org/2000/svg"
  xmlns="http://www.w3.org/2000/svg"
  xmlns:xlink="http://www.w3.org/1999/xlink"
  version="1.1"
  width="40.1828mm" height="34.7726mm" viewBox="0.0000 0.0000 40.1828 34.7726">
<title>SVG Image created as valve - pressure and vacuum relief.svg date 2024/12/16 14:50:34 </title>
  <desc>Image generated by Eeschema-SVG </desc>
<g style="fill:#000000; fill-opacity:1.0000;stroke:#000000; stroke-opacity:1.0000;
stroke-linecap:round; stroke-linejoin:round;"
 transform="translate(0 0) scale(1 1)">
<path style="fill:none; 
stroke:#840000; stroke-width:0.1000; stroke-opacity:1; 
stroke-linecap:round; stroke-linejoin:round;fill:none"
d="M 19.0914,24.8494
21.0914,23.8494
" /> 
<path style="fill:none; 
stroke:#840000; stroke-width:0.1000; stroke-opacity:1; 
stroke-linecap:round; stroke-linejoin:round;fill:none"
d="M 19.0914,23.8494
21.0914,22.8494
" /> 
<path style="fill:none; 
stroke:#840000; stroke-width:0.1000; stroke-opacity:1; 
stroke-linecap:round; stroke-linejoin:round;fill:none"
d="M 19.0914,22.8494
21.0914,21.8494
" /> 
<path style="fill:none; 
stroke:#840000; stroke-width:0.1000; stroke-opacity:1; 
stroke-linecap:round; stroke-linejoin:round;fill:none"
d="M 20.0914,20.8494
20.0914,24.8494
" /> 
<path style="fill:none; 
stroke:#840000; stroke-width:0.1000; stroke-opacity:1; 
stroke-linecap:round; stroke-linejoin:round;fill:none"
d="M 20.0914,20.8494
15.0914,18.8494
15.0914,22.8494
Z" /> 
<path style="fill:none; 
stroke:#840000; stroke-width:0.1000; stroke-opacity:1; 
stroke-linecap:round; stroke-linejoin:round;fill:none"
d="M 20.0914,20.8494
18.0914,15.8494
22.0914,15.8494
Z" /> 
<path style="fill:none; 
stroke:#840000; stroke-width:0.1000; stroke-opacity:1; 
stroke-linecap:round; stroke-linejoin:round;fill:none"
d="M 20.0914,20.8494
25.0914,18.8494
25.0914,22.8494
Z" /> 
<path style="fill:#840000; fill-opacity:1.0000; 
stroke:#840000; stroke-width:0.1000; stroke-opacity:1; 
stroke-linecap:round; stroke-linejoin:round;fill-rule:evenodd;"
d="M 20.0914,12.8494
19.8414,13.8494
20.3414,13.8494
Z" /> 
</g>
<g style="fill:none; 
stroke:#840000; stroke-width:0.1524; stroke-opacity:1; 
stroke-linecap:round; stroke-linejoin:round;">
<path d="M15.0914 20.8494
L12.0914 20.8494
" />
<path d="M20.0914 15.8494
L20.0914 12.8494
" />
<path d="M25.0914 20.8494
L28.0914 20.8494
" />
</g>
<g style="fill:none; 
stroke:#006464; stroke-width:0.1588; stroke-opacity:1; 
stroke-linecap:round; stroke-linejoin:round;">
<text x="20.0914" y="31.4845"
textLength="34.5726" font-size="1.6933" lengthAdjust="spacingAndGlyphs"
text-anchor="middle" opacity="0" stroke-opacity="0">Pressure_and_Vacuum_Relief_Valve?</text>
<g class="stroked-text"><desc>Pressure_and_Vacuum_Relief_Valve?</desc>
<path d="M3.2186 31.4287
L3.2186 30.1587
" />
<path d="M3.2186 30.1587
L3.7024 30.1587
" />
<path d="M3.7024 30.1587
L3.8234 30.2192
" />
<path d="M3.8234 30.2192
L3.8839 30.2797
" />
<path d="M3.8839 30.2797
L3.9443 30.4006
" />
<path d="M3.9443 30.4006
L3.9443 30.5821
" />
<path d="M3.9443 30.5821
L3.8839 30.7030
" />
<path d="M3.8839 30.7030
L3.8234 30.7635
" />
<path d="M3.8234 30.7635
L3.7024 30.8240
" />
<path d="M3.7024 30.8240
L3.2186 30.8240
" />
<path d="M4.4886 31.4287
L4.4886 30.5821
" />
<path d="M4.4886 30.8240
L4.5491 30.7030
" />
<path d="M4.5491 30.7030
L4.6096 30.6425
" />
<path d="M4.6096 30.6425
L4.7305 30.5821
" />
<path d="M4.7305 30.5821
L4.8515 30.5821
" />
<path d="M5.7586 31.3683
L5.6377 31.4287
" />
<path d="M5.6377 31.4287
L5.3958 31.4287
" />
<path d="M5.3958 31.4287
L5.2748 31.3683
" />
<path d="M5.2748 31.3683
L5.2144 31.2473
" />
<path d="M5.2144 31.2473
L5.2144 30.7635
" />
<path d="M5.2144 30.7635
L5.2748 30.6425
" />
<path d="M5.2748 30.6425
L5.3958 30.5821
" />
<path d="M5.3958 30.5821
L5.6377 30.5821
" />
<path d="M5.6377 30.5821
L5.7586 30.6425
" />
<path d="M5.7586 30.6425
L5.8191 30.7635
" />
<path d="M5.8191 30.7635
L5.8191 30.8844
" />
<path d="M5.8191 30.8844
L5.2144 31.0054
" />
<path d="M6.3030 31.3683
L6.4239 31.4287
" />
<path d="M6.4239 31.4287
L6.6658 31.4287
" />
<path d="M6.6658 31.4287
L6.7868 31.3683
" />
<path d="M6.7868 31.3683
L6.8472 31.2473
" />
<path d="M6.8472 31.2473
L6.8472 31.1868
" />
<path d="M6.8472 31.1868
L6.7868 31.0659
" />
<path d="M6.7868 31.0659
L6.6658 31.0054
" />
<path d="M6.6658 31.0054
L6.4844 31.0054
" />
<path d="M6.4844 31.0054
L6.3634 30.9449
" />
<path d="M6.3634 30.9449
L6.3030 30.8240
" />
<path d="M6.3030 30.8240
L6.3030 30.7635
" />
<path d="M6.3030 30.7635
L6.3634 30.6425
" />
<path d="M6.3634 30.6425
L6.4844 30.5821
" />
<path d="M6.4844 30.5821
L6.6658 30.5821
" />
<path d="M6.6658 30.5821
L6.7868 30.6425
" />
<path d="M7.3311 31.3683
L7.4520 31.4287
" />
<path d="M7.4520 31.4287
L7.6939 31.4287
" />
<path d="M7.6939 31.4287
L7.8149 31.3683
" />
<path d="M7.8149 31.3683
L7.8753 31.2473
" />
<path d="M7.8753 31.2473
L7.8753 31.1868
" />
<path d="M7.8753 31.1868
L7.8149 31.0659
" />
<path d="M7.8149 31.0659
L7.6939 31.0054
" />
<path d="M7.6939 31.0054
L7.5125 31.0054
" />
<path d="M7.5125 31.0054
L7.3915 30.9449
" />
<path d="M7.3915 30.9449
L7.3311 30.8240
" />
<path d="M7.3311 30.8240
L7.3311 30.7635
" />
<path d="M7.3311 30.7635
L7.3915 30.6425
" />
<path d="M7.3915 30.6425
L7.5125 30.5821
" />
<path d="M7.5125 30.5821
L7.6939 30.5821
" />
<path d="M7.6939 30.5821
L7.8149 30.6425
" />
<path d="M8.9639 30.5821
L8.9639 31.4287
" />
<path d="M8.4196 30.5821
L8.4196 31.2473
" />
<path d="M8.4196 31.2473
L8.4801 31.3683
" />
<path d="M8.4801 31.3683
L8.6011 31.4287
" />
<path d="M8.6011 31.4287
L8.7825 31.4287
" />
<path d="M8.7825 31.4287
L8.9034 31.3683
" />
<path d="M8.9034 31.3683
L8.9639 31.3078
" />
<path d="M9.5686 31.4287
L9.5686 30.5821
" />
<path d="M9.5686 30.8240
L9.6291 30.7030
" />
<path d="M9.6291 30.7030
L9.6896 30.6425
" />
<path d="M9.6896 30.6425
L9.8105 30.5821
" />
<path d="M9.8105 30.5821
L9.9315 30.5821
" />
<path d="M10.8386 31.3683
L10.7177 31.4287
" />
<path d="M10.7177 31.4287
L10.4758 31.4287
" />
<path d="M10.4758 31.4287
L10.3548 31.3683
" />
<path d="M10.3548 31.3683
L10.2944 31.2473
" />
<path d="M10.2944 31.2473
L10.2944 30.7635
" />
<path d="M10.2944 30.7635
L10.3548 30.6425
" />
<path d="M10.3548 30.6425
L10.4758 30.5821
" />
<path d="M10.4758 30.5821
L10.7177 30.5821
" />
<path d="M10.7177 30.5821
L10.8386 30.6425
" />
<path d="M10.8386 30.6425
L10.8991 30.7635
" />
<path d="M10.8991 30.7635
L10.8991 30.8844
" />
<path d="M10.8991 30.8844
L10.2944 31.0054
" />
<path d="M11.1411 31.5497
L12.1087 31.5497
" />
<path d="M12.9553 31.4287
L12.9553 30.7635
" />
<path d="M12.9553 30.7635
L12.8948 30.6425
" />
<path d="M12.8948 30.6425
L12.7739 30.5821
" />
<path d="M12.7739 30.5821
L12.5320 30.5821
" />
<path d="M12.5320 30.5821
L12.4110 30.6425
" />
<path d="M12.9553 31.3683
L12.8344 31.4287
" />
<path d="M12.8344 31.4287
L12.5320 31.4287
" />
<path d="M12.5320 31.4287
L12.4110 31.3683
" />
<path d="M12.4110 31.3683
L12.3506 31.2473
" />
<path d="M12.3506 31.2473
L12.3506 31.1263
" />
<path d="M12.3506 31.1263
L12.4110 31.0054
" />
<path d="M12.4110 31.0054
L12.5320 30.9449
" />
<path d="M12.5320 30.9449
L12.8344 30.9449
" />
<path d="M12.8344 30.9449
L12.9553 30.8844
" />
<path d="M13.5600 30.5821
L13.5600 31.4287
" />
<path d="M13.5600 30.7030
L13.6205 30.6425
" />
<path d="M13.6205 30.6425
L13.7415 30.5821
" />
<path d="M13.7415 30.5821
L13.9229 30.5821
" />
<path d="M13.9229 30.5821
L14.0438 30.6425
" />
<path d="M14.0438 30.6425
L14.1043 30.7635
" />
<path d="M14.1043 30.7635
L14.1043 31.4287
" />
<path d="M15.2533 31.4287
L15.2533 30.1587
" />
<path d="M15.2533 31.3683
L15.1324 31.4287
" />
<path d="M15.1324 31.4287
L14.8905 31.4287
" />
<path d="M14.8905 31.4287
L14.7695 31.3683
" />
<path d="M14.7695 31.3683
L14.7090 31.3078
" />
<path d="M14.7090 31.3078
L14.6486 31.1868
" />
<path d="M14.6486 31.1868
L14.6486 30.8240
" />
<path d="M14.6486 30.8240
L14.7090 30.7030
" />
<path d="M14.7090 30.7030
L14.7695 30.6425
" />
<path d="M14.7695 30.6425
L14.8905 30.5821
" />
<path d="M14.8905 30.5821
L15.1324 30.5821
" />
<path d="M15.1324 30.5821
L15.2533 30.6425
" />
<path d="M15.5557 31.5497
L16.5233 31.5497
" />
<path d="M16.6442 30.1587
L17.0675 31.4287
" />
<path d="M17.0675 31.4287
L17.4909 30.1587
" />
<path d="M18.4585 31.4287
L18.4585 30.7635
" />
<path d="M18.4585 30.7635
L18.3980 30.6425
" />
<path d="M18.3980 30.6425
L18.2771 30.5821
" />
<path d="M18.2771 30.5821
L18.0352 30.5821
" />
<path d="M18.0352 30.5821
L17.9142 30.6425
" />
<path d="M18.4585 31.3683
L18.3376 31.4287
" />
<path d="M18.3376 31.4287
L18.0352 31.4287
" />
<path d="M18.0352 31.4287
L17.9142 31.3683
" />
<path d="M17.9142 31.3683
L17.8538 31.2473
" />
<path d="M17.8538 31.2473
L17.8538 31.1263
" />
<path d="M17.8538 31.1263
L17.9142 31.0054
" />
<path d="M17.9142 31.0054
L18.0352 30.9449
" />
<path d="M18.0352 30.9449
L18.3376 30.9449
" />
<path d="M18.3376 30.9449
L18.4585 30.8844
" />
<path d="M19.6075 31.3683
L19.4866 31.4287
" />
<path d="M19.4866 31.4287
L19.2447 31.4287
" />
<path d="M19.2447 31.4287
L19.1237 31.3683
" />
<path d="M19.1237 31.3683
L19.0632 31.3078
" />
<path d="M19.0632 31.3078
L19.0028 31.1868
" />
<path d="M19.0028 31.1868
L19.0028 30.8240
" />
<path d="M19.0028 30.8240
L19.0632 30.7030
" />
<path d="M19.0632 30.7030
L19.1237 30.6425
" />
<path d="M19.1237 30.6425
L19.2447 30.5821
" />
<path d="M19.2447 30.5821
L19.4866 30.5821
" />
<path d="M19.4866 30.5821
L19.6075 30.6425
" />
<path d="M20.6961 30.5821
L20.6961 31.4287
" />
<path d="M20.1518 30.5821
L20.1518 31.2473
" />
<path d="M20.1518 31.2473
L20.2123 31.3683
" />
<path d="M20.2123 31.3683
L20.3333 31.4287
" />
<path d="M20.3333 31.4287
L20.5147 31.4287
" />
<path d="M20.5147 31.4287
L20.6356 31.3683
" />
<path d="M20.6356 31.3683
L20.6961 31.3078
" />
<path d="M21.8451 30.5821
L21.8451 31.4287
" />
<path d="M21.3008 30.5821
L21.3008 31.2473
" />
<path d="M21.3008 31.2473
L21.3613 31.3683
" />
<path d="M21.3613 31.3683
L21.4823 31.4287
" />
<path d="M21.4823 31.4287
L21.6637 31.4287
" />
<path d="M21.6637 31.4287
L21.7846 31.3683
" />
<path d="M21.7846 31.3683
L21.8451 31.3078
" />
<path d="M22.4498 31.4287
L22.4498 30.5821
" />
<path d="M22.4498 30.7030
L22.5103 30.6425
" />
<path d="M22.5103 30.6425
L22.6313 30.5821
" />
<path d="M22.6313 30.5821
L22.8127 30.5821
" />
<path d="M22.8127 30.5821
L22.9336 30.6425
" />
<path d="M22.9336 30.6425
L22.9941 30.7635
" />
<path d="M22.9941 30.7635
L22.9941 31.4287
" />
<path d="M22.9941 30.7635
L23.0546 30.6425
" />
<path d="M23.0546 30.6425
L23.1755 30.5821
" />
<path d="M23.1755 30.5821
L23.3570 30.5821
" />
<path d="M23.3570 30.5821
L23.4779 30.6425
" />
<path d="M23.4779 30.6425
L23.5384 30.7635
" />
<path d="M23.5384 30.7635
L23.5384 31.4287
" />
<path d="M23.8408 31.5497
L24.8084 31.5497
" />
<path d="M25.8364 31.4287
L25.4131 30.8240
" />
<path d="M25.1107 31.4287
L25.1107 30.1587
" />
<path d="M25.1107 30.1587
L25.5945 30.1587
" />
<path d="M25.5945 30.1587
L25.7155 30.2192
" />
<path d="M25.7155 30.2192
L25.7760 30.2797
" />
<path d="M25.7760 30.2797
L25.8364 30.4006
" />
<path d="M25.8364 30.4006
L25.8364 30.5821
" />
<path d="M25.8364 30.5821
L25.7760 30.7030
" />
<path d="M25.7760 30.7030
L25.7155 30.7635
" />
<path d="M25.7155 30.7635
L25.5945 30.8240
" />
<path d="M25.5945 30.8240
L25.1107 30.8240
" />
<path d="M26.8645 31.3683
L26.7436 31.4287
" />
<path d="M26.7436 31.4287
L26.5017 31.4287
" />
<path d="M26.5017 31.4287
L26.3807 31.3683
" />
<path d="M26.3807 31.3683
L26.3203 31.2473
" />
<path d="M26.3203 31.2473
L26.3203 30.7635
" />
<path d="M26.3203 30.7635
L26.3807 30.6425
" />
<path d="M26.3807 30.6425
L26.5017 30.5821
" />
<path d="M26.5017 30.5821
L26.7436 30.5821
" />
<path d="M26.7436 30.5821
L26.8645 30.6425
" />
<path d="M26.8645 30.6425
L26.9250 30.7635
" />
<path d="M26.9250 30.7635
L26.9250 30.8844
" />
<path d="M26.9250 30.8844
L26.3203 31.0054
" />
<path d="M27.6508 31.4287
L27.5298 31.3683
" />
<path d="M27.5298 31.3683
L27.4693 31.2473
" />
<path d="M27.4693 31.2473
L27.4693 30.1587
" />
<path d="M28.1345 31.4287
L28.1345 30.5821
" />
<path d="M28.1345 30.1587
L28.0741 30.2192
" />
<path d="M28.0741 30.2192
L28.1345 30.2797
" />
<path d="M28.1345 30.2797
L28.1950 30.2192
" />
<path d="M28.1950 30.2192
L28.1345 30.1587
" />
<path d="M28.1345 30.1587
L28.1345 30.2797
" />
<path d="M29.2231 31.3683
L29.1022 31.4287
" />
<path d="M29.1022 31.4287
L28.8603 31.4287
" />
<path d="M28.8603 31.4287
L28.7393 31.3683
" />
<path d="M28.7393 31.3683
L28.6789 31.2473
" />
<path d="M28.6789 31.2473
L28.6789 30.7635
" />
<path d="M28.6789 30.7635
L28.7393 30.6425
" />
<path d="M28.7393 30.6425
L28.8603 30.5821
" />
<path d="M28.8603 30.5821
L29.1022 30.5821
" />
<path d="M29.1022 30.5821
L29.2231 30.6425
" />
<path d="M29.2231 30.6425
L29.2836 30.7635
" />
<path d="M29.2836 30.7635
L29.2836 30.8844
" />
<path d="M29.2836 30.8844
L28.6789 31.0054
" />
<path d="M29.6465 30.5821
L30.1303 30.5821
" />
<path d="M29.8279 31.4287
L29.8279 30.3402
" />
<path d="M29.8279 30.3402
L29.8884 30.2192
" />
<path d="M29.8884 30.2192
L30.0094 30.1587
" />
<path d="M30.0094 30.1587
L30.1303 30.1587
" />
<path d="M30.2513 31.5497
L31.2189 31.5497
" />
<path d="M31.3398 30.1587
L31.7631 31.4287
" />
<path d="M31.7631 31.4287
L32.1865 30.1587
" />
<path d="M33.1541 31.4287
L33.1541 30.7635
" />
<path d="M33.1541 30.7635
L33.0936 30.6425
" />
<path d="M33.0936 30.6425
L32.9727 30.5821
" />
<path d="M32.9727 30.5821
L32.7308 30.5821
" />
<path d="M32.7308 30.5821
L32.6098 30.6425
" />
<path d="M33.1541 31.3683
L33.0332 31.4287
" />
<path d="M33.0332 31.4287
L32.7308 31.4287
" />
<path d="M32.7308 31.4287
L32.6098 31.3683
" />
<path d="M32.6098 31.3683
L32.5494 31.2473
" />
<path d="M32.5494 31.2473
L32.5494 31.1263
" />
<path d="M32.5494 31.1263
L32.6098 31.0054
" />
<path d="M32.6098 31.0054
L32.7308 30.9449
" />
<path d="M32.7308 30.9449
L33.0332 30.9449
" />
<path d="M33.0332 30.9449
L33.1541 30.8844
" />
<path d="M33.9403 31.4287
L33.8193 31.3683
" />
<path d="M33.8193 31.3683
L33.7588 31.2473
" />
<path d="M33.7588 31.2473
L33.7588 30.1587
" />
<path d="M34.3031 30.5821
L34.6055 31.4287
" />
<path d="M34.6055 31.4287
L34.9078 30.5821
" />
<path d="M35.8754 31.3683
L35.7545 31.4287
" />
<path d="M35.7545 31.4287
L35.5126 31.4287
" />
<path d="M35.5126 31.4287
L35.3916 31.3683
" />
<path d="M35.3916 31.3683
L35.3312 31.2473
" />
<path d="M35.3312 31.2473
L35.3312 30.7635
" />
<path d="M35.3312 30.7635
L35.3916 30.6425
" />
<path d="M35.3916 30.6425
L35.5126 30.5821
" />
<path d="M35.5126 30.5821
L35.7545 30.5821
" />
<path d="M35.7545 30.5821
L35.8754 30.6425
" />
<path d="M35.8754 30.6425
L35.9359 30.7635
" />
<path d="M35.9359 30.7635
L35.9359 30.8844
" />
<path d="M35.9359 30.8844
L35.3312 31.0054
" />
<path d="M36.6617 31.3078
L36.7221 31.3683
" />
<path d="M36.7221 31.3683
L36.6617 31.4287
" />
<path d="M36.6617 31.4287
L36.6012 31.3683
" />
<path d="M36.6012 31.3683
L36.6617 31.3078
" />
<path d="M36.6617 31.3078
L36.6617 31.4287
" />
<path d="M36.4198 30.2192
L36.5407 30.1587
" />
<path d="M36.5407 30.1587
L36.8431 30.1587
" />
<path d="M36.8431 30.1587
L36.9640 30.2192
" />
<path d="M36.9640 30.2192
L37.0245 30.3402
" />
<path d="M37.0245 30.3402
L37.0245 30.4611
" />
<path d="M37.0245 30.4611
L36.9640 30.5821
" />
<path d="M36.9640 30.5821
L36.9036 30.6425
" />
<path d="M36.9036 30.6425
L36.7826 30.7030
" />
<path d="M36.7826 30.7030
L36.7221 30.7635
" />
<path d="M36.7221 30.7635
L36.6617 30.8844
" />
<path d="M36.6617 30.8844
L36.6617 30.9449
" />
</g></g> 
</svg>
