<?xml version="1.0" standalone="no"?>
 <!DOCTYPE svg PUBLIC "-//W3C//DTD SVG 1.1//EN" 
 "http://www.w3.org/Graphics/SVG/1.1/DTD/svg11.dtd"> 
<svg
  xmlns:svg="http://www.w3.org/2000/svg"
  xmlns="http://www.w3.org/2000/svg"
  xmlns:xlink="http://www.w3.org/1999/xlink"
  version="1.1"
  width="30.8610mm" height="34.4424mm" viewBox="0.0000 0.0000 30.8610 34.4424">
<title>SVG Image created as valve - angle ball.svg date 2024/12/16 14:50:35 </title>
  <desc>Image generated by Eeschema-SVG </desc>
<g style="fill:#000000; fill-opacity:1.0000;stroke:#000000; stroke-opacity:1.0000;
stroke-linecap:round; stroke-linejoin:round;"
 transform="translate(0 0) scale(1 1)">
<path style="fill:none; 
stroke:#840000; stroke-width:0.1000; stroke-opacity:1; 
stroke-linecap:round; stroke-linejoin:round;fill:none"
d="M 20.2434,20.5482
15.2434,18.5482
15.2434,22.5482
Z" /> 
<path style="fill:none; 
stroke:#840000; stroke-width:0.1000; stroke-opacity:1; 
stroke-linecap:round; stroke-linejoin:round;fill:none"
d="M 20.2434,20.5482
18.2434,15.5482
22.2434,15.5482
Z" /> 
</g>
<g style="fill:#840000; fill-opacity:1.0000; 
stroke:#840000; stroke-width:0.1524; stroke-opacity:1; 
stroke-linecap:round; stroke-linejoin:round;">
<circle cx="20.2434" cy="20.5482" r="1.5000" /> 
</g>
<g style="fill:none; 
stroke:#840000; stroke-width:0.1524; stroke-opacity:1; 
stroke-linecap:round; stroke-linejoin:round;">
<path d="M15.2434 20.5482
L12.2434 20.5482
" />
<path d="M20.2434 15.5482
L20.2434 12.5482
" />
</g>
<g style="fill:none; 
stroke:#006464; stroke-width:0.1588; stroke-opacity:1; 
stroke-linecap:round; stroke-linejoin:round;">
<text x="20.2434" y="31.1833"
textLength="17.0950" font-size="1.6933" lengthAdjust="spacingAndGlyphs"
text-anchor="middle" opacity="0" stroke-opacity="0">Angle_Ball_Valve?</text>
<g class="stroked-text"><desc>Angle_Ball_Valve?</desc>
<path d="M12.0490 30.7647
L12.6537 30.7647
" />
<path d="M11.9280 31.1275
L12.3513 29.8575
" />
<path d="M12.3513 29.8575
L12.7747 31.1275
" />
<path d="M13.1980 30.2809
L13.1980 31.1275
" />
<path d="M13.1980 30.4018
L13.2585 30.3413
" />
<path d="M13.2585 30.3413
L13.3795 30.2809
" />
<path d="M13.3795 30.2809
L13.5609 30.2809
" />
<path d="M13.5609 30.2809
L13.6818 30.3413
" />
<path d="M13.6818 30.3413
L13.7423 30.4623
" />
<path d="M13.7423 30.4623
L13.7423 31.1275
" />
<path d="M14.8913 30.2809
L14.8913 31.3090
" />
<path d="M14.8913 31.3090
L14.8308 31.4299
" />
<path d="M14.8308 31.4299
L14.7704 31.4904
" />
<path d="M14.7704 31.4904
L14.6494 31.5509
" />
<path d="M14.6494 31.5509
L14.4680 31.5509
" />
<path d="M14.4680 31.5509
L14.3470 31.4904
" />
<path d="M14.8913 31.0671
L14.7704 31.1275
" />
<path d="M14.7704 31.1275
L14.5285 31.1275
" />
<path d="M14.5285 31.1275
L14.4075 31.0671
" />
<path d="M14.4075 31.0671
L14.3470 31.0066
" />
<path d="M14.3470 31.0066
L14.2866 30.8856
" />
<path d="M14.2866 30.8856
L14.2866 30.5228
" />
<path d="M14.2866 30.5228
L14.3470 30.4018
" />
<path d="M14.3470 30.4018
L14.4075 30.3413
" />
<path d="M14.4075 30.3413
L14.5285 30.2809
" />
<path d="M14.5285 30.2809
L14.7704 30.2809
" />
<path d="M14.7704 30.2809
L14.8913 30.3413
" />
<path d="M15.6775 31.1275
L15.5565 31.0671
" />
<path d="M15.5565 31.0671
L15.4960 30.9461
" />
<path d="M15.4960 30.9461
L15.4960 29.8575
" />
<path d="M16.6450 31.0671
L16.5241 31.1275
" />
<path d="M16.5241 31.1275
L16.2822 31.1275
" />
<path d="M16.2822 31.1275
L16.1612 31.0671
" />
<path d="M16.1612 31.0671
L16.1008 30.9461
" />
<path d="M16.1008 30.9461
L16.1008 30.4623
" />
<path d="M16.1008 30.4623
L16.1612 30.3413
" />
<path d="M16.1612 30.3413
L16.2822 30.2809
" />
<path d="M16.2822 30.2809
L16.5241 30.2809
" />
<path d="M16.5241 30.2809
L16.6450 30.3413
" />
<path d="M16.6450 30.3413
L16.7055 30.4623
" />
<path d="M16.7055 30.4623
L16.7055 30.5832
" />
<path d="M16.7055 30.5832
L16.1008 30.7042
" />
<path d="M16.9475 31.2485
L17.9151 31.2485
" />
<path d="M18.6408 30.4623
L18.8222 30.5228
" />
<path d="M18.8222 30.5228
L18.8827 30.5832
" />
<path d="M18.8827 30.5832
L18.9431 30.7042
" />
<path d="M18.9431 30.7042
L18.9431 30.8856
" />
<path d="M18.9431 30.8856
L18.8827 31.0066
" />
<path d="M18.8827 31.0066
L18.8222 31.0671
" />
<path d="M18.8222 31.0671
L18.7012 31.1275
" />
<path d="M18.7012 31.1275
L18.2174 31.1275
" />
<path d="M18.2174 31.1275
L18.2174 29.8575
" />
<path d="M18.2174 29.8575
L18.6408 29.8575
" />
<path d="M18.6408 29.8575
L18.7617 29.9180
" />
<path d="M18.7617 29.9180
L18.8222 29.9785
" />
<path d="M18.8222 29.9785
L18.8827 30.0994
" />
<path d="M18.8827 30.0994
L18.8827 30.2204
" />
<path d="M18.8827 30.2204
L18.8222 30.3413
" />
<path d="M18.8222 30.3413
L18.7617 30.4018
" />
<path d="M18.7617 30.4018
L18.6408 30.4623
" />
<path d="M18.6408 30.4623
L18.2174 30.4623
" />
<path d="M20.0317 31.1275
L20.0317 30.4623
" />
<path d="M20.0317 30.4623
L19.9712 30.3413
" />
<path d="M19.9712 30.3413
L19.8503 30.2809
" />
<path d="M19.8503 30.2809
L19.6084 30.2809
" />
<path d="M19.6084 30.2809
L19.4874 30.3413
" />
<path d="M20.0317 31.0671
L19.9108 31.1275
" />
<path d="M19.9108 31.1275
L19.6084 31.1275
" />
<path d="M19.6084 31.1275
L19.4874 31.0671
" />
<path d="M19.4874 31.0671
L19.4270 30.9461
" />
<path d="M19.4270 30.9461
L19.4270 30.8251
" />
<path d="M19.4270 30.8251
L19.4874 30.7042
" />
<path d="M19.4874 30.7042
L19.6084 30.6437
" />
<path d="M19.6084 30.6437
L19.9108 30.6437
" />
<path d="M19.9108 30.6437
L20.0317 30.5832
" />
<path d="M20.8179 31.1275
L20.6969 31.0671
" />
<path d="M20.6969 31.0671
L20.6364 30.9461
" />
<path d="M20.6364 30.9461
L20.6364 29.8575
" />
<path d="M21.4831 31.1275
L21.3621 31.0671
" />
<path d="M21.3621 31.0671
L21.3016 30.9461
" />
<path d="M21.3016 30.9461
L21.3016 29.8575
" />
<path d="M21.6645 31.2485
L22.6321 31.2485
" />
<path d="M22.7530 29.8575
L23.1763 31.1275
" />
<path d="M23.1763 31.1275
L23.5997 29.8575
" />
<path d="M24.5673 31.1275
L24.5673 30.4623
" />
<path d="M24.5673 30.4623
L24.5068 30.3413
" />
<path d="M24.5068 30.3413
L24.3859 30.2809
" />
<path d="M24.3859 30.2809
L24.1440 30.2809
" />
<path d="M24.1440 30.2809
L24.0230 30.3413
" />
<path d="M24.5673 31.0671
L24.4464 31.1275
" />
<path d="M24.4464 31.1275
L24.1440 31.1275
" />
<path d="M24.1440 31.1275
L24.0230 31.0671
" />
<path d="M24.0230 31.0671
L23.9626 30.9461
" />
<path d="M23.9626 30.9461
L23.9626 30.8251
" />
<path d="M23.9626 30.8251
L24.0230 30.7042
" />
<path d="M24.0230 30.7042
L24.1440 30.6437
" />
<path d="M24.1440 30.6437
L24.4464 30.6437
" />
<path d="M24.4464 30.6437
L24.5673 30.5832
" />
<path d="M25.3535 31.1275
L25.2325 31.0671
" />
<path d="M25.2325 31.0671
L25.1720 30.9461
" />
<path d="M25.1720 30.9461
L25.1720 29.8575
" />
<path d="M25.7163 30.2809
L26.0187 31.1275
" />
<path d="M26.0187 31.1275
L26.3210 30.2809
" />
<path d="M27.2886 31.0671
L27.1677 31.1275
" />
<path d="M27.1677 31.1275
L26.9258 31.1275
" />
<path d="M26.9258 31.1275
L26.8048 31.0671
" />
<path d="M26.8048 31.0671
L26.7444 30.9461
" />
<path d="M26.7444 30.9461
L26.7444 30.4623
" />
<path d="M26.7444 30.4623
L26.8048 30.3413
" />
<path d="M26.8048 30.3413
L26.9258 30.2809
" />
<path d="M26.9258 30.2809
L27.1677 30.2809
" />
<path d="M27.1677 30.2809
L27.2886 30.3413
" />
<path d="M27.2886 30.3413
L27.3491 30.4623
" />
<path d="M27.3491 30.4623
L27.3491 30.5832
" />
<path d="M27.3491 30.5832
L26.7444 30.7042
" />
<path d="M28.0749 31.0066
L28.1353 31.0671
" />
<path d="M28.1353 31.0671
L28.0749 31.1275
" />
<path d="M28.0749 31.1275
L28.0144 31.0671
" />
<path d="M28.0144 31.0671
L28.0749 31.0066
" />
<path d="M28.0749 31.0066
L28.0749 31.1275
" />
<path d="M27.8330 29.9180
L27.9539 29.8575
" />
<path d="M27.9539 29.8575
L28.2563 29.8575
" />
<path d="M28.2563 29.8575
L28.3772 29.9180
" />
<path d="M28.3772 29.9180
L28.4377 30.0390
" />
<path d="M28.4377 30.0390
L28.4377 30.1599
" />
<path d="M28.4377 30.1599
L28.3772 30.2809
" />
<path d="M28.3772 30.2809
L28.3168 30.3413
" />
<path d="M28.3168 30.3413
L28.1958 30.4018
" />
<path d="M28.1958 30.4018
L28.1353 30.4623
" />
<path d="M28.1353 30.4623
L28.0749 30.5832
" />
<path d="M28.0749 30.5832
L28.0749 30.6437
" />
</g></g> 
</svg>
