<?xml version="1.0" standalone="no"?>
 <!DOCTYPE svg PUBLIC "-//W3C//DTD SVG 1.1//EN" 
 "http://www.w3.org/Graphics/SVG/1.1/DTD/svg11.dtd"> 
<svg
  xmlns:svg="http://www.w3.org/2000/svg"
  xmlns="http://www.w3.org/2000/svg"
  xmlns:xlink="http://www.w3.org/1999/xlink"
  version="1.1"
  width="19.3294mm" height="22.8854mm" viewBox="0.0000 0.0000 19.3294 22.8854">
<title>SVG Image created as vent - uncovered.svg date 2024/12/16 14:50:33 </title>
  <desc>Image generated by Eeschema-SVG </desc>
<g style="fill:#000000; fill-opacity:1.0000;stroke:#000000; stroke-opacity:1.0000;
stroke-linecap:round; stroke-linejoin:round;"
 transform="translate(0 0) scale(1 1)">
<path style="fill:#840000; fill-opacity:1.0000; 
stroke:#840000; stroke-width:0.1000; stroke-opacity:1; 
stroke-linecap:round; stroke-linejoin:round;fill-rule:evenodd;"
d="M 12.6647,9.9569
11.6647,9.7069
11.6647,10.2069
Z" /> 
</g>
<g style="fill:none; 
stroke:#840000; stroke-width:0.1524; stroke-opacity:1; 
stroke-linecap:round; stroke-linejoin:round;">
<path d="M12.6647 9.9569
L9.6647 9.9569
" />
</g>
<g style="fill:none; 
stroke:#006464; stroke-width:0.1588; stroke-opacity:1; 
stroke-linecap:round; stroke-linejoin:round;">
<text x="9.6647" y="20.5920"
textLength="5.3629" font-size="1.6933" lengthAdjust="spacingAndGlyphs"
text-anchor="middle" opacity="0" stroke-opacity="0">Vent?</text>
<g class="stroked-text"><desc>Vent?</desc>
<path d="M7.2154 19.2662
L7.6387 20.5362
" />
<path d="M7.6387 20.5362
L8.0621 19.2662
" />
<path d="M8.9692 20.4758
L8.8483 20.5362
" />
<path d="M8.8483 20.5362
L8.6064 20.5362
" />
<path d="M8.6064 20.5362
L8.4854 20.4758
" />
<path d="M8.4854 20.4758
L8.4250 20.3548
" />
<path d="M8.4250 20.3548
L8.4250 19.8710
" />
<path d="M8.4250 19.8710
L8.4854 19.7500
" />
<path d="M8.4854 19.7500
L8.6064 19.6896
" />
<path d="M8.6064 19.6896
L8.8483 19.6896
" />
<path d="M8.8483 19.6896
L8.9692 19.7500
" />
<path d="M8.9692 19.7500
L9.0297 19.8710
" />
<path d="M9.0297 19.8710
L9.0297 19.9919
" />
<path d="M9.0297 19.9919
L8.4250 20.1129
" />
<path d="M9.5740 19.6896
L9.5740 20.5362
" />
<path d="M9.5740 19.8105
L9.6345 19.7500
" />
<path d="M9.6345 19.7500
L9.7555 19.6896
" />
<path d="M9.7555 19.6896
L9.9369 19.6896
" />
<path d="M9.9369 19.6896
L10.0578 19.7500
" />
<path d="M10.0578 19.7500
L10.1183 19.8710
" />
<path d="M10.1183 19.8710
L10.1183 20.5362
" />
<path d="M10.5416 19.6896
L11.0254 19.6896
" />
<path d="M10.7230 19.2662
L10.7230 20.3548
" />
<path d="M10.7230 20.3548
L10.7835 20.4758
" />
<path d="M10.7835 20.4758
L10.9045 20.5362
" />
<path d="M10.9045 20.5362
L11.0254 20.5362
" />
<path d="M11.6302 20.4153
L11.6906 20.4758
" />
<path d="M11.6906 20.4758
L11.6302 20.5362
" />
<path d="M11.6302 20.5362
L11.5697 20.4758
" />
<path d="M11.5697 20.4758
L11.6302 20.4153
" />
<path d="M11.6302 20.4153
L11.6302 20.5362
" />
<path d="M11.3883 19.3267
L11.5092 19.2662
" />
<path d="M11.5092 19.2662
L11.8116 19.2662
" />
<path d="M11.8116 19.2662
L11.9325 19.3267
" />
<path d="M11.9325 19.3267
L11.9930 19.4477
" />
<path d="M11.9930 19.4477
L11.9930 19.5686
" />
<path d="M11.9930 19.5686
L11.9325 19.6896
" />
<path d="M11.9325 19.6896
L11.8721 19.7500
" />
<path d="M11.8721 19.7500
L11.7511 19.8105
" />
<path d="M11.7511 19.8105
L11.6906 19.8710
" />
<path d="M11.6906 19.8710
L11.6302 19.9919
" />
<path d="M11.6302 19.9919
L11.6302 20.0524
" />
</g></g> 
</svg>
